<svg xmlns="http://www.w3.org/2000/svg" xmlns:xlink="http://www.w3.org/1999/xlink" width="162" height="162" viewBox="0 0 162 162">
  <defs>
    <clipPath id="clip-Artboard_2">
      <rect width="162" height="162"/>
    </clipPath>
  </defs>
  <g id="Artboard_2" data-name="Artboard – 2" clip-path="url(#clip-Artboard_2)">
    <path id="Path_1087" data-name="Path 1087" d="M18.245,5.186c13.7,0,23.484-3.479,31.095-10.872A40.613,40.613,0,0,0,61.3-31.127H34.989c-.87,7.611-6.523,13.917-16.309,13.917C6.5-17.211-1.107-28.3-1.107-43.522c0-15,6.306-26.311,19.353-26.311,9.133,0,14.569,5.654,15.874,12.612H60.213c-1.087-10.872-6.089-20.44-14.352-26.746-7.176-5.219-16.309-8.48-27.4-8.48-28.268,0-46.969,20.875-46.969,48.926S-9.805,5.186,18.245,5.186Zm-.652,21.745c-38.271,0-66.974-29.79-66.974-69.583,0-40.01,28.7-69.8,66.974-69.8,38.053,0,66.756,29.79,66.756,69.8C84.349-2.859,55.646,26.931,17.593,26.931Zm0,11.307c44.794,0,80.021-34.357,80.021-80.89S62.387-123.76,17.593-123.76-62.645-89.186-62.645-42.652-27.2,38.238,17.593,38.238Z" transform="translate(63.494 123.762)"/>
  </g>
</svg>
