<svg width="18" height="18" viewBox="0 0 18 18" fill="none" xmlns="http://www.w3.org/2000/svg">
<path fill-rule="evenodd" clip-rule="evenodd" d="M15 3.03595L9.51482 3.03595V14.0881L13.6698 9.93311L14.5392 10.8026L8.89578 16.4458L3.2524 10.8026L4.12185 9.93311L8.286 14.0973V3.03595L2.72714 3.03595V1.80713L15 1.80713V3.03595Z" fill="white"/>
<path d="M9.51482 3.03595V2.97595H9.45482V3.03595H9.51482ZM15 3.03595V3.09595H15.06V3.03595H15ZM9.51482 14.0881H9.45482V14.2329L9.55725 14.1305L9.51482 14.0881ZM13.6698 9.93311L13.7122 9.89068L13.6698 9.84825L13.6274 9.89068L13.6698 9.93311ZM14.5392 10.8026L14.5816 10.845L14.624 10.8026L14.5816 10.7601L14.5392 10.8026ZM8.89578 16.4458L8.85335 16.4883L8.89578 16.5307L8.9382 16.4883L8.89578 16.4458ZM3.2524 10.8026L3.20997 10.7601L3.16754 10.8026L3.20997 10.845L3.2524 10.8026ZM4.12185 9.93311L4.16428 9.89068L4.12185 9.84825L4.07942 9.89068L4.12185 9.93311ZM8.286 14.0973L8.24357 14.1398L8.346 14.2422V14.0973H8.286ZM8.286 3.03595H8.346V2.97595H8.286V3.03595ZM2.72714 3.03595H2.66714V3.09595H2.72714V3.03595ZM2.72714 1.80713V1.74713H2.66714V1.80713H2.72714ZM15 1.80713H15.06V1.74713H15V1.80713ZM9.51482 3.09595L15 3.09595V2.97595L9.51482 2.97595V3.09595ZM9.57482 14.0881V3.03595L9.45482 3.03595V14.0881H9.57482ZM9.55725 14.1305L13.7122 9.97553L13.6274 9.89068L9.47239 14.0457L9.55725 14.1305ZM13.6274 9.97553L14.4967 10.845L14.5816 10.7601L13.7122 9.89068L13.6274 9.97553ZM14.4967 10.7601L8.85335 16.4034L8.9382 16.4883L14.5816 10.845L14.4967 10.7601ZM8.9382 16.4034L3.29482 10.7601L3.20997 10.845L8.85335 16.4883L8.9382 16.4034ZM3.29482 10.845L4.16428 9.97553L4.07942 9.89068L3.20997 10.7601L3.29482 10.845ZM4.07942 9.97553L8.24357 14.1398L8.32842 14.0549L4.16428 9.89068L4.07942 9.97553ZM8.226 3.03595V14.0973H8.346V3.03595H8.226ZM2.72714 3.09595L8.286 3.09595V2.97595L2.72714 2.97595V3.09595ZM2.66714 1.80713V3.03595H2.78714V1.80713H2.66714ZM15 1.74713L2.72714 1.74713V1.86713L15 1.86713V1.74713ZM15.06 3.03595V1.80713H14.94V3.03595H15.06Z" fill="white"/>
</svg>
