<svg width="23" height="18" viewBox="0 0 23 18" fill="none" xmlns="http://www.w3.org/2000/svg">
<path fill-rule="evenodd" clip-rule="evenodd" d="M6.66547 2.59654C4.31875 2.59654 2.41637 4.49893 2.41637 6.84564V11.1443C2.41637 13.491 4.31875 15.3934 6.66547 15.3934H7.11729C9.464 15.3934 11.3664 13.491 11.3664 11.1443V9.63689H6.97266V8.22053H11.3664V6.84564C11.3664 4.49893 9.464 2.59654 7.11729 2.59654H6.66547ZM12.7828 11.1443V9.63689H19.7978L16.1992 13.2355L17.2007 14.237L22.5044 8.93336L17.2007 3.62971L16.1992 4.63123L19.7885 8.22053H12.7828V6.84564C12.7828 3.71669 10.2462 1.18018 7.11729 1.18018H6.66547C3.53652 1.18018 1 3.71669 1 6.84564V11.1443C1 14.2733 3.53652 16.8098 6.66547 16.8098H7.11729C10.2462 16.8098 12.7828 14.2733 12.7828 11.1443Z" fill="white"/>
</svg>
