<?xml version="1.0" standalone="no"?>
<!DOCTYPE svg PUBLIC "-//W3C//DTD SVG 1.1//EN" "http://www.w3.org/Graphics/SVG/1.1/DTD/svg11.dtd" >
<svg xmlns="http://www.w3.org/2000/svg" xmlns:xlink="http://www.w3.org/1999/xlink" version="1.1">
<metadata>
Created by FontForge 20170731 at Wed Sep 27 14:17:24 2023
 By Aleksey,,,
Copyright (c) 2011 - 2012 Linotype Corp., www.linotype.com. All rights reserved. This font software may not be reproduced, modified, disclosed or transferred without the express written approval of Linotype Corp. Neue Haas Grotesk is a trademark of Linotype Corp. registered in the U.S. Patent and Trademark Office and may be registered in certain other jurisdictions in the name of Linotype Corp. or its licensee Linotype GmbH. This typeface is original artwork of Christian Schwartz. The design may be protected in certain jurisdictions.
</metadata>
<defs>
<font id="NHaasGroteskDSPro-66MdIt" horiz-adv-x="1007" >
  <font-face 
    font-family="NeueHaasGroteskDisp Pro Md"
    font-weight="500"
    font-style="italic"
    font-stretch="normal"
    units-per-em="2048"
    panose-1="2 11 6 4 2 2 2 9 2 4"
    ascent="1579"
    descent="-469"
    x-height="1051"
    cap-height="1464"
    bbox="-426 -539 2374 1905"
    underline-thickness="40"
    underline-position="-312"
    slope="-11"
    unicode-range="U+0020-FB04"
  />
<missing-glyph 
 />
    <glyph glyph-name="f_f" unicode="ff" horiz-adv-x="1232" 
d="M500 858l-166 -858h-273l166 858h-137l37 193h137l23 116q56 288 362 291q71 0 148 -12l-41 -213q-44 6 -78 6q-57 0 -85 -24t-40 -85l-16 -79h307l24 125q56 289 363 292q71 0 147 -12l-41 -213q-43 6 -77 6q-57 0 -85 -24.5t-40 -85.5l-19 -88h182l-36 -193h-183
l-166 -858h-272l166 858h-307z" />
    <glyph glyph-name="fi" unicode="fi" horiz-adv-x="1103" 
d="M90 858l37 193h137l25 125q56 289 362 292q71 0 148 -12l-41 -213q-44 6 -78 6q-57 0 -85 -24.5t-40 -85.5l-18 -88h182l-37 -193h-182l-166 -858h-273l166 858h-137zM639 0l203 1051h274l-203 -1051h-274zM874 1214l48 250h274l-47 -250h-275z" />
    <glyph glyph-name="fl" unicode="fl" horiz-adv-x="1112" 
d="M90 858l37 193h137l25 125q56 289 362 292q71 0 148 -12l-41 -213q-44 6 -78 6q-57 0 -85 -24.5t-40 -85.5l-18 -88h182l-37 -193h-182l-166 -858h-273l166 858h-137zM643 0l283 1464h274l-282 -1464h-275z" />
    <glyph glyph-name="f_f_i" unicode="ffi" horiz-adv-x="1683" 
d="M500 858l-166 -858h-273l166 858h-137l37 193h137l23 116q56 288 362 291q71 0 148 -12l-41 -213q-44 6 -78 6q-57 0 -85 -24t-40 -85l-16 -79h307l24 125q56 289 363 292q71 0 147 -12l-41 -213q-43 6 -77 6q-57 0 -85 -24.5t-40 -85.5l-19 -88h182l-36 -193h-183
l-166 -858h-272l166 858h-307zM1219 0l202 1051h275l-203 -1051h-274zM1454 1214l47 250h275l-47 -250h-275z" />
    <glyph glyph-name="f_f_l" unicode="ffl" horiz-adv-x="1691" 
d="M500 858l-166 -858h-273l166 858h-137l37 193h137l23 116q56 288 362 291q71 0 148 -12l-41 -213q-44 6 -78 6q-57 0 -85 -24t-40 -85l-16 -79h307l24 125q56 289 363 292q71 0 147 -12l-41 -213q-43 6 -77 6q-57 0 -85 -24.5t-40 -85.5l-19 -88h182l-36 -193h-183
l-166 -858h-272l166 858h-307zM1223 0l282 1464h275l-283 -1464h-274z" />
    <glyph glyph-name=".notdef" 
 />
    <glyph glyph-name=".null" horiz-adv-x="0" 
 />
    <glyph glyph-name=".null" horiz-adv-x="0" 
 />
    <glyph glyph-name="nonmarkingreturn" horiz-adv-x="682" 
 />
    <glyph glyph-name="space" unicode=" " horiz-adv-x="356" 
 />
    <glyph glyph-name="exclam" unicode="!" horiz-adv-x="512" 
d="M168 428l63 713l62 323h287l-66 -344l-213 -692h-133zM8 0l58 297h294l-57 -297h-295z" />
    <glyph glyph-name="quotedbl" unicode="&#x22;" horiz-adv-x="770" 
d="M530 950l99 514h239l-98 -514h-240zM164 950l98 514h240l-99 -514h-239z" />
    <glyph glyph-name="numbersign" unicode="#" horiz-adv-x="1150" 
d="M150 836l63 215h193l100 354h186l-98 -354h217l100 354h187l-101 -354h197l-61 -215h-195l-68 -248h195l-61 -213h-195l-102 -375h-189l105 375h-217l-105 -375h-188l104 375h-194l61 213h195l65 248h-194zM532 836l-67 -248h219l66 248h-218z" />
    <glyph glyph-name="dollar" unicode="$" horiz-adv-x="1191" 
d="M569 -25h-14l-33 -174h-121l35 183q-205 28 -323.5 142t-108.5 312h268q-11 -201 207 -233l78 405q-78 29 -133 54.5t-107 60.5t-83 74.5t-49.5 93t-18.5 119.5q0 198 142 310t378 112h31l24 120h121l-26 -133q84 -15 151 -47t118.5 -83t78 -126.5t22.5 -169.5h-266
q3 77 -34.5 129t-112.5 74l-70 -356q106 -36 178 -73.5t126.5 -87t80 -114t25.5 -147.5q0 -109 -43 -194.5t-119.5 -140t-178.5 -82.5t-223 -28zM852 385q0 63 -36 101t-146 81l-72 -368q110 3 182 50.5t72 135.5zM434 1049q-1 -57 36.5 -92t139.5 -74l66 331
q-46 0 -86.5 -8.5t-76.5 -27t-57 -51.5t-22 -78z" />
    <glyph glyph-name="percent" unicode="%" horiz-adv-x="1646" 
d="M428 616q-150 0 -233.5 93.5t-83.5 234.5q0 134 48 245t139.5 178t209.5 67q153 0 236 -94t83 -234q0 -134 -46.5 -244.5t-139 -178t-213.5 -67.5zM262 0l1016 1405h176l-1016 -1405h-176zM322 932q0 -160 110 -160q60 0 103 53t62 130.5t19 166.5q0 64 -26 110t-86 46
q-59 0 -102 -53.5t-61.5 -129.5t-18.5 -163zM1204 -33q-150 0 -233.5 93.5t-83.5 234.5q0 206 110 347.5t287 141.5q153 0 236.5 -93.5t83.5 -233.5q0 -134 -47 -244.5t-139.5 -178t-213.5 -67.5zM1098 283q0 -160 110 -160q60 0 103.5 53t62.5 130.5t19 166.5
q0 64 -26.5 110t-86.5 46q-59 0 -102 -53.5t-61.5 -129.5t-18.5 -163z" />
    <glyph glyph-name="ampersand" unicode="&#x26;" horiz-adv-x="1304" 
d="M475 -31q-98 0 -182 25.5t-148 74t-100.5 127t-36.5 177.5q0 85 32 159t88.5 129t123 95t145.5 69q-80 131 -80 267q0 160 110.5 261t283.5 101q68 0 131.5 -19t118 -56t87.5 -100.5t33 -145.5q0 -134 -83.5 -223t-235.5 -156l158 -269q56 100 100 267h244
q-61 -280 -215 -486l161 -266h-317l-51 84q-172 -115 -367 -115zM297 391q0 -90 54.5 -144t148.5 -54q119 0 233 81l-227 377q-88 -35 -148.5 -101.5t-60.5 -158.5zM705 1245q-53 0 -89 -40t-36 -101q0 -87 75 -189q76 38 120 86t44 119q0 51 -29 88t-85 37z" />
    <glyph glyph-name="quotesingle" unicode="'" horiz-adv-x="405" 
d="M164 950l98 514h240l-99 -514h-239z" />
    <glyph glyph-name="parenleft" unicode="(" horiz-adv-x="696" 
d="M291 -268q-156 315 -156 649q0 632 506 1163h248q-223 -260 -352 -569t-129 -629q0 -315 108 -614h-225z" />
    <glyph glyph-name="parenright" unicode=")" horiz-adv-x="696" 
d="M446 1544q156 -315 156 -649q0 -632 -506 -1163h-248q223 260 352.5 569t129.5 629q0 313 -109 614h225z" />
    <glyph glyph-name="asterisk" unicode="*" horiz-adv-x="786" 
d="M309 807l-108 100l176 185l-197 84l70 137l201 -88l45 239h155l-45 -250l221 58l27 -144l-229 -55l100 -194l-139 -80l-101 200z" />
    <glyph glyph-name="plus" unicode="+" horiz-adv-x="1146" 
d="M78 571l39 201h397l80 418h211l-80 -418h397l-39 -201h-397l-82 -417h-211l82 417h-397z" />
    <glyph glyph-name="comma" unicode="," horiz-adv-x="440" 
d="M-96 -340l20 102q164 62 191 238h-146l58 297h295l-58 -291q-32 -161 -124 -242t-236 -104z" />
    <glyph glyph-name="hyphen" unicode="-" horiz-adv-x="684" 
d="M39 391l45 232h547l-45 -232h-547z" />
    <glyph glyph-name="period" unicode="." horiz-adv-x="440" 
d="M-31 0l58 297h295l-58 -297h-295z" />
    <glyph glyph-name="slash" unicode="/" horiz-adv-x="833" 
d="M-76 0l836 1464h229l-835 -1464h-230z" />
    <glyph glyph-name="zero" unicode="0" horiz-adv-x="1273" 
d="M594 -33q-245 0 -380.5 156.5t-135.5 419.5q0 133 28 261.5t86 242.5t138 200t191.5 136.5t240.5 50.5q236 0 368 -157t132 -419q0 -133 -23.5 -258t-76 -241t-128.5 -202.5t-189.5 -138t-250.5 -51.5zM362 530q0 -327 242 -327q82 0 148 45.5t107 116t68.5 161.5
t38.5 176.5t11 167.5q0 328 -238 328q-59 0 -110.5 -24.5t-89 -66.5t-68.5 -98t-50.5 -117t-33 -126.5t-19.5 -124t-6 -111.5z" />
    <glyph glyph-name="one" unicode="1" horiz-adv-x="770" 
d="M244 0l188 979h-311l37 184q156 5 255.5 62t143.5 188h238l-275 -1413h-276z" />
    <glyph glyph-name="two" unicode="2" horiz-adv-x="1101" 
d="M942 0h-991q17 104 56 191t98 154t118 115t137 97q43 27 105.5 64.5t95 57.5t77.5 50t67.5 50t49.5 48.5t39 55.5t20.5 61t8.5 74q0 78 -45.5 128t-128.5 50q-102 0 -167.5 -69t-94.5 -218h-260q29 249 172.5 386t372.5 137q195 0 317.5 -107.5t122.5 -294.5
q0 -83 -24 -155t-59.5 -123t-95 -102.5t-109.5 -84.5t-126 -76q-25 -14 -86.5 -48.5t-93.5 -54t-76.5 -48.5t-72 -56.5t-43.5 -54.5h659z" />
    <glyph glyph-name="three" unicode="3" horiz-adv-x="1142" 
d="M543 -31q-130 0 -232 39t-164.5 107.5t-90.5 161t-19 200.5h266q-8 -132 54 -209.5t196 -77.5q112 0 175 64t63 174q0 100 -61 155.5t-179 55.5h-62l41 209h88q102 0 167 52t65 151q0 75 -48 122.5t-136 47.5q-111 0 -175.5 -69t-84.5 -183h-267q25 205 169.5 334
t369.5 129q208 0 330 -99t122 -256q0 -128 -75 -215t-205 -123v-4q223 -72 223 -311q0 -200 -148 -327.5t-382 -127.5z" />
    <glyph glyph-name="four" unicode="4" horiz-adv-x="1198" 
d="M584 0l57 309h-637l59 297l785 813h276l-172 -891h211l-45 -219h-211l-57 -309h-266zM279 535v-7h407l102 537h-4z" />
    <glyph glyph-name="five" unicode="5" horiz-adv-x="1144" 
d="M502 -31q-103 0 -193.5 28.5t-160 82.5t-110 138t-40.5 188h276q6 -93 69 -149t173 -56q121 0 202 80t81 217q0 108 -59.5 169.5t-168.5 61.5q-131 0 -223 -92h-250l228 766h845l-45 -232h-639l-94 -315h4q115 100 279 100q182 0 298 -115.5t116 -308.5
q0 -169 -79 -298.5t-212 -197t-297 -67.5z" />
    <glyph glyph-name="six" unicode="6" horiz-adv-x="1177" 
d="M582 -31q-242 0 -377.5 153t-132.5 408q2 206 74 415.5t206 332.5q167 154 398 154q87 0 161 -20.5t134 -62.5t97 -113.5t44 -166.5h-264q-6 73 -54 112.5t-135 39.5q-129 0 -216.5 -110.5t-131.5 -295.5h4q128 148 332 148q174 0 294.5 -123t119.5 -326
q-2 -235 -157.5 -390t-395.5 -155zM340 436q0 -111 65.5 -180.5t174.5 -69.5q125 0 204.5 83.5t79.5 222.5q0 112 -59 181.5t-172 69.5q-127 0 -210 -85t-83 -222z" />
    <glyph glyph-name="seven" unicode="7" horiz-adv-x="1069" 
d="M154 0q29 148 86.5 296.5t126.5 270.5t154 238t161.5 201.5t155.5 158.5v4h-674l45 234h983l-43 -223q-115 -102 -218.5 -223.5t-199 -269t-168 -324.5t-110.5 -363h-299z" />
    <glyph glyph-name="eight" unicode="8" horiz-adv-x="1202" 
d="M567 -31q-80 0 -155.5 14t-147 46t-125 79t-85.5 119t-31 160q1 149 86 247.5t231 141.5v6q-73 39 -111.5 105.5t-38.5 146.5q0 95 43 172t115.5 125.5t165 74.5t195.5 26q76 0 144.5 -12t131.5 -39.5t109 -68t73 -102t27 -137.5q0 -102 -66 -189t-182 -132v-7
q91 -39 142 -122t51 -187q0 -113 -46 -203.5t-125 -147t-181.5 -86.5t-219.5 -30zM307 408q0 -103 74 -159t194 -56q122 0 200.5 63t78.5 184q0 104 -73.5 159.5t-188.5 55.5q-53 0 -102.5 -14.5t-91 -43t-66.5 -77.5t-25 -112zM463 1030q-1 -90 58.5 -136t160.5 -46
q104 0 170 48.5t66 145.5q0 86 -58.5 132.5t-154.5 46.5q-103 0 -172 -48.5t-70 -142.5z" />
    <glyph glyph-name="nine" unicode="9" horiz-adv-x="1202" 
d="M528 -31q-89 0 -168.5 22t-145.5 65t-107 115t-48 165h271q10 -66 64.5 -111t144.5 -45q141 0 221 106t123 308h-4q-144 -148 -322 -148q-195 0 -317.5 115.5t-122.5 312.5q0 163 77 291.5t206 197.5t284 69q239 0 375.5 -140t136.5 -409q0 -191 -57.5 -394.5
t-159.5 -324.5q-165 -195 -451 -195zM393 911q-1 -115 63.5 -178t180.5 -63q128 0 209.5 77.5t81.5 217.5q0 114 -63.5 181.5t-178.5 67.5q-128 0 -210 -84t-83 -219z" />
    <glyph glyph-name="colon" unicode=":" horiz-adv-x="450" 
d="M94 616l58 297h294l-57 -297h-295zM-25 0l58 297h295l-58 -297h-295z" />
    <glyph glyph-name="semicolon" unicode=";" horiz-adv-x="450" 
d="M94 616l58 297h294l-57 -297h-295zM-90 -340l20 102q164 62 191 238h-146l58 297h295l-58 -291q-32 -161 -124 -242t-236 -104z" />
    <glyph glyph-name="less" unicode="&#x3c;" 
d="M848 162l-762 360l47 238l897 348l-47 -242l-473 -170q-36 -13 -86.5 -29t-83.5 -26l-33 -10v-4q106 -35 176 -64l410 -172z" />
    <glyph glyph-name="equal" unicode="=" horiz-adv-x="1132" 
d="M141 735l39 197h936l-39 -197h-936zM66 340l38 197h936l-39 -197h-935z" />
    <glyph glyph-name="greater" unicode="&#x3e;" 
d="M201 1108l762 -360l-48 -238l-897 -348l48 241l473 170l202 66v4q-106 35 -176 64l-409 172z" />
    <glyph glyph-name="question" unicode="?" horiz-adv-x="1083" 
d="M367 428q14 75 36.5 132.5t44 93.5t60.5 70.5t65.5 52t79.5 48.5q4 2 13 7q40 21 60.5 33t52 36.5t47.5 47t29 57t13 75.5q0 86 -52.5 131t-143.5 45q-109 0 -187 -65.5t-100 -192.5h-266q40 226 191 359t374 133q130 0 233 -42.5t166.5 -132t63.5 -214.5
q0 -136 -65.5 -230.5t-202.5 -177.5q-24 -14 -67 -39t-58 -34t-42.5 -28.5t-37 -31.5t-24.5 -33.5t-22.5 -44.5t-13.5 -55h-247zM262 0l57 297h295l-57 -297h-295z" />
    <glyph glyph-name="at" unicode="@" horiz-adv-x="1816" 
d="M784 160q-149 0 -236 92t-87 252q0 77 18 155.5t56 151t90.5 129t127.5 90t162 33.5q170 0 228 -152h4l29 129h256l-129 -561q-21 -79 -5.5 -121.5t74.5 -42.5q61 0 109.5 39t75.5 102t41 133.5t14 141.5q0 142 -46 252t-129.5 180t-198.5 106t-255 36q-150 0 -281 -52.5
t-229 -148.5t-154.5 -241t-56.5 -320q0 -281 158.5 -447t453.5 -166q200 0 383 76l54 -135q-192 -94 -443 -94q-234 0 -410.5 88t-277 262t-100.5 414q0 191 68 361t186 293.5t287.5 195t363.5 71.5q130 0 248 -29.5t218.5 -90t174 -145.5t115 -203t41.5 -257
q0 -77 -14 -154.5t-46.5 -154t-81 -135t-123.5 -95t-167 -36.5q-223 0 -277 164h-6q-54 -77 -130 -121.5t-153 -44.5zM866 356q57 0 102.5 31.5t72 82.5t40 108.5t13.5 115.5q0 80 -36 127t-104 47q-57 0 -101.5 -31t-70.5 -82.5t-39.5 -110.5t-13.5 -122q0 -73 36.5 -119.5
t100.5 -46.5z" />
    <glyph glyph-name="A" unicode="A" horiz-adv-x="1298" 
d="M891 0l-41 313h-506l-147 -313h-297l749 1464h303l242 -1464h-303zM649 954l-198 -415h370l-51 411q-4 37 -8.5 95.5t-7.5 98.5l-2 40h-4q-62 -152 -99 -230z" />
    <glyph glyph-name="B" unicode="B" horiz-adv-x="1310" 
d="M8 0l283 1464h588q191 0 303 -90q114 -90 114 -264q0 -128 -70 -216.5t-200 -125.5v-6q228 -62 225 -305q0 -178 -135 -307q-156 -150 -432 -150h-676zM428 655l-80 -411h338q126 0 197 56.5t71 168.5q0 91 -55.5 138.5t-150.5 47.5h-320zM471 872h303q238 0 238 199
q0 72 -42.5 113t-129.5 41h-301z" />
    <glyph glyph-name="C" unicode="C" horiz-adv-x="1378" 
d="M678 -31q-190 0 -328.5 81t-208 221t-69.5 321q0 169 53.5 329t150.5 288t247.5 206t330.5 78q114 0 207.5 -29.5t166 -88t115.5 -154.5t50 -222h-289q-21 246 -273 246q-92 0 -169.5 -38.5t-130.5 -102.5t-89.5 -148.5t-53.5 -175.5t-17 -184q0 -80 17 -146.5t54 -121.5
t102.5 -86t155.5 -31q127 0 215 68.5t127 191.5h289q-67 -251 -229 -375q-90 -68 -189.5 -97.5t-234.5 -29.5z" />
    <glyph glyph-name="D" unicode="D" horiz-adv-x="1349" 
d="M8 0l283 1464h465q276 0 436 -159.5t160 -460.5q0 -209 -52.5 -361.5t-160.5 -267.5q-95 -101 -242 -158t-313 -57h-576zM350 256h236q227 0 348 153t121 427q0 183 -85 278.5t-251 95.5h-184z" />
    <glyph glyph-name="E" unicode="E" horiz-adv-x="1214" 
d="M8 0l283 1464h1020l-47 -247h-727l-64 -330h639l-47 -242h-639l-78 -399h744l-48 -246h-1036z" />
    <glyph glyph-name="F" unicode="F" horiz-adv-x="1163" 
d="M8 0l283 1464h1001l-47 -250h-708l-70 -354h616l-49 -252h-616l-117 -608h-293z" />
    <glyph glyph-name="G" unicode="G" horiz-adv-x="1456" 
d="M1057 0l24 180h-4q-73 -101 -181 -156t-241 -55q-263 0 -423 164.5t-160 458.5q0 136 36 268.5t106 246.5t165 200.5t222 136.5t269 49q115 -1 212 -30.5t174 -87.5t124.5 -153t55.5 -218h-285q-12 115 -92 180t-211 65q-91 0 -169 -36.5t-133.5 -99.5t-95.5 -146.5
t-59.5 -177.5t-19.5 -193q0 -187 87 -288t261 -101q158 0 267.5 93.5t135.5 250.5h-346l43 227h606l-149 -778h-219z" />
    <glyph glyph-name="H" unicode="H" horiz-adv-x="1345" 
d="M8 0l283 1464h293l-111 -575h539l110 575h293l-282 -1464h-293l125 647h-539l-125 -647h-293z" />
    <glyph glyph-name="I" unicode="I" horiz-adv-x="518" 
d="M10 0l283 1464h293l-283 -1464h-293z" />
    <glyph glyph-name="J" unicode="J" horiz-adv-x="1036" 
d="M424 -25q-104 0 -187 25.5t-143.5 78t-83.5 142.5t0 209l23 115h262l-23 -117q-20 -106 19.5 -161.5t136.5 -55.5q90 0 135.5 48t63.5 144l204 1061h291l-209 -1085q-35 -184 -154 -294t-335 -110z" />
    <glyph glyph-name="K" unicode="K" horiz-adv-x="1327" 
d="M920 0l-324 705l-193 -170l-102 -535h-293l283 1464h293l-113 -585l629 585h360l-639 -573l418 -891h-319z" />
    <glyph glyph-name="L" unicode="L" horiz-adv-x="1095" 
d="M8 0l283 1464h293l-236 -1218h656l-48 -246h-948z" />
    <glyph glyph-name="M" unicode="M" horiz-adv-x="1640" 
d="M8 0l283 1464h407l56 -723q7 -91 11.5 -195t5.5 -162l1 -58h2q66 197 150 379l352 759h422l-283 -1464h-272l162 840q11 56 29 133t30 125l12 49h-4q-64 -158 -121 -281l-403 -866h-279l-69 864q-4 48 -6.5 119t-3.5 117l-1 47h-4q-24 -188 -47 -307l-162 -840h-268z" />
    <glyph glyph-name="N" unicode="N" horiz-adv-x="1353" 
d="M8 0l283 1464h293l299 -817q15 -39 29.5 -92.5t21.5 -86.5l8 -34h4q23 152 43 254l150 776h284l-282 -1464h-279l-313 815q-16 43 -31.5 94t-23.5 81l-7 30h-4q-23 -154 -43 -256l-147 -764h-285z" />
    <glyph glyph-name="O" unicode="O" horiz-adv-x="1460" 
d="M709 -33q-287 0 -462 169t-175 460q0 142 31.5 274t96 245.5t154.5 197.5t214 132t268 48q285 0 457.5 -174.5t172.5 -464.5q0 -140 -30 -269.5t-93 -242t-151.5 -196t-212.5 -131.5t-270 -48zM371 602q0 -85 19.5 -154.5t60.5 -124t109.5 -84.5t160.5 -30
q95 0 172.5 39.5t127.5 103t83.5 148t48 171t14.5 175.5q0 117 -35.5 206t-116 144t-198.5 55q-94 0 -170.5 -39.5t-127 -104t-84.5 -150t-49 -174.5t-15 -181z" />
    <glyph glyph-name="P" unicode="P" horiz-adv-x="1277" 
d="M8 0l283 1464h563q214 0 340.5 -114.5t126.5 -317.5q0 -232 -151 -367t-400 -135h-356l-103 -530h-303zM545 1208l-84 -438h295q112 0 187 62.5t75 185.5q0 90 -52 140t-151 50h-270z" />
    <glyph glyph-name="Q" unicode="Q" horiz-adv-x="1460" 
d="M709 -33q-287 0 -462 169t-175 460q0 142 31.5 274t96 245.5t154.5 197.5t214 132t268 48q285 0 457.5 -174.5t172.5 -464.5q0 -188 -57 -358t-164 -293l127 -123l-168 -166l-143 139q-153 -86 -352 -86zM371 602q0 -85 19.5 -154.5t60.5 -124t109.5 -84.5t160.5 -30
q78 0 151 27l-135 133l168 163l150 -145q112 176 112 459q0 117 -35.5 206t-116 144t-198.5 55q-94 0 -170.5 -39.5t-127 -104t-84.5 -150t-49 -174.5t-15 -181z" />
    <glyph glyph-name="R" unicode="R" horiz-adv-x="1304" 
d="M8 0l283 1464h590q212 0 327 -106.5t115 -282.5q0 -153 -85 -250t-237 -135v-6q181 -57 181 -252q0 -38 -8.5 -150.5t-8.5 -172.5q0 -81 29 -95v-14h-283q-22 25 -22 109q0 47 6 144t6 138q0 197 -221 197h-266l-113 -588h-293zM539 1227l-80 -412h305q115 0 190.5 56.5
t75.5 170.5q0 90 -49 137.5t-145 47.5h-297z" />
    <glyph glyph-name="S" unicode="S" horiz-adv-x="1253" 
d="M598 -33q-103 0 -193.5 18t-167 56t-130 94.5t-81 137.5t-22.5 180h285q-7 -132 78 -190t239 -58q119 0 200 47.5t81 142.5q0 75 -64 122t-254 116q-107 39 -176 73t-126.5 82.5t-84 111.5t-26.5 147q0 208 145 326t389 118q92 0 173 -15.5t152 -50.5t120.5 -87
t76.5 -130t23 -174h-281q5 107 -66.5 165t-207.5 58q-60 0 -112.5 -14.5t-92.5 -55.5t-41 -102q-1 -30 9 -52t26.5 -39t58 -36.5t82.5 -35t121 -43.5q115 -39 193.5 -79.5t138 -93t87.5 -119.5t28 -153q0 -150 -76 -257t-205 -158.5t-299 -51.5z" />
    <glyph glyph-name="T" unicode="T" horiz-adv-x="1198" 
d="M164 1217l47 247h1139l-47 -247h-424l-236 -1217h-293l236 1217h-422z" />
    <glyph glyph-name="U" unicode="U" horiz-adv-x="1314" 
d="M612 -25q-137 0 -243 33.5t-177 98.5t-97.5 169t-0.5 238l185 950h292l-188 -972q-57 -281 235 -281q243 0 293 244l195 1009h291l-201 -1036q-43 -221 -189 -337t-395 -116z" />
    <glyph glyph-name="V" unicode="V" horiz-adv-x="1222" 
d="M397 0l-221 1464h303l96 -829l23 -256h4q54 135 103 237l401 848h299l-741 -1464h-267z" />
    <glyph glyph-name="W" unicode="W" horiz-adv-x="1826" 
d="M326 0l-146 1464h297l43 -727q2 -38 3.5 -85.5t2 -88t0.5 -75v-54.5v-20h4q68 182 123 321l291 729h277l34 -727l9 -323h4q74 192 129 325l303 725h289l-656 -1464h-272l-43 788q-3 52 -4.5 120t-1.5 110v41h-4q-48 -150 -97 -271l-317 -788h-268z" />
    <glyph glyph-name="X" unicode="X" horiz-adv-x="1275" 
d="M-88 0l598 782l-281 682h314l174 -473h4l350 473h315l-542 -712l315 -752h-328l-186 543h-4l-397 -543h-332z" />
    <glyph glyph-name="Y" unicode="Y" horiz-adv-x="1243" 
d="M360 0l111 573l-287 891h301l125 -420q12 -40 25.5 -95t20.5 -89l8 -35h4q70 119 133 211l297 428h317l-653 -899l-109 -565h-293z" />
    <glyph glyph-name="Z" unicode="Z" horiz-adv-x="1241" 
d="M-47 0l41 215l958 1004v6h-712l45 239h1063l-45 -239l-928 -975v-6h747l-45 -244h-1124z" />
    <glyph glyph-name="bracketleft" unicode="[" horiz-adv-x="759" 
d="M-27 -268l353 1812h575l-43 -213h-311l-266 -1386h311l-43 -213h-576z" />
    <glyph glyph-name="backslash" unicode="\" horiz-adv-x="942" 
d="M643 0l-471 1464h207l471 -1464h-207z" />
    <glyph glyph-name="bracketright" unicode="]" horiz-adv-x="759" 
d="M-102 -268l43 213h313l266 1386h-313l43 213h577l-352 -1812h-577z" />
    <glyph glyph-name="asciicircum" unicode="^" horiz-adv-x="901" 
d="M88 877l420 587h229l219 -587h-245l-121 352h-4l-248 -352h-250z" />
    <glyph glyph-name="underscore" unicode="_" horiz-adv-x="851" 
d="M-174 -344l33 170h860l-33 -170h-860z" />
    <glyph glyph-name="grave" unicode="`" 
d="M555 1182l-174 288h299l84 -288h-209z" />
    <glyph glyph-name="a" unicode="a" horiz-adv-x="1052" 
d="M641 0q-17 33 -14 115h-4q-29 -31 -52.5 -51.5t-59.5 -43t-81.5 -34t-99.5 -11.5q-63 0 -121 18.5t-106.5 54.5t-77.5 97.5t-29 139.5q0 81 26 141.5t67 96.5t106.5 60t128 34.5t149.5 17.5q59 5 89.5 8t67.5 9.5t54 14.5t33.5 21t22 31.5t5.5 44.5q0 57 -42.5 87
t-120.5 30q-179 0 -215 -150h-246q27 163 149 254.5t322 91.5q101 0 180.5 -23t137.5 -71t80 -130.5t1 -193.5l-98 -503q-20 -102 8 -146v-10h-260zM260 309q0 -69 43.5 -106t114.5 -37q102 0 171 54.5t85 131.5l33 166q-59 -28 -201 -53q-14 -3 -51.5 -8t-57.5 -8.5
t-50.5 -14.5t-46 -25t-28 -40t-12.5 -60z" />
    <glyph glyph-name="b" unicode="b" horiz-adv-x="1144" 
d="M600 -31q-106 0 -190.5 45t-126.5 140h-4l-29 -154h-264l282 1464h275l-105 -536h6q123 151 301 151q171 0 269 -122t98 -320q0 -130 -31.5 -247.5t-92.5 -212.5t-161 -151.5t-227 -56.5zM346 442q0 -105 53.5 -173t161.5 -68q71 0 125 37.5t84 100t44.5 132.5t14.5 145
q0 49 -9.5 90t-31 76t-60.5 54.5t-93 19.5q-59 0 -108 -25.5t-82 -67.5t-55.5 -96.5t-33 -111.5t-10.5 -113z" />
    <glyph glyph-name="c" unicode="c" horiz-adv-x="1052" 
d="M502 -31q-98 0 -181.5 28t-148.5 83t-102 146t-37 208q0 97 25 191t74 176t117 144t160.5 98t196.5 36q187 0 306.5 -95t129.5 -290h-268q-8 78 -51.5 121t-124.5 43q-73 0 -130.5 -38.5t-91.5 -102.5t-51.5 -138.5t-17.5 -152.5q0 -108 51 -172t160 -64q165 0 219 181
h267q-43 -189 -176 -295.5t-326 -106.5z" />
    <glyph glyph-name="d" unicode="d" horiz-adv-x="1153" 
d="M426 -31q-178 0 -283.5 125t-105.5 336q0 97 22.5 191.5t68 177t107.5 145t147 99t181 36.5q104 0 179.5 -44t115.5 -126h6l107 555h274l-282 -1464h-265l21 115h-4q-58 -74 -126 -110t-163 -36zM315 446q0 -114 47.5 -181.5t153.5 -67.5q71 0 128.5 36.5t92 95.5
t52.5 127.5t18 139.5q0 118 -53.5 189t-159.5 71q-69 0 -124.5 -38t-88 -99t-49.5 -131.5t-17 -141.5z" />
    <glyph glyph-name="e" unicode="e" horiz-adv-x="1089" 
d="M1036 449h-731q0 -131 50 -199t165 -68q158 0 215 131h271q-50 -149 -162 -235q-133 -106 -328 -109q-104 0 -190.5 29.5t-152.5 87.5t-103 152t-37 215q0 115 41 226.5t112.5 200.5t179 144t230.5 55q160 0 264 -67q117 -75 161.5 -223t14.5 -340zM590 866
q-102 0 -165.5 -62.5t-94.5 -164.5h452q3 100 -44.5 163.5t-147.5 63.5z" />
    <glyph glyph-name="f" unicode="f" horiz-adv-x="653" 
d="M90 858l37 193h137l25 125q56 289 362 292q71 0 148 -12l-41 -213q-44 6 -78 6q-57 0 -85 -24.5t-40 -85.5l-18 -88h182l-37 -193h-182l-166 -858h-273l166 858h-137z" />
    <glyph glyph-name="g" unicode="g" horiz-adv-x="1128" 
d="M446 -358q-81 0 -153.5 18.5t-134 56t-102 102.5t-50.5 150h279q25 -119 168 -119q95 0 151 59t76 163l20 106h-6q-59 -59 -115.5 -87t-142.5 -28q-177 0 -286 119.5t-109 309.5q0 115 36 221t100.5 187.5t162.5 130t213 48.5q101 0 179 -41t116 -114h4l25 127h264
l-195 -1006q-36 -183 -149 -287q-64 -60 -147 -88t-204 -28zM516 285q125 0 202 101.5t75 238.5q-2 105 -56.5 169t-152.5 64q-123 0 -197 -100.5t-74 -245.5q0 -102 52.5 -164.5t150.5 -62.5z" />
    <glyph glyph-name="h" unicode="h" horiz-adv-x="1097" 
d="M543 1464l-107 -559h6q68 92 139 133t179 41q158 0 237.5 -116t44.5 -299l-127 -664h-274l123 631q20 104 -17.5 159.5t-125.5 55.5q-96 0 -161.5 -76t-88.5 -197l-111 -573h-274l282 1464h275z" />
    <glyph glyph-name="i" unicode="i" horiz-adv-x="450" 
d="M-14 0l202 1051h275l-203 -1051h-274zM221 1214l47 250h275l-47 -250h-275z" />
    <glyph glyph-name="j" unicode="j" horiz-adv-x="450" 
d="M-68 -346q-94 0 -168 20l37 197q83 -3 124 14.5t52 77.5l211 1088h275l-217 -1117q-18 -88 -43.5 -137.5t-65.5 -81.5q-78 -61 -205 -61zM221 1214l47 250h275l-47 -250h-275z" />
    <glyph glyph-name="k" unicode="k" horiz-adv-x="1071" 
d="M678 0l-201 475l-155 -139l-64 -336h-272l282 1464h273l-160 -821l412 408h335l-438 -412l293 -639h-305z" />
    <glyph glyph-name="l" unicode="l" horiz-adv-x="458" 
d="M-10 0l282 1464h275l-283 -1464h-274z" />
    <glyph glyph-name="m" unicode="m" horiz-adv-x="1662" 
d="M-14 0l202 1051h265l-29 -154h6q116 182 295 182q101 0 164 -53.5t88 -146.5h4q131 200 348 200q150 0 233 -113t44 -313l-125 -653h-275l125 645q18 96 -16.5 148.5t-108.5 52.5q-86 0 -143.5 -70.5t-81.5 -195.5l-111 -580h-274l125 645q18 96 -16.5 148.5t-108.5 52.5
q-86 0 -143.5 -70.5t-81.5 -195.5l-111 -580h-274z" />
    <glyph glyph-name="n" unicode="n" horiz-adv-x="1097" 
d="M457 1051l-31 -166h6q71 101 145.5 147.5t182.5 46.5q158 0 237.5 -116t44.5 -299l-127 -664h-274l123 631q20 104 -17.5 159.5t-125.5 55.5q-94 0 -160.5 -76.5t-89.5 -196.5l-111 -573h-274l202 1051h269z" />
    <glyph glyph-name="o" unicode="o" horiz-adv-x="1148" 
d="M528 -31q-104 0 -193 32t-156 92t-105.5 154t-38.5 212q0 124 42.5 237t118.5 197.5t188 135t243 50.5q136 0 244.5 -54t174.5 -164t66 -261q0 -126 -41.5 -240.5t-115.5 -201t-185 -138t-242 -51.5zM309 442q0 -75 22 -133t74 -95.5t130 -37.5q76 0 136.5 38.5
t95.5 102.5t53 138t18 153q0 113 -56 188.5t-170 75.5q-61 0 -112 -25.5t-86 -67.5t-59 -98t-35 -116.5t-11 -122.5z" />
    <glyph glyph-name="p" unicode="p" horiz-adv-x="1150" 
d="M-82 -344l270 1395h265l-25 -129h6q124 157 322 157q172 0 267 -127.5t95 -330.5q0 -92 -18 -182t-59 -175.5t-99.5 -150.5t-147 -104.5t-194.5 -39.5q-100 0 -182.5 44.5t-124.5 133.5h-4l-96 -491h-275zM344 440q0 -103 54.5 -172t160.5 -69q74 0 130 36.5t87.5 97.5
t46.5 130.5t15 146.5q0 104 -48.5 175t-152.5 71q-93 0 -162 -65.5t-100 -158t-31 -192.5z" />
    <glyph glyph-name="q" unicode="q" horiz-adv-x="1153" 
d="M420 -31q-182 0 -282.5 118.5t-100.5 342.5q0 98 22 192t66.5 176.5t106.5 145t147.5 99t183.5 36.5q105 0 185.5 -43.5t119.5 -124.5h6l27 140h264l-270 -1395h-274l90 467h-4q-46 -72 -121.5 -113t-165.5 -41zM315 449q0 -55 8.5 -96.5t29.5 -77.5t60.5 -55t96.5 -19
q91 0 161 59.5t104 149t34 190.5q0 121 -53.5 190.5t-155.5 69.5q-58 0 -106.5 -25.5t-81 -67t-55 -95.5t-32.5 -110.5t-10 -112.5z" />
    <glyph glyph-name="r" unicode="r" horiz-adv-x="712" 
d="M453 1051l-33 -168h6q106 180 276 180q50 0 78 -8l-47 -242h-6q-305 40 -369 -301l-98 -512h-274l202 1051h265z" />
    <glyph glyph-name="s" unicode="s" horiz-adv-x="966" 
d="M459 -31q-98 0 -179.5 21.5t-146 65t-103.5 116t-46 168.5h260q8 -74 61 -122t154 -48q79 0 125.5 28.5t46.5 86.5q0 27 -14.5 47.5t-48 38t-71 31.5t-100.5 35q-6 2 -10 3q-69 23 -116 45.5t-93 58t-69 86.5t-23 118q0 156 113 243.5t297 87.5q182 0 299.5 -90.5
t130.5 -257.5h-252q-10 67 -57 109.5t-130 42.5q-65 0 -111 -25t-46 -80q0 -15 5 -27.5t18 -23t26 -18.5t39 -17.5t45.5 -16t58 -19t64.5 -21.5q64 -22 111.5 -45.5t92.5 -60t69 -89t24 -118.5q0 -168 -112 -260.5t-312 -92.5z" />
    <glyph glyph-name="t" unicode="t" horiz-adv-x="659" 
d="M94 866l35 185h133l64 327h268l-64 -327h177l-35 -185h-176l-107 -547q-12 -61 7 -87.5t71 -26.5l82 4l-39 -205q-70 -6 -125 -6q-165 0 -233 68.5t-37 226.5l112 573h-133z" />
    <glyph glyph-name="u" unicode="u" horiz-adv-x="1085" 
d="M627 0l28 150h-6q-64 -90 -139 -134.5t-174 -44.5q-167 0 -245.5 112t-41.5 304l127 664h275l-123 -631q-43 -217 131 -217q95 0 160 73t90 201l110 574h275l-203 -1051h-264z" />
    <glyph glyph-name="v" unicode="v" horiz-adv-x="978" 
d="M279 0l-175 1051h279l66 -531l18 -188h4q27 74 76 174l254 545h274l-534 -1051h-262z" />
    <glyph glyph-name="w" unicode="w" horiz-adv-x="1490" 
d="M227 0l-118 1051h266l39 -488l10 -201h4q45 117 82 203l211 486h233l58 -486q4 -39 7.5 -90t4.5 -82l2 -31h4q45 115 80 201l197 488h270l-469 -1051h-246l-55 516l-19 205h-4q-45 -121 -82 -205l-227 -516h-248z" />
    <glyph glyph-name="x" unicode="x" horiz-adv-x="1044" 
d="M-94 0l461 561l-234 490h297l127 -320h4l223 320h299l-409 -519l258 -532h-305l-142 348h-4l-270 -348h-305z" />
    <glyph glyph-name="y" unicode="y" horiz-adv-x="999" 
d="M-27 -344l43 217h88q89 0 136 49t47 146q0 74 -35 235l-152 748h287l72 -478l30 -237h5q51 139 96 237l217 478h278l-542 -1102q-80 -163 -165 -228t-233 -65h-172z" />
    <glyph glyph-name="z" unicode="z" horiz-adv-x="944" 
d="M-55 0l41 209l620 620v7h-467l43 215h793l-43 -220l-608 -606v-6h524l-43 -219h-860z" />
    <glyph glyph-name="braceleft" unicode="{" horiz-adv-x="759" 
d="M549 -268h-39q-224 0 -319 94.5t-52 308.5l51 252q16 81 -12.5 120.5t-122.5 45.5l39 199q96 3 139.5 37t57.5 112l51 277q21 115 57.5 189t92.5 112t118.5 51.5t153.5 13.5h137l-43 -217h-84q-83 0 -118 -35t-54 -135l-59 -321q-16 -86 -55 -126.5t-111 -66.5v-6
q59 -30 79.5 -82t2.5 -141l-60 -299q-18 -93 18.5 -129.5t127.5 -36.5h47z" />
    <glyph glyph-name="bar" unicode="|" horiz-adv-x="505" 
d="M209 -268v1812h168v-1812h-168z" />
    <glyph glyph-name="braceright" unicode="}" horiz-adv-x="759" 
d="M250 1544h39q224 0 318.5 -94.5t51.5 -308.5l-49 -244q-16 -81 12.5 -120.5t122.5 -45.5l-38 -199q-96 -3 -139.5 -37t-57.5 -112l-53 -285q-20 -111 -56.5 -184t-92.5 -112.5t-120 -54.5t-153 -15h-137l43 217h84q83 0 118 35t54 135l61 330q16 86 55 126t111 66v6
q-59 30 -79.5 82t-2.5 141l57 291q18 93 -18 129.5t-127 36.5h-47z" />
    <glyph glyph-name="asciitilde" unicode="~" horiz-adv-x="858" 
d="M72 512q19 160 89.5 239.5t172.5 79.5q49 0 102 -19.5t97 -39.5t71 -20q36 0 54 17.5t26 59.5h180q-37 -311 -248 -311q-64 0 -159.5 39t-122.5 39q-60 0 -80 -84h-182z" />
    <glyph glyph-name="uni00A0" unicode="&#xa0;" horiz-adv-x="356" 
 />
    <glyph glyph-name="exclamdown" unicode="&#xa1;" horiz-adv-x="512" 
d="M371 776l-64 -713l-61 -323h-287l66 344l213 692h133zM530 1204l-57 -297h-295l58 297h294z" />
    <glyph glyph-name="cent" unicode="&#xa2;" horiz-adv-x="1052" 
d="M502 -31h-2l-33 -174h-121l35 187q-158 31 -253 144.5t-95 307.5q0 96 24.5 189t73 174.5t115 144t157 99t193.5 38.5l27 135h120l-28 -143q143 -26 230.5 -119.5t96.5 -257.5h-268q-13 117 -102 154l-129 -660q143 16 194 183h267q-43 -189 -176 -295.5t-326 -106.5z
M307 426q0 -174 119 -221l127 651q-82 -16 -139.5 -85.5t-82 -158.5t-24.5 -186z" />
    <glyph glyph-name="sterling" unicode="&#xa3;" horiz-adv-x="1167" 
d="M104 768h99q-43 123 -43 207q0 140 69.5 245t187 158.5t263.5 53.5q250 0 369 -119q131 -125 114 -383h-274q14 276 -211 276q-102 0 -163.5 -60t-61.5 -175q0 -63 36 -203h304l-35 -174h-234q2 -12 2 -35q0 -163 -207 -305l3 -4q4 1 26.5 9t30.5 10.5t27 7.5t35 6.5
t34 1.5q64 0 155 -30t146 -30q103 0 207 88l107 -211q-141 -131 -320 -131q-60 0 -120.5 15t-102 33.5t-97.5 33.5t-108 15q-38 0 -80 -14t-67 -28t-70 -42l-117 213q47 29 87 62t78.5 76.5t60.5 96t22 107.5q0 19 -4 55h-182z" />
    <glyph glyph-name="currency" unicode="&#xa4;" horiz-adv-x="1064" 
d="M563 299q-109 0 -188 39l-135 -137l-172 168l131 131q-52 96 -52 215q0 117 52 213l-131 135l172 168l133 -139q84 41 190 41q105 0 189 -41l135 139l172 -168l-135 -135q53 -92 53 -213q0 -119 -51 -213l133 -133l-172 -168l-135 137q-86 -39 -189 -39zM563 487
q85 0 130.5 61.5t45.5 166.5t-45.5 167t-130.5 62q-86 0 -134 -62t-48 -167t48 -166.5t134 -61.5z" />
    <glyph glyph-name="yen" unicode="&#xa5;" horiz-adv-x="1226" 
d="M127 541l23 118h303l-283 746h305l131 -408q11 -35 23.5 -80t18.5 -73l7 -27h4q60 100 115 178l293 410h313l-569 -746h301l-22 -118h-351l-26 -131h350l-23 -119h-350l-55 -291h-268l55 291h-344l22 119h344l27 131h-344z" />
    <glyph glyph-name="brokenbar" unicode="&#xa6;" horiz-adv-x="430" 
d="M131 -268v803h170v-803h-170zM131 768v776h170v-776h-170z" />
    <glyph glyph-name="section" unicode="&#xa7;" horiz-adv-x="1191" 
d="M1130 545q0 -121 -65.5 -193t-210.5 -125q80 -95 80 -211q0 -170 -121.5 -268t-308.5 -98q-216 0 -339 110.5t-120 313.5h264q2 -97 49.5 -152t143.5 -55q71 0 114 34.5t43 100.5q0 55 -53.5 99t-206.5 126q-169 91 -243 178t-74 205q0 229 276 303q-55 76 -55 174
q0 85 32.5 152t88 108.5t126.5 63t152 21.5q69 0 129 -12t113.5 -39t91.5 -68t61 -102.5t25 -139.5h-248q-5 72 -48 113t-121 41q-61 0 -102.5 -26.5t-41.5 -82.5q0 -48 46 -87.5t179 -110.5q67 -36 109 -60.5t92 -61.5t77.5 -71.5t46.5 -81t19 -98.5zM649 692
q-108 58 -174 107q-57 -16 -92 -52.5t-35 -87.5q0 -37 12 -62t57 -61t136 -87q129 -76 170 -105q65 14 103 48.5t38 82.5q0 63 -45 105.5t-170 111.5z" />
    <glyph glyph-name="dieresis" unicode="&#xa8;" 
d="M721 1190l47 233h254l-47 -233h-254zM276 1190l48 233h254l-48 -233h-254z" />
    <glyph glyph-name="copyright" unicode="&#xa9;" horiz-adv-x="1669" 
d="M868 -35q-209 0 -381 98.5t-272 273.5t-100 390q0 161 58.5 303.5t159 243t240 159t295.5 58.5q209 0 381 -99t271.5 -274.5t99.5 -390.5t-99.5 -390t-271.5 -273.5t-381 -98.5zM868 66q133 0 250.5 50.5t201.5 137.5t132.5 210t48.5 263q0 187 -82.5 338.5t-227.5 237.5
t-323 86q-134 0 -251.5 -50.5t-202 -138t-133 -210.5t-48.5 -263t48.5 -263t133 -210t202 -137.5t251.5 -50.5zM874 272q-195 0 -316.5 130t-121.5 331q0 202 121.5 333.5t319.5 131.5q165 0 268.5 -90.5t118.5 -233.5h-222q-11 60 -55 97t-113 37q-99 0 -152.5 -76.5
t-53.5 -198.5q0 -120 57.5 -196t151.5 -76q75 0 120.5 42t53.5 107h221q-9 -140 -109 -237q-104 -101 -289 -101z" />
    <glyph glyph-name="ordfeminine" unicode="&#xaa;" horiz-adv-x="970" 
d="M381 463q-78 0 -142.5 27t-107.5 89t-43 150q0 70 22 122.5t57 85t91.5 54t113 31.5t132.5 16q50 4 77 7t60 8.5t49 12.5t31.5 18.5t21 28t5.5 38.5q0 46 -36 73t-100 27q-148 0 -178 -125h-233q25 145 132 225.5t290 80.5q165 0 262 -64q138 -96 96 -309l-84 -436
q-18 -99 6 -129v-11h-244q-18 27 -14 103h-4q-110 -123 -260 -123zM471 637q84 0 142 43.5t73 112.5l29 141q-54 -24 -174 -43q-5 -1 -32 -5t-35.5 -6t-32 -7.5t-33 -11t-26 -16t-23.5 -22.5t-13 -30t-6 -39q0 -58 35.5 -87.5t95.5 -29.5z" />
    <glyph glyph-name="guillemotleft" unicode="&#xab;" horiz-adv-x="901" 
d="M702 121l-235 280l51 271l342 264l-53 -270l-191 -146v-4l134 -145zM319 121l-235 280l51 271l342 264l-53 -270l-191 -146v-4l134 -145z" />
    <glyph glyph-name="logicalnot" unicode="&#xac;" horiz-adv-x="1034" 
d="M92 655l41 201h854l-108 -559h-211l67 358h-643z" />
    <glyph glyph-name="uni00AD" unicode="&#xad;" horiz-adv-x="684" 
d="M39 391l45 232h547l-45 -232h-547z" />
    <glyph glyph-name="registered" unicode="&#xae;" horiz-adv-x="1069" 
d="M627 500q-207 0 -348.5 141.5t-141.5 353.5t141.5 354t348.5 142q135 0 247 -64t177 -178t65 -254q0 -212 -141 -353.5t-348 -141.5zM627 575q173 0 286 119t113 301q0 180 -113 299t-286 119q-172 0 -286 -119t-114 -299q0 -181 114 -300.5t286 -119.5zM418 737v525h254
q80 0 134 -41.5t54 -112.5q0 -94 -90 -125v-4q35 -10 52.5 -32.5t25.5 -61.5q4 -25 6.5 -60.5t5.5 -54t12 -22.5v-11h-139q-4 2 -7 10t-5 22t-3.5 26.5t-3.5 32t-3 30.5q-6 70 -82 70h-70v-191h-141zM559 1149v-119h88q74 0 74 60q0 59 -74 59h-88z" />
    <glyph glyph-name="macron" unicode="&#xaf;" 
d="M365 1212l36 195h574l-37 -195h-573z" />
    <glyph glyph-name="degree" unicode="&#xb0;" horiz-adv-x="716" 
d="M477 856q-123 0 -211 83.5t-88 203.5q0 121 88.5 206t210.5 85q123 0 211 -85t88 -206t-87.5 -204t-211.5 -83zM477 985q68 0 110 45.5t42 112.5q0 68 -42.5 115t-109.5 47t-108 -47t-41 -115t41 -113t108 -45z" />
    <glyph glyph-name="plusminus" unicode="&#xb1;" horiz-adv-x="1146" 
d="M92 653l39 201h399l64 336h211l-64 -336h396l-39 -201h-398l-63 -336h-211l63 336h-397zM-33 0l39 201h1006l-39 -201h-1006z" />
    <glyph glyph-name="twosuperior" unicode="&#xb2;" horiz-adv-x="716" 
d="M66 651q17 106 69.5 176t132.5 125q51 34 132.5 81t111.5 67q43 29 62.5 56.5t19.5 70.5q0 40 -24 64t-66 24q-53 0 -90 -39.5t-52 -112.5h-198q21 152 118.5 235t241.5 83q119 0 201 -63t82 -175q0 -91 -49.5 -153t-134.5 -115q-23 -15 -122.5 -70.5t-129.5 -87.5h368
l-32 -166h-641z" />
    <glyph glyph-name="threesuperior" unicode="&#xb3;" horiz-adv-x="727" 
d="M424 633q-150 0 -241 79t-85 216h201q-2 -65 30.5 -102.5t98.5 -37.5q56 0 88.5 30.5t32.5 84.5q0 101 -121 101h-45l29 141h53q55 0 90 25t35 73q0 40 -27 63t-71 23q-54 0 -88.5 -33t-45.5 -86h-196q19 121 111.5 196t232.5 75q129 0 210 -58.5t81 -160.5
q-1 -66 -43.5 -115t-110.5 -72v-2q119 -49 119 -174q0 -83 -48 -144.5t-123.5 -91.5t-166.5 -30z" />
    <glyph glyph-name="acute" unicode="&#xb4;" 
d="M969 1470l-258 -288h-215l151 288h322z" />
    <glyph glyph-name="mu" unicode="&#xb5;" horiz-adv-x="1095" 
d="M385 -29q-79 0 -119 43h-6l-70 -358h-272l268 1395h275l-123 -631q-43 -217 131 -217q95 0 160 73t90 201l110 574h275l-203 -1051h-264l29 150h-7q-65 -91 -129 -135t-145 -44z" />
    <glyph glyph-name="paragraph" unicode="&#xb6;" horiz-adv-x="1144" 
d="M565 698h-63q-170 0 -263.5 87.5t-93.5 236.5q0 100 37.5 189t112.5 153q112 100 323 100h596l-282 -1464h-182l251 1298h-139l-252 -1298h-180z" />
    <glyph glyph-name="periodcentered" unicode="&#xb7;" horiz-adv-x="440" 
d="M66 498l57 297h295l-58 -297h-294z" />
    <glyph glyph-name="cedilla" unicode="&#xb8;" 
d="M299 -393q-136 0 -221 59l43 66q64 -31 139 -31q45 0 82 16t37 56q0 24 -21 37.5t-53 13.5q-34 0 -78 -14l-24 45l149 145h119l-125 -102v-4q79 11 137.5 -21t59.5 -100q0 -44 -21 -77t-56.5 -52t-77.5 -28t-89 -9z" />
    <glyph glyph-name="onesuperior" unicode="&#xb9;" horiz-adv-x="505" 
d="M217 651l100 512h-182l27 142q202 10 258 165h168l-160 -819h-211z" />
    <glyph glyph-name="ordmasculine" unicode="&#xba;" horiz-adv-x="1032" 
d="M555 455q-191 0 -316 111t-124 315q0 149 63.5 274t183 201t269.5 76q89 0 167.5 -27t140.5 -78t98 -132.5t36 -182.5q1 -151 -61.5 -277.5t-182.5 -203t-274 -76.5zM559 647q64 0 114.5 34t79.5 90t43.5 119.5t14.5 129.5q0 93 -46 157t-138 64q-64 0 -114 -34.5
t-79 -90.5t-44 -120.5t-15 -131.5q0 -96 45 -156.5t139 -60.5z" />
    <glyph glyph-name="guillemotright" unicode="&#xbb;" horiz-adv-x="901" 
d="M197 936l235 -281l-51 -270l-342 -264l53 270l191 146v4l-133 145zM580 936l235 -281l-51 -270l-342 -264l53 270l191 146v4l-134 145z" />
    <glyph glyph-name="onequarter" unicode="&#xbc;" horiz-adv-x="1587" 
d="M1161 0l33 172h-381l35 186l465 463h209l-97 -495h121l-28 -154h-123l-33 -172h-201zM104 0l1237 1464h185l-1237 -1464h-185zM229 651l101 512h-183l27 142q202 10 258 165h168l-160 -819h-211zM1008 330v-4h217l53 270h-4z" />
    <glyph glyph-name="onehalf" unicode="&#xbd;" horiz-adv-x="1607" 
d="M229 651l101 512h-183l27 142q202 10 258 165h168l-160 -819h-211zM70 0l1237 1464h184l-1237 -1464h-184zM866 0q17 106 69.5 176t133.5 125q51 34 132.5 81t111.5 67q43 29 62.5 56t19.5 70q0 40 -24 64.5t-66 24.5q-53 0 -90 -39.5t-52 -112.5h-198
q21 152 118.5 234.5t241.5 82.5q119 0 201 -62.5t82 -174.5q0 -90 -49.5 -152t-135.5 -116q-23 -15 -122.5 -70.5t-129.5 -87.5h369l-33 -166h-641z" />
    <glyph glyph-name="threequarters" unicode="&#xbe;" horiz-adv-x="1679" 
d="M1253 0l33 172h-381l35 186l465 463h209l-96 -495h120l-28 -154h-123l-33 -172h-201zM430 633q-150 0 -241 79t-85 216h201q-2 -65 30.5 -102.5t98.5 -37.5q56 0 88.5 30.5t32.5 84.5q0 101 -121 101h-45l29 141h53q55 0 90 25t35 73q0 40 -27 63t-71 23q-54 0 -88 -33
t-45 -86h-197q19 121 111.5 196t232.5 75q129 0 210 -58.5t81 -160.5q-1 -66 -43.5 -115t-110.5 -72v-2q119 -49 119 -174q0 -83 -48 -144.5t-123.5 -91.5t-166.5 -30zM238 0l1237 1464h184l-1237 -1464h-184zM1100 330v-4h217l53 270h-4z" />
    <glyph glyph-name="questiondown" unicode="&#xbf;" horiz-adv-x="1058" 
d="M729 776q-10 -54 -24.5 -98.5t-28.5 -77t-37.5 -62.5t-40 -48.5t-48 -41t-50.5 -34.5t-58 -35q-4 -2 -13 -7q-40 -21 -60.5 -33t-52 -36.5t-47.5 -47t-29 -57t-13 -75.5q0 -86 53 -131t144 -45q109 0 187 65.5t100 192.5h266q-40 -226 -191 -359t-374 -133
q-130 0 -233 42.5t-166.5 132t-63.5 214.5q0 136 65.5 230.5t202.5 177.5q23 14 59.5 35t52 30.5t40 25.5t35.5 26.5t26 27t22.5 33t15.5 38.5t13 50h248zM834 1204l-58 -297h-295l58 297h295z" />
    <glyph glyph-name="Agrave" unicode="&#xc0;" horiz-adv-x="1298" 
d="M891 0l-41 313h-506l-147 -313h-297l749 1464h303l242 -1464h-303zM649 954l-198 -415h370l-51 411q-4 37 -8.5 95.5t-7.5 98.5l-2 40h-4q-62 -152 -99 -230zM715 1542l-148 256h297l60 -256h-209z" />
    <glyph glyph-name="Aacute" unicode="&#xc1;" horiz-adv-x="1298" 
d="M891 0l-41 313h-506l-147 -313h-297l749 1464h303l242 -1464h-303zM649 954l-198 -415h370l-51 411q-4 37 -8.5 95.5t-7.5 98.5l-2 40h-4q-62 -152 -99 -230zM1141 1798l-228 -256h-213l123 256h318z" />
    <glyph glyph-name="Acircumflex" unicode="&#xc2;" horiz-adv-x="1298" 
d="M891 0l-41 313h-506l-147 -313h-297l749 1464h303l242 -1464h-303zM649 954l-198 -415h370l-51 411q-4 37 -8.5 95.5t-7.5 98.5l-2 40h-4q-62 -152 -99 -230zM469 1542l227 234h295l154 -234h-232l-75 121h-4l-119 -121h-246z" />
    <glyph glyph-name="Atilde" unicode="&#xc3;" horiz-adv-x="1298" 
d="M891 0l-41 313h-506l-147 -313h-297l749 1464h303l242 -1464h-303zM649 954l-198 -415h370l-51 411q-4 37 -8.5 95.5t-7.5 98.5l-2 40h-4q-62 -152 -99 -230zM936 1546q-53 0 -127.5 34t-95.5 34q-22 0 -39 -17.5t-23 -46.5h-145q18 117 73 179.5t132 62.5q42 0 86.5 -18
t80 -36t56.5 -18q27 0 42 16t25 48h146q-18 -109 -72 -173.5t-139 -64.5z" />
    <glyph glyph-name="Adieresis" unicode="&#xc4;" horiz-adv-x="1298" 
d="M891 0l-41 313h-506l-147 -313h-297l749 1464h303l242 -1464h-303zM649 954l-198 -415h370l-51 411q-4 37 -8.5 95.5t-7.5 98.5l-2 40h-4q-62 -152 -99 -230zM879 1542l47 234h258l-47 -234h-258zM471 1542l47 234h258l-47 -234h-258z" />
    <glyph glyph-name="Aring" unicode="&#xc5;" horiz-adv-x="1298" 
d="M891 0l-41 313h-506l-147 -313h-297l749 1464h303l242 -1464h-303zM823 1520q-82 0 -140 55.5t-58 136.5q0 80 58 136.5t140 56.5t140.5 -57t58.5 -136q0 -81 -58.5 -136.5t-140.5 -55.5zM649 954l-198 -415h370l-51 411q-4 37 -8.5 95.5t-7.5 98.5l-2 40h-4
q-62 -152 -99 -230zM823 1616q39 0 65.5 28t26.5 68t-26.5 68t-65.5 28t-65.5 -28t-26.5 -68t26.5 -68t65.5 -28z" />
    <glyph glyph-name="AE" unicode="&#xc6;" horiz-adv-x="1927" 
d="M735 0l60 313h-435l-155 -313h-299l753 1464h1364l-47 -247h-712l-64 -330h625l-47 -242h-625l-78 -399h729l-47 -246h-1022zM809 1217l-342 -689h371l131 689h-160z" />
    <glyph glyph-name="Ccedilla" unicode="&#xc7;" horiz-adv-x="1378" 
d="M549 -393q-136 0 -221 59l43 66q64 -31 139 -31q45 0 82 16t37 56q0 24 -21 37.5t-53 13.5q-34 0 -78 -14l-24 45l125 120q-240 30 -373 197.5t-133 419.5q0 169 53.5 329t150.5 288t247.5 206t330.5 78q114 0 207.5 -29.5t166 -88t115.5 -154.5t50 -222h-289
q-21 246 -273 246q-92 0 -169.5 -38.5t-130.5 -102.5t-89.5 -148.5t-53.5 -175.5t-17 -184q0 -80 17 -146.5t54 -121.5t102.5 -86t155.5 -31q127 0 215 68.5t127 191.5h289q-67 -251 -229 -375q-89 -68 -187 -96.5t-233 -30.5l-86 -71v-4q79 11 137.5 -21t59.5 -100
q0 -44 -21 -77t-56.5 -52t-77.5 -28t-89 -9z" />
    <glyph glyph-name="Egrave" unicode="&#xc8;" horiz-adv-x="1214" 
d="M8 0l283 1464h1020l-47 -247h-727l-64 -330h639l-47 -242h-639l-78 -399h744l-48 -246h-1036zM735 1542l-147 256h297l59 -256h-209z" />
    <glyph glyph-name="Eacute" unicode="&#xc9;" horiz-adv-x="1214" 
d="M8 0l283 1464h1020l-47 -247h-727l-64 -330h639l-47 -242h-639l-78 -399h744l-48 -246h-1036zM1157 1798l-227 -256h-213l123 256h317z" />
    <glyph glyph-name="Ecircumflex" unicode="&#xca;" horiz-adv-x="1214" 
d="M8 0l283 1464h1020l-47 -247h-727l-64 -330h639l-47 -242h-639l-78 -399h744l-48 -246h-1036zM492 1542l227 234h295l153 -234h-231l-76 121h-4l-119 -121h-245z" />
    <glyph glyph-name="Edieresis" unicode="&#xcb;" horiz-adv-x="1214" 
d="M8 0l283 1464h1020l-47 -247h-727l-64 -330h639l-47 -242h-639l-78 -399h744l-48 -246h-1036zM895 1542l47 234h258l-47 -234h-258zM487 1542l48 234h258l-48 -234h-258z" />
    <glyph glyph-name="Igrave" unicode="&#xcc;" horiz-adv-x="518" 
d="M10 0l283 1464h293l-283 -1464h-293zM356 1542l-147 256h297l59 -256h-209z" />
    <glyph glyph-name="Iacute" unicode="&#xcd;" horiz-adv-x="518" 
d="M10 0l283 1464h293l-283 -1464h-293zM764 1798l-227 -256h-213l122 256h318z" />
    <glyph glyph-name="Icircumflex" unicode="&#xce;" horiz-adv-x="518" 
d="M10 0l283 1464h293l-283 -1464h-293zM98 1542l228 234h295l153 -234h-231l-76 121h-4l-119 -121h-246z" />
    <glyph glyph-name="Idieresis" unicode="&#xcf;" horiz-adv-x="518" 
d="M10 0l283 1464h293l-283 -1464h-293zM522 1542l47 234h258l-47 -234h-258zM115 1542l47 234h258l-47 -234h-258z" />
    <glyph glyph-name="Eth" unicode="&#xd0;" horiz-adv-x="1370" 
d="M29 0l121 625h-127l43 233h129l116 606h465q276 0 436 -159.5t160 -460.5q0 -209 -52.5 -361.5t-160.5 -267.5q-95 -101 -242 -158t-313 -57h-575zM371 256h235q227 0 348 153t121 427q0 183 -85 278.5t-251 95.5h-184l-68 -352h332l-43 -233h-334z" />
    <glyph glyph-name="Ntilde" unicode="&#xd1;" horiz-adv-x="1353" 
d="M8 0l283 1464h293l299 -817q15 -39 29.5 -92.5t21.5 -86.5l8 -34h4q23 152 43 254l150 776h284l-282 -1464h-279l-313 815q-16 43 -31.5 94t-23.5 81l-7 30h-4q-23 -154 -43 -256l-147 -764h-285zM985 1546q-53 0 -127.5 34t-95.5 34q-22 0 -39 -17.5t-23 -46.5h-145
q18 117 73 179.5t132 62.5q42 0 86.5 -18t80 -36t56.5 -18q28 0 43 16t25 48h145q-18 -109 -72 -173.5t-139 -64.5z" />
    <glyph glyph-name="Ograve" unicode="&#xd2;" horiz-adv-x="1460" 
d="M709 -33q-287 0 -462 169t-175 460q0 142 31.5 274t96 245.5t154.5 197.5t214 132t268 48q285 0 457.5 -174.5t172.5 -464.5q0 -140 -30 -269.5t-93 -242t-151.5 -196t-212.5 -131.5t-270 -48zM371 602q0 -85 19.5 -154.5t60.5 -124t109.5 -84.5t160.5 -30
q95 0 172.5 39.5t127.5 103t83.5 148t48 171t14.5 175.5q0 117 -35.5 206t-116 144t-198.5 55q-94 0 -170.5 -39.5t-127 -104t-84.5 -150t-49 -174.5t-15 -181zM772 1542l-147 256h297l59 -256h-209z" />
    <glyph glyph-name="Oacute" unicode="&#xd3;" horiz-adv-x="1460" 
d="M709 -33q-287 0 -462 169t-175 460q0 142 31.5 274t96 245.5t154.5 197.5t214 132t268 48q285 0 457.5 -174.5t172.5 -464.5q0 -140 -30 -269.5t-93 -242t-151.5 -196t-212.5 -131.5t-270 -48zM371 602q0 -85 19.5 -154.5t60.5 -124t109.5 -84.5t160.5 -30
q95 0 172.5 39.5t127.5 103t83.5 148t48 171t14.5 175.5q0 117 -35.5 206t-116 144t-198.5 55q-94 0 -170.5 -39.5t-127 -104t-84.5 -150t-49 -174.5t-15 -181zM1194 1798l-227 -256h-213l123 256h317z" />
    <glyph glyph-name="Ocircumflex" unicode="&#xd4;" horiz-adv-x="1460" 
d="M709 -33q-287 0 -462 169t-175 460q0 142 31.5 274t96 245.5t154.5 197.5t214 132t268 48q285 0 457.5 -174.5t172.5 -464.5q0 -140 -30 -269.5t-93 -242t-151.5 -196t-212.5 -131.5t-270 -48zM371 602q0 -85 19.5 -154.5t60.5 -124t109.5 -84.5t160.5 -30
q95 0 172.5 39.5t127.5 103t83.5 148t48 171t14.5 175.5q0 117 -35.5 206t-116 144t-198.5 55q-94 0 -170.5 -39.5t-127 -104t-84.5 -150t-49 -174.5t-15 -181zM526 1542l228 234h295l153 -234h-231l-76 121h-4l-119 -121h-246z" />
    <glyph glyph-name="Otilde" unicode="&#xd5;" horiz-adv-x="1460" 
d="M709 -33q-287 0 -462 169t-175 460q0 142 31.5 274t96 245.5t154.5 197.5t214 132t268 48q285 0 457.5 -174.5t172.5 -464.5q0 -140 -30 -269.5t-93 -242t-151.5 -196t-212.5 -131.5t-270 -48zM371 602q0 -85 19.5 -154.5t60.5 -124t109.5 -84.5t160.5 -30
q95 0 172.5 39.5t127.5 103t83.5 148t48 171t14.5 175.5q0 117 -35.5 206t-116 144t-198.5 55q-94 0 -170.5 -39.5t-127 -104t-84.5 -150t-49 -174.5t-15 -181zM985 1546q-53 0 -127.5 34t-95.5 34q-22 0 -39 -17.5t-23 -46.5h-145q18 117 73 179.5t132 62.5q42 0 86.5 -18
t80 -36t56.5 -18q28 0 43 16t25 48h145q-18 -109 -72 -173.5t-139 -64.5z" />
    <glyph glyph-name="Odieresis" unicode="&#xd6;" horiz-adv-x="1460" 
d="M709 -33q-287 0 -462 169t-175 460q0 142 31.5 274t96 245.5t154.5 197.5t214 132t268 48q285 0 457.5 -174.5t172.5 -464.5q0 -140 -30 -269.5t-93 -242t-151.5 -196t-212.5 -131.5t-270 -48zM371 602q0 -85 19.5 -154.5t60.5 -124t109.5 -84.5t160.5 -30
q95 0 172.5 39.5t127.5 103t83.5 148t48 171t14.5 175.5q0 117 -35.5 206t-116 144t-198.5 55q-94 0 -170.5 -39.5t-127 -104t-84.5 -150t-49 -174.5t-15 -181zM942 1542l47 234h258l-47 -234h-258zM535 1542l47 234h258l-47 -234h-258z" />
    <glyph glyph-name="multiply" unicode="&#xd7;" horiz-adv-x="1144" 
d="M74 317l385 349l-277 348l156 131l272 -342l379 342l129 -144l-387 -350l277 -346l-156 -131l-272 342l-379 -342z" />
    <glyph glyph-name="Oslash" unicode="&#xd8;" horiz-adv-x="1460" 
d="M709 -33q-261 0 -435 144l-147 -156l-90 88l149 162q-114 154 -114 391q0 142 31 274t95 245.5t153 197.5t212.5 132t267.5 48q257 0 426 -143l127 137l95 -88l-133 -144q120 -160 120 -401q0 -140 -30 -269.5t-93 -242t-151.5 -196t-212.5 -131.5t-270 -48zM1169 846
q0 115 -26 192l-688 -733q87 -96 266 -96q95 0 173 39.5t128 103t84 148t48.5 171t14.5 175.5zM369 602q0 -110 22 -180l684 733q-87 96 -258 96q-94 0 -171 -39.5t-127.5 -104t-85 -150t-49.5 -174.5t-15 -181z" />
    <glyph glyph-name="Ugrave" unicode="&#xd9;" horiz-adv-x="1314" 
d="M612 -25q-137 0 -243 33.5t-177 98.5t-97.5 169t-0.5 238l185 950h292l-188 -972q-57 -281 235 -281q243 0 293 244l195 1009h291l-201 -1036q-43 -221 -189 -337t-395 -116zM758 1542l-148 256h297l60 -256h-209z" />
    <glyph glyph-name="Uacute" unicode="&#xda;" horiz-adv-x="1314" 
d="M612 -25q-137 0 -243 33.5t-177 98.5t-97.5 169t-0.5 238l185 950h292l-188 -972q-57 -281 235 -281q243 0 293 244l195 1009h291l-201 -1036q-43 -221 -189 -337t-395 -116zM1178 1798l-228 -256h-213l123 256h318z" />
    <glyph glyph-name="Ucircumflex" unicode="&#xdb;" horiz-adv-x="1314" 
d="M612 -25q-137 0 -243 33.5t-177 98.5t-97.5 169t-0.5 238l185 950h292l-188 -972q-57 -281 235 -281q243 0 293 244l195 1009h291l-201 -1036q-43 -221 -189 -337t-395 -116zM514 1542l227 234h295l154 -234h-232l-75 121h-4l-119 -121h-246z" />
    <glyph glyph-name="Udieresis" unicode="&#xdc;" horiz-adv-x="1314" 
d="M612 -25q-137 0 -243 33.5t-177 98.5t-97.5 169t-0.5 238l185 950h292l-188 -972q-57 -281 235 -281q243 0 293 244l195 1009h291l-201 -1036q-43 -221 -189 -337t-395 -116zM920 1542l47 234h258l-47 -234h-258zM512 1542l47 234h258l-47 -234h-258z" />
    <glyph glyph-name="Yacute" unicode="&#xdd;" horiz-adv-x="1243" 
d="M360 0l111 573l-287 891h301l125 -420q12 -40 25.5 -95t20.5 -89l8 -35h4q70 119 133 211l297 428h317l-653 -899l-109 -565h-293zM1128 1798l-227 -256h-213l123 256h317z" />
    <glyph glyph-name="Thorn" unicode="&#xde;" horiz-adv-x="1269" 
d="M8 0l283 1464h303l-43 -223h260q214 0 340.5 -114.5t126.5 -317.5q0 -232 -151 -366t-400 -134h-356l-60 -309h-303zM504 991l-84 -440h295q111 0 186.5 63.5t75.5 186.5q0 90 -52 140t-151 50h-270z" />
    <glyph glyph-name="germandbls" unicode="&#xdf;" horiz-adv-x="1110" 
d="M567 -18q-107 0 -198 26l41 199h4q61 -17 116 -17q122 0 189 90t67 246q0 112 -54.5 175t-160.5 63h-53l33 168h72q95 0 156 56t61 153q0 66 -44.5 106.5t-113.5 40.5q-173 0 -213 -207l-209 -1081h-274l213 1106q35 176 162.5 281.5t322.5 105.5q84 0 157 -21.5
t130.5 -62.5t91 -107t33.5 -149q0 -112 -61.5 -190.5t-176.5 -118.5v-6q94 -42 145.5 -128.5t51.5 -197.5q0 -148 -57.5 -267.5t-169.5 -191t-261 -71.5z" />
    <glyph glyph-name="agrave" unicode="&#xe0;" horiz-adv-x="1052" 
d="M641 0q-17 33 -14 115h-4q-29 -31 -52.5 -51.5t-59.5 -43t-81.5 -34t-99.5 -11.5q-63 0 -121 18.5t-106.5 54.5t-77.5 97.5t-29 139.5q0 81 26 141.5t67 96.5t106.5 60t128 34.5t149.5 17.5q59 5 89.5 8t67.5 9.5t54 14.5t33.5 21t22 31.5t5.5 44.5q0 57 -42.5 87
t-120.5 30q-179 0 -215 -150h-246q27 163 149 254.5t322 91.5q101 0 180.5 -23t137.5 -71t80 -130.5t1 -193.5l-98 -503q-20 -102 8 -146v-10h-260zM260 309q0 -69 43.5 -106t114.5 -37q102 0 171 54.5t85 131.5l33 166q-59 -28 -201 -53q-14 -3 -51.5 -8t-57.5 -8.5
t-50.5 -14.5t-46 -25t-28 -40t-12.5 -60zM537 1182l-175 288h300l83 -288h-208z" />
    <glyph glyph-name="aacute" unicode="&#xe1;" horiz-adv-x="1052" 
d="M641 0q-17 33 -14 115h-4q-29 -31 -52.5 -51.5t-59.5 -43t-81.5 -34t-99.5 -11.5q-63 0 -121 18.5t-106.5 54.5t-77.5 97.5t-29 139.5q0 81 26 141.5t67 96.5t106.5 60t128 34.5t149.5 17.5q59 5 89.5 8t67.5 9.5t54 14.5t33.5 21t22 31.5t5.5 44.5q0 57 -42.5 87
t-120.5 30q-179 0 -215 -150h-246q27 163 149 254.5t322 91.5q101 0 180.5 -23t137.5 -71t80 -130.5t1 -193.5l-98 -503q-20 -102 8 -146v-10h-260zM260 309q0 -69 43.5 -106t114.5 -37q102 0 171 54.5t85 131.5l33 166q-59 -28 -201 -53q-14 -3 -51.5 -8t-57.5 -8.5
t-50.5 -14.5t-46 -25t-28 -40t-12.5 -60zM995 1470l-258 -288h-215l152 288h321z" />
    <glyph glyph-name="acircumflex" unicode="&#xe2;" horiz-adv-x="1052" 
d="M641 0q-17 33 -14 115h-4q-29 -31 -52.5 -51.5t-59.5 -43t-81.5 -34t-99.5 -11.5q-63 0 -121 18.5t-106.5 54.5t-77.5 97.5t-29 139.5q0 81 26 141.5t67 96.5t106.5 60t128 34.5t149.5 17.5q59 5 89.5 8t67.5 9.5t54 14.5t33.5 21t22 31.5t5.5 44.5q0 57 -42.5 87
t-120.5 30q-179 0 -215 -150h-246q27 163 149 254.5t322 91.5q101 0 180.5 -23t137.5 -71t80 -130.5t1 -193.5l-98 -503q-20 -102 8 -146v-10h-260zM260 309q0 -69 43.5 -106t114.5 -37q102 0 171 54.5t85 131.5l33 166q-59 -28 -201 -53q-14 -3 -51.5 -8t-57.5 -8.5
t-50.5 -14.5t-46 -25t-28 -40t-12.5 -60zM297 1190l229 258h291l156 -258h-232l-75 141h-4l-119 -141h-246z" />
    <glyph glyph-name="atilde" unicode="&#xe3;" horiz-adv-x="1052" 
d="M641 0q-17 33 -14 115h-4q-29 -31 -52.5 -51.5t-59.5 -43t-81.5 -34t-99.5 -11.5q-63 0 -121 18.5t-106.5 54.5t-77.5 97.5t-29 139.5q0 81 26 141.5t67 96.5t106.5 60t128 34.5t149.5 17.5q59 5 89.5 8t67.5 9.5t54 14.5t33.5 21t22 31.5t5.5 44.5q0 57 -42.5 87
t-120.5 30q-179 0 -215 -150h-246q27 163 149 254.5t322 91.5q101 0 180.5 -23t137.5 -71t80 -130.5t1 -193.5l-98 -503q-20 -102 8 -146v-10h-260zM260 309q0 -69 43.5 -106t114.5 -37q102 0 171 54.5t85 131.5l33 166q-59 -28 -201 -53q-14 -3 -51.5 -8t-57.5 -8.5
t-50.5 -14.5t-46 -25t-28 -40t-12.5 -60zM754 1178q-53 0 -122.5 33.5t-90.5 33.5q-22 0 -39 -17t-23 -46h-145q20 118 74 179.5t131 61.5q42 0 84 -17.5t75 -35.5t54 -18q28 0 42.5 15.5t24.5 47.5h146q-20 -109 -73 -173t-138 -64z" />
    <glyph glyph-name="adieresis" unicode="&#xe4;" horiz-adv-x="1052" 
d="M641 0q-17 33 -14 115h-4q-29 -31 -52.5 -51.5t-59.5 -43t-81.5 -34t-99.5 -11.5q-63 0 -121 18.5t-106.5 54.5t-77.5 97.5t-29 139.5q0 81 26 141.5t67 96.5t106.5 60t128 34.5t149.5 17.5q59 5 89.5 8t67.5 9.5t54 14.5t33.5 21t22 31.5t5.5 44.5q0 57 -42.5 87
t-120.5 30q-179 0 -215 -150h-246q27 163 149 254.5t322 91.5q101 0 180.5 -23t137.5 -71t80 -130.5t1 -193.5l-98 -503q-20 -102 8 -146v-10h-260zM260 309q0 -69 43.5 -106t114.5 -37q102 0 171 54.5t85 131.5l33 166q-59 -28 -201 -53q-14 -3 -51.5 -8t-57.5 -8.5
t-50.5 -14.5t-46 -25t-28 -40t-12.5 -60zM737 1190l47 233h254l-47 -233h-254zM293 1190l47 233h254l-47 -233h-254z" />
    <glyph glyph-name="aring" unicode="&#xe5;" horiz-adv-x="1052" 
d="M641 0q-17 33 -14 115h-4q-29 -31 -52.5 -51.5t-59.5 -43t-81.5 -34t-99.5 -11.5q-63 0 -121 18.5t-106.5 54.5t-77.5 97.5t-29 139.5q0 81 26 141.5t67 96.5t106.5 60t128 34.5t149.5 17.5q59 5 89.5 8t67.5 9.5t54 14.5t33.5 21t22 31.5t5.5 44.5q0 57 -42.5 87
t-120.5 30q-179 0 -215 -150h-246q27 163 149 254.5t322 91.5q101 0 180.5 -23t137.5 -71t80 -130.5t1 -193.5l-98 -503q-20 -102 8 -146v-10h-260zM260 309q0 -69 43.5 -106t114.5 -37q102 0 171 54.5t85 131.5l33 166q-59 -28 -201 -53q-14 -3 -51.5 -8t-57.5 -8.5
t-50.5 -14.5t-46 -25t-28 -40t-12.5 -60zM653 1149q-82 0 -140 55.5t-58 136.5q0 80 58 136.5t140 56.5t140.5 -57t58.5 -136q0 -81 -58.5 -136.5t-140.5 -55.5zM653 1245q39 0 65.5 28t26.5 68t-26.5 68.5t-65.5 28.5t-65.5 -28.5t-26.5 -68.5t26.5 -68t65.5 -28z" />
    <glyph glyph-name="ae" unicode="&#xe6;" horiz-adv-x="1751" 
d="M592 1077q240 0 334 -125q143 127 331 127q161 0 265 -67q117 -75 161.5 -223t14.5 -340h-731q0 -131 50 -199t165 -68q158 0 215 131h270q-50 -149 -162 -235q-133 -106 -327 -109q-287 0 -404 203q-66 -94 -162 -145.5t-247 -51.5q-164 0 -266.5 77.5t-102.5 232.5
q0 58 13.5 105.5t36 81.5t58.5 60t73.5 42.5t89.5 28t98.5 17.5t107.5 11q161 13 216.5 36.5t55.5 96.5q0 57 -42.5 87t-120.5 30q-179 0 -215 -150h-246q27 163 149 254.5t322 91.5zM260 309q0 -69 43.5 -106t114.5 -37q104 0 172.5 56.5t87.5 148.5l29 143
q-59 -28 -201 -53q-16 -3 -52 -7.5t-57 -8t-50.5 -13.5t-46 -24t-28.5 -39.5t-12 -59.5zM1251 866q-102 0 -165.5 -62.5t-94.5 -164.5h453q3 99 -45 163t-148 64z" />
    <glyph glyph-name="ccedilla" unicode="&#xe7;" horiz-adv-x="1052" 
d="M375 -393q-136 0 -221 59l43 66q64 -31 139 -31q45 0 82 16t37 56q0 24 -21 37.5t-53 13.5q-34 0 -78 -14l-24 45l124 122q-168 26 -269 141t-101 316q0 97 25 191t74 176t117 144t160.5 98t196.5 36q187 0 306.5 -95t129.5 -290h-268q-8 78 -51.5 121t-124.5 43
q-73 0 -130.5 -38.5t-91.5 -102.5t-51.5 -138.5t-17.5 -152.5q0 -108 51 -172t160 -64q165 0 219 181h267q-43 -187 -174 -293t-322 -109l-86 -71v-4q79 11 137 -21t59 -100q0 -57 -37 -96t-89.5 -54.5t-116.5 -15.5z" />
    <glyph glyph-name="egrave" unicode="&#xe8;" horiz-adv-x="1089" 
d="M1036 449h-731q0 -131 50 -199t165 -68q158 0 215 131h271q-50 -149 -162 -235q-133 -106 -328 -109q-104 0 -190.5 29.5t-152.5 87.5t-103 152t-37 215q0 115 41 226.5t112.5 200.5t179 144t230.5 55q160 0 264 -67q117 -75 161.5 -223t14.5 -340zM590 866
q-102 0 -165.5 -62.5t-94.5 -164.5h452q3 100 -44.5 163.5t-147.5 63.5zM522 1182l-174 288h299l84 -288h-209z" />
    <glyph glyph-name="eacute" unicode="&#xe9;" horiz-adv-x="1089" 
d="M1036 449h-731q0 -131 50 -199t165 -68q158 0 215 131h271q-50 -149 -162 -235q-133 -106 -328 -109q-104 0 -190.5 29.5t-152.5 87.5t-103 152t-37 215q0 115 41 226.5t112.5 200.5t179 144t230.5 55q160 0 264 -67q117 -75 161.5 -223t14.5 -340zM590 866
q-102 0 -165.5 -62.5t-94.5 -164.5h452q3 100 -44.5 163.5t-147.5 63.5zM985 1470l-258 -288h-215l152 288h321z" />
    <glyph glyph-name="ecircumflex" unicode="&#xea;" horiz-adv-x="1089" 
d="M1036 449h-731q0 -131 50 -199t165 -68q158 0 215 131h271q-50 -149 -162 -235q-133 -106 -328 -109q-104 0 -190.5 29.5t-152.5 87.5t-103 152t-37 215q0 115 41 226.5t112.5 200.5t179 144t230.5 55q160 0 264 -67q117 -75 161.5 -223t14.5 -340zM281 1190l229 258h291
l155 -258h-231l-76 141h-4l-119 -141h-245zM590 866q-102 0 -165.5 -62.5t-94.5 -164.5h452q3 100 -44.5 163.5t-147.5 63.5z" />
    <glyph glyph-name="edieresis" unicode="&#xeb;" horiz-adv-x="1089" 
d="M1036 449h-731q0 -131 50 -199t165 -68q158 0 215 131h271q-50 -149 -162 -235q-133 -106 -328 -109q-104 0 -190.5 29.5t-152.5 87.5t-103 152t-37 215q0 115 41 226.5t112.5 200.5t179 144t230.5 55q160 0 264 -67q117 -75 161.5 -223t14.5 -340zM590 866
q-102 0 -165.5 -62.5t-94.5 -164.5h452q3 100 -44.5 163.5t-147.5 63.5zM717 1190l47 233h254l-47 -233h-254zM272 1190l47 233h254l-47 -233h-254z" />
    <glyph glyph-name="igrave" unicode="&#xec;" horiz-adv-x="450" 
d="M-14 0l202 1051h275l-203 -1051h-274zM252 1182l-174 288h299l84 -288h-209z" />
    <glyph glyph-name="iacute" unicode="&#xed;" horiz-adv-x="450" 
d="M-14 0l202 1051h275l-203 -1051h-274zM717 1470l-258 -288h-215l151 288h322z" />
    <glyph glyph-name="icircumflex" unicode="&#xee;" horiz-adv-x="450" 
d="M-14 0l202 1051h275l-203 -1051h-274zM55 1190l185 258h278l109 -258h-213l-45 135h-4l-89 -135h-221z" />
    <glyph glyph-name="idieresis" unicode="&#xef;" horiz-adv-x="450" 
d="M-14 0l202 1051h275l-203 -1051h-274zM385 1190l47 233h217l-47 -233h-217zM96 1190l47 233h217l-47 -233h-217z" />
    <glyph glyph-name="eth" unicode="&#xf0;" horiz-adv-x="1148" 
d="M348 1219l240 71q-81 83 -197 174h330q66 -49 115 -98l213 66l28 -109l-159 -49q194 -243 194 -594q0 -336 -156.5 -523.5t-425.5 -187.5q-217 0 -356.5 130t-138.5 362q1 165 71.5 302.5t196.5 218.5t279 81q143 0 231 -115h4q-53 135 -145 250l-295 -88zM309 444
q0 -117 54.5 -192.5t168.5 -75.5q76 0 136.5 38.5t96 102.5t53.5 138.5t18 152.5q0 111 -57 185.5t-169 74.5q-76 0 -135.5 -37t-94.5 -99t-53 -135.5t-18 -152.5z" />
    <glyph glyph-name="ntilde" unicode="&#xf1;" horiz-adv-x="1097" 
d="M457 1051l-31 -166h6q71 101 145.5 147.5t182.5 46.5q158 0 237.5 -116t44.5 -299l-127 -664h-274l123 631q20 104 -17.5 159.5t-125.5 55.5q-94 0 -160.5 -76.5t-89.5 -196.5l-111 -573h-274l202 1051h269zM784 1178q-53 0 -122.5 33.5t-90.5 33.5q-22 0 -38.5 -17
t-22.5 -46h-145q20 118 73.5 179.5t130.5 61.5q42 0 84 -17.5t75 -35.5t54 -18q49 0 68 63h145q-20 -109 -73 -173t-138 -64z" />
    <glyph glyph-name="ograve" unicode="&#xf2;" horiz-adv-x="1148" 
d="M528 -31q-104 0 -193 32t-156 92t-105.5 154t-38.5 212q0 124 42.5 237t118.5 197.5t188 135t243 50.5q136 0 244.5 -54t174.5 -164t66 -261q0 -126 -41.5 -240.5t-115.5 -201t-185 -138t-242 -51.5zM309 442q0 -75 22 -133t74 -95.5t130 -37.5q76 0 136.5 38.5
t95.5 102.5t53 138t18 153q0 113 -56 188.5t-170 75.5q-61 0 -112 -25.5t-86 -67.5t-59 -98t-35 -116.5t-11 -122.5zM547 1182l-174 288h299l84 -288h-209z" />
    <glyph glyph-name="oacute" unicode="&#xf3;" horiz-adv-x="1148" 
d="M528 -31q-104 0 -193 32t-156 92t-105.5 154t-38.5 212q0 124 42.5 237t118.5 197.5t188 135t243 50.5q136 0 244.5 -54t174.5 -164t66 -261q0 -126 -41.5 -240.5t-115.5 -201t-185 -138t-242 -51.5zM309 442q0 -75 22 -133t74 -95.5t130 -37.5q76 0 136.5 38.5
t95.5 102.5t53 138t18 153q0 113 -56 188.5t-170 75.5q-61 0 -112 -25.5t-86 -67.5t-59 -98t-35 -116.5t-11 -122.5zM1020 1470l-258 -288h-215l151 288h322z" />
    <glyph glyph-name="ocircumflex" unicode="&#xf4;" horiz-adv-x="1148" 
d="M528 -31q-104 0 -193 32t-156 92t-105.5 154t-38.5 212q0 124 42.5 237t118.5 197.5t188 135t243 50.5q136 0 244.5 -54t174.5 -164t66 -261q0 -126 -41.5 -240.5t-115.5 -201t-185 -138t-242 -51.5zM309 442q0 -75 22 -133t74 -95.5t130 -37.5q76 0 136.5 38.5
t95.5 102.5t53 138t18 153q0 113 -56 188.5t-170 75.5q-61 0 -112 -25.5t-86 -67.5t-59 -98t-35 -116.5t-11 -122.5zM309 1190l230 258h290l156 -258h-231l-76 141h-4l-119 -141h-246z" />
    <glyph glyph-name="otilde" unicode="&#xf5;" horiz-adv-x="1148" 
d="M528 -31q-104 0 -193 32t-156 92t-105.5 154t-38.5 212q0 124 42.5 237t118.5 197.5t188 135t243 50.5q136 0 244.5 -54t174.5 -164t66 -261q0 -126 -41.5 -240.5t-115.5 -201t-185 -138t-242 -51.5zM309 442q0 -75 22 -133t74 -95.5t130 -37.5q76 0 136.5 38.5
t95.5 102.5t53 138t18 153q0 113 -56 188.5t-170 75.5q-61 0 -112 -25.5t-86 -67.5t-59 -98t-35 -116.5t-11 -122.5zM752 1178q-53 0 -122.5 33.5t-90.5 33.5q-22 0 -39 -17t-23 -46h-145q20 118 74 179.5t131 61.5q42 0 84 -17.5t75 -35.5t54 -18q28 0 42.5 15.5t24.5 47.5
h146q-20 -109 -73 -173t-138 -64z" />
    <glyph glyph-name="odieresis" unicode="&#xf6;" horiz-adv-x="1148" 
d="M528 -31q-104 0 -193 32t-156 92t-105.5 154t-38.5 212q0 124 42.5 237t118.5 197.5t188 135t243 50.5q136 0 244.5 -54t174.5 -164t66 -261q0 -126 -41.5 -240.5t-115.5 -201t-185 -138t-242 -51.5zM309 442q0 -75 22 -133t74 -95.5t130 -37.5q76 0 136.5 38.5
t95.5 102.5t53 138t18 153q0 113 -56 188.5t-170 75.5q-61 0 -112 -25.5t-86 -67.5t-59 -98t-35 -116.5t-11 -122.5zM756 1190l47 233h254l-47 -233h-254zM311 1190l47 233h254l-47 -233h-254z" />
    <glyph glyph-name="divide" unicode="&#xf7;" horiz-adv-x="1146" 
d="M352 152l54 272h292l-53 -272h-293zM502 922l53 270h293l-53 -270h-293zM78 571l39 201h1005l-39 -201h-1005z" />
    <glyph glyph-name="oslash" unicode="&#xf8;" horiz-adv-x="1148" 
d="M530 -31q-183 0 -311 90l-127 -133l-80 76l127 133q-104 126 -104 324q0 124 42.5 237t118.5 197.5t188 135t243 50.5q183 0 311 -96l119 125l80 -76l-121 -127q96 -123 96 -305q0 -169 -70.5 -312t-205 -231t-306.5 -88zM305 442q0 -68 14 -114l457 483q-61 61 -164 61
q-76 0 -136.5 -38t-96.5 -101t-55 -137.5t-19 -153.5zM842 608q0 52 -13 99l-452 -480q57 -51 158 -51q76 0 137 39t97 102.5t54.5 138t18.5 152.5z" />
    <glyph glyph-name="ugrave" unicode="&#xf9;" horiz-adv-x="1085" 
d="M627 0l28 150h-6q-64 -90 -139 -134.5t-174 -44.5q-167 0 -245.5 112t-41.5 304l127 664h275l-123 -631q-43 -217 131 -217q95 0 160 73t90 201l110 574h275l-203 -1051h-264zM555 1182l-174 288h299l84 -288h-209z" />
    <glyph glyph-name="uacute" unicode="&#xfa;" horiz-adv-x="1085" 
d="M627 0l28 150h-6q-64 -90 -139 -134.5t-174 -44.5q-167 0 -245.5 112t-41.5 304l127 664h275l-123 -631q-43 -217 131 -217q95 0 160 73t90 201l110 574h275l-203 -1051h-264zM1014 1470l-258 -288h-215l151 288h322z" />
    <glyph glyph-name="ucircumflex" unicode="&#xfb;" horiz-adv-x="1085" 
d="M627 0l28 150h-6q-64 -90 -139 -134.5t-174 -44.5q-167 0 -245.5 112t-41.5 304l127 664h275l-123 -631q-43 -217 131 -217q95 0 160 73t90 201l110 574h275l-203 -1051h-264zM319 1190l230 258h291l155 -258h-231l-76 141h-4l-119 -141h-246z" />
    <glyph glyph-name="udieresis" unicode="&#xfc;" horiz-adv-x="1085" 
d="M627 0l28 150h-6q-64 -90 -139 -134.5t-174 -44.5q-167 0 -245.5 112t-41.5 304l127 664h275l-123 -631q-43 -217 131 -217q95 0 160 73t90 201l110 574h275l-203 -1051h-264zM758 1190l47 233h254l-47 -233h-254zM313 1190l47 233h254l-47 -233h-254z" />
    <glyph glyph-name="yacute" unicode="&#xfd;" horiz-adv-x="999" 
d="M-27 -344l43 217h88q89 0 136 49t47 146q0 74 -35 235l-152 748h287l72 -478l30 -237h5q51 139 96 237l217 478h278l-542 -1102q-80 -163 -165 -228t-233 -65h-172zM969 1470l-258 -288h-215l151 288h322z" />
    <glyph glyph-name="thorn" unicode="&#xfe;" horiz-adv-x="1150" 
d="M-82 -344l350 1808h275l-105 -536h6q130 151 312 151q172 0 267 -127.5t95 -330.5q0 -92 -18 -182t-59 -175.5t-99.5 -150.5t-147 -104.5t-194.5 -39.5q-100 0 -182.5 44.5t-124.5 133.5h-4l-96 -491h-275zM344 440q0 -103 54.5 -172t160.5 -69q74 0 130 36.5t87.5 97.5
t46.5 130.5t15 146.5q0 104 -48.5 175t-152.5 71q-93 0 -162 -65.5t-100 -158t-31 -192.5z" />
    <glyph glyph-name="ydieresis" unicode="&#xff;" horiz-adv-x="999" 
d="M-27 -344l43 217h88q89 0 136 49t47 146q0 74 -35 235l-152 748h287l72 -478l30 -237h5q51 139 96 237l217 478h278l-542 -1102q-80 -163 -165 -228t-233 -65h-172zM707 1190l47 233h254l-47 -233h-254zM262 1190l47 233h254l-47 -233h-254z" />
    <glyph glyph-name="Amacron" unicode="&#x100;" horiz-adv-x="1298" 
d="M891 0l-41 313h-506l-147 -313h-297l749 1464h303l242 -1464h-303zM649 954l-198 -415h370l-51 411q-4 37 -8.5 95.5t-7.5 98.5l-2 40h-4q-62 -152 -99 -230zM526 1561l37 194h574l-37 -194h-574z" />
    <glyph glyph-name="amacron" unicode="&#x101;" horiz-adv-x="1052" 
d="M641 0q-17 33 -14 115h-4q-29 -31 -52.5 -51.5t-59.5 -43t-81.5 -34t-99.5 -11.5q-63 0 -121 18.5t-106.5 54.5t-77.5 97.5t-29 139.5q0 81 26 141.5t67 96.5t106.5 60t128 34.5t149.5 17.5q59 5 89.5 8t67.5 9.5t54 14.5t33.5 21t22 31.5t5.5 44.5q0 57 -42.5 87
t-120.5 30q-179 0 -215 -150h-246q27 163 149 254.5t322 91.5q101 0 180.5 -23t137.5 -71t80 -130.5t1 -193.5l-98 -503q-20 -102 8 -146v-10h-260zM260 309q0 -69 43.5 -106t114.5 -37q102 0 171 54.5t85 131.5l33 166q-59 -28 -201 -53q-14 -3 -51.5 -8t-57.5 -8.5
t-50.5 -14.5t-46 -25t-28 -40t-12.5 -60zM358 1212l37 195h574l-37 -195h-574z" />
    <glyph glyph-name="Abreve" unicode="&#x102;" horiz-adv-x="1298" 
d="M891 0l-41 313h-506l-147 -313h-297l749 1464h303l242 -1464h-303zM649 954l-198 -415h370l-51 411q-4 37 -8.5 95.5t-7.5 98.5l-2 40h-4q-62 -152 -99 -230zM825 1534q-131 0 -204.5 75.5t-75.5 196.5h155q3 -46 36.5 -72t94.5 -26q57 0 95.5 27t52.5 71h158
q-24 -122 -106.5 -197t-205.5 -75z" />
    <glyph glyph-name="abreve" unicode="&#x103;" horiz-adv-x="1052" 
d="M641 0q-17 33 -14 115h-4q-29 -31 -52.5 -51.5t-59.5 -43t-81.5 -34t-99.5 -11.5q-63 0 -121 18.5t-106.5 54.5t-77.5 97.5t-29 139.5q0 81 26 141.5t67 96.5t106.5 60t128 34.5t149.5 17.5q59 5 89.5 8t67.5 9.5t54 14.5t33.5 21t22 31.5t5.5 44.5q0 57 -42.5 87
t-120.5 30q-179 0 -215 -150h-246q27 163 149 254.5t322 91.5q101 0 180.5 -23t137.5 -71t80 -130.5t1 -193.5l-98 -503q-20 -102 8 -146v-10h-260zM260 309q0 -69 43.5 -106t114.5 -37q102 0 171 54.5t85 131.5l33 166q-59 -28 -201 -53q-14 -3 -51.5 -8t-57.5 -8.5
t-50.5 -14.5t-46 -25t-28 -40t-12.5 -60zM649 1174q-131 0 -204.5 75.5t-75.5 196.5h155q3 -46 36.5 -72t94.5 -26q57 0 95.5 27t52.5 71h158q-24 -122 -106.5 -197t-205.5 -75z" />
    <glyph glyph-name="Aogonek" unicode="&#x104;" horiz-adv-x="1298" 
d="M1036 -356q-88 0 -149.5 39.5t-61.5 117.5q0 121 152 199h-86l-41 313h-506l-147 -313h-297l749 1464h303l240 -1456q-150 -91 -150 -158q0 -47 64 -47q22 0 57 13h4l-30 -156q-40 -16 -101 -16zM649 954l-198 -415h370l-51 411q-4 37 -8.5 95.5t-7.5 98.5l-2 40h-4
q-62 -152 -99 -230z" />
    <glyph glyph-name="aogonek" unicode="&#x105;" horiz-adv-x="1052" 
d="M641 0q-17 33 -14 115h-4q-29 -31 -52.5 -51.5t-59.5 -43t-81.5 -34t-99.5 -11.5q-63 0 -121 18.5t-106.5 54.5t-77.5 97.5t-29 139.5q0 81 26 141.5t67 96.5t106.5 60t128 34.5t149.5 17.5q59 5 89.5 8t67.5 9.5t54 14.5t33.5 21t22 31.5t5.5 44.5q0 57 -42.5 87
t-120.5 30q-179 0 -215 -150h-246q27 163 149 254.5t322 91.5q101 0 180.5 -23t137.5 -71t80 -130.5t1 -193.5l-98 -503q-20 -102 8 -146v-10q-48 -25 -94.5 -67.5t-46.5 -82.5q0 -47 63 -47q23 0 58 13h4l-31 -156q-40 -16 -100 -16q-88 0 -149.5 39.5t-61.5 117.5
q0 68 47.5 115t126.5 84h-76zM260 309q0 -69 43.5 -106t114.5 -37q102 0 171 54.5t85 131.5l33 166q-59 -28 -201 -53q-14 -3 -51.5 -8t-57.5 -8.5t-50.5 -14.5t-46 -25t-28 -40t-12.5 -60z" />
    <glyph glyph-name="Cacute" unicode="&#x106;" horiz-adv-x="1378" 
d="M678 -31q-190 0 -328.5 81t-208 221t-69.5 321q0 169 53.5 329t150.5 288t247.5 206t330.5 78q114 0 207.5 -29.5t166 -88t115.5 -154.5t50 -222h-289q-21 246 -273 246q-92 0 -169.5 -38.5t-130.5 -102.5t-89.5 -148.5t-53.5 -175.5t-17 -184q0 -80 17 -146.5t54 -121.5
t102.5 -86t155.5 -31q127 0 215 68.5t127 191.5h289q-67 -251 -229 -375q-90 -68 -189.5 -97.5t-234.5 -29.5zM1206 1798l-227 -256h-213l123 256h317z" />
    <glyph glyph-name="cacute" unicode="&#x107;" horiz-adv-x="1052" 
d="M502 -31q-98 0 -181.5 28t-148.5 83t-102 146t-37 208q0 97 25 191t74 176t117 144t160.5 98t196.5 36q187 0 306.5 -95t129.5 -290h-268q-8 78 -51.5 121t-124.5 43q-73 0 -130.5 -38.5t-91.5 -102.5t-51.5 -138.5t-17.5 -152.5q0 -108 51 -172t160 -64q165 0 219 181
h267q-43 -189 -176 -295.5t-326 -106.5zM999 1470l-258 -288h-215l152 288h321z" />
    <glyph glyph-name="Ccircumflex" unicode="&#x108;" horiz-adv-x="1378" 
d="M678 -31q-190 0 -328.5 81t-208 221t-69.5 321q0 169 53.5 329t150.5 288t247.5 206t330.5 78q114 0 207.5 -29.5t166 -88t115.5 -154.5t50 -222h-289q-21 246 -273 246q-92 0 -169.5 -38.5t-130.5 -102.5t-89.5 -148.5t-53.5 -175.5t-17 -184q0 -80 17 -146.5t54 -121.5
t102.5 -86t155.5 -31q127 0 215 68.5t127 191.5h289q-67 -251 -229 -375q-90 -68 -189.5 -97.5t-234.5 -29.5zM530 1542l228 234h295l153 -234h-231l-76 121h-4l-119 -121h-246z" />
    <glyph glyph-name="ccircumflex" unicode="&#x109;" horiz-adv-x="1052" 
d="M502 -31q-98 0 -181.5 28t-148.5 83t-102 146t-37 208q0 97 25 191t74 176t117 144t160.5 98t196.5 36q187 0 306.5 -95t129.5 -290h-268q-8 78 -51.5 121t-124.5 43q-73 0 -130.5 -38.5t-91.5 -102.5t-51.5 -138.5t-17.5 -152.5q0 -108 51 -172t160 -64q165 0 219 181
h267q-43 -189 -176 -295.5t-326 -106.5zM291 1190l229 258h291l156 -258h-232l-76 141h-4l-118 -141h-246z" />
    <glyph glyph-name="Cdotaccent" unicode="&#x10a;" horiz-adv-x="1378" 
d="M678 -31q-190 0 -328.5 81t-208 221t-69.5 321q0 169 53.5 329t150.5 288t247.5 206t330.5 78q114 0 207.5 -29.5t166 -88t115.5 -154.5t50 -222h-289q-21 246 -273 246q-92 0 -169.5 -38.5t-130.5 -102.5t-89.5 -148.5t-53.5 -175.5t-17 -184q0 -80 17 -146.5t54 -121.5
t102.5 -86t155.5 -31q127 0 215 68.5t127 191.5h289q-67 -251 -229 -375q-90 -68 -189.5 -97.5t-234.5 -29.5zM725 1542l49 242h275l-50 -242h-274z" />
    <glyph glyph-name="cdotaccent" unicode="&#x10b;" horiz-adv-x="1052" 
d="M502 -31q-98 0 -181.5 28t-148.5 83t-102 146t-37 208q0 97 25 191t74 176t117 144t160.5 98t196.5 36q187 0 306.5 -95t129.5 -290h-268q-8 78 -51.5 121t-124.5 43q-73 0 -130.5 -38.5t-91.5 -102.5t-51.5 -138.5t-17.5 -152.5q0 -108 51 -172t160 -64q165 0 219 181
h267q-43 -189 -176 -295.5t-326 -106.5zM494 1214l47 250h274l-47 -250h-274z" />
    <glyph glyph-name="Ccaron" unicode="&#x10c;" horiz-adv-x="1378" 
d="M678 -31q-190 0 -328.5 81t-208 221t-69.5 321q0 169 53.5 329t150.5 288t247.5 206t330.5 78q114 0 207.5 -29.5t166 -88t115.5 -154.5t50 -222h-289q-21 246 -273 246q-92 0 -169.5 -38.5t-130.5 -102.5t-89.5 -148.5t-53.5 -175.5t-17 -184q0 -80 17 -146.5t54 -121.5
t102.5 -86t155.5 -31q127 0 215 68.5t127 191.5h289q-67 -251 -229 -375q-90 -68 -189.5 -97.5t-234.5 -29.5zM1239 1776l-227 -234h-295l-154 234h232l75 -121h4l119 121h246z" />
    <glyph glyph-name="ccaron" unicode="&#x10d;" horiz-adv-x="1052" 
d="M502 -31q-98 0 -181.5 28t-148.5 83t-102 146t-37 208q0 97 25 191t74 176t117 144t160.5 98t196.5 36q187 0 306.5 -95t129.5 -290h-268q-8 78 -51.5 121t-124.5 43q-73 0 -130.5 -38.5t-91.5 -102.5t-51.5 -138.5t-17.5 -152.5q0 -108 51 -172t160 -64q165 0 219 181
h267q-43 -189 -176 -295.5t-326 -106.5zM1010 1438l-230 -258h-291l-155 258h231l76 -142h4l119 142h246z" />
    <glyph glyph-name="Dcaron" unicode="&#x10e;" horiz-adv-x="1349" 
d="M8 0l283 1464h465q276 0 436 -159.5t160 -460.5q0 -209 -52.5 -361.5t-160.5 -267.5q-95 -101 -242 -158t-313 -57h-576zM350 256h236q227 0 348 153t121 427q0 183 -85 278.5t-251 95.5h-184zM1159 1776l-227 -234h-295l-154 234h232l76 -121h4l118 121h246z" />
    <glyph glyph-name="dcaron" unicode="&#x10f;" horiz-adv-x="1153" 
d="M426 -31q-178 0 -283.5 125t-105.5 336q0 97 22.5 191.5t68 177t107.5 145t147 99t181 36.5q104 0 179.5 -44t115.5 -126h6l107 555h274l-282 -1464h-265l21 115h-4q-58 -74 -126 -110t-163 -36zM315 446q0 -114 47.5 -181.5t153.5 -67.5q71 0 128.5 36.5t92 95.5
t52.5 127.5t18 139.5q0 118 -53.5 189t-159.5 71q-69 0 -124.5 -38t-88 -99t-49.5 -131.5t-17 -141.5zM1255 1069l19 90q127 7 141 98h-119l39 207h250l-35 -186q-21 -109 -95.5 -158t-199.5 -51z" />
    <glyph glyph-name="Dcroat" unicode="&#x110;" horiz-adv-x="1370" 
d="M29 0l121 625h-127l43 233h129l116 606h465q276 0 436 -159.5t160 -460.5q0 -209 -52.5 -361.5t-160.5 -267.5q-95 -101 -242 -158t-313 -57h-575zM371 256h235q227 0 348 153t121 427q0 183 -85 278.5t-251 95.5h-184l-68 -352h332l-43 -233h-334z" />
    <glyph glyph-name="dcroat" unicode="&#x111;" horiz-adv-x="1153" 
d="M426 -31q-178 0 -283.5 125t-105.5 336q0 97 22.5 191.5t68 177t107.5 145t147 99t181 36.5q104 0 179.5 -44t115.5 -126h6l49 260h-264l31 160h264l27 135h274l-26 -135h108l-31 -160h-108l-225 -1169h-265l21 115h-4q-58 -74 -126 -110t-163 -36zM315 446
q0 -114 47.5 -181.5t153.5 -67.5q71 0 128.5 36.5t92 95.5t52.5 127.5t18 139.5q0 118 -53.5 189t-159.5 71q-69 0 -124.5 -38t-88 -99t-49.5 -131.5t-17 -141.5z" />
    <glyph glyph-name="Emacron" unicode="&#x112;" horiz-adv-x="1214" 
d="M8 0l283 1464h1020l-47 -247h-727l-64 -330h639l-47 -242h-639l-78 -399h744l-48 -246h-1036zM555 1561l37 194h573l-37 -194h-573z" />
    <glyph glyph-name="emacron" unicode="&#x113;" horiz-adv-x="1089" 
d="M1036 449h-731q0 -131 50 -199t165 -68q158 0 215 131h271q-50 -149 -162 -235q-133 -106 -328 -109q-104 0 -190.5 29.5t-152.5 87.5t-103 152t-37 215q0 115 41 226.5t112.5 200.5t179 144t230.5 55q160 0 264 -67q117 -75 161.5 -223t14.5 -340zM332 1212l37 195h573
l-37 -195h-573zM590 866q-102 0 -165.5 -62.5t-94.5 -164.5h452q3 100 -44.5 163.5t-147.5 63.5z" />
    <glyph glyph-name="Ebreve" unicode="&#x114;" horiz-adv-x="1214" 
d="M8 0l283 1464h1020l-47 -247h-727l-64 -330h639l-47 -242h-639l-78 -399h744l-48 -246h-1036zM856 1534q-131 0 -205 75.5t-76 196.5h156q3 -46 36.5 -72t94.5 -26q57 0 95.5 27t52.5 71h157q-24 -122 -106 -197t-205 -75z" />
    <glyph glyph-name="ebreve" unicode="&#x115;" horiz-adv-x="1089" 
d="M1036 449h-731q0 -131 50 -199t165 -68q158 0 215 131h271q-50 -149 -162 -235q-133 -106 -328 -109q-104 0 -190.5 29.5t-152.5 87.5t-103 152t-37 215q0 115 41 226.5t112.5 200.5t179 144t230.5 55q160 0 264 -67q117 -75 161.5 -223t14.5 -340zM618 1174
q-131 0 -204.5 75.5t-75.5 196.5h156q3 -46 36.5 -72t94.5 -26q57 0 95 27t52 71h158q-24 -122 -106.5 -197t-205.5 -75zM590 866q-102 0 -165.5 -62.5t-94.5 -164.5h452q3 100 -44.5 163.5t-147.5 63.5z" />
    <glyph glyph-name="Edotaccent" unicode="&#x116;" horiz-adv-x="1214" 
d="M8 0l283 1464h1020l-47 -247h-727l-64 -330h639l-47 -242h-639l-78 -399h744l-48 -246h-1036zM688 1542l49 242h275l-49 -242h-275z" />
    <glyph glyph-name="edotaccent" unicode="&#x117;" horiz-adv-x="1089" 
d="M1036 449h-731q0 -131 50 -199t165 -68q158 0 215 131h271q-50 -149 -162 -235q-133 -106 -328 -109q-104 0 -190.5 29.5t-152.5 87.5t-103 152t-37 215q0 115 41 226.5t112.5 200.5t179 144t230.5 55q160 0 264 -67q117 -75 161.5 -223t14.5 -340zM590 866
q-102 0 -165.5 -62.5t-94.5 -164.5h452q3 100 -44.5 163.5t-147.5 63.5zM489 1214l48 250h274l-47 -250h-275z" />
    <glyph glyph-name="Eogonek" unicode="&#x118;" horiz-adv-x="1214" 
d="M8 0l283 1464h1020l-47 -247h-727l-64 -330h639l-47 -242h-639l-78 -399h744l-48 -246h-104q-137 -90 -137 -150q0 -47 63 -47q23 0 58 13h4l-31 -156q-40 -16 -100 -16q-88 0 -149.5 39.5t-61.5 117.5q0 63 41 114t106 85h-725z" />
    <glyph glyph-name="eogonek" unicode="&#x119;" horiz-adv-x="1089" 
d="M735 313h271q-29 -85 -76 -148.5t-121 -117.5q-23 -17 -63 -44t-58.5 -41t-41 -34t-31.5 -37.5t-9 -37.5q0 -23 16.5 -36.5t47.5 -13.5q22 0 57 13h4l-31 -156q-40 -16 -100 -16q-88 0 -149.5 39.5t-61.5 117.5q0 101 123 168q-104 0 -190 29.5t-151 87.5t-101.5 152
t-36.5 215q0 115 41 226.5t112.5 200.5t179 144t230.5 55q160 0 264 -67q117 -75 161.5 -223t14.5 -340h-731q0 -131 50 -199t165 -68q158 0 215 131zM590 866q-102 0 -165.5 -62.5t-94.5 -164.5h452q3 100 -44.5 163.5t-147.5 63.5z" />
    <glyph glyph-name="Ecaron" unicode="&#x11a;" horiz-adv-x="1214" 
d="M8 0l283 1464h1020l-47 -247h-727l-64 -330h639l-47 -242h-639l-78 -399h744l-48 -246h-1036zM1210 1776l-227 -234h-295l-153 234h231l76 -121h4l119 121h245z" />
    <glyph glyph-name="ecaron" unicode="&#x11b;" horiz-adv-x="1089" 
d="M1036 449h-731q0 -131 50 -199t165 -68q158 0 215 131h271q-50 -149 -162 -235q-133 -106 -328 -109q-104 0 -190.5 29.5t-152.5 87.5t-103 152t-37 215q0 115 41 226.5t112.5 200.5t179 144t230.5 55q160 0 264 -67q117 -75 161.5 -223t14.5 -340zM991 1438l-229 -258
h-291l-156 258h232l76 -142h4l118 142h246zM590 866q-102 0 -165.5 -62.5t-94.5 -164.5h452q3 100 -44.5 163.5t-147.5 63.5z" />
    <glyph glyph-name="Gcircumflex" unicode="&#x11c;" horiz-adv-x="1456" 
d="M1057 0l24 180h-4q-73 -101 -181 -156t-241 -55q-263 0 -423 164.5t-160 458.5q0 136 36 268.5t106 246.5t165 200.5t222 136.5t269 49q115 -1 212 -30.5t174 -87.5t124.5 -153t55.5 -218h-285q-12 115 -92 180t-211 65q-91 0 -169 -36.5t-133.5 -99.5t-95.5 -146.5
t-59.5 -177.5t-19.5 -193q0 -187 87 -288t261 -101q158 0 267.5 93.5t135.5 250.5h-346l43 227h606l-149 -778h-219zM539 1542l227 234h295l153 -234h-231l-76 121h-4l-119 -121h-245z" />
    <glyph glyph-name="gcircumflex" unicode="&#x11d;" horiz-adv-x="1128" 
d="M446 -358q-81 0 -153.5 18.5t-134 56t-102 102.5t-50.5 150h279q25 -119 168 -119q95 0 151 59t76 163l20 106h-6q-59 -59 -115.5 -87t-142.5 -28q-177 0 -286 119.5t-109 309.5q0 115 36 221t100.5 187.5t162.5 130t213 48.5q101 0 179 -41t116 -114h4l25 127h264
l-195 -1006q-36 -183 -149 -287q-64 -60 -147 -88t-204 -28zM516 285q125 0 202 101.5t75 238.5q-2 105 -56.5 169t-152.5 64q-123 0 -197 -100.5t-74 -245.5q0 -102 52.5 -164.5t150.5 -62.5zM313 1190l230 258h291l155 -258h-231l-76 141h-4l-119 -141h-246z" />
    <glyph glyph-name="Gbreve" unicode="&#x11e;" horiz-adv-x="1456" 
d="M1057 0l24 180h-4q-73 -101 -181 -156t-241 -55q-263 0 -423 164.5t-160 458.5q0 136 36 268.5t106 246.5t165 200.5t222 136.5t269 49q115 -1 212 -30.5t174 -87.5t124.5 -153t55.5 -218h-285q-12 115 -92 180t-211 65q-91 0 -169 -36.5t-133.5 -99.5t-95.5 -146.5
t-59.5 -177.5t-19.5 -193q0 -187 87 -288t261 -101q158 0 267.5 93.5t135.5 250.5h-346l43 227h606l-149 -778h-219zM897 1534q-131 0 -205 75.5t-76 196.5h156q3 -46 36.5 -72t94.5 -26q57 0 95.5 27t52.5 71h157q-24 -122 -106 -197t-205 -75z" />
    <glyph glyph-name="gbreve" unicode="&#x11f;" horiz-adv-x="1128" 
d="M446 -358q-81 0 -153.5 18.5t-134 56t-102 102.5t-50.5 150h279q25 -119 168 -119q95 0 151 59t76 163l20 106h-6q-59 -59 -115.5 -87t-142.5 -28q-177 0 -286 119.5t-109 309.5q0 115 36 221t100.5 187.5t162.5 130t213 48.5q101 0 179 -41t116 -114h4l25 127h264
l-195 -1006q-36 -183 -149 -287q-64 -60 -147 -88t-204 -28zM516 285q125 0 202 101.5t75 238.5q-2 105 -56.5 169t-152.5 64q-123 0 -197 -100.5t-74 -245.5q0 -102 52.5 -164.5t150.5 -62.5zM655 1174q-131 0 -204.5 75.5t-75.5 196.5h155q3 -46 37 -72t95 -26q57 0 95 27
t52 71h158q-24 -122 -106.5 -197t-205.5 -75z" />
    <glyph glyph-name="Gdotaccent" unicode="&#x120;" horiz-adv-x="1456" 
d="M1057 0l24 180h-4q-73 -101 -181 -156t-241 -55q-263 0 -423 164.5t-160 458.5q0 136 36 268.5t106 246.5t165 200.5t222 136.5t269 49q115 -1 212 -30.5t174 -87.5t124.5 -153t55.5 -218h-285q-12 115 -92 180t-211 65q-91 0 -169 -36.5t-133.5 -99.5t-95.5 -146.5
t-59.5 -177.5t-19.5 -193q0 -187 87 -288t261 -101q158 0 267.5 93.5t135.5 250.5h-346l43 227h606l-149 -778h-219zM741 1542l50 242h274l-49 -242h-275z" />
    <glyph glyph-name="gdotaccent" unicode="&#x121;" horiz-adv-x="1128" 
d="M446 -358q-81 0 -153.5 18.5t-134 56t-102 102.5t-50.5 150h279q25 -119 168 -119q95 0 151 59t76 163l20 106h-6q-59 -59 -115.5 -87t-142.5 -28q-177 0 -286 119.5t-109 309.5q0 115 36 221t100.5 187.5t162.5 130t213 48.5q101 0 179 -41t116 -114h4l25 127h264
l-195 -1006q-36 -183 -149 -287q-64 -60 -147 -88t-204 -28zM516 285q125 0 202 101.5t75 238.5q-2 105 -56.5 169t-152.5 64q-123 0 -197 -100.5t-74 -245.5q0 -102 52.5 -164.5t150.5 -62.5zM520 1214l47 250h275l-47 -250h-275z" />
    <glyph glyph-name="Gcommaaccent" unicode="&#x122;" horiz-adv-x="1456" 
d="M1057 0l24 180h-4q-73 -101 -181 -156t-241 -55q-263 0 -423 164.5t-160 458.5q0 136 36 268.5t106 246.5t165 200.5t222 136.5t269 49q115 -1 212 -30.5t174 -87.5t124.5 -153t55.5 -218h-285q-12 115 -92 180t-211 65q-91 0 -169 -36.5t-133.5 -99.5t-95.5 -146.5
t-59.5 -177.5t-19.5 -193q0 -187 87 -288t261 -101q158 0 267.5 93.5t135.5 250.5h-346l43 227h606l-149 -778h-219zM449 -539l18 90q134 27 149 132h-120l43 219h249l-40 -209q-40 -207 -299 -232z" />
    <glyph glyph-name="gcommaaccent" unicode="&#x123;" horiz-adv-x="1128" 
d="M446 -358q-81 0 -153.5 18.5t-134 56t-102 102.5t-50.5 150h279q25 -119 168 -119q95 0 151 59t76 163l20 106h-6q-59 -59 -115.5 -87t-142.5 -28q-177 0 -286 119.5t-109 309.5q0 115 36 221t100.5 187.5t162.5 130t213 48.5q101 0 179 -41t116 -114h4l25 127h264
l-195 -1006q-36 -183 -149 -287q-64 -60 -147 -88t-204 -28zM516 285q125 0 202 101.5t75 238.5q-2 105 -56.5 169t-152.5 64q-123 0 -197 -100.5t-74 -245.5q0 -102 52.5 -164.5t150.5 -62.5zM868 1671l-18 -90q-135 -27 -150 -131h121l-43 -219h-250l41 209
q40 206 299 231z" />
    <glyph glyph-name="Hcircumflex" unicode="&#x124;" horiz-adv-x="1345" 
d="M8 0l283 1464h293l-111 -575h539l110 575h293l-282 -1464h-293l125 647h-539l-125 -647h-293zM514 1542l227 234h295l154 -234h-232l-75 121h-4l-119 -121h-246z" />
    <glyph glyph-name="hcircumflex" unicode="&#x125;" horiz-adv-x="1097" 
d="M543 1464l-107 -559h6q68 92 139 133t179 41q158 0 237.5 -116t44.5 -299l-127 -664h-274l123 631q20 104 -17.5 159.5t-125.5 55.5q-96 0 -161.5 -76t-88.5 -197l-111 -573h-274l282 1464h275zM387 1542l227 234h295l154 -234h-232l-75 121h-4l-119 -121h-246z" />
    <glyph glyph-name="Hbar" unicode="&#x126;" horiz-adv-x="1345" 
d="M92 1044l35 170h115l49 250h293l-49 -250h538l49 250h293l-49 -250h119l-35 -170h-117l-200 -1044h-293l125 647h-539l-125 -647h-293l201 1044h-117zM473 889h539l28 155h-538z" />
    <glyph glyph-name="hbar" unicode="&#x127;" horiz-adv-x="1097" 
d="M543 1464l-27 -135h268l-30 -160h-269l-49 -264h6q68 92 139 133t179 41q158 0 237.5 -116t44.5 -299l-127 -664h-274l123 631q20 104 -17.5 159.5t-125.5 55.5q-96 0 -161.5 -76t-88.5 -197l-111 -573h-274l225 1169h-105l31 160h105l26 135h275z" />
    <glyph glyph-name="Itilde" unicode="&#x128;" horiz-adv-x="518" 
d="M10 0l283 1464h293l-283 -1464h-293zM569 1546q-53 0 -127.5 34t-95.5 34q-22 0 -38.5 -17.5t-22.5 -46.5h-146q18 117 73 179.5t132 62.5q42 0 86.5 -18t80 -36t56.5 -18q28 0 43 16t25 48h145q-18 -109 -72 -173.5t-139 -64.5z" />
    <glyph glyph-name="itilde" unicode="&#x129;" horiz-adv-x="450" 
d="M-14 0l202 1051h275l-203 -1051h-274zM455 1178q-37 0 -75.5 17t-67.5 33.5t-42 16.5q-45 0 -55 -63h-139q12 116 62 178.5t120 62.5q38 0 77.5 -17.5t69 -35.5t44.5 -18q23 0 36 15.5t21 47.5h139q-11 -106 -61.5 -171.5t-128.5 -65.5z" />
    <glyph glyph-name="Imacron" unicode="&#x12a;" horiz-adv-x="518" 
d="M10 0l283 1464h293l-283 -1464h-293zM160 1561l37 194h573l-37 -194h-573z" />
    <glyph glyph-name="imacron" unicode="&#x12b;" horiz-adv-x="450" 
d="M-14 0l202 1051h275l-203 -1051h-274zM113 1212l37 195h491l-37 -195h-491z" />
    <glyph glyph-name="Ibreve" unicode="&#x12c;" horiz-adv-x="518" 
d="M10 0l283 1464h293l-283 -1464h-293zM469 1534q-131 0 -205 75.5t-76 196.5h156q3 -46 36.5 -72t94.5 -26q57 0 95.5 27t52.5 71h157q-24 -122 -106 -197t-205 -75z" />
    <glyph glyph-name="ibreve" unicode="&#x12d;" horiz-adv-x="450" 
d="M-14 0l202 1051h275l-203 -1051h-274zM360 1174q-131 0 -204.5 75.5t-75.5 196.5h156q3 -46 36.5 -72t94.5 -26q57 0 95 27t52 71h158q-24 -122 -106.5 -197t-205.5 -75z" />
    <glyph glyph-name="Iogonek" unicode="&#x12e;" horiz-adv-x="518" 
d="M10 0l283 1464h293l-281 -1454q-57 -32 -106 -76t-49 -84q0 -47 63 -47q22 0 57 13h4l-30 -156q-40 -16 -101 -16q-88 0 -149.5 39.5t-61.5 117.5q0 121 152 199h-74z" />
    <glyph glyph-name="iogonek" unicode="&#x12f;" horiz-adv-x="450" 
d="M-14 0l202 1051h275l-201 -1043q-149 -94 -149 -158q0 -47 63 -47q22 0 57 13h5l-31 -156q-40 -16 -101 -16q-88 0 -149 39.5t-61 117.5q0 68 47.5 115t126.5 84h-84zM221 1214l47 250h275l-47 -250h-275z" />
    <glyph glyph-name="Idotaccent" unicode="&#x130;" horiz-adv-x="518" 
d="M10 0l283 1464h293l-283 -1464h-293zM313 1542l49 242h275l-49 -242h-275z" />
    <glyph glyph-name="dotlessi" unicode="&#x131;" horiz-adv-x="450" 
d="M-14 0l202 1051h275l-203 -1051h-274z" />
    <glyph glyph-name="IJ" unicode="&#x132;" horiz-adv-x="1546" 
d="M10 0l283 1464h293l-283 -1464h-293zM934 -25q-104 0 -187 25.5t-143.5 78t-83.5 142.5t0 209l23 115h262l-23 -117q-20 -106 19.5 -161.5t136.5 -55.5q90 0 135.5 48t63.5 144l204 1061h291l-209 -1085q-35 -184 -154 -294t-335 -110z" />
    <glyph glyph-name="ij" unicode="&#x133;" horiz-adv-x="901" 
d="M-14 0l202 1051h275l-203 -1051h-274zM221 1214l47 250h275l-47 -250h-275zM383 -346q-94 0 -168 20l37 197q83 -3 124 14.5t52 77.5l211 1088h274l-217 -1117q-18 -88 -43 -137.5t-65 -81.5q-78 -61 -205 -61zM672 1214l47 250h274l-47 -250h-274z" />
    <glyph glyph-name="Jcircumflex" unicode="&#x134;" horiz-adv-x="1036" 
d="M424 -25q-104 0 -187 25.5t-143.5 78t-83.5 142.5t0 209l23 115h262l-23 -117q-20 -106 19.5 -161.5t136.5 -55.5q90 0 135.5 48t63.5 144l204 1061h291l-209 -1085q-35 -184 -154 -294t-335 -110zM641 1542l227 234h295l154 -234h-232l-75 121h-4l-119 -121h-246z" />
    <glyph glyph-name="jcircumflex" unicode="&#x135;" horiz-adv-x="450" 
d="M55 1190l185 258h278l109 -258h-213l-45 135h-4l-89 -135h-221zM-68 -346q-94 0 -168 20l37 197q83 -3 124 14.5t52 77.5l211 1088h275l-217 -1117q-18 -88 -43.5 -137.5t-65.5 -81.5q-78 -61 -205 -61z" />
    <glyph glyph-name="Kcommaaccent" unicode="&#x136;" horiz-adv-x="1327" 
d="M920 0l-324 705l-193 -170l-102 -535h-293l283 1464h293l-113 -585l629 585h360l-639 -573l418 -891h-319zM375 -539l18 90q135 27 150 132h-121l43 219h250l-41 -209q-40 -207 -299 -232z" />
    <glyph glyph-name="kcommaaccent" unicode="&#x137;" horiz-adv-x="1071" 
d="M678 0l-201 475l-155 -139l-64 -336h-272l282 1464h273l-160 -821l412 408h335l-438 -412l293 -639h-305zM250 -539l18 90q135 27 150 132h-121l43 219h250l-41 -209q-40 -207 -299 -232z" />
    <glyph glyph-name="kgreenlandic" unicode="&#x138;" horiz-adv-x="1071" 
d="M678 0l-201 475l-155 -139l-64 -336h-272l202 1051h273l-80 -408l412 408h335l-438 -412l293 -639h-305z" />
    <glyph glyph-name="Lacute" unicode="&#x139;" horiz-adv-x="1095" 
d="M8 0l283 1464h293l-236 -1218h656l-48 -246h-948zM778 1798l-227 -256h-213l123 256h317z" />
    <glyph glyph-name="lacute" unicode="&#x13a;" horiz-adv-x="458" 
d="M-10 0l282 1464h275l-283 -1464h-274zM750 1798l-228 -256h-213l123 256h318z" />
    <glyph glyph-name="Lcommaaccent" unicode="&#x13b;" horiz-adv-x="1095" 
d="M8 0l283 1464h293l-236 -1218h656l-48 -246h-948zM260 -539l19 90q134 27 149 132h-121l43 219h250l-41 -209q-40 -207 -299 -232z" />
    <glyph glyph-name="lcommaaccent" unicode="&#x13c;" horiz-adv-x="458" 
d="M-10 0l282 1464h275l-283 -1464h-274zM-106 -539l18 90q134 27 149 132h-120l43 219h249l-40 -209q-40 -207 -299 -232z" />
    <glyph glyph-name="Lcaron" unicode="&#x13d;" horiz-adv-x="1095" 
d="M8 0l283 1464h293l-236 -1218h656l-48 -246h-948zM696 1069l19 90q127 7 141 98h-119l39 207h250l-35 -186q-21 -109 -95.5 -158t-199.5 -51z" />
    <glyph glyph-name="lcaron" unicode="&#x13e;" horiz-adv-x="458" 
d="M-10 0l282 1464h275l-283 -1464h-274zM557 1069l18 90q128 7 142 98h-119l39 207h250l-35 -186q-21 -109 -95.5 -158t-199.5 -51z" />
    <glyph glyph-name="Ldot" unicode="&#x13f;" horiz-adv-x="1095" 
d="M8 0l283 1464h293l-236 -1218h656l-48 -246h-948zM702 539l58 297h295l-58 -297h-295z" />
    <glyph glyph-name="ldot" unicode="&#x140;" horiz-adv-x="790" 
d="M479 539l58 297h294l-57 -297h-295zM-10 0l282 1464h275l-283 -1464h-274z" />
    <glyph glyph-name="Lslash" unicode="&#x141;" horiz-adv-x="1105" 
d="M-33 399l39 209l141 62l154 794h293l-127 -655l446 195l-41 -209l-446 -195l-68 -354h656l-47 -246h-949l88 461z" />
    <glyph glyph-name="lslash" unicode="&#x142;" horiz-adv-x="520" 
d="M-18 436l41 211l133 88l141 729h274l-100 -524l152 100l-41 -211l-152 -100l-141 -729h-275l101 524z" />
    <glyph glyph-name="Nacute" unicode="&#x143;" horiz-adv-x="1353" 
d="M8 0l283 1464h293l299 -817q15 -39 29.5 -92.5t21.5 -86.5l8 -34h4q23 152 43 254l150 776h284l-282 -1464h-279l-313 815q-16 43 -31.5 94t-23.5 81l-7 30h-4q-23 -154 -43 -256l-147 -764h-285zM1208 1798l-227 -256h-213l123 256h317z" />
    <glyph glyph-name="nacute" unicode="&#x144;" horiz-adv-x="1097" 
d="M457 1051l-31 -166h6q71 101 145.5 147.5t182.5 46.5q158 0 237.5 -116t44.5 -299l-127 -664h-274l123 631q20 104 -17.5 159.5t-125.5 55.5q-94 0 -160.5 -76.5t-89.5 -196.5l-111 -573h-274l202 1051h269zM1036 1470l-258 -288h-215l152 288h321z" />
    <glyph glyph-name="Ncommaaccent" unicode="&#x145;" horiz-adv-x="1353" 
d="M8 0l283 1464h293l299 -817q15 -39 29.5 -92.5t21.5 -86.5l8 -34h4q23 152 43 254l150 776h284l-282 -1464h-279l-313 815q-16 43 -31.5 94t-23.5 81l-7 30h-4q-23 -154 -43 -256l-147 -764h-285zM375 -535l18 91q135 27 150 131h-121l43 219h250l-41 -209
q-40 -207 -299 -232z" />
    <glyph glyph-name="ncommaaccent" unicode="&#x146;" horiz-adv-x="1097" 
d="M457 1051l-31 -166h6q71 101 145.5 147.5t182.5 46.5q158 0 237.5 -116t44.5 -299l-127 -664h-274l123 631q20 104 -17.5 159.5t-125.5 55.5q-94 0 -160.5 -76.5t-89.5 -196.5l-111 -573h-274l202 1051h269zM225 -539l19 90q134 27 149 132h-121l43 219h250l-41 -209
q-40 -207 -299 -232z" />
    <glyph glyph-name="Ncaron" unicode="&#x147;" horiz-adv-x="1353" 
d="M8 0l283 1464h293l299 -817q15 -39 29.5 -92.5t21.5 -86.5l8 -34h4q23 152 43 254l150 776h284l-282 -1464h-279l-313 815q-16 43 -31.5 94t-23.5 81l-7 30h-4q-23 -154 -43 -256l-147 -764h-285zM1255 1776l-227 -234h-295l-153 234h231l76 -121h4l119 121h245z" />
    <glyph glyph-name="ncaron" unicode="&#x148;" horiz-adv-x="1097" 
d="M457 1051l-31 -166h6q71 101 145.5 147.5t182.5 46.5q158 0 237.5 -116t44.5 -299l-127 -664h-274l123 631q20 104 -17.5 159.5t-125.5 55.5q-94 0 -160.5 -76.5t-89.5 -196.5l-111 -573h-274l202 1051h269zM1042 1438l-229 -258h-291l-155 258h231l76 -142h4l119 142
h245z" />
    <glyph glyph-name="napostrophe" unicode="&#x149;" horiz-adv-x="1097" 
d="M18 1069l19 90q127 7 141 98h-119l39 207h250l-35 -186q-21 -109 -95.5 -158t-199.5 -51zM457 1051l-31 -166h6q71 101 145.5 147.5t182.5 46.5q158 0 237.5 -116t44.5 -299l-127 -664h-274l123 631q20 104 -17.5 159.5t-125.5 55.5q-94 0 -160.5 -76.5t-89.5 -196.5
l-111 -573h-274l202 1051h269z" />
    <glyph glyph-name="Eng" unicode="&#x14a;" horiz-adv-x="1353" 
d="M705 -358q-87 0 -154 18l45 248q45 -10 88 -10q135 0 172 116l-307 801q-16 43 -31.5 94t-23.5 81l-7 30h-4q-23 -154 -43 -256l-147 -764h-285l283 1464h293l299 -817q15 -39 29.5 -92.5t21.5 -86.5l8 -34h4q23 152 43 254l150 776h284l-272 -1411q-16 -82 -35.5 -141
t-53.5 -112.5t-80.5 -86.5t-116 -52t-160.5 -19z" />
    <glyph glyph-name="eng" unicode="&#x14b;" horiz-adv-x="1097" 
d="M635 -37l129 668q20 104 -17.5 159.5t-125.5 55.5q-94 0 -160.5 -76.5t-89.5 -196.5l-111 -573h-274l202 1051h269l-31 -166h6q71 101 145.5 147.5t182.5 46.5q158 0 237.5 -116t44.5 -299l-139 -730q-18 -88 -43 -137.5t-65 -81.5q-78 -61 -205 -61q-94 0 -168 20
l37 197q83 -3 124 14.5t52 77.5z" />
    <glyph glyph-name="Omacron" unicode="&#x14c;" horiz-adv-x="1460" 
d="M709 -33q-287 0 -462 169t-175 460q0 142 31.5 274t96 245.5t154.5 197.5t214 132t268 48q285 0 457.5 -174.5t172.5 -464.5q0 -140 -30 -269.5t-93 -242t-151.5 -196t-212.5 -131.5t-270 -48zM371 602q0 -85 19.5 -154.5t60.5 -124t109.5 -84.5t160.5 -30
q95 0 172.5 39.5t127.5 103t83.5 148t48 171t14.5 175.5q0 117 -35.5 206t-116 144t-198.5 55q-94 0 -170.5 -39.5t-127 -104t-84.5 -150t-49 -174.5t-15 -181zM584 1561l37 194h573l-37 -194h-573z" />
    <glyph glyph-name="omacron" unicode="&#x14d;" horiz-adv-x="1148" 
d="M528 -31q-104 0 -193 32t-156 92t-105.5 154t-38.5 212q0 124 42.5 237t118.5 197.5t188 135t243 50.5q136 0 244.5 -54t174.5 -164t66 -261q0 -126 -41.5 -240.5t-115.5 -201t-185 -138t-242 -51.5zM309 442q0 -75 22 -133t74 -95.5t130 -37.5q76 0 136.5 38.5
t95.5 102.5t53 138t18 153q0 113 -56 188.5t-170 75.5q-61 0 -112 -25.5t-86 -67.5t-59 -98t-35 -116.5t-11 -122.5zM358 1212l37 195h574l-37 -195h-574z" />
    <glyph glyph-name="Obreve" unicode="&#x14e;" horiz-adv-x="1460" 
d="M709 -33q-287 0 -462 169t-175 460q0 142 31.5 274t96 245.5t154.5 197.5t214 132t268 48q285 0 457.5 -174.5t172.5 -464.5q0 -140 -30 -269.5t-93 -242t-151.5 -196t-212.5 -131.5t-270 -48zM371 602q0 -85 19.5 -154.5t60.5 -124t109.5 -84.5t160.5 -30
q95 0 172.5 39.5t127.5 103t83.5 148t48 171t14.5 175.5q0 117 -35.5 206t-116 144t-198.5 55q-94 0 -170.5 -39.5t-127 -104t-84.5 -150t-49 -174.5t-15 -181zM883 1534q-131 0 -205 75.5t-76 196.5h156q3 -46 36.5 -72t94.5 -26q57 0 95 27t52 71h158q-24 -122 -106 -197
t-205 -75z" />
    <glyph glyph-name="obreve" unicode="&#x14f;" horiz-adv-x="1148" 
d="M528 -31q-104 0 -193 32t-156 92t-105.5 154t-38.5 212q0 124 42.5 237t118.5 197.5t188 135t243 50.5q136 0 244.5 -54t174.5 -164t66 -261q0 -126 -41.5 -240.5t-115.5 -201t-185 -138t-242 -51.5zM309 442q0 -75 22 -133t74 -95.5t130 -37.5q76 0 136.5 38.5
t95.5 102.5t53 138t18 153q0 113 -56 188.5t-170 75.5q-61 0 -112 -25.5t-86 -67.5t-59 -98t-35 -116.5t-11 -122.5zM655 1174q-131 0 -204.5 75.5t-75.5 196.5h155q3 -46 37 -72t95 -26q57 0 95 27t52 71h158q-24 -122 -106.5 -197t-205.5 -75z" />
    <glyph glyph-name="Ohungarumlaut" unicode="&#x150;" horiz-adv-x="1460" 
d="M709 -33q-287 0 -462 169t-175 460q0 142 31.5 274t96 245.5t154.5 197.5t214 132t268 48q285 0 457.5 -174.5t172.5 -464.5q0 -140 -30 -269.5t-93 -242t-151.5 -196t-212.5 -131.5t-270 -48zM371 602q0 -85 19.5 -154.5t60.5 -124t109.5 -84.5t160.5 -30
q95 0 172.5 39.5t127.5 103t83.5 148t48 171t14.5 175.5q0 117 -35.5 206t-116 144t-198.5 55q-94 0 -170.5 -39.5t-127 -104t-84.5 -150t-49 -174.5t-15 -181zM944 1542l98 256h261l-191 -256h-168zM594 1542l98 256h258l-188 -256h-168z" />
    <glyph glyph-name="ohungarumlaut" unicode="&#x151;" horiz-adv-x="1148" 
d="M528 -31q-104 0 -193 32t-156 92t-105.5 154t-38.5 212q0 124 42.5 237t118.5 197.5t188 135t243 50.5q136 0 244.5 -54t174.5 -164t66 -261q0 -126 -41.5 -240.5t-115.5 -201t-185 -138t-242 -51.5zM309 442q0 -75 22 -133t74 -95.5t130 -37.5q76 0 136.5 38.5
t95.5 102.5t53 138t18 153q0 113 -56 188.5t-170 75.5q-61 0 -112 -25.5t-86 -67.5t-59 -98t-35 -116.5t-11 -122.5zM725 1182l115 288h260l-207 -288h-168zM375 1182l114 288h259l-205 -288h-168z" />
    <glyph glyph-name="OE" unicode="&#x152;" horiz-adv-x="2115" 
d="M610 -33q-114 0 -211.5 41.5t-170.5 119.5t-114.5 198.5t-41.5 269.5q0 137 31.5 268.5t94.5 245t150 199.5t205 135t252 49q260 0 381 -164l26 135h1000l-47 -247h-707l-63 -330h618l-47 -242h-618l-78 -399h723l-47 -246h-996l21 106q-168 -139 -361 -139zM371 602
q0 -191 78 -292t223 -101q201 0 327 153l134 693q-38 94 -121 145t-201 51q-91 0 -166 -38.5t-124.5 -102.5t-84 -149t-50 -175t-15.5 -184z" />
    <glyph glyph-name="oe" unicode="&#x153;" horiz-adv-x="1878" 
d="M532 -31q-218 0 -358 129.5t-139 360.5q1 166 72.5 307t205 227t301.5 86q133 0 231 -53.5t152 -155.5q143 209 387 209q161 0 265 -67q117 -75 161.5 -223t14.5 -340h-731q0 -131 50 -199t165 -68q158 0 215 131h270q-50 -149 -162 -235q-133 -106 -327 -109
q-276 0 -375 197q-67 -93 -168 -145t-230 -52zM309 442q0 -75 22 -133t74 -95.5t130 -37.5q76 0 136.5 38.5t95.5 102.5t53 138t18 153q0 72 -22.5 129.5t-75 96t-128.5 38.5q-61 0 -112 -25.5t-86 -67.5t-59 -98t-35 -116.5t-11 -122.5zM1378 866q-102 0 -165.5 -62.5
t-94.5 -164.5h453q3 99 -45 163t-148 64z" />
    <glyph glyph-name="Racute" unicode="&#x154;" horiz-adv-x="1304" 
d="M8 0l283 1464h590q212 0 327 -106.5t115 -282.5q0 -153 -85 -250t-237 -135v-6q181 -57 181 -252q0 -38 -8.5 -150.5t-8.5 -172.5q0 -81 29 -95v-14h-283q-22 25 -22 109q0 47 6 144t6 138q0 197 -221 197h-266l-113 -588h-293zM539 1227l-80 -412h305q115 0 190.5 56.5
t75.5 170.5q0 90 -49 137.5t-145 47.5h-297zM1116 1798l-227 -256h-213l123 256h317z" />
    <glyph glyph-name="racute" unicode="&#x155;" horiz-adv-x="712" 
d="M453 1051l-33 -168h6q106 180 276 180q50 0 78 -8l-47 -242h-6q-305 40 -369 -301l-98 -512h-274l202 1051h265zM879 1470l-258 -288h-215l151 288h322z" />
    <glyph glyph-name="Rcommaaccent" unicode="&#x156;" horiz-adv-x="1304" 
d="M8 0l283 1464h590q212 0 327 -106.5t115 -282.5q0 -153 -85 -250t-237 -135v-6q181 -57 181 -252q0 -38 -8.5 -150.5t-8.5 -172.5q0 -81 29 -95v-14h-283q-22 25 -22 109q0 47 6 144t6 138q0 197 -221 197h-266l-113 -588h-293zM539 1227l-80 -412h305q115 0 190.5 56.5
t75.5 170.5q0 90 -49 137.5t-145 47.5h-297zM377 -539l18 90q135 27 150 132h-121l43 219h250l-41 -209q-40 -207 -299 -232z" />
    <glyph glyph-name="rcommaaccent" unicode="&#x157;" horiz-adv-x="712" 
d="M453 1051l-33 -168h6q106 180 276 180q50 0 78 -8l-47 -242h-6q-305 40 -369 -301l-98 -512h-274l202 1051h265zM-117 -539l19 90q134 27 149 132h-121l43 219h250l-41 -209q-40 -207 -299 -232z" />
    <glyph glyph-name="Rcaron" unicode="&#x158;" horiz-adv-x="1304" 
d="M8 0l283 1464h590q212 0 327 -106.5t115 -282.5q0 -153 -85 -250t-237 -135v-6q181 -57 181 -252q0 -38 -8.5 -150.5t-8.5 -172.5q0 -81 29 -95v-14h-283q-22 25 -22 109q0 47 6 144t6 138q0 197 -221 197h-266l-113 -588h-293zM539 1227l-80 -412h305q115 0 190.5 56.5
t75.5 170.5q0 90 -49 137.5t-145 47.5h-297zM1165 1776l-227 -234h-295l-154 234h232l76 -121h4l119 121h245z" />
    <glyph glyph-name="rcaron" unicode="&#x159;" horiz-adv-x="712" 
d="M453 1051l-33 -168h6q106 180 276 180q50 0 78 -8l-47 -242h-6q-305 40 -369 -301l-98 -512h-274l202 1051h265zM891 1438l-229 -258h-291l-156 258h231l76 -142h4l119 142h246z" />
    <glyph glyph-name="Sacute" unicode="&#x15a;" horiz-adv-x="1253" 
d="M598 -33q-103 0 -193.5 18t-167 56t-130 94.5t-81 137.5t-22.5 180h285q-7 -132 78 -190t239 -58q119 0 200 47.5t81 142.5q0 75 -64 122t-254 116q-107 39 -176 73t-126.5 82.5t-84 111.5t-26.5 147q0 208 145 326t389 118q92 0 173 -15.5t152 -50.5t120.5 -87
t76.5 -130t23 -174h-281q5 107 -66.5 165t-207.5 58q-60 0 -112.5 -14.5t-92.5 -55.5t-41 -102q-1 -30 9 -52t26.5 -39t58 -36.5t82.5 -35t121 -43.5q115 -39 193.5 -79.5t138 -93t87.5 -119.5t28 -153q0 -150 -76 -257t-205 -158.5t-299 -51.5zM1063 1798l-227 -256h-213
l122 256h318z" />
    <glyph glyph-name="sacute" unicode="&#x15b;" horiz-adv-x="966" 
d="M459 -31q-98 0 -179.5 21.5t-146 65t-103.5 116t-46 168.5h260q8 -74 61 -122t154 -48q79 0 125.5 28.5t46.5 86.5q0 27 -14.5 47.5t-48 38t-71 31.5t-100.5 35q-6 2 -10 3q-69 23 -116 45.5t-93 58t-69 86.5t-23 118q0 156 113 243.5t297 87.5q182 0 299.5 -90.5
t130.5 -257.5h-252q-10 67 -57 109.5t-130 42.5q-65 0 -111 -25t-46 -80q0 -15 5 -27.5t18 -23t26 -18.5t39 -17.5t45.5 -16t58 -19t64.5 -21.5q64 -22 111.5 -45.5t92.5 -60t69 -89t24 -118.5q0 -168 -112 -260.5t-312 -92.5zM901 1470l-258 -288h-215l152 288h321z" />
    <glyph glyph-name="Scircumflex" unicode="&#x15c;" horiz-adv-x="1253" 
d="M598 -33q-103 0 -193.5 18t-167 56t-130 94.5t-81 137.5t-22.5 180h285q-7 -132 78 -190t239 -58q119 0 200 47.5t81 142.5q0 75 -64 122t-254 116q-107 39 -176 73t-126.5 82.5t-84 111.5t-26.5 147q0 208 145 326t389 118q92 0 173 -15.5t152 -50.5t120.5 -87
t76.5 -130t23 -174h-281q5 107 -66.5 165t-207.5 58q-60 0 -112.5 -14.5t-92.5 -55.5t-41 -102q-1 -30 9 -52t26.5 -39t58 -36.5t82.5 -35t121 -43.5q115 -39 193.5 -79.5t138 -93t87.5 -119.5t28 -153q0 -150 -76 -257t-205 -158.5t-299 -51.5zM403 1542l228 234h295
l153 -234h-231l-76 121h-4l-119 -121h-246z" />
    <glyph glyph-name="scircumflex" unicode="&#x15d;" horiz-adv-x="966" 
d="M459 -31q-98 0 -179.5 21.5t-146 65t-103.5 116t-46 168.5h260q8 -74 61 -122t154 -48q79 0 125.5 28.5t46.5 86.5q0 27 -14.5 47.5t-48 38t-71 31.5t-100.5 35q-6 2 -10 3q-69 23 -116 45.5t-93 58t-69 86.5t-23 118q0 156 113 243.5t297 87.5q182 0 299.5 -90.5
t130.5 -257.5h-252q-10 67 -57 109.5t-130 42.5q-65 0 -111 -25t-46 -80q0 -15 5 -27.5t18 -23t26 -18.5t39 -17.5t45.5 -16t58 -19t64.5 -21.5q64 -22 111.5 -45.5t92.5 -60t69 -89t24 -118.5q0 -168 -112 -260.5t-312 -92.5zM203 1190l229 258h291l156 -258h-232l-76 141
h-4l-118 -141h-246z" />
    <glyph glyph-name="Scedilla" unicode="&#x15e;" horiz-adv-x="1253" 
d="M467 -393q-136 0 -221 59l43 66q64 -31 139 -31q45 0 82 16t37 56q0 24 -21 37.5t-53 13.5q-34 0 -78 -14l-24 45l121 118q-110 10 -200 44t-157.5 92t-102 145.5t-28.5 198.5h285q-7 -132 78 -190t239 -58q119 0 200 47.5t81 142.5q0 75 -64 122t-254 116
q-107 39 -176 73t-126.5 82.5t-84 111.5t-26.5 147q0 208 145 326t389 118q92 0 173 -15.5t152 -50.5t120.5 -87t76.5 -130t23 -174h-281q5 107 -66.5 165t-207.5 58q-60 0 -112.5 -14.5t-92.5 -55.5t-41 -102q-1 -30 9 -52t26.5 -39t58 -36.5t82.5 -35t121 -43.5
q115 -39 193.5 -79.5t138 -93t87.5 -119.5t28 -153q0 -150 -76 -257t-205 -158.5t-299 -51.5l-84 -69v-4q79 11 137.5 -21t59.5 -100q0 -44 -21 -77t-56.5 -52t-77.5 -28t-89 -9z" />
    <glyph glyph-name="scedilla" unicode="&#x15f;" horiz-adv-x="966" 
d="M283 -393q-137 0 -222 59l43 66q64 -31 140 -31q45 0 81.5 16t36.5 56q0 24 -20.5 37.5t-52.5 13.5q-34 0 -78 -14l-25 45l131 127q-145 28 -233 116.5t-100 241.5h260q8 -74 61 -122t154 -48q79 0 125.5 28.5t46.5 86.5q0 27 -14.5 47.5t-48 38t-71 31.5t-100.5 35
q-6 2 -10 3q-69 23 -116 45.5t-93 58t-69 86.5t-23 118q0 156 113 243.5t297 87.5q182 0 299.5 -90.5t130.5 -257.5h-252q-10 67 -57 109.5t-130 42.5q-65 0 -111 -25t-46 -80q0 -15 5 -27.5t18 -23t26 -18.5t39 -17.5t45.5 -16t58 -19t64.5 -21.5q64 -22 111.5 -45.5
t92.5 -60t69 -89t24 -118.5q0 -168 -112 -260.5t-312 -92.5h-43l-86 -71v-4q79 11 137 -21t59 -100q0 -57 -37 -96t-89.5 -54.5t-116.5 -15.5z" />
    <glyph glyph-name="Scaron" unicode="&#x160;" horiz-adv-x="1253" 
d="M598 -33q-103 0 -193.5 18t-167 56t-130 94.5t-81 137.5t-22.5 180h285q-7 -132 78 -190t239 -58q119 0 200 47.5t81 142.5q0 75 -64 122t-254 116q-107 39 -176 73t-126.5 82.5t-84 111.5t-26.5 147q0 208 145 326t389 118q92 0 173 -15.5t152 -50.5t120.5 -87
t76.5 -130t23 -174h-281q5 107 -66.5 165t-207.5 58q-60 0 -112.5 -14.5t-92.5 -55.5t-41 -102q-1 -30 9 -52t26.5 -39t58 -36.5t82.5 -35t121 -43.5q115 -39 193.5 -79.5t138 -93t87.5 -119.5t28 -153q0 -150 -76 -257t-205 -158.5t-299 -51.5zM1124 1776l-227 -234h-295
l-153 234h231l76 -121h4l119 121h245z" />
    <glyph glyph-name="scaron" unicode="&#x161;" horiz-adv-x="966" 
d="M459 -31q-98 0 -179.5 21.5t-146 65t-103.5 116t-46 168.5h260q8 -74 61 -122t154 -48q79 0 125.5 28.5t46.5 86.5q0 27 -14.5 47.5t-48 38t-71 31.5t-100.5 35q-6 2 -10 3q-69 23 -116 45.5t-93 58t-69 86.5t-23 118q0 156 113 243.5t297 87.5q182 0 299.5 -90.5
t130.5 -257.5h-252q-10 67 -57 109.5t-130 42.5q-65 0 -111 -25t-46 -80q0 -15 5 -27.5t18 -23t26 -18.5t39 -17.5t45.5 -16t58 -19t64.5 -21.5q64 -22 111.5 -45.5t92.5 -60t69 -89t24 -118.5q0 -168 -112 -260.5t-312 -92.5zM920 1438l-230 -258h-291l-155 258h231
l76 -142h4l119 142h246z" />
    <glyph glyph-name="uni0162" unicode="&#x162;" horiz-adv-x="1198" 
d="M164 1217l47 247h1139l-47 -247h-424l-236 -1217h-293l236 1217h-422zM262 -539l19 90q134 27 149 132h-121l43 219h250l-41 -209q-40 -207 -299 -232z" />
    <glyph glyph-name="uni0163" unicode="&#x163;" horiz-adv-x="659" 
d="M94 866l35 185h133l64 327h268l-64 -327h177l-35 -185h-176l-107 -547q-12 -61 7 -87.5t71 -26.5l82 4l-39 -205q-70 -6 -125 -6q-165 0 -233 68.5t-37 226.5l112 573h-133zM53 -539l19 90q134 27 149 132h-121l43 219h250l-41 -209q-40 -207 -299 -232z" />
    <glyph glyph-name="Tcaron" unicode="&#x164;" horiz-adv-x="1198" 
d="M164 1217l47 247h1139l-47 -247h-424l-236 -1217h-293l236 1217h-422zM1163 1776l-227 -234h-295l-154 234h232l76 -121h4l119 121h245z" />
    <glyph glyph-name="tcaron" unicode="&#x165;" horiz-adv-x="659" 
d="M623 1104l18 90q59 3 96 25.5t43 60.5h-118l34 184h250l-31 -164q-18 -95 -94 -144.5t-198 -51.5zM94 866l35 185h133l64 327h268l-64 -327h177l-35 -185h-176l-107 -547q-12 -61 7 -87.5t71 -26.5l82 4l-39 -205q-70 -6 -125 -6q-165 0 -233 68.5t-37 226.5l112 573
h-133z" />
    <glyph glyph-name="Tbar" unicode="&#x166;" horiz-adv-x="1198" 
d="M164 1217l47 247h1139l-47 -247h-424l-76 -394h287l-35 -174h-287l-125 -649h-293l125 649h-276l34 174h277l76 394h-422z" />
    <glyph glyph-name="tbar" unicode="&#x167;" horiz-adv-x="659" 
d="M94 866l35 185h133l64 327h268l-64 -327h177l-35 -185h-176l-31 -149h178l-33 -160h-176l-45 -238q-12 -61 7 -87.5t71 -26.5l82 4l-39 -205q-70 -6 -125 -6q-165 0 -233 68.5t-37 226.5l51 264h-135l32 160h134l30 149h-133z" />
    <glyph glyph-name="Utilde" unicode="&#x168;" horiz-adv-x="1314" 
d="M612 -25q-137 0 -243 33.5t-177 98.5t-97.5 169t-0.5 238l185 950h292l-188 -972q-57 -281 235 -281q243 0 293 244l195 1009h291l-201 -1036q-43 -221 -189 -337t-395 -116zM979 1546q-53 0 -127.5 34t-95.5 34q-22 0 -39 -17.5t-23 -46.5h-145q18 117 73 179.5
t132 62.5q42 0 86.5 -18t80 -36t56.5 -18q27 0 42 16t25 48h146q-18 -109 -72 -173.5t-139 -64.5z" />
    <glyph glyph-name="utilde" unicode="&#x169;" horiz-adv-x="1085" 
d="M627 0l28 150h-6q-64 -90 -139 -134.5t-174 -44.5q-167 0 -245.5 112t-41.5 304l127 664h275l-123 -631q-43 -217 131 -217q95 0 160 73t90 201l110 574h275l-203 -1051h-264zM780 1178q-53 0 -122.5 33.5t-90.5 33.5q-22 0 -38.5 -17t-22.5 -46h-146q20 118 74 179.5
t131 61.5q42 0 84 -17.5t75 -35.5t54 -18q49 0 68 63h145q-20 -109 -73 -173t-138 -64z" />
    <glyph glyph-name="Umacron" unicode="&#x16a;" horiz-adv-x="1314" 
d="M612 -25q-137 0 -243 33.5t-177 98.5t-97.5 169t-0.5 238l185 950h292l-188 -972q-57 -281 235 -281q243 0 293 244l195 1009h291l-201 -1036q-43 -221 -189 -337t-395 -116zM567 1561l37 194h574l-37 -194h-574z" />
    <glyph glyph-name="umacron" unicode="&#x16b;" horiz-adv-x="1085" 
d="M627 0l28 150h-6q-64 -90 -139 -134.5t-174 -44.5q-167 0 -245.5 112t-41.5 304l127 664h275l-123 -631q-43 -217 131 -217q95 0 160 73t90 201l110 574h275l-203 -1051h-264zM373 1212l37 195h573l-37 -195h-573z" />
    <glyph glyph-name="Ubreve" unicode="&#x16c;" horiz-adv-x="1314" 
d="M612 -25q-137 0 -243 33.5t-177 98.5t-97.5 169t-0.5 238l185 950h292l-188 -972q-57 -281 235 -281q243 0 293 244l195 1009h291l-201 -1036q-43 -221 -189 -337t-395 -116zM848 1534q-131 0 -205 75.5t-76 196.5h156q3 -46 36.5 -72t94.5 -26q57 0 95 27t52 71h158
q-24 -122 -106 -197t-205 -75z" />
    <glyph glyph-name="ubreve" unicode="&#x16d;" horiz-adv-x="1085" 
d="M627 0l28 150h-6q-64 -90 -139 -134.5t-174 -44.5q-167 0 -245.5 112t-41.5 304l127 664h275l-123 -631q-43 -217 131 -217q95 0 160 73t90 201l110 574h275l-203 -1051h-264zM657 1174q-131 0 -204.5 75.5t-75.5 196.5h155q3 -46 37 -72t95 -26q57 0 95 27t52 71h158
q-24 -122 -106.5 -197t-205.5 -75z" />
    <glyph glyph-name="Uring" unicode="&#x16e;" horiz-adv-x="1314" 
d="M612 -25q-137 0 -243 33.5t-177 98.5t-97.5 169t-0.5 238l185 950h292l-188 -972q-57 -281 235 -281q243 0 293 244l195 1009h291l-201 -1036q-43 -221 -189 -337t-395 -116zM846 1520q-82 0 -140.5 55.5t-58.5 136.5q0 79 58.5 136t140.5 57t140 -56.5t58 -136.5
q0 -81 -58 -136.5t-140 -55.5zM846 1616q39 0 65.5 28t26.5 68t-26.5 68t-65.5 28t-65.5 -28t-26.5 -68t26.5 -68t65.5 -28z" />
    <glyph glyph-name="uring" unicode="&#x16f;" horiz-adv-x="1085" 
d="M627 0l28 150h-6q-64 -90 -139 -134.5t-174 -44.5q-167 0 -245.5 112t-41.5 304l127 664h275l-123 -631q-43 -217 131 -217q95 0 160 73t90 201l110 574h275l-203 -1051h-264zM659 1149q-82 0 -140 55.5t-58 136.5q0 80 58 136.5t140 56.5t140.5 -57t58.5 -136
q0 -81 -58.5 -136.5t-140.5 -55.5zM659 1245q39 0 66 28t27 68t-27 68.5t-66 28.5t-65.5 -28.5t-26.5 -68.5t26.5 -68t65.5 -28z" />
    <glyph glyph-name="Uhungarumlaut" unicode="&#x170;" horiz-adv-x="1314" 
d="M612 -25q-137 0 -243 33.5t-177 98.5t-97.5 169t-0.5 238l185 950h292l-188 -972q-57 -281 235 -281q243 0 293 244l195 1009h291l-201 -1036q-43 -221 -189 -337t-395 -116zM915 1542l99 256h260l-191 -256h-168zM565 1542l99 256h258l-189 -256h-168z" />
    <glyph glyph-name="uhungarumlaut" unicode="&#x171;" horiz-adv-x="1085" 
d="M627 0l28 150h-6q-64 -90 -139 -134.5t-174 -44.5q-167 0 -245.5 112t-41.5 304l127 664h275l-123 -631q-43 -217 131 -217q95 0 160 73t90 201l110 574h275l-203 -1051h-264zM721 1182l115 288h260l-207 -288h-168zM371 1182l114 288h258l-204 -288h-168z" />
    <glyph glyph-name="Uogonek" unicode="&#x172;" horiz-adv-x="1314" 
d="M631 -356q-88 0 -149.5 39.5t-61.5 117.5q0 106 129 176q-253 16 -378 152t-77 385l185 950h292l-188 -972q-57 -281 235 -281q243 0 293 244l195 1009h291l-201 -1036q-21 -110 -66 -190.5t-103.5 -129t-141.5 -85.5q-19 -8 -60 -23.5t-68 -27.5t-58 -30t-46.5 -41
t-15.5 -51q0 -47 63 -47q23 0 58 13h4l-31 -156q-40 -16 -100 -16z" />
    <glyph glyph-name="uogonek" unicode="&#x173;" horiz-adv-x="1085" 
d="M627 0l28 150h-6q-64 -90 -139 -134.5t-174 -44.5q-167 0 -245.5 112t-41.5 304l127 664h275l-123 -631q-43 -217 131 -217q95 0 160 73t90 201l110 574h275l-201 -1043q-150 -95 -150 -158q0 -47 64 -47q22 0 57 13h4l-30 -156q-40 -16 -101 -16q-88 0 -149.5 39.5
t-61.5 117.5q0 68 47.5 115t126.5 84h-73z" />
    <glyph glyph-name="Wcircumflex" unicode="&#x174;" horiz-adv-x="1826" 
d="M326 0l-146 1464h297l43 -727q2 -38 3.5 -85.5t2 -88t0.5 -75v-54.5v-20h4q68 182 123 321l291 729h277l34 -727l9 -323h4q74 192 129 325l303 725h289l-656 -1464h-272l-43 788q-3 52 -4.5 120t-1.5 110v41h-4q-48 -150 -97 -271l-317 -788h-268zM748 1542l227 234h295
l153 -234h-231l-76 121h-4l-119 -121h-245z" />
    <glyph glyph-name="wcircumflex" unicode="&#x175;" horiz-adv-x="1490" 
d="M227 0l-118 1051h266l39 -488l10 -201h4q45 117 82 203l211 486h233l58 -486q4 -39 7.5 -90t4.5 -82l2 -31h4q45 115 80 201l197 488h270l-469 -1051h-246l-55 516l-19 205h-4q-45 -121 -82 -205l-227 -516h-248zM504 1190l229 258h291l156 -258h-232l-76 141h-4
l-118 -141h-246z" />
    <glyph glyph-name="Ycircumflex" unicode="&#x176;" horiz-adv-x="1243" 
d="M360 0l111 573l-287 891h301l125 -420q12 -40 25.5 -95t20.5 -89l8 -35h4q70 119 133 211l297 428h317l-653 -899l-109 -565h-293zM453 1542l227 234h295l153 -234h-231l-76 121h-4l-119 -121h-245z" />
    <glyph glyph-name="ycircumflex" unicode="&#x177;" horiz-adv-x="999" 
d="M-27 -344l43 217h88q89 0 136 49t47 146q0 74 -35 235l-152 748h287l72 -478l30 -237h5q51 139 96 237l217 478h278l-542 -1102q-80 -163 -165 -228t-233 -65h-172zM254 1190l229 258h291l156 -258h-232l-75 141h-5l-118 -141h-246z" />
    <glyph glyph-name="Ydieresis" unicode="&#x178;" horiz-adv-x="1243" 
d="M360 0l111 573l-287 891h301l125 -420q12 -40 25.5 -95t20.5 -89l8 -35h4q70 119 133 211l297 428h317l-653 -899l-109 -565h-293zM872 1542l48 234h258l-48 -234h-258zM465 1542l47 234h258l-47 -234h-258z" />
    <glyph glyph-name="Zacute" unicode="&#x179;" horiz-adv-x="1241" 
d="M-47 0l41 215l958 1004v6h-712l45 239h1063l-45 -239l-928 -975v-6h747l-45 -244h-1124zM1151 1798l-227 -256h-213l123 256h317z" />
    <glyph glyph-name="zacute" unicode="&#x17a;" horiz-adv-x="944" 
d="M-55 0l41 209l620 620v7h-467l43 215h793l-43 -220l-608 -606v-6h524l-43 -219h-860zM956 1470l-258 -288h-215l152 288h321z" />
    <glyph glyph-name="Zdotaccent" unicode="&#x17b;" horiz-adv-x="1241" 
d="M-47 0l41 215l958 1004v6h-712l45 239h1063l-45 -239l-928 -975v-6h747l-45 -244h-1124zM678 1542l49 242h274l-49 -242h-274z" />
    <glyph glyph-name="zdotaccent" unicode="&#x17c;" horiz-adv-x="944" 
d="M-55 0l41 209l620 620v7h-467l43 215h793l-43 -220l-608 -606v-6h524l-43 -219h-860zM459 1214l47 250h274l-47 -250h-274z" />
    <glyph glyph-name="Zcaron" unicode="&#x17d;" horiz-adv-x="1241" 
d="M-47 0l41 215l958 1004v6h-712l45 239h1063l-45 -239l-928 -975v-6h747l-45 -244h-1124zM1202 1776l-227 -234h-295l-154 234h232l76 -121h4l118 121h246z" />
    <glyph glyph-name="zcaron" unicode="&#x17e;" horiz-adv-x="944" 
d="M-55 0l41 209l620 620v7h-467l43 215h793l-43 -220l-608 -606v-6h524l-43 -219h-860zM971 1438l-230 -258h-290l-156 258h231l76 -142h4l119 142h246z" />
    <glyph glyph-name="florin" unicode="&#x192;" horiz-adv-x="802" 
d="M127 846h178l66 293q32 146 123 221q122 99 399 61l-39 -202q-104 10 -149.5 -10t-63.5 -99l-59 -264h209l-37 -184h-213l-154 -699q-26 -118 -86 -184q-42 -47 -104 -71t-133.5 -25t-157.5 10l37 190q35 -3 63.5 -1t49.5 11t36.5 33.5t24.5 65.5l147 670h-174z" />
    <glyph glyph-name="AEacute" unicode="&#x1fc;" horiz-adv-x="1927" 
d="M735 0l60 313h-435l-155 -313h-299l753 1464h1364l-47 -247h-712l-64 -330h625l-47 -242h-625l-78 -399h729l-47 -246h-1022zM809 1217l-342 -689h371l131 689h-160zM1712 1798l-227 -256h-213l123 256h317z" />
    <glyph glyph-name="aeacute" unicode="&#x1fd;" horiz-adv-x="1751" 
d="M592 1077q240 0 334 -125q143 127 331 127q161 0 265 -67q117 -75 161.5 -223t14.5 -340h-731q0 -131 50 -199t165 -68q158 0 215 131h270q-50 -149 -162 -235q-133 -106 -327 -109q-287 0 -404 203q-66 -94 -162 -145.5t-247 -51.5q-164 0 -266.5 77.5t-102.5 232.5
q0 58 13.5 105.5t36 81.5t58.5 60t73.5 42.5t89.5 28t98.5 17.5t107.5 11q161 13 216.5 36.5t55.5 96.5q0 57 -42.5 87t-120.5 30q-179 0 -215 -150h-246q27 163 149 254.5t322 91.5zM260 309q0 -69 43.5 -106t114.5 -37q104 0 172.5 56.5t87.5 148.5l29 143
q-59 -28 -201 -53q-16 -3 -52 -7.5t-57 -8t-50.5 -13.5t-46 -24t-28.5 -39.5t-12 -59.5zM1251 866q-102 0 -165.5 -62.5t-94.5 -164.5h453q3 99 -45 163t-148 64zM1354 1470l-258 -288h-215l151 288h322z" />
    <glyph glyph-name="Oslashacute" unicode="&#x1fe;" horiz-adv-x="1460" 
d="M709 -33q-261 0 -435 144l-147 -156l-90 88l149 162q-114 154 -114 391q0 142 31 274t95 245.5t153 197.5t212.5 132t267.5 48q257 0 426 -143l127 137l95 -88l-133 -144q120 -160 120 -401q0 -140 -30 -269.5t-93 -242t-151.5 -196t-212.5 -131.5t-270 -48zM1169 846
q0 115 -26 192l-688 -733q87 -96 266 -96q95 0 173 39.5t128 103t84 148t48.5 171t14.5 175.5zM369 602q0 -110 22 -180l684 733q-87 96 -258 96q-94 0 -171 -39.5t-127.5 -104t-85 -150t-49.5 -174.5t-15 -181zM1206 1798l-227 -256h-213l123 256h317z" />
    <glyph glyph-name="oslashacute" unicode="&#x1ff;" horiz-adv-x="1148" 
d="M530 -31q-183 0 -311 90l-127 -133l-80 76l127 133q-104 126 -104 324q0 124 42.5 237t118.5 197.5t188 135t243 50.5q183 0 311 -96l119 125l80 -76l-121 -127q96 -123 96 -305q0 -169 -70.5 -312t-205 -231t-306.5 -88zM305 442q0 -68 14 -114l457 483q-61 61 -164 61
q-76 0 -136.5 -38t-96.5 -101t-55 -137.5t-19 -153.5zM842 608q0 52 -13 99l-452 -480q57 -51 158 -51q76 0 137 39t97 102.5t54.5 138t18.5 152.5zM1012 1470l-258 -288h-215l151 288h322z" />
    <glyph glyph-name="Scommaaccent" unicode="&#x218;" horiz-adv-x="1253" 
d="M598 -33q-103 0 -193.5 18t-167 56t-130 94.5t-81 137.5t-22.5 180h285q-7 -132 78 -190t239 -58q119 0 200 47.5t81 142.5q0 75 -64 122t-254 116q-107 39 -176 73t-126.5 82.5t-84 111.5t-26.5 147q0 208 145 326t389 118q92 0 173 -15.5t152 -50.5t120.5 -87
t76.5 -130t23 -174h-281q5 107 -66.5 165t-207.5 58q-60 0 -112.5 -14.5t-92.5 -55.5t-41 -102q-1 -30 9 -52t26.5 -39t58 -36.5t82.5 -35t121 -43.5q115 -39 193.5 -79.5t138 -93t87.5 -119.5t28 -153q0 -150 -76 -257t-205 -158.5t-299 -51.5zM344 -539l18 90
q135 27 150 132h-121l43 219h250l-41 -209q-40 -207 -299 -232z" />
    <glyph glyph-name="scommaaccent" unicode="&#x219;" horiz-adv-x="966" 
d="M459 -31q-98 0 -179.5 21.5t-146 65t-103.5 116t-46 168.5h260q8 -74 61 -122t154 -48q79 0 125.5 28.5t46.5 86.5q0 27 -14.5 47.5t-48 38t-71 31.5t-100.5 35q-6 2 -10 3q-69 23 -116 45.5t-93 58t-69 86.5t-23 118q0 156 113 243.5t297 87.5q182 0 299.5 -90.5
t130.5 -257.5h-252q-10 67 -57 109.5t-130 42.5q-65 0 -111 -25t-46 -80q0 -15 5 -27.5t18 -23t26 -18.5t39 -17.5t45.5 -16t58 -19t64.5 -21.5q64 -22 111.5 -45.5t92.5 -60t69 -89t24 -118.5q0 -168 -112 -260.5t-312 -92.5zM195 -539l18 90q134 27 149 132h-120l43 219
h250l-41 -209q-40 -207 -299 -232z" />
    <glyph glyph-name="uni021A" unicode="&#x21a;" horiz-adv-x="1198" 
d="M164 1217l47 247h1139l-47 -247h-424l-236 -1217h-293l236 1217h-422zM262 -539l19 90q134 27 149 132h-121l43 219h250l-41 -209q-40 -207 -299 -232z" />
    <glyph glyph-name="uni021B" unicode="&#x21b;" horiz-adv-x="659" 
d="M94 866l35 185h133l64 327h268l-64 -327h177l-35 -185h-176l-107 -547q-12 -61 7 -87.5t71 -26.5l82 4l-39 -205q-70 -6 -125 -6q-165 0 -233 68.5t-37 226.5l112 573h-133zM53 -539l19 90q134 27 149 132h-121l43 219h250l-41 -209q-40 -207 -299 -232z" />
    <glyph glyph-name="uni0237" unicode="&#x237;" horiz-adv-x="450" 
d="M-68 -346q-94 0 -168 20l37 197q83 -3 124 14.5t52 77.5l211 1088h275l-217 -1117q-18 -88 -43.5 -137.5t-65.5 -81.5q-78 -61 -205 -61z" />
    <glyph glyph-name="circumflex" unicode="&#x2c6;" 
d="M297 1190l229 258h291l156 -258h-232l-75 141h-4l-119 -141h-246z" />
    <glyph glyph-name="caron" unicode="&#x2c7;" 
d="M1012 1438l-230 -258h-290l-156 258h231l76 -142h4l119 142h246z" />
    <glyph glyph-name="uni02C9" unicode="&#x2c9;" 
d="M365 1212l36 195h574l-37 -195h-573z" />
    <glyph glyph-name="breve" unicode="&#x2d8;" 
d="M692 1174q-131 0 -204.5 75.5t-75.5 196.5h155q3 -46 36.5 -72t94.5 -26q57 0 95.5 27t52.5 71h158q-24 -122 -106.5 -197t-205.5 -75z" />
    <glyph glyph-name="dotaccent" unicode="&#x2d9;" 
d="M500 1214l47 250h274l-47 -250h-274z" />
    <glyph glyph-name="ring" unicode="&#x2da;" 
d="M662 1149q-82 0 -140.5 55.5t-58.5 136.5q0 79 58.5 136t140.5 57t140 -56.5t58 -136.5q0 -81 -58 -136.5t-140 -55.5zM662 1245q39 0 65.5 28t26.5 68t-26.5 68.5t-65.5 28.5t-66 -28.5t-27 -68.5t27 -68t66 -28z" />
    <glyph glyph-name="ogonek" unicode="&#x2db;" 
d="M481 -356q-88 0 -149.5 39.5t-61.5 117.5q0 68 47.5 115t126.5 84h181q-138 -91 -138 -150q0 -47 64 -47q22 0 57 13h4l-30 -156q-40 -16 -101 -16z" />
    <glyph glyph-name="tilde" unicode="&#x2dc;" 
d="M758 1178q-53 0 -122.5 33.5t-90.5 33.5q-22 0 -39 -17t-23 -46h-145q20 118 74 179.5t131 61.5q42 0 84 -17.5t75 -35.5t54 -18q28 0 42.5 15.5t24.5 47.5h146q-20 -109 -73 -173t-138 -64z" />
    <glyph glyph-name="hungarumlaut" unicode="&#x2dd;" 
d="M707 1182l114 288h260l-207 -288h-167zM356 1182l115 288h258l-205 -288h-168z" />
    <glyph glyph-name="uni0394" unicode="&#x394;" horiz-adv-x="1325" 
d="M-59 0l39 201l688 1263h299l252 -1261l-37 -203h-1241zM653 944l-372 -717h645l-127 699q-7 38 -14.5 105t-10.5 115l-4 48h-4q-70 -174 -113 -250z" />
    <glyph glyph-name="uni03A9" unicode="&#x3a9;" horiz-adv-x="1484" 
d="M1184 874q0 171 -83.5 274t-258.5 103q-101 0 -184 -39t-137 -103t-90.5 -149.5t-52.5 -176t-16 -185.5q0 -313 230 -381l-43 -217h-582l43 223h238v4q-80 59 -125 168.5t-45 237.5q0 131 32 255.5t98 234t157.5 192t219.5 130.5t275 48q180 0 320.5 -71t222.5 -211
t82 -330q0 -209 -82.5 -381.5t-235.5 -272.5v-4h203l-43 -223h-610l41 219q108 16 192 79.5t134 156t75 199t25 220.5z" />
    <glyph glyph-name="uni03BC" unicode="&#x3bc;" horiz-adv-x="1095" 
d="M385 -29q-79 0 -119 43h-6l-70 -358h-272l268 1395h275l-123 -631q-43 -217 131 -217q95 0 160 73t90 201l110 574h275l-203 -1051h-264l29 150h-7q-65 -91 -129 -135t-145 -44z" />
    <glyph glyph-name="pi" unicode="&#x3c0;" horiz-adv-x="1230" 
d="M518 870l-168 -870h-266l168 870h-156l35 181h1159l-35 -181h-161l-107 -551q-14 -72 15 -96.5t102 -15.5l-39 -203q-69 -6 -98 -6q-313 0 -254 293l112 579h-307z" />
    <glyph glyph-name="Wgrave" unicode="&#x1e80;" horiz-adv-x="1826" 
d="M326 0l-146 1464h297l43 -727q2 -38 3.5 -85.5t2 -88t0.5 -75v-54.5v-20h4q68 182 123 321l291 729h277l34 -727l9 -323h4q74 192 129 325l303 725h289l-656 -1464h-272l-43 788q-3 52 -4.5 120t-1.5 110v41h-4q-48 -150 -97 -271l-317 -788h-268zM983 1542l-147 256h297
l59 -256h-209z" />
    <glyph glyph-name="wgrave" unicode="&#x1e81;" horiz-adv-x="1490" 
d="M227 0l-118 1051h266l39 -488l10 -201h4q45 117 82 203l211 486h233l58 -486q4 -39 7.5 -90t4.5 -82l2 -31h4q45 115 80 201l197 488h270l-469 -1051h-246l-55 516l-19 205h-4q-45 -121 -82 -205l-227 -516h-248zM737 1182l-174 288h299l84 -288h-209z" />
    <glyph glyph-name="Wacute" unicode="&#x1e82;" horiz-adv-x="1826" 
d="M326 0l-146 1464h297l43 -727q2 -38 3.5 -85.5t2 -88t0.5 -75v-54.5v-20h4q68 182 123 321l291 729h277l34 -727l9 -323h4q74 192 129 325l303 725h289l-656 -1464h-272l-43 788q-3 52 -4.5 120t-1.5 110v41h-4q-48 -150 -97 -271l-317 -788h-268zM1430 1798l-228 -256
h-213l123 256h318z" />
    <glyph glyph-name="wacute" unicode="&#x1e83;" horiz-adv-x="1490" 
d="M227 0l-118 1051h266l39 -488l10 -201h4q45 117 82 203l211 486h233l58 -486q4 -39 7.5 -90t4.5 -82l2 -31h4q45 115 80 201l197 488h270l-469 -1051h-246l-55 516l-19 205h-4q-45 -121 -82 -205l-227 -516h-248zM1227 1470l-258 -288h-215l151 288h322z" />
    <glyph glyph-name="Wdieresis" unicode="&#x1e84;" horiz-adv-x="1826" 
d="M326 0l-146 1464h297l43 -727q2 -38 3.5 -85.5t2 -88t0.5 -75v-54.5v-20h4q68 182 123 321l291 729h277l34 -727l9 -323h4q74 192 129 325l303 725h289l-656 -1464h-272l-43 788q-3 52 -4.5 120t-1.5 110v41h-4q-48 -150 -97 -271l-317 -788h-268zM1159 1542l47 234h258
l-47 -234h-258zM752 1542l47 234h258l-47 -234h-258z" />
    <glyph glyph-name="wdieresis" unicode="&#x1e85;" horiz-adv-x="1490" 
d="M227 0l-118 1051h266l39 -488l10 -201h4q45 117 82 203l211 486h233l58 -486q4 -39 7.5 -90t4.5 -82l2 -31h4q45 115 80 201l197 488h270l-469 -1051h-246l-55 516l-19 205h-4q-45 -121 -82 -205l-227 -516h-248zM946 1190l47 233h254l-47 -233h-254zM502 1190l47 233
h254l-47 -233h-254z" />
    <glyph glyph-name="Ygrave" unicode="&#x1ef2;" horiz-adv-x="1243" 
d="M360 0l111 573l-287 891h301l125 -420q12 -40 25.5 -95t20.5 -89l8 -35h4q70 119 133 211l297 428h317l-653 -899l-109 -565h-293zM709 1542l-148 256h297l60 -256h-209z" />
    <glyph glyph-name="ygrave" unicode="&#x1ef3;" horiz-adv-x="999" 
d="M-27 -344l43 217h88q89 0 136 49t47 146q0 74 -35 235l-152 748h287l72 -478l30 -237h5q51 139 96 237l217 478h278l-542 -1102q-80 -163 -165 -228t-233 -65h-172zM504 1182l-174 288h299l84 -288h-209z" />
    <glyph glyph-name="uni2009" unicode="&#x2009;" horiz-adv-x="112" 
 />
    <glyph glyph-name="endash" unicode="&#x2013;" horiz-adv-x="1024" 
d="M63 403l46 236h847l-45 -236h-848z" />
    <glyph glyph-name="emdash" unicode="&#x2014;" horiz-adv-x="2048" 
d="M178 403l45 236h1641l-45 -236h-1641z" />
    <glyph glyph-name="quoteleft" unicode="&#x2018;" horiz-adv-x="405" 
d="M522 1470l-20 -96q-65 -15 -112 -61t-58 -125h131l-51 -266h-273l49 260q26 136 119 206t215 82z" />
    <glyph glyph-name="quoteright" unicode="&#x2019;" horiz-adv-x="405" 
d="M137 915l21 97q65 15 112 61t58 125h-131l51 266h272l-49 -260q-26 -136 -119 -206.5t-215 -82.5z" />
    <glyph glyph-name="quotesinglbase" unicode="&#x201a;" horiz-adv-x="405" 
d="M-94 -283l20 97q65 15 112 61t58 125h-131l51 266h273l-49 -260q-26 -136 -119 -206.5t-215 -82.5z" />
    <glyph glyph-name="quotedblleft" unicode="&#x201c;" horiz-adv-x="804" 
d="M922 1470l-21 -96q-65 -15 -112 -61t-58 -125h131l-51 -266h-272l49 260q26 136 119 206t215 82zM522 1470l-20 -96q-65 -15 -112 -61t-58 -125h131l-51 -266h-273l49 260q26 136 119 206t215 82z" />
    <glyph glyph-name="quotedblright" unicode="&#x201d;" horiz-adv-x="804" 
d="M137 915l21 97q65 15 112 61t58 125h-131l51 266h272l-49 -260q-26 -136 -119 -206.5t-215 -82.5zM537 915l20 97q65 15 112 61t58 125h-131l51 266h273l-50 -260q-26 -136 -118.5 -206.5t-214.5 -82.5z" />
    <glyph glyph-name="quotedblbase" unicode="&#x201e;" horiz-adv-x="804" 
d="M-94 -283l20 97q65 15 112 61t58 125h-131l51 266h273l-49 -260q-26 -136 -119 -206.5t-215 -82.5zM305 -283l21 97q65 15 112 61t58 125h-131l51 266h272l-49 -260q-26 -136 -119 -206.5t-215 -82.5z" />
    <glyph glyph-name="dagger" unicode="&#x2020;" horiz-adv-x="1138" 
d="M129 846l41 215h371l77 403h263l-78 -403h371l-41 -215h-371l-211 -1086h-262l211 1086h-371z" />
    <glyph glyph-name="daggerdbl" unicode="&#x2021;" horiz-adv-x="1138" 
d="M129 846l41 215h371l77 403h263l-78 -403h371l-41 -215h-371l-90 -467h370l-41 -215h-372l-78 -404h-262l78 404h-369l41 215h371l90 467h-371z" />
    <glyph glyph-name="bullet" unicode="&#x2022;" horiz-adv-x="706" 
d="M379 373q-118 0 -202.5 83.5t-84.5 200.5q0 119 84 203t203 84q117 0 201 -84.5t84 -202.5q0 -117 -84 -200.5t-201 -83.5z" />
    <glyph glyph-name="ellipsis" unicode="&#x2026;" horiz-adv-x="1456" 
d="M985 0l57 297h295l-57 -297h-295zM-31 0l58 297h295l-58 -297h-295zM477 0l58 297h294l-57 -297h-295z" />
    <glyph glyph-name="perthousand" unicode="&#x2030;" horiz-adv-x="2404" 
d="M254 0l1016 1405h176l-1016 -1405h-176zM428 616q-150 0 -233.5 93.5t-83.5 234.5q0 134 48 245t139.5 178t209.5 67q153 0 236 -94t83 -234q0 -134 -46.5 -244.5t-139 -178t-213.5 -67.5zM322 932q0 -160 110 -160q60 0 103 53t62 130.5t19 166.5q0 64 -26 110t-86 46
q-59 0 -102 -53.5t-61.5 -129.5t-18.5 -163zM1188 -33q-151 0 -234.5 94t-83.5 234q0 206 110.5 347.5t287.5 141.5q153 0 236 -93.5t83 -233.5q0 -134 -46.5 -244.5t-139 -178t-213.5 -67.5zM1081 283q0 -160 111 -160q60 0 103 53t62 130.5t19 166.5q0 64 -26 110t-86 46
q-59 0 -102 -53.5t-62 -130t-19 -162.5zM1960 -33q-151 0 -234.5 94t-83.5 234q0 206 110.5 347.5t287.5 141.5q153 0 236 -93.5t83 -233.5q0 -134 -46.5 -244.5t-139 -178t-213.5 -67.5zM1853 283q0 -160 111 -160q60 0 103 53t62 130.5t19 166.5q0 64 -26 110t-86 46
q-59 0 -102 -53.5t-62 -130t-19 -162.5z" />
    <glyph glyph-name="uni2032" unicode="&#x2032;" horiz-adv-x="405" 
d="M127 950l174 514h240l-174 -514h-240z" />
    <glyph glyph-name="uni2033" unicode="&#x2033;" horiz-adv-x="770" 
d="M492 950l174 514h239l-174 -514h-239zM127 950l174 514h240l-174 -514h-240z" />
    <glyph glyph-name="guilsinglleft" unicode="&#x2039;" horiz-adv-x="559" 
d="M360 113l-278 295l51 256l387 280l-53 -276l-211 -150v-4l154 -147z" />
    <glyph glyph-name="guilsinglright" unicode="&#x203a;" horiz-adv-x="559" 
d="M199 944l278 -295l-51 -256l-387 -280l53 276l211 150v4l-153 147z" />
    <glyph glyph-name="fraction" unicode="&#x2044;" horiz-adv-x="491" 
d="M-426 0l1237 1464h184l-1237 -1464h-184z" />
    <glyph glyph-name="zero.superior" unicode="&#x2070;" horiz-adv-x="798" 
d="M463 633q-152 0 -242 88.5t-90 247.5q0 76 17.5 149.5t52.5 139t84.5 115.5t118.5 79t149 29q145 0 234.5 -90t89.5 -248q0 -96 -27 -185.5t-77 -163t-130.5 -117.5t-179.5 -44zM469 795q52 1 92 37.5t61 93.5t31.5 115t10.5 112q0 170 -119 170q-53 0 -94 -38t-62.5 -97
t-32 -117t-10.5 -110q0 -166 123 -166z" />
    <glyph glyph-name="four.superior" unicode="&#x2074;" horiz-adv-x="763" 
d="M442 651l33 172h-381l35 187l465 463h209l-96 -496h120l-28 -154h-123l-33 -172h-201zM289 981v-4h217l53 270h-4z" />
    <glyph glyph-name="five.superior" unicode="&#x2075;" horiz-adv-x="718" 
d="M410 633q-136 0 -226 69.5t-96 188.5h199q8 -47 41 -73.5t86 -26.5q62 0 100.5 42t38.5 109q0 56 -30.5 87.5t-82.5 31.5q-74 0 -118 -53h-179l138 456h518l-35 -166h-365l-45 -145h2q72 57 166 57q108 0 175 -70.5t67 -183.5q0 -152 -99.5 -237.5t-254.5 -85.5z" />
    <glyph glyph-name="six.superior" unicode="&#x2076;" horiz-adv-x="735" 
d="M438 633q-149 0 -235.5 88.5t-85.5 245.5q0 114 42 228.5t122 188.5q56 49 117.5 73t146.5 24q112 0 186.5 -53.5t85.5 -167.5h-199q-5 39 -25.5 56t-62.5 17q-66 0 -117 -59.5t-73 -155.5h2q72 82 188 82q106 0 179 -65t73 -181q0 -141 -97.5 -231t-246.5 -90zM440 784
q60 0 101 42t41 110q0 55 -32 89t-89 34q-61 0 -102.5 -43t-41.5 -111q0 -55 33.5 -88t89.5 -33z" />
    <glyph glyph-name="seven.superior" unicode="&#x2077;" horiz-adv-x="677" 
d="M178 651q29 133 93 259.5t136.5 216t155.5 161.5v2h-391l33 174h610l-31 -157q-136 -116 -238 -285t-143 -371h-225z" />
    <glyph glyph-name="eight.superior" unicode="&#x2078;" horiz-adv-x="749" 
d="M432 633q-65 0 -122.5 13t-106.5 39.5t-78 73.5t-29 109q1 86 51.5 141.5t133.5 82.5v4q-86 50 -86 145q0 80 49.5 136t119.5 80t150 24q133 0 220.5 -53t86.5 -162q-1 -64 -39.5 -112.5t-101.5 -74.5v-4q54 -25 83.5 -70.5t29.5 -105.5q0 -69 -30.5 -121.5t-82.5 -83
t-114.5 -46t-133.5 -15.5zM440 780q61 0 101.5 34t40.5 93q0 53 -37 81t-92 28q-60 0 -102 -32.5t-42 -92.5q0 -53 38 -82t93 -29zM500 1145q53 0 87 26.5t34 75.5q0 45 -31 70.5t-78 25.5q-51 0 -85 -29t-34 -75t29.5 -70t77.5 -24z" />
    <glyph glyph-name="nine.superior" unicode="&#x2079;" horiz-adv-x="743" 
d="M393 631q-120 0 -201.5 56t-91.5 167h201q13 -74 102 -74q145 0 185 207h-2q-83 -86 -185 -86q-112 0 -186 70t-74 186q0 143 100 233.5t251 90.5q149 0 234 -83.5t85 -244.5q0 -114 -35 -229t-104 -187q-100 -106 -279 -106zM467 1051q60 0 101.5 43.5t41.5 111.5
q0 56 -32 88.5t-89 32.5q-62 0 -103.5 -42t-41.5 -109q-2 -56 31.5 -90.5t91.5 -34.5z" />
    <glyph glyph-name="zero.inferior" unicode="&#x2080;" horiz-adv-x="798" 
d="M287 -326q-152 0 -242 88.5t-90 247.5q0 76 17.5 149.5t52.5 139t84.5 115.5t118.5 79t149 29q145 0 234 -90t89 -248q0 -76 -16.5 -149t-50.5 -138.5t-82 -115t-116 -78.5t-148 -29zM293 -164q52 1 92 38t61 94t31 115t10 112q0 170 -118 170q-53 0 -94 -38.5t-62.5 -97
t-32 -117t-10.5 -110.5q0 -166 123 -166z" />
    <glyph glyph-name="one.inferior" unicode="&#x2081;" horiz-adv-x="505" 
d="M31 -307l100 512h-182l26 141q201 10 258 166h168l-159 -819h-211z" />
    <glyph glyph-name="two.inferior" unicode="&#x2082;" horiz-adv-x="716" 
d="M-111 -307q17 106 69.5 176t133.5 125q51 34 132.5 80.5t111.5 66.5q43 29 62.5 56.5t19.5 70.5q0 40 -24 64t-66 24q-53 0 -90 -39t-52 -112h-198q21 152 118.5 234.5t241.5 82.5q119 0 201 -62.5t82 -174.5q0 -48 -15 -89t-43 -74t-57.5 -57t-69.5 -49
q-23 -15 -122 -70t-129 -87h368l-33 -166h-641z" />
    <glyph glyph-name="three.inferior" unicode="&#x2083;" horiz-adv-x="727" 
d="M246 -326q-150 0 -241 79t-85 216h201q-2 -65 30.5 -102t98.5 -37q56 0 88.5 30.5t32.5 84.5q0 100 -121 100h-45l28 141h54q55 0 90 25.5t35 73.5q0 40 -27.5 63t-71.5 23q-54 0 -88 -33t-45 -86h-196q19 121 111.5 195.5t232.5 74.5q129 0 209.5 -58.5t80.5 -160.5
q-1 -66 -43 -114.5t-110 -71.5v-2q119 -49 119 -174q0 -83 -48 -145t-123.5 -92t-166.5 -30z" />
    <glyph glyph-name="four.inferior" unicode="&#x2084;" horiz-adv-x="763" 
d="M264 -307l33 172h-381l35 186l465 463h209l-97 -496h121l-28 -153h-123l-33 -172h-201zM111 23v-5h217l53 271h-4z" />
    <glyph glyph-name="five.inferior" unicode="&#x2085;" horiz-adv-x="718" 
d="M231 -326q-136 0 -225.5 69.5t-95.5 188.5h199q8 -47 41 -73.5t86 -26.5q62 0 100.5 42.5t38.5 109.5q0 56 -30.5 87t-82.5 31q-75 0 -119 -53h-178l137 457h519l-35 -166h-365l-45 -145h2q72 57 166 57q108 0 175 -70.5t67 -183.5q0 -152 -100 -238t-255 -86z" />
    <glyph glyph-name="six.inferior" unicode="&#x2086;" horiz-adv-x="735" 
d="M260 -326q-149 0 -235.5 88.5t-85.5 245.5q0 114 41.5 229t121.5 189q55 48 117.5 72t147.5 24q112 0 186.5 -53.5t85.5 -167.5h-199q-5 39 -25.5 56.5t-62.5 17.5q-66 0 -117 -59.5t-73 -155.5h2q72 82 188 82q106 0 179 -65t73 -181q0 -142 -97.5 -232t-246.5 -90z
M262 -174q60 0 100.5 41.5t40.5 109.5q0 55 -31.5 89t-88.5 34q-61 0 -102.5 -42.5t-41.5 -110.5q0 -55 33.5 -88t89.5 -33z" />
    <glyph glyph-name="seven.inferior" unicode="&#x2087;" horiz-adv-x="677" 
d="M0 -307q29 133 93 259.5t136.5 216t155.5 161.5v2h-391l33 174h610l-31 -158q-136 -116 -238 -284.5t-143 -370.5h-225z" />
    <glyph glyph-name="eight.inferior" unicode="&#x2088;" horiz-adv-x="749" 
d="M254 -326q-64 0 -122 13t-107 40t-78 74t-29 109q3 164 184 223v4q-86 50 -86 146q0 60 28.5 107.5t75.5 75.5t102 42t114 14q133 0 220.5 -53t86.5 -162q-1 -64 -39.5 -112t-101.5 -74v-4q54 -25 83 -70.5t29 -105.5q0 -69 -30 -121.5t-82 -83.5t-114.5 -46.5
t-133.5 -15.5zM262 -178q61 0 101 34t40 93q0 53 -37 80.5t-92 27.5q-60 0 -101.5 -32.5t-41.5 -92.5q0 -53 38 -81.5t93 -28.5zM322 186q53 0 86.5 27t33.5 76q0 45 -31 70.5t-77 25.5q-51 0 -85 -29t-34 -75t29.5 -70.5t77.5 -24.5z" />
    <glyph glyph-name="nine.inferior" unicode="&#x2089;" horiz-adv-x="743" 
d="M215 -328q-120 0 -201.5 56.5t-91.5 167.5h201q13 -74 102 -74q145 0 185 207h-2q-83 -86 -185 -86q-112 0 -186 70t-74 186q0 143 99.5 233t250.5 90q149 0 234.5 -83.5t85.5 -243.5q0 -114 -35 -229t-104 -187q-101 -107 -279 -107zM289 92q60 0 101.5 44t41.5 112
q0 56 -32 88.5t-89 32.5q-62 0 -103.5 -42.5t-41.5 -109.5q-2 -56 31.5 -90.5t91.5 -34.5z" />
    <glyph glyph-name="Euro" unicode="&#x20ac;" horiz-adv-x="1269" 
d="M831 756h-376q-14 -75 -19 -129h371l-23 -119h-350q7 -307 248 -307q108 -1 186.5 74.5t112.5 211.5h268q-47 -242 -200 -381t-375 -139q-239 0 -379.5 140.5t-149.5 400.5h-112l22 119h92q5 54 19 129h-86l22 118h93q76 248 249 404t396 156q229 0 347.5 -123
t123.5 -353h-271q-2 51 -11.5 91t-32.5 76.5t-66 56.5t-105 20q-115 0 -203 -89t-137 -239h369z" />
    <glyph glyph-name="afii61289" unicode="&#x2113;" horiz-adv-x="772" 
d="M29 537q73 19 114 32l123 627q63 285 332 285q141 0 203.5 -67t62.5 -197q0 -226 -127.5 -414.5t-339.5 -308.5l-28 -148q-14 -74 9 -107.5t93 -33.5q17 0 46 3t49 6l20 3l-41 -205q-76 -14 -142 -14q-194 0 -267.5 78.5t-39.5 251.5l8 49q-48 -13 -110 -23zM530 1178
l-90 -457q50 44 54 49q84 90 129 218t45 231q0 73 -56 73q-31 0 -50 -26t-32 -88z" />
    <glyph glyph-name="trademark" unicode="&#x2122;" horiz-adv-x="1368" 
d="M702 893l111 571h213l31 -360h4l170 360h221l-111 -571h-145l72 371h-4l-183 -371h-123l-36 371h-4l-72 -371h-144zM219 1333l25 131h487l-24 -131h-166l-86 -440h-158l86 440h-164z" />
    <glyph glyph-name="Omega" unicode="&#x2126;" horiz-adv-x="1484" 
d="M1184 874q0 171 -83.5 274t-258.5 103q-101 0 -184 -39t-137 -103t-90.5 -149.5t-52.5 -176t-16 -185.5q0 -313 230 -381l-43 -217h-582l43 223h238v4q-80 59 -125 168.5t-45 237.5q0 131 32 255.5t98 234t157.5 192t219.5 130.5t275 48q180 0 320.5 -71t222.5 -211
t82 -330q0 -209 -82.5 -381.5t-235.5 -272.5v-4h203l-43 -223h-610l41 219q108 16 192 79.5t134 156t75 199t25 220.5z" />
    <glyph glyph-name="estimated" unicode="&#x212e;" horiz-adv-x="1300" 
d="M1243 616h-862v-436q117 -104 321 -104q174 0 275 77.5t153 227.5h105q-42 -183 -178.5 -293.5t-354.5 -110.5q-286 0 -448 180.5t-162 475.5q0 287 168 469t432 182q212 0 355 -121q108 -91 153 -225.5t43 -321.5zM692 1192q-192 0 -311 -107v-378h580v403
q-105 82 -269 82z" />
    <glyph glyph-name="onethird" unicode="&#x2153;" horiz-adv-x="1646" 
d="M229 651l101 512h-183l27 142q202 10 258 165h168l-160 -819h-211zM88 0l1237 1464h184l-1237 -1464h-184zM1239 -18q-150 0 -241 78.5t-85 215.5h201q-2 -65 30.5 -102t98.5 -37q56 0 88.5 30.5t32.5 84.5q0 100 -121 100h-45l29 142h53q55 0 90 25t35 73q0 40 -27 63
t-71 23q-54 0 -88 -33t-45 -86h-197q19 121 111.5 195.5t232.5 74.5q129 0 210 -58.5t81 -160.5q-1 -66 -43.5 -114.5t-110.5 -71.5v-2q119 -49 119 -174q0 -83 -48 -144.5t-123.5 -91.5t-166.5 -30z" />
    <glyph glyph-name="twothirds" unicode="&#x2154;" horiz-adv-x="1812" 
d="M86 651q17 106 69.5 176t133.5 125q51 34 132 81t111 67q43 29 62.5 56.5t19.5 70.5q0 40 -24 64t-66 24q-53 0 -89.5 -39.5t-51.5 -112.5h-199q21 152 119 235t242 83q119 0 200.5 -63t81.5 -175q0 -91 -49.5 -153t-134.5 -115q-23 -15 -122.5 -70.5t-129.5 -87.5h369
l-33 -166h-641zM279 0l1237 1464h184l-1237 -1464h-184zM1405 -18q-150 0 -241 78.5t-85 215.5h201q-2 -65 30.5 -102t98.5 -37q56 0 88.5 30.5t32.5 84.5q0 100 -121 100h-45l29 142h53q55 0 90 25t35 73q0 40 -27 63t-71 23q-54 0 -88.5 -33t-45.5 -86h-196
q19 121 111.5 195.5t232.5 74.5q129 0 210 -58.5t81 -160.5q-1 -66 -43.5 -114.5t-110.5 -71.5v-2q119 -49 119 -174q0 -83 -48 -144.5t-123.5 -91.5t-166.5 -30z" />
    <glyph glyph-name="oneeighth" unicode="&#x215b;" horiz-adv-x="1662" 
d="M229 651l101 512h-183l27 142q202 10 258 165h168l-160 -819h-211zM88 0l1237 1464h184l-1237 -1464h-184zM1241 -18q-65 0 -122.5 13t-106.5 39.5t-78 73.5t-29 109q3 164 185 223v4q-86 50 -86 146q0 60 28.5 107.5t75.5 75.5t101.5 42t113.5 14q133 0 220.5 -53
t86.5 -162q-1 -64 -39.5 -112t-101.5 -74v-4q54 -25 83.5 -70.5t29.5 -105.5q0 -69 -30.5 -121.5t-82.5 -83t-114.5 -46t-133.5 -15.5zM1249 129q61 0 101.5 34t40.5 93q0 53 -37 81t-92 28q-60 0 -102 -32.5t-42 -92.5q0 -53 38 -82t93 -29zM1309 494q53 0 87 26.5t34 75.5
q0 45 -31 70.5t-78 25.5q-51 0 -85 -29t-34 -75t29.5 -70t77.5 -24z" />
    <glyph glyph-name="threeeighths" unicode="&#x215c;" horiz-adv-x="1757" 
d="M430 633q-150 0 -241 79t-85 216h201q-2 -65 30.5 -102.5t98.5 -37.5q56 0 88.5 30.5t32.5 84.5q0 101 -121 101h-45l29 141h53q55 0 90 25t35 73q0 40 -27 63t-71 23q-54 0 -88 -33t-45 -86h-197q19 121 111.5 196t232.5 75q129 0 210 -58.5t81 -160.5
q-1 -66 -43.5 -115t-110.5 -72v-2q119 -49 119 -174q0 -83 -48 -144.5t-123.5 -91.5t-166.5 -30zM213 0l1237 1464h184l-1237 -1464h-184zM1335 -18q-65 0 -122.5 13t-106.5 39.5t-78 73.5t-29 109q3 164 185 223v4q-86 50 -86 146q0 60 28.5 107.5t75.5 75.5t101.5 42
t113.5 14q133 0 220.5 -53t86.5 -162q-1 -64 -39.5 -112t-101.5 -74v-4q54 -25 83.5 -70.5t29.5 -105.5q0 -69 -30.5 -121.5t-82.5 -83t-114.5 -46t-133.5 -15.5zM1343 129q61 0 101.5 34t40.5 93q0 53 -37 81t-92 28q-60 0 -102 -32.5t-42 -92.5q0 -53 38 -82t93 -29z
M1403 494q53 0 87 26.5t34 75.5q0 45 -31 70.5t-78 25.5q-51 0 -85 -29t-34 -75t29.5 -70t77.5 -24z" />
    <glyph glyph-name="fiveeighths" unicode="&#x215d;" horiz-adv-x="1736" 
d="M416 633q-136 0 -226 69.5t-96 188.5h199q8 -47 41 -73.5t86 -26.5q62 0 100.5 42t38.5 109q0 56 -30.5 87.5t-82.5 31.5q-74 0 -118 -53h-178l137 456h518l-35 -166h-364l-46 -145h2q72 57 166 57q108 0 175 -70.5t67 -183.5q0 -152 -99.5 -237.5t-254.5 -85.5zM195 0
l1237 1464h184l-1237 -1464h-184zM1315 -18q-65 0 -122.5 13t-106.5 39.5t-78 73.5t-29 109q3 164 184 223v4q-86 50 -86 146q0 60 28.5 107.5t75.5 75.5t102 42t114 14q133 0 220.5 -53t86.5 -162q-1 -64 -39.5 -112t-101.5 -74v-4q54 -25 83 -70.5t29 -105.5
q0 -69 -30 -121.5t-82 -83t-114.5 -46t-133.5 -15.5zM1323 129q61 0 101 34t40 93q0 53 -37 81t-92 28q-60 0 -101.5 -32.5t-41.5 -92.5q0 -53 38 -82t93 -29zM1382 494q53 0 87 26.5t34 75.5q0 45 -31 70.5t-77 25.5q-51 0 -85 -29t-34 -75t29 -70t77 -24z" />
    <glyph glyph-name="seveneighths" unicode="&#x215e;" horiz-adv-x="1611" 
d="M184 651q29 133 93 259.5t136.5 216t155.5 161.5v2h-391l33 174h610l-30 -157q-136 -116 -238 -285t-143 -371h-226zM41 0l1237 1464h184l-1237 -1464h-184zM1190 -18q-65 0 -122.5 13t-106.5 39.5t-78 73.5t-29 109q3 164 184 223v4q-86 50 -86 146q0 60 28.5 107.5
t75.5 75.5t102 42t114 14q133 0 220.5 -53t86.5 -162q-1 -64 -39.5 -112t-101.5 -74v-4q54 -25 83 -70.5t29 -105.5q0 -69 -30 -121.5t-82 -83t-114.5 -46t-133.5 -15.5zM1198 129q61 0 101 34t40 93q0 53 -37 81t-92 28q-60 0 -101.5 -32.5t-41.5 -92.5q0 -53 38 -82
t93 -29zM1257 494q53 0 87 26.5t34 75.5q0 45 -31 70.5t-77 25.5q-51 0 -85 -29t-34 -75t29 -70t77 -24z" />
    <glyph glyph-name="partialdiff" unicode="&#x2202;" horiz-adv-x="1171" 
d="M807 854q-17 90 -62.5 158.5t-115 112.5t-152.5 70.5t-186 39.5v244q387 -20 603 -245t216 -611q0 -306 -139 -479t-414 -173q-239 0 -365 126.5t-126 342.5q0 225 136 366.5t345 141.5q173 0 260 -94zM561 188q122 0 191 91.5t69 224.5q0 115 -59.5 174t-157.5 59
q-117 0 -189.5 -77.5t-72.5 -223.5q0 -126 59.5 -187t159.5 -61z" />
    <glyph glyph-name="Delta" unicode="&#x2206;" horiz-adv-x="1325" 
d="M-59 0l39 201l688 1263h299l252 -1261l-37 -203h-1241zM653 944l-372 -717h645l-127 699q-7 38 -14.5 105t-10.5 115l-4 48h-4q-70 -174 -113 -250z" />
    <glyph glyph-name="product" unicode="&#x220f;" horiz-adv-x="1464" 
d="M168 1464h1198v-1669h-297v1419h-604v-1419h-297v1669z" />
    <glyph glyph-name="summation" unicode="&#x2211;" horiz-adv-x="1302" 
d="M1231 -205h-1094v256l578 594v4l-578 559v256h1073v-241h-741v-4l537 -504v-123l-551 -553v-4h776v-240z" />
    <glyph glyph-name="minus" unicode="&#x2212;" horiz-adv-x="1146" 
d="M78 571l39 201h1005l-39 -201h-1005z" />
    <glyph glyph-name="uni2215" unicode="&#x2215;" horiz-adv-x="491" 
d="M-426 0l1237 1464h184l-1237 -1464h-184z" />
    <glyph glyph-name="uni2219" unicode="&#x2219;" horiz-adv-x="440" 
d="M66 498l57 297h295l-58 -297h-294z" />
    <glyph glyph-name="radical" unicode="&#x221a;" horiz-adv-x="1210" 
d="M39 440v242h356l113 -285q21 -53 41.5 -110.5t30.5 -88.5l10 -32h4q24 114 63 233l342 1065h267l-541 -1669h-244l-268 645h-174z" />
    <glyph glyph-name="infinity" unicode="&#x221e;" horiz-adv-x="1484" 
d="M387 254q-103 0 -177 52t-109 134.5t-35 184.5q0 101 35.5 183t109.5 133.5t176 51.5q119 0 207 -61.5t164 -175.5q77 115 160.5 176t197.5 61q146 0 235 -101.5t89 -266.5q0 -166 -89 -268.5t-235 -102.5q-114 0 -197 61t-161 177q-77 -114 -164.5 -176t-206.5 -62z
M412 788q-64 0 -95.5 -45.5t-31.5 -117.5q0 -74 31.5 -120t95.5 -46q59 0 105.5 44t92.5 120q-45 77 -92 121t-106 44zM1094 459q64 0 96.5 46t32.5 120q0 72 -32.5 117.5t-96.5 45.5q-56 0 -101 -43.5t-90 -121.5q47 -77 91 -120.5t100 -43.5z" />
    <glyph glyph-name="integral" unicode="&#x222b;" horiz-adv-x="690" 
d="M217 -35v1254q0 144 68 215q46 46 108 65t164 19q96 0 178 -23v-209h-6q-49 17 -108 17q-65 0 -95 -24.5t-30 -86.5v-1253q0 -144 -68 -215q-46 -46 -108 -65t-164 -19q-100 0 -179 22v209h7q46 -16 108 -16q65 0 95 24t30 86z" />
    <glyph glyph-name="approxequal" unicode="&#x2248;" horiz-adv-x="1132" 
d="M133 694q17 143 93 217t196 74q69 0 228.5 -33.5t199.5 -33.5q64 0 76 65h192q-16 -131 -84.5 -207t-191.5 -76q-84 0 -245 33t-194 33q-59 0 -77 -72h-193zM74 297q15 143 90.5 217t195.5 74q69 0 228.5 -34t199.5 -34q64 0 76 66h193q-16 -131 -85 -207t-192 -76
q-85 0 -244.5 33t-193.5 33q-61 0 -76 -72h-192z" />
    <glyph glyph-name="notequal" unicode="&#x2260;" horiz-adv-x="1132" 
d="M141 735l39 197h490l102 180h186l-104 -180h262l-39 -197h-336l-114 -198h413l-39 -197h-487l-102 -180h-185l103 180h-264l38 197h338l115 198h-416z" />
    <glyph glyph-name="lessequal" unicode="&#x2264;" 
d="M864 254l-768 307l49 252l885 295l-45 -227l-473 -148q-31 -10 -81.5 -24t-84.5 -23l-35 -8v-4q120 -33 181 -56l413 -145zM-12 0l39 197h827l-39 -197h-827z" />
    <glyph glyph-name="greaterequal" unicode="&#x2265;" 
d="M854 197l-39 -197h-827l39 197h827zM203 1108l768 -307l-49 -252l-885 -295l45 227l473 148q31 10 81.5 24t85.5 23l34 8v4q-120 32 -181 55l-413 146z" />
    <glyph glyph-name="uni24C5" unicode="&#x24c5;" horiz-adv-x="1669" 
d="M868 -35q-209 0 -381 98.5t-272 273.5t-100 390q0 161 58.5 303.5t159 243t240 159t295.5 58.5q209 0 381 -99t271.5 -274.5t99.5 -390.5t-99.5 -390t-271.5 -273.5t-381 -98.5zM868 66q133 0 250.5 50.5t201.5 137.5t132.5 210t48.5 263q0 187 -82.5 338.5t-227.5 237.5
t-323 86q-134 0 -251.5 -50.5t-202 -138t-133 -210.5t-48.5 -263t48.5 -263t133 -210t202 -137.5t251.5 -50.5zM569 295v846h385q149 0 232 -80q82 -76 82 -205q0 -122 -78.5 -199t-206.5 -77h-201v-285h-213zM782 967v-224h152q58 0 89.5 29t31.5 82q0 54 -31.5 83.5
t-89.5 29.5h-152z" />
    <glyph glyph-name="lozenge" unicode="&#x25ca;" horiz-adv-x="1146" 
d="M748 1464l413 -733l-411 -731h-248l-414 733l412 731h248zM621 1214l-250 -477l254 -487h4l248 475l-252 489h-4z" />
    <glyph glyph-name="f_i" unicode="&#xf001;" horiz-adv-x="1103" 
d="M90 858l37 193h137l25 125q56 289 362 292q71 0 148 -12l-41 -213q-44 6 -78 6q-57 0 -85 -24.5t-40 -85.5l-18 -88h182l-37 -193h-182l-166 -858h-273l166 858h-137zM639 0l203 1051h274l-203 -1051h-274zM874 1214l48 250h274l-47 -250h-275z" />
    <glyph glyph-name="f_l" unicode="&#xf002;" horiz-adv-x="1112" 
d="M90 858l37 193h137l25 125q56 289 362 292q71 0 148 -12l-41 -213q-44 6 -78 6q-57 0 -85 -24.5t-40 -85.5l-18 -88h182l-37 -193h-182l-166 -858h-273l166 858h-137zM643 0l283 1464h274l-282 -1464h-275z" />
    <glyph glyph-name="uniF8FF" unicode="&#xf8ff;" horiz-adv-x="1753" 
d="M188 0v1466h1467v-1466h-1467zM430 883v-295h344v-346h295v346h344v295h-344v334h-295v-334h-344z" />
    <glyph glyph-name="dotlessj" horiz-adv-x="450" 
d="M-68 -346q-94 0 -168 20l37 197q83 -3 124 14.5t52 77.5l211 1088h275l-217 -1117q-18 -88 -43.5 -137.5t-65.5 -81.5q-78 -61 -205 -61z" />
    <glyph glyph-name="commaaccent" 
d="M250 -539l18 90q135 27 150 132h-121l43 219h250l-41 -209q-40 -207 -299 -232z" />
    <glyph glyph-name="zero.denominator" horiz-adv-x="798" 
d="M346 -18q-152 0 -242 88t-90 247q0 76 17.5 149.5t52.5 139t84.5 115.5t118.5 79t149 29q146 0 235 -89.5t89 -247.5q0 -96 -27 -185.5t-77 -163t-130.5 -117.5t-179.5 -44zM352 143q52 1 92 38t61 94t31.5 115t10.5 112q0 170 -119 170q-53 0 -94 -38.5t-62.5 -97
t-32 -117t-10.5 -110.5q0 -166 123 -166z" />
    <glyph glyph-name="one.denominator" horiz-adv-x="505" 
d="M90 0l100 512h-182l27 141q201 10 258 166h168l-160 -819h-211z" />
    <glyph glyph-name="two.denominator" horiz-adv-x="716" 
d="M-51 0q17 106 69.5 176t133.5 125q51 34 132 81t111 67q43 29 62.5 56t19.5 70q0 40 -24 64.5t-66 24.5q-53 0 -89.5 -39.5t-51.5 -112.5h-199q21 152 119 234.5t242 82.5q119 0 200.5 -62.5t81.5 -174.5q0 -91 -49.5 -153t-134.5 -115q-23 -15 -122.5 -70.5
t-129.5 -87.5h369l-33 -166h-641z" />
    <glyph glyph-name="three.denominator" horiz-adv-x="727" 
d="M305 -18q-150 0 -240.5 78.5t-84.5 215.5h200q-2 -65 30.5 -102t98.5 -37q56 0 88.5 30.5t32.5 84.5q0 100 -121 100h-45l29 142h53q55 0 90 25t35 73q0 40 -27 63t-71 23q-54 0 -88 -33t-45 -86h-197q19 121 111.5 195.5t232.5 74.5q129 0 210 -58.5t81 -160.5
q-1 -66 -43.5 -114.5t-110.5 -71.5v-2q119 -49 119 -174q0 -83 -48 -144.5t-123.5 -91.5t-166.5 -30z" />
    <glyph glyph-name="four.denominator" horiz-adv-x="763" 
d="M324 0l32 172h-381l35 186l465 463h209l-96 -495h121l-29 -154h-123l-33 -172h-200zM170 330v-4h217l53 270h-4z" />
    <glyph glyph-name="five.denominator" horiz-adv-x="718" 
d="M291 -18q-136 0 -226 69.5t-96 188.5h199q8 -47 41 -74t86 -27q62 0 100.5 42.5t38.5 109.5q0 56 -30 87.5t-82 31.5q-74 0 -119 -54h-178l137 457h518l-35 -166h-364l-45 -145h2q72 57 165 57q108 0 175 -70.5t67 -183.5q0 -152 -99.5 -237.5t-254.5 -85.5z" />
    <glyph glyph-name="six.denominator" horiz-adv-x="735" 
d="M319 -18q-149 0 -235.5 88t-85.5 245q0 114 42 229t122 189q56 48 117.5 72t146.5 24q112 0 186.5 -53.5t85.5 -167.5h-198q-5 39 -25.5 56.5t-62.5 17.5q-66 0 -117.5 -59.5t-73.5 -155.5h2q72 82 189 82q106 0 179 -65t73 -181q0 -141 -98 -231t-247 -90zM322 133
q60 0 100.5 42t40.5 110q0 55 -32 89t-89 34q-61 0 -102 -43t-41 -111q0 -55 33.5 -88t89.5 -33z" />
    <glyph glyph-name="seven.denominator" horiz-adv-x="677" 
d="M59 0q29 133 93 259.5t136.5 216t155.5 161.5v2h-391l33 174h610l-30 -158q-136 -116 -238 -284.5t-143 -370.5h-226z" />
    <glyph glyph-name="eight.denominator" horiz-adv-x="749" 
d="M313 -18q-65 0 -122.5 13t-106.5 39.5t-78 73.5t-29 109q3 164 185 223v4q-86 50 -86 146q0 60 28.5 107.5t75.5 75.5t101.5 42t113.5 14q133 0 220.5 -53t86.5 -162q-1 -64 -39.5 -112t-101.5 -74v-4q54 -25 83.5 -70.5t29.5 -105.5q0 -69 -30.5 -121.5t-82.5 -83
t-114.5 -46t-133.5 -15.5zM322 129q61 0 101 34t40 93q0 53 -37 81t-92 28q-60 0 -102 -32.5t-42 -92.5q0 -53 38.5 -82t93.5 -29zM381 494q53 0 87 26.5t34 75.5q0 45 -31 70.5t-78 25.5q-51 0 -85 -29t-34 -75t29.5 -70t77.5 -24z" />
    <glyph glyph-name="nine.denominator" horiz-adv-x="743" 
d="M274 -20q-120 0 -201 56t-91 167h200q13 -74 103 -74q144 0 184 207h-2q-83 -86 -184 -86q-112 0 -186 70t-74 186q0 143 99.5 233t250.5 90q149 0 234 -83.5t85 -243.5q0 -114 -35 -229t-104 -187q-100 -106 -279 -106zM348 399q60 0 102 44t42 112q0 56 -32 88.5
t-89 32.5q-62 0 -104 -42.5t-42 -109.5q-2 -56 31.5 -90.5t91.5 -34.5z" />
    <glyph glyph-name="zero.numerator" horiz-adv-x="798" 
d="M463 633q-152 0 -242 88.5t-90 247.5q0 76 17.5 149.5t52.5 139t84.5 115.5t118.5 79t149 29q145 0 234.5 -90t89.5 -248q0 -96 -27 -185.5t-77 -163t-130.5 -117.5t-179.5 -44zM469 795q52 1 92 37.5t61 93.5t31.5 115t10.5 112q0 170 -119 170q-53 0 -94 -38t-62.5 -97
t-32 -117t-10.5 -110q0 -166 123 -166z" />
    <glyph glyph-name="one.numerator" horiz-adv-x="505" 
d="M217 651l100 512h-182l27 142q202 10 258 165h168l-160 -819h-211z" />
    <glyph glyph-name="two.numerator" horiz-adv-x="716" 
d="M66 651q17 106 69.5 176t132.5 125q51 34 132.5 81t111.5 67q43 29 62.5 56.5t19.5 70.5q0 40 -24 64t-66 24q-53 0 -90 -39.5t-52 -112.5h-198q21 152 118.5 235t241.5 83q119 0 201 -63t82 -175q0 -91 -49.5 -153t-134.5 -115q-23 -15 -122.5 -70.5t-129.5 -87.5h368
l-32 -166h-641z" />
    <glyph glyph-name="three.numerator" horiz-adv-x="727" 
d="M424 633q-150 0 -241 79t-85 216h201q-2 -65 30.5 -102.5t98.5 -37.5q56 0 88.5 30.5t32.5 84.5q0 101 -121 101h-45l29 141h53q55 0 90 25t35 73q0 40 -27 63t-71 23q-54 0 -88.5 -33t-45.5 -86h-196q19 121 111.5 196t232.5 75q129 0 210 -58.5t81 -160.5
q-1 -66 -43.5 -115t-110.5 -72v-2q119 -49 119 -174q0 -83 -48 -144.5t-123.5 -91.5t-166.5 -30z" />
    <glyph glyph-name="four.numerator" horiz-adv-x="763" 
d="M442 651l33 172h-381l35 187l465 463h209l-96 -496h120l-28 -154h-123l-33 -172h-201zM289 981v-4h217l53 270h-4z" />
    <glyph glyph-name="five.numerator" horiz-adv-x="718" 
d="M410 633q-136 0 -226 69.5t-96 188.5h199q8 -47 41 -73.5t86 -26.5q62 0 100.5 42t38.5 109q0 56 -30.5 87.5t-82.5 31.5q-74 0 -118 -53h-179l138 456h518l-35 -166h-365l-45 -145h2q72 57 166 57q108 0 175 -70.5t67 -183.5q0 -152 -99.5 -237.5t-254.5 -85.5z" />
    <glyph glyph-name="six.numerator" horiz-adv-x="735" 
d="M438 633q-149 0 -235.5 88.5t-85.5 245.5q0 114 42 228.5t122 188.5q56 49 117.5 73t146.5 24q112 0 186.5 -53.5t85.5 -167.5h-199q-5 39 -25.5 56t-62.5 17q-66 0 -117 -59.5t-73 -155.5h2q72 82 188 82q106 0 179 -65t73 -181q0 -141 -97.5 -231t-246.5 -90zM440 784
q60 0 101 42t41 110q0 55 -32 89t-89 34q-61 0 -102.5 -43t-41.5 -111q0 -55 33.5 -88t89.5 -33z" />
    <glyph glyph-name="seven.numerator" horiz-adv-x="677" 
d="M178 651q29 133 93 259.5t136.5 216t155.5 161.5v2h-391l33 174h610l-31 -157q-136 -116 -238 -285t-143 -371h-225z" />
    <glyph glyph-name="eight.numerator" horiz-adv-x="749" 
d="M432 633q-65 0 -122.5 13t-106.5 39.5t-78 73.5t-29 109q1 86 51.5 141.5t133.5 82.5v4q-86 50 -86 145q0 80 49.5 136t119.5 80t150 24q133 0 220.5 -53t86.5 -162q-1 -64 -39.5 -112.5t-101.5 -74.5v-4q54 -25 83.5 -70.5t29.5 -105.5q0 -69 -30.5 -121.5t-82.5 -83
t-114.5 -46t-133.5 -15.5zM440 780q61 0 101.5 34t40.5 93q0 53 -37 81t-92 28q-60 0 -102 -32.5t-42 -92.5q0 -53 38 -82t93 -29zM500 1145q53 0 87 26.5t34 75.5q0 45 -31 70.5t-78 25.5q-51 0 -85 -29t-34 -75t29.5 -70t77.5 -24z" />
    <glyph glyph-name="nine.numerator" horiz-adv-x="743" 
d="M393 631q-120 0 -201.5 56t-91.5 167h201q13 -74 102 -74q145 0 185 207h-2q-83 -86 -185 -86q-112 0 -186 70t-74 186q0 143 100 233.5t251 90.5q149 0 234 -83.5t85 -244.5q0 -114 -35 -229t-104 -187q-100 -106 -279 -106zM467 1051q60 0 101.5 43.5t41.5 111.5
q0 56 -32 88.5t-89 32.5q-62 0 -103.5 -42t-41.5 -109q-2 -56 31.5 -90.5t91.5 -34.5z" />
    <glyph glyph-name="acute.cap" 
d="M1006 1798l-228 -256h-213l123 256h318z" />
    <glyph glyph-name="breve.cap" 
d="M770 1534q-131 0 -205 75.5t-76 196.5h156q3 -46 36.5 -72t94.5 -26q57 0 95.5 27t52.5 71h157q-24 -122 -106 -197t-205 -75z" />
    <glyph glyph-name="caron.alt" 
d="M481 1069l19 90q127 7 141 98h-119l39 207h250l-35 -186q-21 -109 -95.5 -158t-199.5 -51z" />
    <glyph glyph-name="caron.cap" 
d="M1083 1776l-227 -234h-295l-153 234h231l76 -121h4l119 121h245z" />
    <glyph glyph-name="circumflex.cap" 
d="M362 1542l228 234h295l153 -234h-231l-76 121h-4l-119 -121h-246z" />
    <glyph glyph-name="commaaccent.alt" 
d="M250 -539l18 90q135 27 150 132h-121l43 219h250l-41 -209q-40 -207 -299 -232z" />
    <glyph glyph-name="dieresis.cap" 
d="M772 1542l47 234h258l-47 -234h-258zM365 1542l47 234h258l-47 -234h-258z" />
    <glyph glyph-name="dotaccent.cap" 
d="M563 1542l49 242h275l-49 -242h-275z" />
    <glyph glyph-name="grave.cap" 
d="M625 1542l-148 256h297l60 -256h-209z" />
    <glyph glyph-name="hungarumlaut.cap" 
d="M778 1542l99 256h260l-191 -256h-168zM428 1542l98 256h258l-188 -256h-168z" />
    <glyph glyph-name="macron.cap" 
d="M428 1561l37 194h573l-37 -194h-573z" />
    <glyph glyph-name="ring.cap" 
d="M733 1520q-82 0 -140 55.5t-58 136.5q0 80 58 136.5t140 56.5t140.5 -57t58.5 -136q0 -81 -58.5 -136.5t-140.5 -55.5zM733 1616q39 0 65.5 28t26.5 68t-26.5 68t-65.5 28t-65.5 -28t-26.5 -68t26.5 -68t65.5 -28z" />
    <glyph glyph-name="tilde.cap" 
d="M829 1546q-53 0 -127.5 34t-95.5 34q-22 0 -38.5 -17.5t-22.5 -46.5h-146q18 117 73 179.5t132 62.5q42 0 86.5 -18t80 -36t56.5 -18q28 0 43 16t25 48h145q-18 -109 -72 -173.5t-139 -64.5z" />
    <glyph glyph-name="R.alt" horiz-adv-x="1333" 
d="M1327 1044q0 -168 -97.5 -284.5t-260.5 -163.5l241 -596h-311l-221 565h-258l-109 -565h-303l283 1464h555q225 0 353 -107.5t128 -312.5zM545 1208l-78 -403h287q58 0 104.5 11t85.5 35.5t60.5 69.5t21.5 107q0 86 -53.5 133t-151.5 47h-276z" />
    <glyph glyph-name="Racute.alt" horiz-adv-x="1333" 
d="M1327 1044q0 -168 -97.5 -284.5t-260.5 -163.5l241 -596h-311l-221 565h-258l-109 -565h-303l283 1464h555q225 0 353 -107.5t128 -312.5zM545 1208l-78 -403h287q58 0 104.5 11t85.5 35.5t60.5 69.5t21.5 107q0 86 -53.5 133t-151.5 47h-276zM1145 1798l-227 -256h-213
l122 256h318z" />
    <glyph glyph-name="Rcaron.alt" horiz-adv-x="1333" 
d="M1327 1044q0 -168 -97.5 -284.5t-260.5 -163.5l241 -596h-311l-221 565h-258l-109 -565h-303l283 1464h555q225 0 353 -107.5t128 -312.5zM545 1208l-78 -403h287q58 0 104.5 11t85.5 35.5t60.5 69.5t21.5 107q0 86 -53.5 133t-151.5 47h-276zM1169 1776l-227 -234h-295
l-153 234h231l76 -121h4l119 121h245z" />
    <glyph glyph-name="Rcommaaccent.alt" horiz-adv-x="1333" 
d="M1327 1044q0 -168 -97.5 -284.5t-260.5 -163.5l241 -596h-311l-221 565h-258l-109 -565h-303l283 1464h555q225 0 353 -107.5t128 -312.5zM545 1208l-78 -403h287q58 0 104.5 11t85.5 35.5t60.5 69.5t21.5 107q0 86 -53.5 133t-151.5 47h-276zM381 -539l18 90
q135 27 150 132h-121l43 219h250l-41 -209q-40 -207 -299 -232z" />
    <glyph glyph-name="Tcommaaccent" horiz-adv-x="1198" 
d="M164 1217l47 247h1139l-47 -247h-424l-236 -1217h-293l236 1217h-422zM262 -539l19 90q134 27 149 132h-121l43 219h250l-41 -209q-40 -207 -299 -232z" />
    <glyph glyph-name="idotaccent" horiz-adv-x="450" 
d="M-14 0l202 1051h275l-203 -1051h-274zM221 1214l47 250h275l-47 -250h-275z" />
    <glyph glyph-name="tcommaaccent" horiz-adv-x="659" 
d="M94 866l35 185h133l64 327h268l-64 -327h177l-35 -185h-176l-107 -547q-12 -61 7 -87.5t71 -26.5l82 4l-39 -205q-70 -6 -125 -6q-165 0 -233 68.5t-37 226.5l112 573h-133zM53 -539l19 90q134 27 149 132h-121l43 219h250l-41 -209q-40 -207 -299 -232z" />
    <glyph glyph-name="space_uni0326" 
d="M168 -539l18 90q135 27 150 132h-121l43 219h250l-41 -209q-40 -207 -299 -232z" />
    <glyph glyph-name="space_uni0326.alt" 
d="M854 1671l-18 -90q-135 -27 -150 -131h121l-43 -219h-250l41 209q40 206 299 231z" />
    <glyph glyph-name="a.alt" horiz-adv-x="1058" 
d="M260 309q0 -69 43.5 -106t114.5 -37q102 0 171 54.5t85 131.5l33 166q-59 -28 -201 -53q-14 -3 -51.5 -8t-57.5 -8.5t-50.5 -14.5t-46 -25t-28 -40t-12.5 -60zM645 125q-59 -71 -133.5 -110.5t-189.5 -39.5q-60 0 -116.5 18.5t-104 54.5t-76.5 97.5t-29 139.5
q0 81 26 141.5t67 96.5t106.5 60t128 34.5t149.5 17.5q59 5 89.5 8t67.5 9.5t54 14.5t33.5 21t22 31.5t5.5 44.5q0 57 -42.5 87t-120.5 30q-179 0 -215 -150h-246q27 163 149 254.5t322 91.5q101 0 180.5 -23t138 -71t80 -130.5t0.5 -193.5l-82 -419q-7 -35 6.5 -52
t55.5 -10h6l-33 -170q-43 -24 -117 -24q-90 0 -125.5 32.5t-56.5 108.5z" />
    <glyph glyph-name="agrave.alt" horiz-adv-x="1058" 
d="M260 309q0 -69 43.5 -106t114.5 -37q102 0 171 54.5t85 131.5l33 166q-59 -28 -201 -53q-14 -3 -51.5 -8t-57.5 -8.5t-50.5 -14.5t-46 -25t-28 -40t-12.5 -60zM645 125q-59 -71 -133.5 -110.5t-189.5 -39.5q-60 0 -116.5 18.5t-104 54.5t-76.5 97.5t-29 139.5
q0 81 26 141.5t67 96.5t106.5 60t128 34.5t149.5 17.5q59 5 89.5 8t67.5 9.5t54 14.5t33.5 21t22 31.5t5.5 44.5q0 57 -42.5 87t-120.5 30q-179 0 -215 -150h-246q27 163 149 254.5t322 91.5q101 0 180.5 -23t138 -71t80 -130.5t0.5 -193.5l-82 -419q-7 -35 6.5 -52
t55.5 -10h6l-33 -170q-43 -24 -117 -24q-90 0 -125.5 32.5t-56.5 108.5zM539 1182l-174 288h299l84 -288h-209z" />
    <glyph glyph-name="aacute.alt" horiz-adv-x="1058" 
d="M260 309q0 -69 43.5 -106t114.5 -37q102 0 171 54.5t85 131.5l33 166q-59 -28 -201 -53q-14 -3 -51.5 -8t-57.5 -8.5t-50.5 -14.5t-46 -25t-28 -40t-12.5 -60zM645 125q-59 -71 -133.5 -110.5t-189.5 -39.5q-60 0 -116.5 18.5t-104 54.5t-76.5 97.5t-29 139.5
q0 81 26 141.5t67 96.5t106.5 60t128 34.5t149.5 17.5q59 5 89.5 8t67.5 9.5t54 14.5t33.5 21t22 31.5t5.5 44.5q0 57 -42.5 87t-120.5 30q-179 0 -215 -150h-246q27 163 149 254.5t322 91.5q101 0 180.5 -23t138 -71t80 -130.5t0.5 -193.5l-82 -419q-7 -35 6.5 -52
t55.5 -10h6l-33 -170q-43 -24 -117 -24q-90 0 -125.5 32.5t-56.5 108.5zM991 1470l-258 -288h-215l152 288h321z" />
    <glyph glyph-name="acircumflex.alt" horiz-adv-x="1058" 
d="M260 309q0 -69 43.5 -106t114.5 -37q102 0 171 54.5t85 131.5l33 166q-59 -28 -201 -53q-14 -3 -51.5 -8t-57.5 -8.5t-50.5 -14.5t-46 -25t-28 -40t-12.5 -60zM645 125q-59 -71 -133.5 -110.5t-189.5 -39.5q-60 0 -116.5 18.5t-104 54.5t-76.5 97.5t-29 139.5
q0 81 26 141.5t67 96.5t106.5 60t128 34.5t149.5 17.5q59 5 89.5 8t67.5 9.5t54 14.5t33.5 21t22 31.5t5.5 44.5q0 57 -42.5 87t-120.5 30q-179 0 -215 -150h-246q27 163 149 254.5t322 91.5q101 0 180.5 -23t138 -71t80 -130.5t0.5 -193.5l-82 -419q-7 -35 6.5 -52
t55.5 -10h6l-33 -170q-43 -24 -117 -24q-90 0 -125.5 32.5t-56.5 108.5zM285 1190l229 258h291l156 -258h-232l-76 141h-4l-119 -141h-245z" />
    <glyph glyph-name="atilde.alt" horiz-adv-x="1058" 
d="M260 309q0 -69 43.5 -106t114.5 -37q102 0 171 54.5t85 131.5l33 166q-59 -28 -201 -53q-14 -3 -51.5 -8t-57.5 -8.5t-50.5 -14.5t-46 -25t-28 -40t-12.5 -60zM645 125q-59 -71 -133.5 -110.5t-189.5 -39.5q-60 0 -116.5 18.5t-104 54.5t-76.5 97.5t-29 139.5
q0 81 26 141.5t67 96.5t106.5 60t128 34.5t149.5 17.5q59 5 89.5 8t67.5 9.5t54 14.5t33.5 21t22 31.5t5.5 44.5q0 57 -42.5 87t-120.5 30q-179 0 -215 -150h-246q27 163 149 254.5t322 91.5q101 0 180.5 -23t138 -71t80 -130.5t0.5 -193.5l-82 -419q-7 -35 6.5 -52
t55.5 -10h6l-33 -170q-43 -24 -117 -24q-90 0 -125.5 32.5t-56.5 108.5zM745 1178q-53 0 -122.5 33.5t-90.5 33.5q-22 0 -38.5 -17t-22.5 -46h-145q20 118 73.5 179.5t130.5 61.5q42 0 84 -17.5t75 -35.5t54 -18q49 0 68 63h145q-20 -109 -73 -173t-138 -64z" />
    <glyph glyph-name="adieresis.alt" horiz-adv-x="1058" 
d="M260 309q0 -69 43.5 -106t114.5 -37q102 0 171 54.5t85 131.5l33 166q-59 -28 -201 -53q-14 -3 -51.5 -8t-57.5 -8.5t-50.5 -14.5t-46 -25t-28 -40t-12.5 -60zM645 125q-59 -71 -133.5 -110.5t-189.5 -39.5q-60 0 -116.5 18.5t-104 54.5t-76.5 97.5t-29 139.5
q0 81 26 141.5t67 96.5t106.5 60t128 34.5t149.5 17.5q59 5 89.5 8t67.5 9.5t54 14.5t33.5 21t22 31.5t5.5 44.5q0 57 -42.5 87t-120.5 30q-179 0 -215 -150h-246q27 163 149 254.5t322 91.5q101 0 180.5 -23t138 -71t80 -130.5t0.5 -193.5l-82 -419q-7 -35 6.5 -52
t55.5 -10h6l-33 -170q-43 -24 -117 -24q-90 0 -125.5 32.5t-56.5 108.5zM731 1190l47 233h254l-47 -233h-254zM287 1190l47 233h254l-47 -233h-254z" />
    <glyph glyph-name="amacron.alt" horiz-adv-x="1058" 
d="M260 309q0 -69 43.5 -106t114.5 -37q102 0 171 54.5t85 131.5l33 166q-59 -28 -201 -53q-14 -3 -51.5 -8t-57.5 -8.5t-50.5 -14.5t-46 -25t-28 -40t-12.5 -60zM645 125q-59 -71 -133.5 -110.5t-189.5 -39.5q-60 0 -116.5 18.5t-104 54.5t-76.5 97.5t-29 139.5
q0 81 26 141.5t67 96.5t106.5 60t128 34.5t149.5 17.5q59 5 89.5 8t67.5 9.5t54 14.5t33.5 21t22 31.5t5.5 44.5q0 57 -42.5 87t-120.5 30q-179 0 -215 -150h-246q27 163 149 254.5t322 91.5q101 0 180.5 -23t138 -71t80 -130.5t0.5 -193.5l-82 -419q-7 -35 6.5 -52
t55.5 -10h6l-33 -170q-43 -24 -117 -24q-90 0 -125.5 32.5t-56.5 108.5zM348 1212l37 195h573l-36 -195h-574z" />
    <glyph glyph-name="abreve.alt" horiz-adv-x="1058" 
d="M260 309q0 -69 43.5 -106t114.5 -37q102 0 171 54.5t85 131.5l33 166q-59 -28 -201 -53q-14 -3 -51.5 -8t-57.5 -8.5t-50.5 -14.5t-46 -25t-28 -40t-12.5 -60zM645 125q-59 -71 -133.5 -110.5t-189.5 -39.5q-60 0 -116.5 18.5t-104 54.5t-76.5 97.5t-29 139.5
q0 81 26 141.5t67 96.5t106.5 60t128 34.5t149.5 17.5q59 5 89.5 8t67.5 9.5t54 14.5t33.5 21t22 31.5t5.5 44.5q0 57 -42.5 87t-120.5 30q-179 0 -215 -150h-246q27 163 149 254.5t322 91.5q101 0 180.5 -23t138 -71t80 -130.5t0.5 -193.5l-82 -419q-7 -35 6.5 -52
t55.5 -10h6l-33 -170q-43 -24 -117 -24q-90 0 -125.5 32.5t-56.5 108.5zM643 1174q-131 0 -205 75.5t-76 196.5h156q3 -46 36.5 -72t94.5 -26q57 0 95.5 27t52.5 71h157q-24 -122 -106 -197t-205 -75z" />
    <glyph glyph-name="aring.alt" horiz-adv-x="1058" 
d="M260 309q0 -69 43.5 -106t114.5 -37q102 0 171 54.5t85 131.5l33 166q-59 -28 -201 -53q-14 -3 -51.5 -8t-57.5 -8.5t-50.5 -14.5t-46 -25t-28 -40t-12.5 -60zM645 125q-59 -71 -133.5 -110.5t-189.5 -39.5q-60 0 -116.5 18.5t-104 54.5t-76.5 97.5t-29 139.5
q0 81 26 141.5t67 96.5t106.5 60t128 34.5t149.5 17.5q59 5 89.5 8t67.5 9.5t54 14.5t33.5 21t22 31.5t5.5 44.5q0 57 -42.5 87t-120.5 30q-179 0 -215 -150h-246q27 163 149 254.5t322 91.5q101 0 180.5 -23t138 -71t80 -130.5t0.5 -193.5l-82 -419q-7 -35 6.5 -52
t55.5 -10h6l-33 -170q-43 -24 -117 -24q-90 0 -125.5 32.5t-56.5 108.5zM651 1149q-82 0 -140 55.5t-58 136.5q0 80 58 136.5t140 56.5t140.5 -57t58.5 -136q0 -81 -58.5 -136.5t-140.5 -55.5zM651 1245q39 0 65.5 28t26.5 68t-26.5 68.5t-65.5 28.5t-65.5 -28.5
t-26.5 -68.5t26.5 -68t65.5 -28z" />
    <glyph glyph-name="aogonek.alt" horiz-adv-x="1058" 
d="M774 -356q-88 0 -149.5 39.5t-61.5 117.5q0 118 170 197q-37 14 -56 44t-32 83q-59 -71 -133.5 -110.5t-189.5 -39.5q-60 0 -116.5 18.5t-104 54.5t-76.5 97.5t-29 139.5q0 81 26 141.5t67 96.5t106.5 60t128 34.5t149.5 17.5q59 5 89.5 8t67.5 9.5t54 14.5t33.5 21
t22 31.5t5.5 44.5q0 57 -42.5 87t-120.5 30q-179 0 -215 -150h-246q27 163 149 254.5t322 91.5q101 0 180.5 -23t138 -71t80 -130.5t0.5 -193.5l-82 -419q-7 -35 6.5 -52t55.5 -10h6l-33 -170q-56 -24 -110 -68t-54 -90q0 -47 64 -47q22 0 57 13h4l-31 -156
q-40 -16 -100 -16zM260 309q0 -69 43.5 -106t114.5 -37q102 0 171 54.5t85 131.5l33 166q-59 -28 -201 -53q-14 -3 -51.5 -8t-57.5 -8.5t-50.5 -14.5t-46 -25t-28 -40t-12.5 -60z" />
    <glyph glyph-name="Ccedilla.alt" horiz-adv-x="1378" 
d="M471 -344l10 57q110 7 123 86h-102l30 150h218l-23 -115q-20 -100 -85 -139t-171 -39zM678 -31q-190 0 -328.5 81t-208 221t-69.5 321q0 169 53.5 329t150.5 288t247.5 206t330.5 78q114 0 207.5 -29.5t166 -88t115.5 -154.5t50 -222h-289q-21 246 -273 246
q-92 0 -169.5 -38.5t-130.5 -102.5t-89.5 -148.5t-53.5 -175.5t-17 -184q0 -80 17 -146.5t54 -121.5t102.5 -86t155.5 -31q127 0 215 68.5t127 191.5h289q-67 -251 -229 -375q-90 -68 -189.5 -97.5t-234.5 -29.5z" />
    <glyph glyph-name="Scedilla.alt" horiz-adv-x="1253" 
d="M406 -344l10 57q110 7 123 86h-103l31 150h217l-22 -115q-20 -100 -85 -139t-171 -39zM598 -33q-103 0 -193.5 18t-167 56t-130 94.5t-81 137.5t-22.5 180h285q-7 -132 78 -190t239 -58q119 0 200 47.5t81 142.5q0 75 -64 122t-254 116q-107 39 -176 73t-126.5 82.5
t-84 111.5t-26.5 147q0 208 145 326t389 118q92 0 173 -15.5t152 -50.5t120.5 -87t76.5 -130t23 -174h-281q5 107 -66.5 165t-207.5 58q-60 0 -112.5 -14.5t-92.5 -55.5t-41 -102q-1 -30 9 -52t26.5 -39t58 -36.5t82.5 -35t121 -43.5q115 -39 193.5 -79.5t138 -93
t87.5 -119.5t28 -153q0 -150 -76 -257t-205 -158.5t-299 -51.5z" />
    <glyph glyph-name="ccedilla.alt" horiz-adv-x="1052" 
d="M301 -344l10 57q110 7 123 86h-102l30 150h218l-23 -115q-20 -100 -85 -139t-171 -39zM502 -31q-98 0 -181.5 28t-148.5 83t-102 146t-37 208q0 97 25 191t74 176t117 144t160.5 98t196.5 36q187 0 306.5 -95t129.5 -290h-268q-8 78 -51.5 121t-124.5 43
q-73 0 -130.5 -38.5t-91.5 -102.5t-51.5 -138.5t-17.5 -152.5q0 -108 51 -172t160 -64q165 0 219 181h267q-43 -189 -176 -295.5t-326 -106.5z" />
    <glyph glyph-name="scedilla.alt" horiz-adv-x="962" 
d="M260 -344l10 57q110 7 123 86h-102l31 150h217l-23 -115q-20 -100 -85 -139t-171 -39zM455 -31q-98 0 -179.5 21.5t-146 65t-103.5 116t-46 168.5h260q8 -74 61 -122t154 -48q79 0 125.5 28.5t46.5 86.5q0 27 -14.5 47.5t-48 38t-71 31.5t-100.5 35q-6 2 -10 3
q-69 23 -116 45.5t-93 58t-69 86.5t-23 118q0 156 113 243.5t297 87.5q182 0 299.5 -90.5t130.5 -257.5h-252q-10 67 -57 109.5t-130 42.5q-65 0 -111 -25t-46 -80q0 -15 5 -27.5t18 -23t26 -18.5t39 -17.5t45.5 -16t58 -19t64.5 -21.5q64 -22 111.5 -45.5t92.5 -60t69 -89
t24 -118.5q0 -168 -112 -260.5t-312 -92.5z" />
    <glyph glyph-name="hyphen.cap" horiz-adv-x="690" 
d="M53 522l49 248h576l-49 -248h-576z" />
    <glyph glyph-name="endash.cap" horiz-adv-x="1024" 
d="M90 545l45 231h848l-45 -231h-848z" />
    <glyph glyph-name="emdash.cap" horiz-adv-x="2048" 
d="M205 545l45 231h1642l-45 -231h-1642z" />
    <glyph glyph-name="questiondown.cap" horiz-adv-x="1058" 
d="M780 1036q-14 -75 -36.5 -132.5t-44 -93.5t-60.5 -70.5t-65.5 -52t-79.5 -48.5q-4 -2 -13 -7q-40 -21 -60.5 -33t-52 -36.5t-47.5 -47t-29 -57t-13 -75.5q0 -86 52.5 -131t143.5 -45q109 0 187 65.5t100 192.5h266q-40 -226 -191 -359t-374 -133q-130 0 -233 42.5
t-166.5 132t-63.5 214.5q0 136 65.5 230.5t202.5 177.5q23 14 59.5 35t52 30.5t40 25.5t35.5 26.5t26 27t22.5 33t15.5 38.5t13 50h248zM885 1464l-58 -297h-295l58 297h295z" />
    <glyph glyph-name="exclamdown.cap" horiz-adv-x="512" 
d="M422 1036l-64 -712l-61 -324h-287l66 344l213 692h133zM582 1464l-58 -297h-295l58 297h295z" />
    <glyph glyph-name="parenleft.cap" horiz-adv-x="696" 
d="M297 -207q-156 315 -156 649q0 633 506 1164h248q-223 -260 -352 -569t-129 -629q0 -316 108 -615h-225z" />
    <glyph glyph-name="parenright.cap" horiz-adv-x="696" 
d="M463 1606q155 -313 155 -650q0 -633 -505 -1163h-248q223 260 352 569t129 629q0 316 -108 615h225z" />
    <glyph glyph-name="bracketleft.cap" horiz-adv-x="759" 
d="M-14 -207l352 1813h575l-43 -213h-311l-268 -1387h311l-41 -213h-575z" />
    <glyph glyph-name="bracketright.cap" horiz-adv-x="759" 
d="M-90 -207l41 213h313l268 1387h-313l43 213h578l-353 -1813h-577z" />
    <glyph glyph-name="braceleft.cap" horiz-adv-x="759" 
d="M559 -207h-39q-224 0 -318.5 95t-51.5 309l51 252q16 81 -12.5 120t-122.5 45l38 199q96 3 139.5 37.5t57.5 112.5l51 276q17 92 45 158t63 106.5t86 63.5t103.5 31t124.5 8h137l-43 -217h-84q-83 0 -118 -35t-54 -135l-59 -322q-16 -86 -55 -126t-111 -66v-7
q59 -30 79.5 -82t2.5 -141l-59 -299q-18 -93 18 -129.5t127 -36.5h47z" />
    <glyph glyph-name="braceright.cap" horiz-adv-x="759" 
d="M262 1606h39q224 0 319 -95t52 -309l-49 -244q-16 -81 12.5 -120t122.5 -45l-39 -199q-96 -3 -139.5 -37.5t-57.5 -112.5l-53 -284q-20 -111 -56.5 -184t-92.5 -112.5t-120 -55t-153 -15.5h-137l43 217h84q83 0 118 35t54 135l61 330q16 86 55 126t111 66v7
q-59 30 -79.5 82t-2.5 141l58 291q18 93 -18.5 129.5t-127.5 36.5h-47z" />
    <glyph glyph-name="guillemotleft.cap" horiz-adv-x="901" 
d="M725 233l-236 281l52 270l342 265l-54 -271l-190 -145v-4l133 -146zM342 233l-236 281l52 270l342 265l-54 -271l-190 -145v-4l133 -146z" />
    <glyph glyph-name="guillemotright.cap" horiz-adv-x="901" 
d="M219 1049l236 -281l-52 -270l-342 -265l54 271l190 145v4l-133 146zM602 1049l236 -281l-52 -270l-342 -265l54 271l190 145v4l-133 146z" />
    <glyph glyph-name="guilsinglleft.cap" horiz-adv-x="559" 
d="M383 225l-279 295l52 256l387 281l-54 -277l-210 -149v-4l153 -148z" />
    <glyph glyph-name="guilsinglright.cap" horiz-adv-x="559" 
d="M221 1057l279 -295l-51 -256l-388 -281l54 277l211 149v4l-154 148z" />
    <glyph glyph-name="registered.alt" horiz-adv-x="1669" 
d="M868 -35q-209 0 -381 98.5t-272 273.5t-100 390q0 161 58.5 303.5t159 243t240 159t295.5 58.5q209 0 381 -99t271.5 -274.5t99.5 -390.5t-99.5 -390t-271.5 -273.5t-381 -98.5zM868 66q133 0 250.5 50.5t201.5 137.5t132.5 210t48.5 263q0 187 -82.5 338.5t-227.5 237.5
t-323 86q-134 0 -251.5 -50.5t-202 -138t-133 -210.5t-48.5 -263t48.5 -263t133 -210t202 -137.5t251.5 -50.5zM539 311v834h403q130 0 214.5 -64t84.5 -178q0 -148 -145 -201v-4q56 -18 84 -55.5t37 -103.5q4 -28 7 -62t5 -56.5t4.5 -44t8 -33.5t13.5 -15v-17h-208
q-10 6 -15 32t-9 78t-9 83q-8 62 -39 89.5t-96 27.5h-131v-310h-209zM748 981v-205h153q129 0 129 103q0 102 -125 102h-157z" />
    <glyph glyph-name="dollar.cap" horiz-adv-x="1239" 
d="M416 -207l39 199q-103 13 -186 47.5t-145 91t-93.5 140.5t-26.5 190h279q-6 -115 50 -172.5t165 -71.5l82 420q-82 29 -139.5 55t-111 62t-85 77t-50 96.5t-18.5 125.5q0 205 147.5 320.5t389.5 115.5h30l27 133h123l-29 -145q184 -30 291 -138.5t100 -300.5h-274
q6 170 -160 213l-73 -379q112 -37 187 -74.5t131 -88.5t82 -117.5t26 -153.5q0 -145 -77 -249.5t-206.5 -154.5t-298.5 -50h-17l-36 -191h-123zM885 406q0 64 -38.5 103t-154.5 85l-74 -383q119 3 193 53t74 142zM455 1090q-2 -61 36.5 -99.5t141.5 -77.5l67 351
q-63 -1 -115 -16.5t-90.5 -56t-39.5 -101.5z" />
    <glyph glyph-name="Euro.cap" horiz-adv-x="1329" 
d="M862 791h-395q-12 -66 -18 -140h387l-25 -123h-367q2 -69 16.5 -125t44 -101t80.5 -70t120 -25q113 -1 194 78.5t117 222.5h278q-50 -252 -208.5 -395.5t-389.5 -143.5q-249 0 -391 143.5t-151 415.5h-123l22 123h103q6 74 18 140h-92l22 122h99q79 258 256 418t409 160
q239 0 362.5 -126.5t129.5 -365.5h-283q-8 254 -223 254q-119 0 -210.5 -92.5t-143.5 -247.5h387z" />
    <glyph glyph-name="sterling.cap" horiz-adv-x="1214" 
d="M109 805h100q-43 123 -43 209q0 146 73 256t195 166.5t273 56.5q258 0 383 -125q69 -68 99 -162t21 -235h-286q16 289 -219 289q-105 0 -169.5 -65t-64.5 -185q0 -61 33 -205h319l-35 -180h-247q0 -7 1 -21.5t1 -21.5q0 -91 -60.5 -173t-150.5 -145l2 -4q9 3 28.5 10
t31 10.5t29 8t35 6.5t36.5 2q67 0 161.5 -32t151.5 -32q106 0 215 93l111 -220q-67 -62 -153 -99.5t-179 -37.5q-62 0 -124.5 16t-106 34.5t-102 34.5t-112.5 16q-40 0 -85.5 -15.5t-67 -27.5t-74.5 -43l-121 221q48 30 90 64.5t82 79.5t63 100t23 112q0 34 -6 64h-188z" />
    <glyph glyph-name="yen.cap" horiz-adv-x="1275" 
d="M131 563l25 123h315l-295 774h318l137 -424l51 -186h4q62 104 119 184l305 426h326l-592 -774h313l-24 -123h-365l-27 -137h365l-25 -123h-364l-58 -303h-278l57 303h-356l22 123h359l26 137h-358z" />
    <glyph glyph-name="zero.cap" horiz-adv-x="1325" 
d="M618 -33q-255 0 -395.5 162t-140.5 434q0 92 13.5 185t42.5 184.5t70.5 174.5t100 153.5t129 122t160.5 81t190 29.5q246 0 385.5 -164t139.5 -436q0 -130 -24.5 -257.5t-79 -249t-133.5 -214t-197.5 -149t-260.5 -56.5zM377 551q0 -342 252 -342q85 0 153.5 47.5
t111 121t71 169t40 184.5t11.5 174q0 346 -248 346q-84 0 -153.5 -49.5t-112 -125.5t-72 -172.5t-41.5 -185t-12 -167.5z" />
    <glyph glyph-name="one.cap" horiz-adv-x="800" 
d="M252 0l197 1028h-322l37 182q164 5 266.5 63t147.5 195h247l-284 -1468h-289z" />
    <glyph glyph-name="two.cap" horiz-adv-x="1146" 
d="M985 0h-1030q18 108 58.5 199t101.5 160.5t122.5 119.5t143.5 101q43 27 109.5 67.5t99.5 61t80.5 52.5t70.5 53t51.5 51.5t41 58.5t21.5 64t9 77q0 82 -47.5 134t-134.5 52q-216 0 -272 -301h-279q31 257 183 399t391 142q203 0 330.5 -112.5t127.5 -307.5
q0 -72 -15.5 -134.5t-48 -115t-68.5 -94t-90 -82.5t-99 -69.5t-109 -65.5q-26 -15 -91 -51t-98 -56t-79.5 -51t-75.5 -59t-45 -57h686z" />
    <glyph glyph-name="three.cap" horiz-adv-x="1187" 
d="M561 -27q-177 0 -302 68.5t-181.5 186t-42.5 266.5h280q-8 -138 58.5 -216.5t199.5 -78.5q123 0 188.5 65.5t65.5 179.5q0 105 -65 164.5t-189 59.5h-63l41 215h92q103 0 172.5 54.5t69.5 156.5q0 79 -52 129.5t-143 50.5q-116 0 -184 -72t-88 -190h-277
q27 213 175.5 347t381.5 134q219 0 347.5 -102t128.5 -271q0 -133 -77.5 -223.5t-211.5 -128.5v-4q105 -33 171 -112t66 -212q0 -208 -155 -337.5t-406 -129.5z" />
    <glyph glyph-name="four.cap" horiz-adv-x="1245" 
d="M604 0l62 322h-664l59 303l820 850h286l-178 -926h219l-47 -227h-217l-61 -322h-279zM289 555v-6h422l108 561h-4z" />
    <glyph glyph-name="five.cap" horiz-adv-x="1189" 
d="M532 -33q-148 0 -267 52t-191 157.5t-72 247.5h281q8 -97 75 -157t181 -60q126 0 210.5 84t84.5 227q0 114 -63 179t-177 65q-140 0 -227 -96h-261l234 798h881l-47 -237h-664l-98 -336h4q119 104 295 104q189 0 306.5 -122t117.5 -332q0 -170 -80 -302t-216.5 -202
t-306.5 -70z" />
    <glyph glyph-name="six.cap" horiz-adv-x="1224" 
d="M606 -33q-250 0 -390 159.5t-138 424.5q2 220 74 435t210 345q173 162 429 162q182 0 302.5 -92t141.5 -285h-277q-21 156 -186 156q-141 0 -235 -115.5t-136 -306.5h5q131 154 344 154q180 0 306.5 -129.5t125.5 -339.5q-2 -245 -164 -406.5t-412 -161.5zM358 455
q0 -117 68 -189.5t182 -72.5q130 0 209.5 86.5t79.5 232.5q0 116 -61.5 188t-178.5 72q-131 0 -215 -87t-84 -230z" />
    <glyph glyph-name="seven.cap" horiz-adv-x="1112" 
d="M160 0q37 191 117.5 380t183.5 344t204.5 276.5t206.5 218.5v4h-702l47 241h1022l-45 -231q-121 -105 -229.5 -233t-207 -282.5t-173.5 -339t-115 -378.5h-309z" />
    <glyph glyph-name="eight.cap" horiz-adv-x="1249" 
d="M588 -33q-83 0 -161.5 14.5t-153.5 48t-130.5 82.5t-89.5 124t-33 167q1 155 90 257.5t242 146.5v6q-76 40 -115.5 109t-39.5 153q0 131 77 228t197 143.5t264 46.5q99 0 186.5 -21.5t160 -64.5t115 -118t42.5 -173q0 -107 -68.5 -197t-189.5 -137v-6q95 -41 148 -127
t53 -194q0 -95 -31 -175.5t-86 -137.5t-130 -97t-162.5 -59t-184.5 -19zM315 424q0 -107 78.5 -166t202.5 -59q126 0 208.5 66.5t82.5 193.5q0 108 -77.5 167.5t-195.5 59.5q-55 0 -107 -16t-95.5 -47t-70 -82.5t-26.5 -116.5zM479 1071q-1 -93 61 -140.5t167 -47.5
q109 0 177 50t68 150q0 90 -61 141.5t-160 51.5q-107 0 -179 -53t-73 -152z" />
    <glyph glyph-name="nine.cap" horiz-adv-x="1249" 
d="M549 -33q-73 0 -141.5 14t-131 44.5t-109.5 74.5t-77.5 108t-36.5 142h287q11 -69 68.5 -115.5t152.5 -46.5q75 0 134 30t101 88.5t71 134t51 177.5h-5q-78 -74 -152.5 -111.5t-170.5 -37.5q-210 0 -339.5 118t-129.5 322q0 170 80 304.5t214 207t296 72.5
q248 0 391 -149t143 -429q0 -198 -60 -411t-167 -340q-170 -197 -469 -197zM412 948q-1 -119 66 -185.5t184 -66.5q130 0 215.5 81.5t85.5 226.5q0 119 -67.5 192.5t-182.5 73.5q-128 0 -214 -91.5t-87 -230.5z" />
    <glyph glyph-name="percent.cap" horiz-adv-x="1665" 
d="M248 0l1067 1464h176l-1067 -1464h-176zM455 676q-151 0 -234.5 94t-83.5 234q0 206 110.5 347.5t287.5 141.5q153 0 236 -94t83 -234q0 -134 -46.5 -244.5t-139 -177.5t-213.5 -67zM348 991q0 -160 111 -160q60 0 103.5 53.5t62 130.5t18.5 167q0 64 -26.5 109.5
t-86.5 45.5q-59 0 -102 -53.5t-61.5 -129.5t-18.5 -163zM1208 -33q-150 0 -233.5 93.5t-83.5 234.5q0 206 110 347.5t287 141.5q153 0 236.5 -93.5t83.5 -233.5q0 -134 -47 -244.5t-139.5 -178t-213.5 -67.5zM1102 283q0 -160 110 -160q60 0 103.5 53t62.5 130.5t19 166.5
q0 64 -26.5 110t-86.5 46q-59 0 -102 -53.5t-61.5 -129.5t-18.5 -163z" />
    <glyph glyph-name="perthousand.cap" horiz-adv-x="2430" 
d="M240 0l1077 1464h176l-1077 -1464h-176zM455 676q-151 0 -234.5 94t-83.5 234q0 206 110.5 347.5t287.5 141.5q153 0 236 -94t83 -234q0 -134 -46.5 -244.5t-139 -177.5t-213.5 -67zM348 991q0 -160 111 -160q60 0 103.5 53.5t62 130.5t18.5 167q0 64 -26.5 109.5
t-86.5 45.5q-59 0 -102 -53.5t-61.5 -129.5t-18.5 -163zM1194 -33q-150 0 -233.5 93.5t-83.5 234.5q0 206 110 347.5t287 141.5q153 0 236 -93.5t83 -233.5q0 -134 -46.5 -244.5t-139 -178t-213.5 -67.5zM1087 283q0 -160 111 -160q60 0 103 53t62 130.5t19 166.5
q0 64 -26 110t-86 46q-59 0 -102 -53.5t-62 -130t-19 -162.5zM1974 -33q-150 0 -233.5 93.5t-83.5 234.5q0 206 110 347.5t287 141.5q153 0 236.5 -93.5t83.5 -233.5q0 -134 -47 -244.5t-139.5 -178t-213.5 -67.5zM1868 283q0 -160 110 -160q60 0 103.5 53t62.5 130.5
t19 166.5q0 64 -26.5 110t-86.5 46q-59 0 -102 -53.5t-61.5 -129.5t-18.5 -163z" />
    </font>
</defs>
</svg>
