<?xml version="1.0" standalone="no"?>
<!DOCTYPE svg PUBLIC "-//W3C//DTD SVG 1.1//EN" "http://www.w3.org/Graphics/SVG/1.1/DTD/svg11.dtd" >
<svg xmlns="http://www.w3.org/2000/svg" xmlns:xlink="http://www.w3.org/1999/xlink" version="1.1">
<metadata>
Created by FontForge 20170731 at Mon Oct  9 01:25:59 2023
 By Aleksey,,,
Copyright (c) 2011 - 2012 Linotype Corp., www.linotype.com. All rights reserved. This font software may not be reproduced, modified, disclosed or transferred without the express written approval of Linotype Corp. Neue Haas Grotesk is a trademark of Linotype Corp. registered in the U.S. Patent and Trademark Office and may be registered in certain other jurisdictions in the name of Linotype Corp. or its licensee Linotype GmbH. This typeface is original artwork of Christian Schwartz. The design may be protected in certain jurisdictions.
</metadata>
<defs>
<font id="NHaasGroteskTXPro-66MdIt" horiz-adv-x="1320" >
  <font-face 
    font-family="NeueHaasGroteskText Pro Md"
    font-weight="500"
    font-style="italic"
    font-stretch="normal"
    units-per-em="2048"
    panose-1="2 11 6 4 2 2 2 9 2 4"
    ascent="1597"
    descent="-451"
    x-height="1094"
    cap-height="1524"
    bbox="-623 -522 2640 2011"
    underline-thickness="102"
    underline-position="-307"
    slope="-11"
    unicode-range="U+0020-FB04"
  />
<missing-glyph horiz-adv-x="1024" 
 />
    <glyph glyph-name="f_f" unicode="ff" horiz-adv-x="1386" 
d="M162 1094h155l27 135q17 83 47 136t78 89q82 64 233 64q71 0 158 -19l-35 -186q-124 11 -170 -10t-59 -95l-23 -114h385l29 147q27 160 131 232q80 57 228 57q74 0 161 -19l-37 -186q-126 11 -173 -9.5t-62 -94.5l-25 -127h222l-35 -176h-221l-177 -918h-254l179 918
h-385l-179 -918h-254l177 918h-158z" />
    <glyph glyph-name="fi" unicode="fi" horiz-adv-x="1224" 
d="M162 1094h157l29 147q27 151 121 223q87 66 250 66q83 -4 149 -19l-34 -186q-126 11 -174.5 -9.5t-61.5 -94.5l-25 -127h220l-35 -176h-219l-179 -918h-254l179 918h-160zM745 0l213 1094h256l-213 -1094h-256zM1249 1272h-260l51 252h260z" />
    <glyph glyph-name="fl" unicode="fl" horiz-adv-x="1228" 
d="M348 1241q15 85 46.5 138.5t84.5 90.5q85 60 230 60q72 0 159 -19l-34 -186q-126 11 -174.5 -9.5t-61.5 -94.5l-25 -127h220l-35 -176h-219l-179 -918h-254l179 918h-160l37 176h157zM745 0l297 1524h256l-297 -1524h-256z" />
    <glyph glyph-name="f_f_i" unicode="ffi" horiz-adv-x="1861" 
d="M162 1094h155l27 135q17 83 47 136t78 89q82 64 233 64q71 0 158 -19l-35 -186q-124 11 -170 -10t-59 -95l-23 -114h385l29 147q27 157 131 229q83 60 238 60q82 -3 151 -19l-34 -186q-126 11 -174.5 -9.5t-61.5 -94.5l-25 -127h220l-35 -176h-219l-179 -918h-254
l179 918h-385l-179 -918h-254l177 918h-158zM1384 0l213 1094h256l-213 -1094h-256zM1888 1272h-260l51 252h260z" />
    <glyph glyph-name="f_f_l" unicode="ffl" horiz-adv-x="1867" 
d="M162 1094h155l27 135q17 83 47 136t78 89q82 64 233 64q71 0 158 -19l-35 -186q-124 11 -170 -10t-59 -95l-23 -114h385l29 147q15 86 47 141t86 91q77 57 228 57q72 0 159 -19l-34 -186q-126 11 -174.5 -9.5t-61.5 -94.5l-25 -127h220l-35 -176h-219l-179 -918h-254
l179 918h-385l-179 -918h-254l177 918h-158zM1384 0l297 1524h256l-297 -1524h-256z" />
    <glyph glyph-name=".notdef" horiz-adv-x="1024" 
 />
    <glyph glyph-name=".null" horiz-adv-x="0" 
 />
    <glyph glyph-name=".null" horiz-adv-x="0" 
 />
    <glyph glyph-name="nonmarkingreturn" horiz-adv-x="682" 
 />
    <glyph glyph-name="space" unicode=" " horiz-adv-x="493" 
 />
    <glyph glyph-name="exclam" unicode="!" horiz-adv-x="559" 
d="M201 489l57 615l82 420h268l-84 -434l-190 -601h-133zM37 0l55 285h281l-56 -285h-280z" />
    <glyph glyph-name="quotedbl" unicode="&#x22;" horiz-adv-x="819" 
d="M573 975l109 549h225l-108 -549h-226zM193 975l106 549h227l-108 -549h-225z" />
    <glyph glyph-name="numbersign" unicode="#" horiz-adv-x="1218" 
d="M621 0l84 397h-254l-84 -397h-177l84 397h-204l47 201h200l60 287h-203l47 200h199l80 375h178l-80 -375h252l80 375h178l-80 -375h207l-47 -200h-203l-59 -287h207l-50 -201h-200l-84 -397h-178zM555 885l-61 -287h254l59 287h-252z" />
    <glyph glyph-name="dollar" unicode="$" horiz-adv-x="1300" 
d="M436 -240l45 236q-212 35 -326 159t-116 310h268q15 -217 215 -266l88 452q-94 31 -161 64t-125 81t-87.5 114.5t-29.5 152.5q0 189 143 304.5t389 115.5h33l31 153h125l-33 -168q172 -32 271 -136t110 -259h-254q-6 69 -49 119.5t-117 75.5l-80 -404h2q78 -25 137 -50.5
t117 -63t95 -81.5t60 -105.5t23 -135.5q0 -198 -154 -321t-407 -123q-31 0 -45 2l-43 -226h-125zM936 406q0 72 -48 118t-161 88l-84 -426h8q128 0 206.5 59.5t78.5 160.5zM473 1094q-1 -64 42.5 -108t143.5 -83l74 383h-6q-121 0 -186.5 -52.5t-67.5 -139.5z" />
    <glyph glyph-name="percent" unicode="%" horiz-adv-x="1843" 
d="M371 0l1011 1458h168l-1011 -1458h-168zM492 641q-150 0 -241 96.5t-91 255.5q0 213 115.5 355.5t291.5 142.5q152 0 239 -95t87 -255q0 -214 -115.5 -357t-285.5 -143zM494 795q61 0 108 54.5t70.5 138.5t23.5 179q0 83 -34 129.5t-99 46.5q-61 0 -108 -53.5t-70 -136.5
t-23 -178q0 -85 32.5 -132.5t99.5 -47.5zM1358 -35q-149 0 -239.5 96t-90.5 254q0 214 115 357t291 143q152 0 238.5 -96t86.5 -256q0 -214 -115.5 -356t-285.5 -142zM1362 117q61 0 107.5 55.5t69 140t22.5 179.5q0 83 -33 128.5t-98 45.5q-61 0 -108 -54t-70 -137
t-23 -178q0 -180 133 -180z" />
    <glyph glyph-name="ampersand" unicode="&#x26;" horiz-adv-x="1398" 
d="M551 -29q-108 0 -199 26t-159.5 76t-107 128.5t-38.5 177.5q0 96 30.5 174.5t89 138.5t132 105t172.5 84l-4 8q-88 130 -88 274q0 163 111 272t298 109q153 0 256 -83.5t103 -227.5q3 -270 -350 -418l34 -55l175 -301q73 126 106 295h223q-52 -283 -202 -482l172 -272
h-291l-47 76l-15 20q-174 -125 -401 -125zM575 178q141 0 267 92l-277 457q-248 -119 -248 -324q0 -105 71.5 -165t186.5 -60zM621 1178q0 -106 77 -199l11 -16q202 95 202 256q0 62 -36.5 100.5t-94.5 38.5q-74 0 -116.5 -51t-42.5 -129z" />
    <glyph glyph-name="quotesingle" unicode="'" horiz-adv-x="436" 
d="M193 975l106 549h227l-108 -549h-225z" />
    <glyph glyph-name="parenleft" unicode="(" horiz-adv-x="712" 
d="M338 -274q-188 344 -188 729q0 353 142.5 645t381.5 506h221q-236 -260 -357.5 -552.5t-121.5 -652.5q0 -372 123 -675h-201z" />
    <glyph glyph-name="parenright" unicode=")" horiz-adv-x="712" 
d="M-131 -274q237 263 360 554.5t123 649.5q0 371 -127 676h203q190 -344 190 -729q0 -352 -143 -643t-383 -508h-223z" />
    <glyph glyph-name="asterisk" unicode="*" horiz-adv-x="892" 
d="M360 815l-114 92l188 215l-215 78l72 137l217 -75l53 262h162l-53 -262l239 73l31 -139l-254 -80l115 -219l-139 -82l-109 227z" />
    <glyph glyph-name="plus" unicode="+" horiz-adv-x="1218" 
d="M131 598l39 201h383l82 411h215l-82 -411h387l-39 -201h-387l-80 -414h-215l80 414h-383z" />
    <glyph glyph-name="comma" unicode="," horiz-adv-x="479" 
d="M-70 -346l25 121q136 20 166 198l6 27h-131l55 285h283l-62 -318q-33 -161 -116 -232.5t-226 -80.5z" />
    <glyph glyph-name="hyphen" unicode="-" horiz-adv-x="745" 
d="M74 451l43 223h567l-43 -223h-567z" />
    <glyph glyph-name="period" unicode="." horiz-adv-x="479" 
d="M-4 0l55 285h283l-55 -285h-283z" />
    <glyph glyph-name="slash" unicode="/" horiz-adv-x="913" 
d="M-199 -274l1061 1880h246l-1059 -1880h-248z" />
    <glyph glyph-name="zero" unicode="0" horiz-adv-x="1370" 
d="M643 -35q-170 0 -292 77t-182 210.5t-60 310.5q0 183 51 351.5t141.5 296t224.5 204t289 76.5q247 0 386.5 -161t139.5 -431q0 -187 -48 -356t-136 -297.5t-221 -204.5t-293 -76zM647 178q102 0 185 65t134 171.5t78 234t27 260.5q0 174 -66.5 273.5t-199.5 99.5
q-65 0 -124 -30.5t-105 -83.5t-83.5 -124t-61.5 -152t-37 -167.5t-13 -171.5q0 -178 65.5 -276.5t200.5 -98.5z" />
    <glyph glyph-name="one" unicode="1" horiz-adv-x="839" 
d="M291 0l192 1001h-333l34 177q167 5 278.5 72.5t170.5 219.5h207l-287 -1470h-262z" />
    <glyph glyph-name="two" unicode="2" horiz-adv-x="1218" 
d="M-35 0q25 146 84 248.5t150 181.5q41 37 88 71t104 67.5t95.5 55t108 57.5t95.5 50q71 37 117 67.5t86 70.5t59 89.5t19 110.5q0 93 -58 152t-159 59q-118 0 -187 -66q-92 -74 -123 -258h-260q40 255 183 392q153 143 399 143q225 0 351 -115t126 -295q0 -63 -12.5 -117
t-39 -99t-56 -80t-77 -71t-87 -61.5t-99.5 -60.5q-50 -33 -173 -98t-208.5 -125.5t-138.5 -135.5l-2 -4h713l-45 -229h-1053z" />
    <glyph glyph-name="three" unicode="3" horiz-adv-x="1284" 
d="M629 -35q-271 0 -434 156q-70 68 -102.5 167t-26.5 204h256q-5 -141 72.5 -229.5t240.5 -88.5q131 0 210 72t79 196q0 100 -69 167t-187 67h-99l37 188h78q311 0 311 226q0 91 -59 147.5t-164 56.5q-127 0 -208.5 -78t-98.5 -210h-258q31 226 184.5 355.5t394.5 129.5
q134 0 240.5 -43.5t171 -131.5t64.5 -206q0 -130 -80 -219t-219 -127v-4q106 -33 169.5 -123t63.5 -203q0 -149 -77 -257t-203.5 -160t-286.5 -52z" />
    <glyph glyph-name="four" unicode="4" horiz-adv-x="1277" 
d="M647 0l66 342h-680l47 236l870 897h244l-184 -934h221l-39 -199h-221l-68 -342h-256zM268 532q127 9 207 9h277l86 432q6 36 19.5 88.5t23.5 86.5l10 34h-4q-90 -117 -160 -187l-264 -272q-31 -33 -80 -79.5t-82 -76.5l-33 -30v-5z" />
    <glyph glyph-name="five" unicode="5" horiz-adv-x="1241" 
d="M582 -35q-121 0 -222.5 35.5t-169 95.5t-106 138.5t-41.5 166.5h264q10 -95 80 -157t195 -62q137 0 224 94t87 250q0 115 -64.5 186.5t-177.5 71.5q-84 1 -156.5 -34.5t-117.5 -92.5h-248l268 801h838l-41 -217h-643l-123 -369h4q120 113 307 113q82 0 157 -29t135 -83
t96 -141t36 -195q0 -257 -162.5 -414.5t-418.5 -157.5z" />
    <glyph glyph-name="six" unicode="6" horiz-adv-x="1282" 
d="M625 168q142 0 232.5 102.5t90.5 251.5q0 117 -73.5 189.5t-188.5 72.5q-147 0 -242.5 -95.5t-95.5 -242.5q0 -126 76 -202t201 -76zM627 -35q-247 0 -389 158q-132 144 -132 416q0 233 80.5 454.5t221.5 345.5q169 152 405 152q107 0 192.5 -30.5t139.5 -83t84.5 -118.5
t36.5 -141h-254q-8 76 -59.5 127t-149.5 51q-149 0 -254 -126.5t-162 -356.5h4q144 164 367 164q189 0 314.5 -126.5t125.5 -320.5q0 -115 -43.5 -219t-118.5 -180t-181.5 -121t-227.5 -45z" />
    <glyph glyph-name="seven" unicode="7" horiz-adv-x="1136" 
d="M176 0q48 250 174.5 496t285 432t331.5 311v4q-145 -10 -301 -10h-467l45 225h1024l-41 -205q-128 -101 -246.5 -231.5t-224.5 -288.5t-184.5 -348t-112.5 -385h-283z" />
    <glyph glyph-name="eight" unicode="8" horiz-adv-x="1286" 
d="M621 166q149 0 231 79.5t82 205.5q0 108 -80 177.5t-217 69.5q-148 0 -233 -79t-85 -207q0 -111 81 -178.5t221 -67.5zM745 872q119 0 191 62.5t72 165.5q0 91 -66 145.5t-178 54.5q-120 0 -194 -62t-74 -163q0 -94 68.5 -148.5t180.5 -54.5zM623 -35q-158 0 -287 50.5
t-207 151t-78 234.5q0 164 100.5 268t262.5 142v6q-79 42 -124.5 114t-45.5 161q0 174 146 286.5t378 112.5q222 0 358 -102.5t136 -272.5q0 -128 -72.5 -218t-208.5 -126v-6q102 -41 160.5 -131t58.5 -201q0 -147 -76 -254.5t-205.5 -161t-295.5 -53.5z" />
    <glyph glyph-name="nine" unicode="9" horiz-adv-x="1290" 
d="M676 674q149 0 245.5 96.5t96.5 247.5q0 123 -76 197.5t-199 74.5q-145 0 -237 -98t-92 -246q0 -123 71 -197.5t191 -74.5zM559 -35q-112 0 -203 31.5t-150 86t-93 125.5t-39 154h254q10 -86 65.5 -142t167.5 -56q113 0 207 78q137 118 203 393l-4 2q-148 -158 -353 -158
q-196 0 -324 130.5t-128 322.5q0 115 44 217.5t121 178t187.5 119.5t237.5 44q223 0 362 -129q152 -140 152 -406q0 -259 -92 -506t-250 -370q-153 -115 -365 -115z" />
    <glyph glyph-name="colon" unicode=":" horiz-adv-x="491" 
d="M129 653l55 283h281l-53 -283h-283zM2 0l55 285h283l-55 -285h-283z" />
    <glyph glyph-name="semicolon" unicode=";" horiz-adv-x="491" 
d="M129 653l55 283h281l-53 -283h-283zM-63 -346l24 121q136 20 166 198l6 27h-131l55 285h283l-61 -318q-33 -161 -116 -232.5t-226 -80.5z" />
    <glyph glyph-name="less" unicode="&#x3c;" horiz-adv-x="1099" 
d="M903 170l-784 373l47 245l928 363l-45 -238l-428 -157q-56 -20 -132 -43.5t-124 -36.5l-48 -14v-5q161 -51 265 -96l366 -162z" />
    <glyph glyph-name="equal" unicode="=" horiz-adv-x="1214" 
d="M172 770l39 199h969l-37 -199h-971zM94 358l37 199h971l-41 -199h-967z" />
    <glyph glyph-name="greater" unicode="&#x3e;" horiz-adv-x="1099" 
d="M57 170l45 238l430 157q54 20 129.5 43.5t124.5 37.5l48 13v5q-161 53 -265 98l-368 160l47 229l782 -371l-45 -248z" />
    <glyph glyph-name="question" unicode="?" horiz-adv-x="1136" 
d="M285 0l55 285h281l-56 -285h-280zM403 489q19 108 50.5 176.5t77 113.5t128.5 98q21 13 60 36.5t61 37t51.5 37.5t45 46.5t27 56t11.5 72.5q0 77 -56 125.5t-159 48.5q-119 0 -199 -74t-100 -210h-256q31 235 179.5 366t394.5 131q212 0 340.5 -103t128.5 -276
q0 -70 -20.5 -130t-59 -105.5t-77.5 -77t-91 -63.5q-34 -21 -77 -47.5t-64.5 -39.5t-45 -30t-40.5 -33q-31 -31 -47 -65.5t-27 -90.5h-236z" />
    <glyph glyph-name="at" unicode="@" horiz-adv-x="1902" 
d="M842 199q-140 0 -226 97t-86 255q0 229 120 379.5t304 150.5q170 0 232 -147h2l26 127h226l-107 -553q-16 -79 5 -119.5t85 -40.5q43 0 84 23.5t78.5 72t60.5 137.5t23 205q0 142 -47 252.5t-132 181t-200 106.5t-254 36q-123 0 -237 -35.5t-209.5 -106t-166.5 -167.5
t-111 -226.5t-40 -277.5q0 -136 42.5 -250.5t122 -198t201.5 -130t273 -46.5q189 0 383 70l49 -137q-196 -86 -425 -86q-241 0 -428 94t-293 273.5t-105 418.5q0 177 53 333t144.5 269.5t212.5 196t259.5 123.5t282.5 41q127 0 244.5 -30t218 -91t175 -147t117 -205
t42.5 -259q0 -280 -123.5 -436.5t-312.5 -156.5q-113 0 -185 45t-92 129h-4q-104 -170 -282 -170zM907 371q104 0 168.5 97.5t69.5 242.5v14q0 84 -40.5 134t-113.5 50q-102 0 -162.5 -99.5t-60.5 -246.5q0 -89 33.5 -140.5t105.5 -51.5z" />
    <glyph glyph-name="A" unicode="A" horiz-adv-x="1447" 
d="M-72 0l838 1524h297l250 -1524h-291l-49 365h-565l-191 -365h-289zM705 926l-189 -357h428l-45 344q-9 64 -15.5 161.5t-9.5 163.5l-2 65h-4q-85 -227 -163 -377z" />
    <glyph glyph-name="B" unicode="B" horiz-adv-x="1413" 
d="M39 0l297 1524h602q213 0 328 -101q110 -93 110 -256q0 -277 -282 -362v-8q117 -31 185.5 -115.5t68.5 -206.5q0 -226 -166 -358q-141 -117 -391 -117h-752zM360 227h437q140 0 207 68.5t67 185.5q0 98 -65 152.5t-170 54.5h-385zM492 893h346q119 0 190.5 60t71.5 171
q0 79 -54.5 129t-150.5 50h-326z" />
    <glyph glyph-name="C" unicode="C" horiz-adv-x="1515" 
d="M766 -35q-297 0 -474 181.5t-177 488.5q0 190 61 359t168 292t260 194.5t328 71.5q269 0 426 -141q157 -139 164 -377h-275q-11 130 -95 209.5t-237 79.5q-93 0 -175.5 -37t-143.5 -102t-105.5 -151t-67 -187t-22.5 -207q0 -209 95.5 -325.5t279.5 -116.5q151 0 258 96
t142 248h280q-60 -273 -246 -430q-179 -146 -444 -146z" />
    <glyph glyph-name="D" unicode="D" horiz-adv-x="1490" 
d="M41 0l297 1524h536q191 0 329 -81t205 -218t67 -314q0 -207 -55.5 -375.5t-160 -287.5t-261 -183.5t-353.5 -64.5h-604zM367 236h288q134 0 237.5 48.5t169 137.5t99 210.5t33.5 270.5q0 180 -89 284.5t-271 104.5h-261z" />
    <glyph glyph-name="E" unicode="E" horiz-adv-x="1347" 
d="M41 0l297 1524h1096l-45 -234h-818l-75 -387h725l-45 -221h-723l-84 -438h833l-47 -244h-1114z" />
    <glyph glyph-name="F" unicode="F" horiz-adv-x="1271" 
d="M39 0l297 1524h1063l-47 -238h-785l-78 -399h658l-45 -230h-656l-127 -657h-280z" />
    <glyph glyph-name="G" unicode="G" horiz-adv-x="1574" 
d="M717 -33q-314 0 -475 213q-131 172 -131 434q0 232 90.5 433.5t251.5 328.5q207 176 503 176q261 0 413.5 -131t170.5 -352h-283q-11 116 -91.5 184t-231.5 68q-106 0 -195.5 -42t-151.5 -111t-105.5 -159.5t-64 -187.5t-20.5 -194q0 -206 97 -319t272 -113
q176 0 297.5 105t146.5 267l7 27h-369l43 217h631l-158 -811h-188l2 203h-7q-77 -113 -194.5 -174.5t-259.5 -61.5z" />
    <glyph glyph-name="H" unicode="H" horiz-adv-x="1501" 
d="M37 0l297 1524h280l-120 -615h659l121 615h278l-297 -1524h-278l131 680h-659l-132 -680h-280z" />
    <glyph glyph-name="I" unicode="I" horiz-adv-x="567" 
d="M41 0l297 1524h280l-296 -1524h-281z" />
    <glyph glyph-name="J" unicode="J" horiz-adv-x="1132" 
d="M510 -29q-244 0 -363 128.5t-71 379.5l14 66h260l-12 -72q-28 -148 18.5 -210t153.5 -62q179 0 225 225l213 1098h281l-223 -1137q-35 -182 -146 -293q-123 -123 -350 -123z" />
    <glyph glyph-name="K" unicode="K" horiz-adv-x="1419" 
d="M1018 0l-373 729l-221 -188l-105 -541h-280l297 1524h280l-69 -353q-37 -162 -76 -319l764 672h342l-719 -627l463 -897h-303z" />
    <glyph glyph-name="L" unicode="L" horiz-adv-x="1210" 
d="M39 0l297 1524h280l-249 -1280h727l-50 -244h-1005z" />
    <glyph glyph-name="M" unicode="M" horiz-adv-x="1777" 
d="M39 0l297 1524h362l111 -760q9 -76 16 -196.5t10 -202.5l3 -82h4q108 296 192 460l414 781h383l-297 -1524h-258l151 784q14 73 41.5 198t48.5 214l21 88h-4q-119 -292 -195 -446l-444 -838h-225l-121 838q-8 68 -14.5 179.5t-9.5 188.5l-3 78h-4q-45 -336 -76 -500
l-153 -784h-250z" />
    <glyph glyph-name="N" unicode="N" horiz-adv-x="1505" 
d="M39 0l297 1524h289l333 -822q24 -63 54.5 -154.5t48.5 -151.5l18 -60h4q27 245 60 403l151 785h265l-297 -1524h-285l-336 817q-24 63 -55.5 155t-50.5 153l-19 61h-4q-24 -248 -55 -404l-152 -782h-266z" />
    <glyph glyph-name="O" unicode="O" horiz-adv-x="1634" 
d="M793 -35q-311 0 -495.5 187.5t-184.5 494.5q0 182 60.5 347t167 288.5t262.5 196.5t337 73q206 0 360 -87t234 -239t80 -349q0 -186 -58.5 -352.5t-163 -290.5t-260 -196.5t-339.5 -72.5zM803 197q99 0 184 36.5t146.5 100.5t106 149.5t66 184t21.5 204.5
q0 210 -107 331.5t-296 121.5q-97 0 -181.5 -37.5t-146.5 -102.5t-106.5 -151t-66.5 -184.5t-22 -200.5q0 -206 105 -329t297 -123z" />
    <glyph glyph-name="P" unicode="P" horiz-adv-x="1349" 
d="M39 0l297 1524h600q237 0 354 -127q109 -119 109 -293q0 -247 -150.5 -388t-414.5 -141h-402l-113 -575h-280zM571 1288l-96 -491h344q144 0 221.5 78.5t77.5 214.5q0 92 -57 145t-164 53h-326z" />
    <glyph glyph-name="Q" unicode="Q" horiz-adv-x="1634" 
d="M1321 -137l-168 184q-170 -82 -360 -82q-206 0 -361 86.5t-237 240.5t-82 355q0 182 60.5 347t167 288.5t262.5 196.5t337 73q206 0 360 -87t234 -239t80 -349q0 -214 -75.5 -399.5t-213.5 -311.5l152 -164zM803 197q101 0 182 34l-170 187l152 139l188 -205
q84 93 128 229.5t44 290.5q0 210 -107 331.5t-296 121.5q-97 0 -181.5 -37.5t-146.5 -102.5t-106.5 -151t-66.5 -184.5t-22 -200.5q0 -206 105 -329t297 -123z" />
    <glyph glyph-name="R" unicode="R" horiz-adv-x="1415" 
d="M39 0l297 1524h610q214 0 343 -114.5t114 -305.5q-8 -149 -93.5 -250.5t-250.5 -144.5v-7q103 -33 153 -102t50 -184q0 -56 -7.5 -157t-7.5 -134q0 -93 27 -107l-2 -18h-273q-26 22 -26 98q0 38 8 139.5t8 159.5q0 109 -58.5 161t-187.5 52h-305l-119 -610h-280z
M571 1298l-92 -477h334q148 0 226.5 68.5t84.5 189.5q5 105 -50 162t-179 57h-324z" />
    <glyph glyph-name="S" unicode="S" horiz-adv-x="1366" 
d="M690 -35q-309 0 -478 143t-175 379h282q28 -301 373 -301q136 0 217.5 62.5t81.5 169.5q1 39 -13.5 70t-38 54.5t-71 48t-93 43t-124.5 46.5q-83 29 -140 53.5t-117 62t-95.5 79t-58.5 102t-23 133.5q0 200 147 321t404 121q262 0 407.5 -123t161.5 -331h-270
q-11 110 -91 176.5t-216 66.5q-123 0 -193.5 -54t-70.5 -146q0 -81 71 -129.5t256 -114.5q87 -30 145.5 -55.5t122.5 -65t102 -84t62.5 -109t24.5 -143.5q0 -209 -161 -342t-429 -133z" />
    <glyph glyph-name="T" unicode="T" horiz-adv-x="1335" 
d="M207 1286l47 238h1214l-47 -238h-469l-250 -1286h-276l248 1286h-467z" />
    <glyph glyph-name="U" unicode="U" horiz-adv-x="1439" 
d="M709 -27q-141 0 -254 37.5t-189 108.5t-105 182.5t-1 251.5l190 971h277l-193 -987q-31 -161 40 -247.5t243 -86.5q149 0 236 75t116 230l199 1016h278l-203 -1045q-50 -260 -208 -383t-426 -123z" />
    <glyph glyph-name="V" unicode="V" horiz-adv-x="1368" 
d="M432 0l-207 1524h281l98 -852q7 -64 13 -167t8 -174l2 -71h4q98 258 168 397l438 867h295l-805 -1524h-295z" />
    <glyph glyph-name="W" unicode="W" horiz-adv-x="1976" 
d="M326 0l-101 1524h277l33 -717q3 -102 0 -220.5t-8 -215.5l-5 -97h4q105 339 185 521l323 729h275l34 -727q3 -82 3.5 -212.5t-0.5 -220.5v-90h4q98 349 180 535l315 715h287l-709 -1524h-272l-37 803q-2 89 -0.5 190.5t4.5 184.5l4 82h-4q-92 -293 -162 -457l-358 -803
h-272z" />
    <glyph glyph-name="X" unicode="X" horiz-adv-x="1411" 
d="M-59 0l657 799l-322 725h304l114 -279q19 -48 42.5 -120t37.5 -119l14 -48h5q110 174 196 283l225 283h320l-608 -742l344 -782h-316l-129 328q-18 48 -40 120.5t-35 121.5l-13 48h-4q-115 -173 -203 -288l-260 -330h-329z" />
    <glyph glyph-name="Y" unicode="Y" horiz-adv-x="1394" 
d="M453 0l116 604l-342 920h293l137 -385q18 -56 40 -137.5t35 -135.5l13 -53h5q116 201 206 326l289 385h309l-702 -916l-121 -608h-278z" />
    <glyph glyph-name="Z" unicode="Z" horiz-adv-x="1363" 
d="M-25 0l48 236l788 817q44 44 109.5 104t109.5 99l43 38l2 6q-184 -10 -295 -10h-499l45 234h1116l-43 -217l-772 -803q-47 -49 -120 -115.5t-122 -108.5l-49 -42v-7q196 11 311 11h578l-49 -242h-1201z" />
    <glyph glyph-name="bracketleft" unicode="[" horiz-adv-x="802" 
d="M4 -274l363 1880h561l-37 -201h-313l-287 -1477h313l-41 -202h-559z" />
    <glyph glyph-name="backslash" unicode="\" horiz-adv-x="1144" 
d="M819 -274l-610 1880h235l611 -1880h-236z" />
    <glyph glyph-name="bracketright" unicode="]" horiz-adv-x="804" 
d="M-72 -274l41 202h310l286 1477h-309l39 201h559l-365 -1880h-561z" />
    <glyph glyph-name="asciicircum" unicode="^" horiz-adv-x="1001" 
d="M111 903l464 621h228l239 -621h-241l-146 387h-4l-286 -387h-254z" />
    <glyph glyph-name="underscore" unicode="_" horiz-adv-x="880" 
d="M-176 -358l33 168h888l-32 -168h-889z" />
    <glyph glyph-name="grave" unicode="`" horiz-adv-x="1085" 
d="M621 1266l-189 315h291l86 -315h-188z" />
    <glyph glyph-name="a" unicode="a" horiz-adv-x="1124" 
d="M360 -27q-157 0 -250.5 80.5t-93.5 218.5q0 75 23 131.5t62.5 94t102 64t130.5 41t160 24.5q74 8 121 15.5t89 20t64.5 30.5t35 45t11.5 65q-2 65 -50.5 104t-139.5 39q-101 0 -164 -47t-82 -135h-242q29 163 158 260.5t336 97.5q229 0 336.5 -113t68.5 -319l-86 -448
q-36 -175 13 -224v-18h-244q-27 52 -27 129h-6q-120 -156 -326 -156zM444 137q121 0 196.5 69t94.5 171l37 176q-50 -28 -107.5 -43.5t-160.5 -32.5q-118 -22 -175 -64.5t-57 -125.5q0 -75 49 -112.5t123 -37.5z" />
    <glyph glyph-name="b" unicode="b" horiz-adv-x="1228" 
d="M14 0l297 1524h256l-71 -365q-12 -61 -47 -209h4q138 174 340 174q182 0 284.5 -125t102.5 -333q0 -145 -39 -273.5t-108.5 -223t-170.5 -149.5t-219 -55q-128 0 -216 55.5t-128 151.5h-6l-33 -172h-246zM596 166q96 0 171.5 72t113 182t37.5 233q0 124 -58 194.5
t-166 70.5q-103 0 -182 -67t-117.5 -169t-38.5 -217q0 -132 62 -215.5t178 -83.5z" />
    <glyph glyph-name="c" unicode="c" horiz-adv-x="1146" 
d="M539 -35q-222 0 -353 129.5t-131 345.5q0 190 75 345t215 246t319 91q207 0 321.5 -110.5t124.5 -282.5h-248q-5 92 -57.5 145.5t-153.5 53.5q-105 0 -184 -73t-117.5 -184.5t-38.5 -240.5q0 -127 59.5 -197.5t170.5 -70.5q209 0 278 235h254q-50 -211 -190 -321.5
t-344 -110.5z" />
    <glyph glyph-name="d" unicode="d" horiz-adv-x="1228" 
d="M451 -35q-182 2 -292 130.5t-106 348.5q2 200 76 356.5t197.5 239.5t273.5 82q237 0 330 -204h4q14 112 39 229l74 377h253l-296 -1524h-246l26 139h-2q-131 -174 -331 -174zM535 168q100 -1 178.5 66t118.5 169.5t42 219.5q3 133 -57 214t-180 81q-98 2 -172 -63.5
t-111 -169.5t-39 -228q-3 -133 52.5 -210.5t167.5 -78.5z" />
    <glyph glyph-name="e" unicode="e" horiz-adv-x="1181" 
d="M553 -33q-236 0 -366 137t-130 351q0 137 44.5 259.5t123.5 213t193 143.5t246 53q151 0 256 -64.5t153.5 -172t48.5 -250.5q0 -75 -12 -154h-805v-30q0 -141 66.5 -217t195.5 -76q85 0 149.5 38.5t96.5 112.5h256q-63 -165 -198 -254.5t-318 -89.5zM653 938
q-121 0 -204 -82.5t-119 -212.5h540q19 134 -37.5 214.5t-179.5 80.5z" />
    <glyph glyph-name="f" unicode="f" horiz-adv-x="749" 
d="M125 918l37 176h157l29 147q27 151 121 223q84 66 244 66q71 0 155 -19l-34 -186q-126 11 -174.5 -9.5t-61.5 -94.5l-25 -127h220l-35 -176h-219l-179 -918h-254l179 918h-160z" />
    <glyph glyph-name="g" unicode="g" horiz-adv-x="1210" 
d="M467 -383q-212 0 -337 88.5t-136 237.5h246q15 -65 71 -104.5t160 -39.5q115 0 183 61.5t91 172.5l9 51q8 43 34 135h-6q-130 -160 -305 -160q-179 0 -290 123.5t-111 319.5q0 270 151.5 446t372.5 176q119 0 201 -52t121 -148h2l32 172h246l-209 -1063
q-43 -220 -176.5 -318t-349.5 -98zM555 250q63 0 117 25.5t91 67t63.5 96t38.5 113t12 116.5q0 118 -62.5 187t-181.5 69q-91 0 -161.5 -59t-107 -153t-36.5 -204q0 -120 58.5 -189t168.5 -69z" />
    <glyph glyph-name="h" unicode="h" horiz-adv-x="1187" 
d="M14 0l297 1524h256l-80 -412l-36 -176h4q133 188 352 188q165 0 252.5 -118.5t50.5 -300.5l-139 -705h-254l135 692q21 102 -21 160.5t-145 58.5q-106 0 -186 -70.5t-103 -187.5l-127 -653h-256z" />
    <glyph glyph-name="i" unicode="i" horiz-adv-x="495" 
d="M18 0l211 1094h256l-213 -1094h-254zM262 1272l49 252h262l-51 -252h-260z" />
    <glyph glyph-name="j" unicode="j" horiz-adv-x="495" 
d="M-78 -360q-65 0 -143 16l37 186h6q46 -4 55 -4q59 0 89 24t40 83l223 1149h256l-227 -1168q-32 -161 -115.5 -223.5t-220.5 -62.5zM262 1272l49 252h262l-51 -252h-260z" />
    <glyph glyph-name="k" unicode="k" horiz-adv-x="1138" 
d="M14 0l297 1524h254l-110 -563q-38 -178 -68 -293l483 426h312l-490 -418l322 -676h-279l-237 522l-156 -129l-74 -393h-254z" />
    <glyph glyph-name="l" unicode="l" horiz-adv-x="503" 
d="M20 0l297 1524h256l-297 -1524h-256z" />
    <glyph glyph-name="m" unicode="m" horiz-adv-x="1777" 
d="M14 0l213 1094h246l-33 -172h4q145 202 344 202q100 0 168 -56t91 -155h4q76 103 170.5 157t195.5 54q157 0 238 -113.5t47 -289.5l-141 -721h-252l137 709q19 96 -18.5 149t-127.5 53t-161.5 -69t-94.5 -185l-129 -657h-256l140 707q17 97 -18.5 150.5t-121.5 53.5
q-90 0 -165.5 -70t-96.5 -186l-127 -655h-256z" />
    <glyph glyph-name="n" unicode="n" horiz-adv-x="1187" 
d="M14 0l213 1094h248l-33 -170h4q64 95 156.5 147.5t204.5 52.5q165 0 252.5 -118.5t50.5 -300.5l-139 -705h-254l135 690q21 104 -21 162.5t-145 58.5q-106 0 -186 -71t-103 -189l-127 -651h-256z" />
    <glyph glyph-name="o" unicode="o" horiz-adv-x="1220" 
d="M553 -33q-228 0 -361 139.5t-133 358.5q0 134 46.5 255t127 210t196.5 141.5t247 52.5q227 0 360 -139t133 -356q0 -182 -78.5 -333.5t-220.5 -240t-317 -88.5zM563 158q104 0 185 69.5t121 176t40 227.5q0 141 -63 223t-182 82q-103 0 -184 -70t-122 -177.5t-41 -229.5
q0 -140 63 -220.5t183 -80.5z" />
    <glyph glyph-name="p" unicode="p" horiz-adv-x="1230" 
d="M643 -35q-132 0 -219 55.5t-127 151.5h-4q-9 -107 -35 -227l-59 -312h-254l282 1461h248l-29 -146h5q136 176 342 176q182 0 284.5 -125t102.5 -333q0 -145 -39 -273.5t-108.5 -223t-170.5 -149.5t-219 -55zM596 166q96 0 171.5 72t113 182t37.5 233q0 124 -58 194.5
t-166 70.5q-103 0 -182 -67t-117.5 -169t-38.5 -217q0 -132 62 -215.5t178 -83.5z" />
    <glyph glyph-name="q" unicode="q" horiz-adv-x="1228" 
d="M453 -35q-177 0 -288.5 124t-111.5 341q0 151 42.5 281.5t116 220.5t173.5 141t213 51q242 0 334 -211h6l35 181h248l-287 -1461h-254l61 312q22 115 45 194h-4q-134 -174 -329 -174zM539 168q102 0 181.5 69t119 174.5t39.5 223.5q0 129 -62 206t-180 77
q-99 0 -173.5 -68.5t-111.5 -175t-37 -230.5q0 -130 56.5 -203t167.5 -73z" />
    <glyph glyph-name="r" unicode="r" horiz-adv-x="786" 
d="M14 0l213 1094h246l-39 -201h6q123 215 330 215q52 0 68 -8l-37 -234h-8q-37 11 -70 11q-132 0 -222 -81.5t-122 -240.5l-109 -555h-256z" />
    <glyph glyph-name="s" unicode="s" horiz-adv-x="1079" 
d="M508 -33q-236 0 -364 98.5t-136 270.5h248q17 -191 252 -191q102 0 154.5 43.5t52.5 114.5q0 60 -58.5 95t-191.5 73q-81 24 -133 45.5t-103 57.5t-76 88t-26 122q-1 154 118.5 247t315.5 93q212 0 325.5 -85t127.5 -238h-246q-12 149 -207 149q-90 0 -138 -36t-48 -97
q0 -21 6.5 -37.5t24.5 -31t34 -24t52 -22.5t60 -20.5t75 -22.5q59 -17 103 -33.5t91 -44t77.5 -60.5t50 -82t20.5 -109q1 -168 -126 -265.5t-335 -97.5z" />
    <glyph glyph-name="t" unicode="t" horiz-adv-x="755" 
d="M125 920l35 174h164l67 348h252l-68 -348h205l-35 -174h-204l-119 -613q-12 -63 13 -90t83 -27q13 0 28 1.5t31 4t21 3.5h8l-35 -193q-70 -16 -155 -16q-138 0 -208 75t-42 216l123 639h-164z" />
    <glyph glyph-name="u" unicode="u" horiz-adv-x="1175" 
d="M389 -31q-176 1 -258 116t-47 304l137 707h254l-137 -699q-40 -212 154 -215q113 0 189.5 69.5t100.5 186.5l127 658h256l-215 -1096h-245l28 154h-4q-135 -185 -340 -185z" />
    <glyph glyph-name="v" unicode="v" horiz-adv-x="1056" 
d="M281 0l-158 1094h256l57 -506q8 -69 14 -162t8 -151l3 -58h6q80 216 156 363l262 514h268l-594 -1094h-278z" />
    <glyph glyph-name="w" unicode="w" horiz-adv-x="1617" 
d="M252 0l-123 1094h256l37 -506q4 -58 6.5 -141.5t3.5 -138.5v-54h4q64 189 127 326l232 514h227l35 -504q4 -57 8 -141.5t6 -140.5l2 -56h4q53 191 121 328l244 514h264l-551 -1094h-248l-35 516q-3 53 -3.5 134t0.5 136l1 54h-4q-80 -199 -133 -318l-239 -522h-242z" />
    <glyph glyph-name="x" unicode="x" horiz-adv-x="1163" 
d="M-61 0l499 580l-245 514h278l76 -176q13 -31 28.5 -79.5t24.5 -80.5l10 -33h4q83 121 136 193l141 176h287l-441 -514l283 -580h-283l-100 221l-70 205h-4q-88 -127 -149 -205l-183 -221h-292z" />
    <glyph glyph-name="y" unicode="y" horiz-adv-x="1089" 
d="M129 -373q-34 0 -102.5 5t-81.5 10l41 202h8q7 -3 46.5 -6.5t61.5 -3.5q125 0 179 125l7 29q7 29 10.5 48.5t7.5 55.5t-1 51l-182 951h260l80 -498q10 -63 18 -150.5t11 -143.5l2 -56h6q73 195 147 334l271 514h268l-643 -1155q-99 -179 -190.5 -245.5t-223.5 -66.5z" />
    <glyph glyph-name="z" unicode="z" horiz-adv-x="1060" 
d="M-23 0l35 190l533 541q32 31 79 72.5t78 67.5l31 26v6q-139 -10 -219 -10h-319l38 201h838l-31 -172l-530 -541q-34 -33 -85 -78t-85 -73l-35 -29l-2 -8q148 14 238 14h385l-41 -207h-908z" />
    <glyph glyph-name="braceleft" unicode="{" horiz-adv-x="808" 
d="M528 -274q-221 0 -308.5 94t-45.5 301l57 305q15 82 -18 122t-129 44l39 194q101 5 146.5 35t60.5 107l67 348q36 186 132.5 258t291.5 72h111l-37 -201h-70q-85 0 -125 -33.5t-57 -124.5l-72 -368q-20 -93 -63 -138t-127 -67v-6q72 -27 97 -81.5t5 -152.5l-67 -342
q-18 -93 14.5 -128.5t118.5 -35.5h59l-41 -202h-39z" />
    <glyph glyph-name="bar" unicode="|" horiz-adv-x="495" 
d="M184 -274v1880h181v-1880h-181z" />
    <glyph glyph-name="braceright" unicode="}" horiz-adv-x="806" 
d="M-70 -274l37 200h70q84 0 124.5 34.5t59.5 125.5l74 377q18 93 61 138t127 67v6q-72 28 -96 81.5t-6 153.5l65 332q17 93 -15 127.5t-118 34.5h-59l41 203h41q221 0 307.5 -93.5t44.5 -302.5l-57 -295q-15 -80 19 -120t130 -43l-39 -197q-102 -3 -148 -32.5t-61 -106.5
l-67 -359q-36 -188 -131.5 -259.5t-292.5 -71.5h-111z" />
    <glyph glyph-name="asciitilde" unicode="~" horiz-adv-x="890" 
d="M631 549q-57 0 -158 45q-7 3 -23.5 11.5t-22.5 11t-18.5 8.5t-18.5 8t-15.5 5t-17 4t-15.5 1q-33 0 -53 -25.5t-25 -70.5h-176q13 150 80.5 230.5t167.5 80.5q31 0 63 -8.5t48.5 -16.5t48.5 -24q34 -19 47 -26t33 -14t38 -7q72 0 82 94h174q-11 -143 -71.5 -225
t-167.5 -82z" />
    <glyph glyph-name="uni00A0" unicode="&#xa0;" horiz-adv-x="487" 
 />
    <glyph glyph-name="exclamdown" unicode="&#xa1;" horiz-adv-x="559" 
d="M-10 -270l86 434l188 600h133l-55 -614l-82 -420h-270zM225 969l56 284h280l-55 -284h-281z" />
    <glyph glyph-name="cent" unicode="&#xa2;" horiz-adv-x="1148" 
d="M381 -254l43 229q-173 31 -272 154.5t-99 310.5t74.5 340.5t210.5 245t309 96.5l35 178h123l-37 -184q164 -27 253.5 -133.5t98.5 -259.5h-248q-5 75 -40.5 127t-100.5 70l-147 -756q174 25 233 235h254q-49 -209 -186 -320t-340 -114l-41 -219h-123zM311 430
q0 -102 39 -168.5t113 -89.5l145 754q-133 -24 -215 -169t-82 -327z" />
    <glyph glyph-name="sterling" unicode="&#xa3;" horiz-adv-x="1228" 
d="M109 631l32 162h119q-1 6 -7.5 32.5t-8.5 35.5t-7 32t-6.5 36.5t-4.5 33.5t-4 37.5t-1 35.5q0 208 139.5 330.5t378.5 122.5q241 0 376.5 -129.5t131.5 -374.5h-260q6 297 -244 297q-117 0 -181 -70.5t-64 -193.5q0 -56 26 -225h295l-31 -162h-247v-2q0 -128 -61 -218.5
t-201 -174.5l4 -7q64 28 105 39t91 11q74 0 173.5 -37t152.5 -37q106 0 217 88l102 -199q-164 -123 -331 -123q-68 0 -130.5 17.5t-103 38t-95.5 38t-110 17.5q-41 0 -86 -14.5t-72 -29t-73 -42.5l-113 205q124 73 202.5 172t78.5 223q0 23 -2 35h-180z" />
    <glyph glyph-name="currency" unicode="&#xa4;" horiz-adv-x="1036" 
d="M557 465q101 0 158 73.5t57 192.5q0 120 -57 194t-158 74q-102 0 -161.5 -74.5t-59.5 -193.5t59 -192.5t162 -73.5zM188 219l-129 127l142 141q-70 109 -70 244q0 133 70 242l-142 143l129 125l140 -143q100 65 229 65q130 0 227 -65l142 143l129 -125l-144 -143
q68 -106 68 -242q0 -134 -68 -242l144 -143l-129 -127l-144 143q-91 -61 -225 -61q-133 0 -227 61z" />
    <glyph glyph-name="yen" unicode="&#xa5;" horiz-adv-x="1302" 
d="M166 565l24 121h322l-297 774h285l102 -303q21 -60 46.5 -151t41.5 -152l15 -61h4q135 229 231 364l217 303h297l-598 -774h326l-25 -121h-364l-31 -159h364l-24 -121h-365l-55 -285h-260l55 285h-366l24 121h367l30 159h-366z" />
    <glyph glyph-name="brokenbar" unicode="&#xa6;" horiz-adv-x="503" 
d="M160 791v815h182v-815h-182zM160 -274v849h182v-849h-182z" />
    <glyph glyph-name="section" unicode="&#xa7;" horiz-adv-x="1306" 
d="M84 16h246q6 -96 64.5 -151t172.5 -55q90 0 138.5 39.5t48.5 105.5q0 22 -7.5 42.5t-29.5 44.5t-40.5 41t-64 47.5t-74.5 49t-94 59.5q-5 3 -8 5q-87 54 -145.5 99t-105 95t-68 104t-21.5 115q0 251 316 308q-68 87 -68 192q0 160 118.5 255t307.5 95q203 0 323 -103
t126 -274h-238q-8 82 -58.5 131.5t-152.5 49.5q-83 0 -127.5 -38.5t-44.5 -101.5q0 -34 12.5 -61t50 -58t71.5 -53.5t111 -68.5q5 -3 8 -5t8 -5t9 -5q65 -39 110.5 -69.5t96.5 -74t82 -84t51.5 -93t20.5 -109.5q0 -240 -307 -307q86 -96 86 -211q0 -169 -120 -263.5
t-315 -94.5q-222 0 -353 110t-136 297zM711 725q-178 108 -201 123q-80 -14 -123 -52.5t-43 -99.5q0 -57 53.5 -112.5t190.5 -145.5q31 -21 105.5 -69.5t107.5 -71.5q80 16 128 55t48 101q0 63 -59.5 120t-206.5 152z" />
    <glyph glyph-name="dieresis" unicode="&#xa8;" horiz-adv-x="1085" 
d="M786 1268l50 252h245l-49 -252h-246zM340 1268l49 252h246l-51 -252h-244z" />
    <glyph glyph-name="copyright" unicode="&#xa9;" horiz-adv-x="1771" 
d="M930 -37q-162 0 -306.5 60.5t-248.5 165t-164.5 252t-60.5 315.5t60.5 316t164.5 252.5t248.5 165t306.5 60.5q163 0 307.5 -60.5t249 -165t165 -252.5t60.5 -316t-60.5 -315.5t-165 -252t-249 -165t-307.5 -60.5zM930 57q189 0 342 91t240 251t87 357q0 198 -87 358
t-240 251t-342 91t-342.5 -91t-240.5 -251t-87 -358q0 -197 87 -357t240.5 -251t342.5 -91zM940 297q-193 0 -314.5 130.5t-121.5 332.5q0 204 120.5 336.5t317.5 132.5q148 0 248 -78q114 -82 133 -238h-207q-10 60 -56.5 101t-119.5 41q-107 0 -165 -82.5t-58 -212.5
q0 -127 61.5 -208t163.5 -81q79 0 127.5 46.5t56.5 115.5h203q-3 -68 -30.5 -130.5t-73.5 -105.5q-114 -100 -285 -100z" />
    <glyph glyph-name="ordfeminine" unicode="&#xaa;" horiz-adv-x="1036" 
d="M713 618h-4q-113 -141 -285 -141q-136 0 -220.5 74t-84.5 190q0 84 29.5 143t88.5 94t130.5 54t173.5 29q153 14 215.5 44.5t62.5 98.5q0 58 -38 90.5t-117 32.5q-85 0 -139.5 -39t-67.5 -112h-228q25 141 144 228t299 87q201 0 298 -100.5t62 -280.5l-86 -440
q-25 -124 12 -154l-4 -14h-227q-25 38 -14 116zM784 985q-29 -17 -69.5 -29t-66.5 -17t-99 -17q-99 -18 -145 -55.5t-46 -106.5q0 -61 37 -92t99 -31q109 0 175.5 54.5t84.5 142.5z" />
    <glyph glyph-name="guillemotleft" unicode="&#xab;" horiz-adv-x="1036" 
d="M819 123l-258 321l47 248l379 301l-49 -254l-238 -184v-4l162 -201zM381 123l-258 321l49 248l377 301l-49 -254l-238 -184v-4l162 -201z" />
    <glyph glyph-name="logicalnot" unicode="&#xac;" horiz-adv-x="1118" 
d="M150 694l40 207h857l-109 -561h-217l67 354h-638z" />
    <glyph glyph-name="uni00AD" unicode="&#xad;" horiz-adv-x="745" 
d="M74 451l43 223h567l-43 -223h-567z" />
    <glyph glyph-name="registered" unicode="&#xae;" horiz-adv-x="1345" 
d="M756 352q-163 0 -298.5 77.5t-214.5 215t-79 305.5q0 170 79 308t214.5 215t298.5 77t298 -77t213.5 -215t78.5 -308q0 -168 -78.5 -305.5t-213.5 -215t-298 -77.5zM756 436q212 0 351.5 146.5t139.5 367.5q0 223 -139.5 369.5t-351.5 146.5t-352 -146.5t-140 -369.5
q0 -221 140 -367.5t352 -146.5zM516 645v623h297q92 0 153.5 -48t61.5 -130q0 -115 -123 -150v-4q54 -13 75.5 -39t27.5 -82q3 -21 6.5 -67.5t8.5 -66.5t15 -24v-12h-143q-3 2 -6 7t-5 14t-3.5 18t-3 24t-2.5 25.5t-2.5 29t-2.5 28.5q-9 92 -106 92h-100v-238h-148z
M664 1153v-162h120q49 0 74 21.5t25 60.5q0 37 -24.5 58.5t-72.5 21.5h-122z" />
    <glyph glyph-name="macron" unicode="&#xaf;" horiz-adv-x="1085" 
d="M401 1305l35 186h592l-37 -186h-590z" />
    <glyph glyph-name="degree" unicode="&#xb0;" horiz-adv-x="835" 
d="M543 840q-138 0 -236 94t-98 229q0 136 98.5 232t235.5 96q136 0 233.5 -96t97.5 -232q0 -135 -97.5 -229t-233.5 -94zM543 981q76 0 122 52t46 130q0 79 -46 133t-122 54t-123 -54t-47 -133q0 -78 47 -130t123 -52z" />
    <glyph glyph-name="plusminus" unicode="&#xb1;" horiz-adv-x="1214" 
d="M150 702l38 203h385l68 348h215l-68 -348h383l-38 -203h-385l-68 -352h-215l67 352h-382zM14 0l37 199h985l-39 -199h-983z" />
    <glyph glyph-name="twosuperior" unicode="&#xb2;" horiz-adv-x="825" 
d="M51 586q23 172 152 282q36 31 83.5 62.5t79 50t89.5 49.5t75 41q76 41 113 84.5t37 104.5q0 52 -32 84t-89 32q-73 0 -113 -35q-49 -47 -65 -145h-205q13 87 38 141.5t71 102.5q104 104 278 104q160 0 245 -77t85 -199q0 -69 -26.5 -124t-64.5 -89.5t-102 -75.5
q-29 -19 -157.5 -88.5t-173.5 -114.5q-7 -11 -7 -14h426l-36 -176h-701z" />
    <glyph glyph-name="threesuperior" unicode="&#xb3;" horiz-adv-x="862" 
d="M494 563q-192 0 -293 101q-91 87 -84 241h198q0 -79 42.5 -130.5t136.5 -51.5q74 0 117.5 41t43.5 106q0 63 -39 99.5t-108 36.5h-57l26 145h47q174 0 174 127q0 52 -33.5 83.5t-93.5 31.5q-74 0 -119.5 -44.5t-58.5 -117.5h-198q20 147 120.5 230t262.5 83
q140 0 233.5 -64.5t93.5 -183.5q0 -170 -194 -219v-2q70 -22 112.5 -78t42.5 -127q0 -148 -104.5 -227.5t-267.5 -79.5z" />
    <glyph glyph-name="acute" unicode="&#xb4;" horiz-adv-x="1085" 
d="M563 1266l156 315h307l-262 -315h-201z" />
    <glyph glyph-name="mu" unicode="&#xb5;" horiz-adv-x="1179" 
d="M424 -23q-103 0 -152 52h-4q-8 -79 -28 -181l-41 -215h-254l282 1463h256l-137 -699q-21 -99 15.5 -155t130.5 -60q112 -4 192 66.5t104 189.5l127 658h256l-213 -1096h-245l28 154h-4q-56 -82 -139 -129.5t-174 -47.5z" />
    <glyph glyph-name="paragraph" unicode="&#xb6;" horiz-adv-x="1187" 
d="M401 -287l197 1020h-41q-180 0 -280.5 108t-83.5 277q7 95 47 175.5t106 136.5q117 94 328 94h567l-352 -1811h-162l320 1643h-166l-320 -1643h-160z" />
    <glyph glyph-name="periodcentered" unicode="&#xb7;" horiz-adv-x="497" 
d="M106 528l58 287h280l-55 -287h-283z" />
    <glyph glyph-name="cedilla" unicode="&#xb8;" horiz-adv-x="1085" 
d="M350 -428q-132 0 -213 63l41 66q68 -33 139 -33q60 0 94.5 21t34.5 61q0 28 -19.5 44t-51.5 16q-39 0 -86 -15l-25 53l156 152h129l-139 -113l2 -4q83 10 143.5 -22.5t60.5 -106.5q0 -90 -73 -136t-193 -46z" />
    <glyph glyph-name="onesuperior" unicode="&#xb9;" horiz-adv-x="583" 
d="M246 586l119 618h-213l26 139q111 5 183.5 49.5t111.5 139.5h168l-184 -946h-211z" />
    <glyph glyph-name="ordmasculine" unicode="&#xba;" horiz-adv-x="1116" 
d="M598 473q-199 0 -318.5 125t-119.5 322q0 153 68 283.5t193 209t279 78.5q202 0 322.5 -123t120.5 -313q0 -163 -70 -296t-195 -209.5t-280 -76.5zM608 647q88 0 156 57.5t102.5 150t34.5 202.5q0 120 -52.5 190t-154.5 70q-90 0 -158.5 -59t-102.5 -151.5t-34 -199.5
q0 -121 54 -190.5t155 -69.5z" />
    <glyph glyph-name="guillemotright" unicode="&#xbb;" horiz-adv-x="1036" 
d="M59 123l50 252l239 186v4l-162 199l43 229l258 -323l-47 -248zM498 123l49 252l239 186v4l-161 199l43 229l256 -323l-47 -248z" />
    <glyph glyph-name="onequarter" unicode="&#xbc;" horiz-adv-x="1777" 
d="M1194 -225l41 211h-444l36 186l549 553h207l-115 -586h138l-31 -153h-135l-41 -211h-205zM43 -266l1438 1790h198l-1439 -1790h-197zM248 586l119 618h-213l26 139q111 5 183.5 49.5t111.5 139.5h168l-184 -946h-211zM969 133q83 6 149 6h146l43 215q6 32 16.5 73
t17.5 66l7 25h-5q-65 -80 -122 -139l-111 -113l-141 -127v-6z" />
    <glyph glyph-name="onehalf" unicode="&#xbd;" horiz-adv-x="1869" 
d="M903 -225q25 171 152 282q36 31 84 63t78.5 49.5t90 49.5t74.5 41q77 43 114.5 86t37.5 103q0 54 -32 86t-91 32q-69 0 -111 -37q-49 -47 -65 -145h-205q13 87 38 142.5t71 101.5q101 104 278 104q160 0 244 -76.5t84 -199.5q0 -52 -13.5 -94.5t-41 -77t-59.5 -60.5
t-79 -55q-33 -22 -158.5 -91t-170.5 -114q-4 -4 -9 -14h426l-34 -176h-703zM248 586l119 618h-213l26 139q111 5 183.5 49.5t111.5 139.5h168l-184 -946h-211zM35 -266l1438 1790h198l-1440 -1790h-196z" />
    <glyph glyph-name="threequarters" unicode="&#xbe;" horiz-adv-x="1955" 
d="M1374 -225l41 211h-444l37 186l548 553h207l-114 -586h137l-31 -153h-135l-41 -211h-205zM492 563q-192 0 -293 101q-91 87 -84 241h198q0 -79 42.5 -130.5t136.5 -51.5q74 0 117.5 41t43.5 106q0 63 -39 99.5t-108 36.5h-57l26 145h47q174 0 174 127q0 52 -33.5 83.5
t-93.5 31.5q-74 0 -119.5 -44.5t-58.5 -117.5h-198q20 147 120 230t262 83q140 0 234 -64.5t94 -183.5q0 -170 -194 -219v-2q70 -22 112.5 -78t42.5 -127q0 -148 -104.5 -227.5t-267.5 -79.5zM215 -266l1438 1790h198l-1439 -1790h-197zM1149 133q83 6 149 6h146l43 215
q6 32 16.5 73t17.5 66l7 25h-4q-66 -80 -123 -139l-111 -113l-141 -127v-6z" />
    <glyph glyph-name="questiondown" unicode="&#xbf;" horiz-adv-x="1136" 
d="M549 969l55 284h281l-56 -284h-280zM453 -297q-213 0 -342 103t-129 276q0 71 20.5 130.5t58.5 105t77 77.5t91 64q26 16 69 42.5t60.5 37.5t42.5 28.5t40 31t28 28.5q44 50 61 137h236q-19 -108 -50.5 -176t-76 -112.5t-127.5 -98.5q-20 -13 -60.5 -36.5t-62 -37
t-51.5 -38t-45.5 -47t-27 -56t-11.5 -72.5q0 -77 56 -125.5t159 -48.5q119 0 199 74.5t100 210.5h256q-31 -235 -179 -366.5t-392 -131.5z" />
    <glyph glyph-name="Agrave" unicode="&#xc0;" horiz-adv-x="1447" 
d="M-72 0l838 1524h297l250 -1524h-291l-49 365h-565l-191 -365h-289zM705 926l-189 -357h428l-45 344q-9 64 -15.5 161.5t-9.5 163.5l-2 65h-4q-85 -227 -163 -377zM840 1608l-168 262h289l67 -262h-188z" />
    <glyph glyph-name="Aacute" unicode="&#xc1;" horiz-adv-x="1447" 
d="M-72 0l838 1524h297l250 -1524h-291l-49 365h-565l-191 -365h-289zM705 926l-189 -357h428l-45 344q-9 64 -15.5 161.5t-9.5 163.5l-2 65h-4q-85 -227 -163 -377zM805 1608l135 262h307l-241 -262h-201z" />
    <glyph glyph-name="Acircumflex" unicode="&#xc2;" horiz-adv-x="1447" 
d="M-72 0l838 1524h297l250 -1524h-291l-49 365h-565l-191 -365h-289zM705 926l-189 -357h428l-45 344q-9 64 -15.5 161.5t-9.5 163.5l-2 65h-4q-85 -227 -163 -377zM578 1608l258 252h260l164 -252h-226l-80 129h-4l-127 -129h-245z" />
    <glyph glyph-name="Atilde" unicode="&#xc3;" horiz-adv-x="1447" 
d="M-72 0l838 1524h297l250 -1524h-291l-49 365h-565l-191 -365h-289zM705 926l-189 -357h428l-45 344q-9 64 -15.5 161.5t-9.5 163.5l-2 65h-4q-85 -227 -163 -377zM1077 1610q-49 0 -99.5 22t-90 44t-62.5 22q-26 0 -46.5 -23.5t-26.5 -64.5h-152q13 123 73.5 189.5
t147.5 66.5q52 0 99 -22t84 -44t65 -22q62 0 74 84h153q-14 -118 -71 -185t-148 -67z" />
    <glyph glyph-name="Adieresis" unicode="&#xc4;" horiz-adv-x="1447" 
d="M-72 0l838 1524h297l250 -1524h-291l-49 365h-565l-191 -365h-289zM705 926l-189 -357h428l-45 344q-9 64 -15.5 161.5t-9.5 163.5l-2 65h-4q-85 -227 -163 -377zM1022 1608l49 247h250l-47 -247h-252zM573 1608l48 247h251l-49 -247h-250z" />
    <glyph glyph-name="Aring" unicode="&#xc5;" horiz-adv-x="1447" 
d="M-72 0l838 1524h297l250 -1524h-291l-49 365h-565l-191 -365h-289zM954 1579q-92 0 -156.5 62t-64.5 153q0 90 64.5 153.5t156.5 63.5q91 0 155.5 -64t64.5 -153q0 -90 -64.5 -152.5t-155.5 -62.5zM705 926l-189 -357h428l-45 344q-9 64 -15.5 161.5t-9.5 163.5l-2 65h-4
q-85 -227 -163 -377zM954 1679q47 0 78 32.5t31 82.5t-31 83.5t-78 33.5q-49 0 -79.5 -33.5t-30.5 -83.5t30.5 -82.5t79.5 -32.5z" />
    <glyph glyph-name="AE" unicode="&#xc6;" horiz-adv-x="2072" 
d="M-70 0l834 1524h1390l-47 -238h-747l-76 -385h655l-45 -221h-653l-84 -430h772l-49 -250h-1053l72 369h-487l-197 -369h-285zM905 1286l-383 -713h416l139 713h-172z" />
    <glyph glyph-name="Ccedilla" unicode="&#xc7;" horiz-adv-x="1515" 
d="M571 -428q-132 0 -213 63l41 66q68 -33 140 -33q60 0 94.5 21t34.5 61q0 28 -20 44t-52 16q-39 0 -86 -15l-25 53l133 132q-234 41 -368.5 215t-134.5 440q0 190 61 359t168 292t260 194.5t328 71.5q269 0 426 -141q157 -139 164 -377h-275q-11 130 -95 209.5t-237 79.5
q-93 0 -175.5 -37t-143.5 -102t-105.5 -151t-67 -187t-22.5 -207q0 -209 95.5 -325.5t279.5 -116.5q151 0 258 96t142 248h280q-60 -273 -246 -430q-179 -146 -444 -146q-27 0 -39 2l-96 -80l2 -4q83 10 144 -22.5t61 -106.5q0 -90 -73.5 -136t-193.5 -46z" />
    <glyph glyph-name="Egrave" unicode="&#xc8;" horiz-adv-x="1347" 
d="M41 0l297 1524h1096l-45 -234h-818l-75 -387h725l-45 -221h-723l-84 -438h833l-47 -244h-1114zM821 1608l-168 262h289l68 -262h-189z" />
    <glyph glyph-name="Eacute" unicode="&#xc9;" horiz-adv-x="1347" 
d="M41 0l297 1524h1096l-45 -234h-818l-75 -387h725l-45 -221h-723l-84 -438h833l-47 -244h-1114zM784 1608l136 262h307l-242 -262h-201z" />
    <glyph glyph-name="Ecircumflex" unicode="&#xca;" horiz-adv-x="1347" 
d="M41 0l297 1524h1096l-45 -234h-818l-75 -387h725l-45 -221h-723l-84 -438h833l-47 -244h-1114zM557 1608l258 252h260l164 -252h-225l-80 129h-4l-127 -129h-246z" />
    <glyph glyph-name="Edieresis" unicode="&#xcb;" horiz-adv-x="1347" 
d="M41 0l297 1524h1096l-45 -234h-818l-75 -387h725l-45 -221h-723l-84 -438h833l-47 -244h-1114zM555 1608l47 247h252l-49 -247h-250zM1004 1608l49 247h250l-48 -247h-251z" />
    <glyph glyph-name="Igrave" unicode="&#xcc;" horiz-adv-x="567" 
d="M41 0l297 1524h280l-296 -1524h-281zM412 1608l-168 262h288l68 -262h-188z" />
    <glyph glyph-name="Iacute" unicode="&#xcd;" horiz-adv-x="567" 
d="M41 0l297 1524h280l-296 -1524h-281zM375 1608l135 262h307l-242 -262h-200z" />
    <glyph glyph-name="Icircumflex" unicode="&#xce;" horiz-adv-x="567" 
d="M41 0l297 1524h280l-296 -1524h-281zM150 1608l258 252h260l163 -252h-225l-80 129h-4l-127 -129h-245z" />
    <glyph glyph-name="Idieresis" unicode="&#xcf;" horiz-adv-x="567" 
d="M41 0l297 1524h280l-296 -1524h-281zM573 1608l48 247h241l-49 -247h-240zM176 1608l47 247h240l-47 -247h-240z" />
    <glyph glyph-name="Eth" unicode="&#xd0;" horiz-adv-x="1501" 
d="M49 659l43 222h131l125 643h537q143 0 258.5 -46.5t190 -129t114 -194t39.5 -243.5q0 -277 -96 -481.5t-285 -317t-453 -112.5h-602l129 659h-131zM377 236h289q135 0 238.5 48.5t168.5 138t98 210.5t33 270q0 180 -89 284.5t-271 104.5h-260l-82 -411h385l-43 -222h-385
z" />
    <glyph glyph-name="Ntilde" unicode="&#xd1;" horiz-adv-x="1505" 
d="M1122 1610q-49 0 -99.5 22t-90 44t-62.5 22q-26 0 -46.5 -23.5t-26.5 -64.5h-152q13 123 73.5 189.5t147.5 66.5q52 0 99 -22t84 -44t65 -22q62 0 74 84h153q-14 -118 -71 -185t-148 -67zM39 0l297 1524h289l333 -822q24 -63 54.5 -154.5t48.5 -151.5l18 -60h4
q27 245 60 403l151 785h265l-297 -1524h-285l-336 817q-24 63 -55.5 155t-50.5 153l-19 61h-4q-24 -248 -55 -404l-152 -782h-266z" />
    <glyph glyph-name="Ograve" unicode="&#xd2;" horiz-adv-x="1634" 
d="M891 1608l-168 262h289l67 -262h-188zM793 -35q-311 0 -495.5 187.5t-184.5 494.5q0 182 60.5 347t167 288.5t262.5 196.5t337 73q206 0 360 -87t234 -239t80 -349q0 -186 -58.5 -352.5t-163 -290.5t-260 -196.5t-339.5 -72.5zM803 197q99 0 184 36.5t146.5 100.5
t106 149.5t66 184t21.5 204.5q0 210 -107 331.5t-296 121.5q-97 0 -181.5 -37.5t-146.5 -102.5t-106.5 -151t-66.5 -184.5t-22 -200.5q0 -206 105 -329t297 -123z" />
    <glyph glyph-name="Oacute" unicode="&#xd3;" horiz-adv-x="1634" 
d="M854 1608l135 262h307l-241 -262h-201zM793 -35q-311 0 -495.5 187.5t-184.5 494.5q0 182 60.5 347t167 288.5t262.5 196.5t337 73q206 0 360 -87t234 -239t80 -349q0 -186 -58.5 -352.5t-163 -290.5t-260 -196.5t-339.5 -72.5zM803 197q99 0 184 36.5t146.5 100.5
t106 149.5t66 184t21.5 204.5q0 210 -107 331.5t-296 121.5q-97 0 -181.5 -37.5t-146.5 -102.5t-106.5 -151t-66.5 -184.5t-22 -200.5q0 -206 105 -329t297 -123z" />
    <glyph glyph-name="Ocircumflex" unicode="&#xd4;" horiz-adv-x="1634" 
d="M793 -35q-311 0 -495.5 187.5t-184.5 494.5q0 182 60.5 347t167 288.5t262.5 196.5t337 73q206 0 360 -87t234 -239t80 -349q0 -186 -58.5 -352.5t-163 -290.5t-260 -196.5t-339.5 -72.5zM803 197q99 0 184 36.5t146.5 100.5t106 149.5t66 184t21.5 204.5
q0 210 -107 331.5t-296 121.5q-97 0 -181.5 -37.5t-146.5 -102.5t-106.5 -151t-66.5 -184.5t-22 -200.5q0 -206 105 -329t297 -123zM629 1608l258 252h260l164 -252h-226l-79 129h-5l-127 -129h-245z" />
    <glyph glyph-name="Otilde" unicode="&#xd5;" horiz-adv-x="1634" 
d="M1128 1610q-49 0 -99.5 22t-89.5 44t-62 22q-26 0 -47 -23.5t-27 -64.5h-152q13 123 73.5 189.5t147.5 66.5q52 0 99 -22t84 -44t65 -22q62 0 74 84h154q-14 -118 -71.5 -185t-148.5 -67zM793 -35q-311 0 -495.5 187.5t-184.5 494.5q0 182 60.5 347t167 288.5
t262.5 196.5t337 73q206 0 360 -87t234 -239t80 -349q0 -186 -58.5 -352.5t-163 -290.5t-260 -196.5t-339.5 -72.5zM803 197q99 0 184 36.5t146.5 100.5t106 149.5t66 184t21.5 204.5q0 210 -107 331.5t-296 121.5q-97 0 -181.5 -37.5t-146.5 -102.5t-106.5 -151
t-66.5 -184.5t-22 -200.5q0 -206 105 -329t297 -123z" />
    <glyph glyph-name="Odieresis" unicode="&#xd6;" horiz-adv-x="1634" 
d="M1075 1608l49 247h250l-47 -247h-252zM627 1608l47 247h252l-49 -247h-250zM793 -35q-311 0 -495.5 187.5t-184.5 494.5q0 182 60.5 347t167 288.5t262.5 196.5t337 73q206 0 360 -87t234 -239t80 -349q0 -186 -58.5 -352.5t-163 -290.5t-260 -196.5t-339.5 -72.5z
M803 197q99 0 184 36.5t146.5 100.5t106 149.5t66 184t21.5 204.5q0 210 -107 331.5t-296 121.5q-97 0 -181.5 -37.5t-146.5 -102.5t-106.5 -151t-66.5 -184.5t-22 -200.5q0 -206 105 -329t297 -123z" />
    <glyph glyph-name="multiply" unicode="&#xd7;" horiz-adv-x="1216" 
d="M240 215l-123 141l387 340l-281 340l156 135l280 -337l383 337l125 -141l-389 -342l281 -336l-156 -135l-280 336z" />
    <glyph glyph-name="Oslash" unicode="&#xd8;" horiz-adv-x="1634" 
d="M90 -86l-88 94l229 223q-118 168 -118 416q0 182 60.5 347t167 288.5t262.5 196.5t337 73q294 0 475 -172l213 207l92 -92l-221 -215q115 -173 115 -403q0 -186 -58.5 -352.5t-163 -290.5t-260 -196.5t-339.5 -72.5q-291 0 -476 168zM401 649q0 -131 35 -219l791 768
q-108 127 -303 127q-97 0 -181.5 -37.5t-146.5 -102.5t-106.5 -151t-66.5 -184.5t-22 -200.5zM803 197q99 0 184 36.5t146.5 100.5t106 149.5t66 184t21.5 204.5q0 108 -33 209l-790 -766q106 -118 299 -118z" />
    <glyph glyph-name="Ugrave" unicode="&#xd9;" horiz-adv-x="1439" 
d="M868 1608l-168 262h289l68 -262h-189zM709 -27q-141 0 -254 37.5t-189 108.5t-105 182.5t-1 251.5l190 971h277l-193 -987q-31 -161 40 -247.5t243 -86.5q149 0 236 75t116 230l199 1016h278l-203 -1045q-50 -260 -208 -383t-426 -123z" />
    <glyph glyph-name="Uacute" unicode="&#xda;" horiz-adv-x="1439" 
d="M836 1608l135 262h307l-242 -262h-200zM709 -27q-141 0 -254 37.5t-189 108.5t-105 182.5t-1 251.5l190 971h277l-193 -987q-31 -161 40 -247.5t243 -86.5q149 0 236 75t116 230l199 1016h278l-203 -1045q-50 -260 -208 -383t-426 -123z" />
    <glyph glyph-name="Ucircumflex" unicode="&#xdb;" horiz-adv-x="1439" 
d="M709 -27q-141 0 -254 37.5t-189 108.5t-105 182.5t-1 251.5l190 971h277l-193 -987q-31 -161 40 -247.5t243 -86.5q149 0 236 75t116 230l199 1016h278l-203 -1045q-50 -260 -208 -383t-426 -123zM606 1608l258 252h260l164 -252h-225l-80 129h-4l-127 -129h-246z" />
    <glyph glyph-name="Udieresis" unicode="&#xdc;" horiz-adv-x="1439" 
d="M1053 1608l49 247h250l-47 -247h-252zM604 1608l47 247h252l-49 -247h-250zM709 -27q-141 0 -254 37.5t-189 108.5t-105 182.5t-1 251.5l190 971h277l-193 -987q-31 -161 40 -247.5t243 -86.5q149 0 236 75t116 230l199 1016h278l-203 -1045q-50 -260 -208 -383
t-426 -123z" />
    <glyph glyph-name="Yacute" unicode="&#xdd;" horiz-adv-x="1394" 
d="M453 0l116 604l-342 920h293l137 -385q18 -56 40 -137.5t35 -135.5l13 -53h5q116 201 206 326l289 385h309l-702 -916l-121 -608h-278zM776 1608l135 262h308l-242 -262h-201z" />
    <glyph glyph-name="Thorn" unicode="&#xde;" horiz-adv-x="1353" 
d="M39 0l297 1524h280l-47 -240h316q233 0 354 -127q109 -119 109 -295q0 -246 -152 -386t-416 -140h-395l-66 -336h-280zM846 1047h-324l-94 -490h338q144 0 222.5 78t78.5 213q0 92 -57.5 145.5t-163.5 53.5z" />
    <glyph glyph-name="germandbls" unicode="&#xdf;" horiz-adv-x="1169" 
d="M594 -20q-112 0 -184 26l32 189h13q54 -15 108 -15q136 0 214.5 83.5t78.5 240.5q0 127 -64.5 196.5t-183.5 69.5h-45l31 162h31q131 0 199.5 60t68.5 175q0 84 -48 134.5t-134 50.5q-183 0 -226 -232l-215 -1120h-254l220 1151q37 190 159 292.5t322 102.5
q188 0 303 -100t115 -254q0 -267 -269 -342v-6q112 -38 175 -134t63 -223q0 -162 -69 -278.5t-183 -172.5t-258 -56z" />
    <glyph glyph-name="agrave" unicode="&#xe0;" horiz-adv-x="1124" 
d="M360 -27q-157 0 -250.5 80.5t-93.5 218.5q0 75 23 131.5t62.5 94t102 64t130.5 41t160 24.5q74 8 121 15.5t89 20t64.5 30.5t35 45t11.5 65q-2 65 -50.5 104t-139.5 39q-101 0 -164 -47t-82 -135h-242q29 163 158 260.5t336 97.5q229 0 336.5 -113t68.5 -319l-86 -448
q-36 -175 13 -224v-18h-244q-27 52 -27 129h-6q-120 -156 -326 -156zM444 137q121 0 196.5 69t94.5 171l37 176q-50 -28 -107.5 -43.5t-160.5 -32.5q-118 -22 -175 -64.5t-57 -125.5q0 -75 49 -112.5t123 -37.5zM580 1266l-189 315h291l86 -315h-188z" />
    <glyph glyph-name="aacute" unicode="&#xe1;" horiz-adv-x="1124" 
d="M360 -27q-157 0 -250.5 80.5t-93.5 218.5q0 75 23 131.5t62.5 94t102 64t130.5 41t160 24.5q74 8 121 15.5t89 20t64.5 30.5t35 45t11.5 65q-2 65 -50.5 104t-139.5 39q-101 0 -164 -47t-82 -135h-242q29 163 158 260.5t336 97.5q229 0 336.5 -113t68.5 -319l-86 -448
q-36 -175 13 -224v-18h-244q-27 52 -27 129h-6q-120 -156 -326 -156zM444 137q121 0 196.5 69t94.5 171l37 176q-50 -28 -107.5 -43.5t-160.5 -32.5q-118 -22 -175 -64.5t-57 -125.5q0 -75 49 -112.5t123 -37.5zM551 1266l156 315h307l-262 -315h-201z" />
    <glyph glyph-name="acircumflex" unicode="&#xe2;" horiz-adv-x="1124" 
d="M360 -27q-157 0 -250.5 80.5t-93.5 218.5q0 75 23 131.5t62.5 94t102 64t130.5 41t160 24.5q74 8 121 15.5t89 20t64.5 30.5t35 45t11.5 65q-2 65 -50.5 104t-139.5 39q-101 0 -164 -47t-82 -135h-242q29 163 158 260.5t336 97.5q229 0 336.5 -113t68.5 -319l-86 -448
q-36 -175 13 -224v-18h-244q-27 52 -27 129h-6q-120 -156 -326 -156zM444 137q121 0 196.5 69t94.5 171l37 176q-50 -28 -107.5 -43.5t-160.5 -32.5q-118 -22 -175 -64.5t-57 -125.5q0 -75 49 -112.5t123 -37.5zM328 1272l254 278h262l157 -278h-221l-78 162h-4l-127 -162
h-243z" />
    <glyph glyph-name="atilde" unicode="&#xe3;" horiz-adv-x="1124" 
d="M360 -27q-157 0 -250.5 80.5t-93.5 218.5q0 75 23 131.5t62.5 94t102 64t130.5 41t160 24.5q74 8 121 15.5t89 20t64.5 30.5t35 45t11.5 65q-2 65 -50.5 104t-139.5 39q-101 0 -164 -47t-82 -135h-242q29 163 158 260.5t336 97.5q229 0 336.5 -113t68.5 -319l-86 -448
q-36 -175 13 -224v-18h-244q-27 52 -27 129h-6q-120 -156 -326 -156zM444 137q121 0 196.5 69t94.5 171l37 176q-50 -28 -107.5 -43.5t-160.5 -32.5q-118 -22 -175 -64.5t-57 -125.5q0 -75 49 -112.5t123 -37.5zM825 1272q-49 0 -99.5 22t-90 44t-62.5 22q-26 0 -46.5 -23.5
t-26.5 -64.5h-150q13 124 73 190t146 66q52 0 99 -21.5t84 -43t65 -21.5q33 0 50.5 20t23.5 62h153q-14 -118 -71 -185t-148 -67z" />
    <glyph glyph-name="adieresis" unicode="&#xe4;" horiz-adv-x="1124" 
d="M360 -27q-157 0 -250.5 80.5t-93.5 218.5q0 75 23 131.5t62.5 94t102 64t130.5 41t160 24.5q74 8 121 15.5t89 20t64.5 30.5t35 45t11.5 65q-2 65 -50.5 104t-139.5 39q-101 0 -164 -47t-82 -135h-242q29 163 158 260.5t336 97.5q229 0 336.5 -113t68.5 -319l-86 -448
q-36 -175 13 -224v-18h-244q-27 52 -27 129h-6q-120 -156 -326 -156zM444 137q121 0 196.5 69t94.5 171l37 176q-50 -28 -107.5 -43.5t-160.5 -32.5q-118 -22 -175 -64.5t-57 -125.5q0 -75 49 -112.5t123 -37.5zM772 1268l49 252h246l-49 -252h-246zM326 1268l49 252h246
l-52 -252h-243z" />
    <glyph glyph-name="aring" unicode="&#xe5;" horiz-adv-x="1124" 
d="M360 -27q-157 0 -250.5 80.5t-93.5 218.5q0 75 23 131.5t62.5 94t102 64t130.5 41t160 24.5q74 8 121 15.5t89 20t64.5 30.5t35 45t11.5 65q-2 65 -50.5 104t-139.5 39q-101 0 -164 -47t-82 -135h-242q29 163 158 260.5t336 97.5q229 0 336.5 -113t68.5 -319l-86 -448
q-36 -175 13 -224v-18h-244q-27 52 -27 129h-6q-120 -156 -326 -156zM686 1225q-92 0 -156.5 62t-64.5 153q0 89 65 153t156 64t156 -64t65 -153q0 -91 -64.5 -153t-156.5 -62zM444 137q121 0 196.5 69t94.5 171l37 176q-50 -28 -107.5 -43.5t-160.5 -32.5
q-118 -22 -175 -64.5t-57 -125.5q0 -75 49 -112.5t123 -37.5zM686 1325q49 0 80 32.5t31 82.5t-31 83t-80 33q-47 0 -77.5 -33t-30.5 -83t30.5 -82.5t77.5 -32.5z" />
    <glyph glyph-name="ae" unicode="&#xe6;" horiz-adv-x="1857" 
d="M375 -27q-170 0 -265.5 80t-95.5 215q0 76 23 133.5t62.5 95.5t102 64.5t130.5 41t160 24.5q74 8 121 15.5t89 20t64.5 30.5t35 45t11.5 65q-2 65 -50.5 104t-139.5 39q-101 0 -165 -47t-81 -135h-242q29 163 158 260.5t336 97.5q259 0 350 -151q147 153 369 153
q218 0 335 -133.5t119 -351.5q0 -63 -14 -156h-791v-30q0 -141 64.5 -218t189.5 -77q83 0 146 39.5t96 113.5h254q-61 -165 -195.5 -254.5t-314.5 -89.5q-149 0 -256.5 57.5t-165.5 161.5q-160 -213 -440 -213zM442 137q121 0 196 68.5t95 171.5l37 176q-50 -29 -108 -44
t-162 -32q-117 -22 -173.5 -64.5t-56.5 -125.5q0 -75 49 -112.5t123 -37.5zM1337 940q-118 0 -198.5 -82.5t-116.5 -214.5h526q19 134 -36 215.5t-175 81.5z" />
    <glyph glyph-name="ccedilla" unicode="&#xe7;" horiz-adv-x="1146" 
d="M360 -428q-132 0 -213 63l41 66q68 -33 140 -33q60 0 94.5 21t34.5 61q0 28 -20 44t-52 16q-39 0 -86 -15l-25 53l134 132q-166 35 -259.5 157t-93.5 303q0 190 75 345t215 246t319 91q207 0 321.5 -110.5t124.5 -282.5h-248q-5 92 -57.5 145.5t-153.5 53.5
q-105 0 -184 -73t-117.5 -184.5t-38.5 -240.5q0 -127 59.5 -197.5t170.5 -70.5q209 0 278 235h254q-50 -211 -190 -321.5t-344 -110.5h-23l-96 -78l2 -4q83 10 144 -22.5t61 -106.5q0 -90 -73.5 -136t-193.5 -46z" />
    <glyph glyph-name="egrave" unicode="&#xe8;" horiz-adv-x="1181" 
d="M553 -33q-236 0 -366 137t-130 351q0 137 44.5 259.5t123.5 213t193 143.5t246 53q151 0 256 -64.5t153.5 -172t48.5 -250.5q0 -75 -12 -154h-805v-30q0 -141 66.5 -217t195.5 -76q85 0 149.5 38.5t96.5 112.5h256q-63 -165 -198 -254.5t-318 -89.5zM653 938
q-121 0 -204 -82.5t-119 -212.5h540q19 134 -37.5 214.5t-179.5 80.5zM598 1266l-188 315h290l86 -315h-188z" />
    <glyph glyph-name="eacute" unicode="&#xe9;" horiz-adv-x="1181" 
d="M553 -33q-236 0 -366 137t-130 351q0 137 44.5 259.5t123.5 213t193 143.5t246 53q151 0 256 -64.5t153.5 -172t48.5 -250.5q0 -75 -12 -154h-805v-30q0 -141 66.5 -217t195.5 -76q85 0 149.5 38.5t96.5 112.5h256q-63 -165 -198 -254.5t-318 -89.5zM653 938
q-121 0 -204 -82.5t-119 -212.5h540q19 134 -37.5 214.5t-179.5 80.5zM569 1266l156 315h307l-262 -315h-201z" />
    <glyph glyph-name="ecircumflex" unicode="&#xea;" horiz-adv-x="1181" 
d="M553 -33q-236 0 -366 137t-130 351q0 137 44.5 259.5t123.5 213t193 143.5t246 53q151 0 256 -64.5t153.5 -172t48.5 -250.5q0 -75 -12 -154h-805v-30q0 -141 66.5 -217t195.5 -76q85 0 149.5 38.5t96.5 112.5h256q-63 -165 -198 -254.5t-318 -89.5zM653 938
q-121 0 -204 -82.5t-119 -212.5h540q19 134 -37.5 214.5t-179.5 80.5zM346 1272l254 278h262l158 -278h-221l-78 162h-4l-127 -162h-244z" />
    <glyph glyph-name="edieresis" unicode="&#xeb;" horiz-adv-x="1181" 
d="M553 -33q-236 0 -366 137t-130 351q0 137 44.5 259.5t123.5 213t193 143.5t246 53q151 0 256 -64.5t153.5 -172t48.5 -250.5q0 -75 -12 -154h-805v-30q0 -141 66.5 -217t195.5 -76q85 0 149.5 38.5t96.5 112.5h256q-63 -165 -198 -254.5t-318 -89.5zM653 938
q-121 0 -204 -82.5t-119 -212.5h540q19 134 -37.5 214.5t-179.5 80.5zM788 1268l50 252h245l-49 -252h-246zM342 1268l49 252h246l-51 -252h-244z" />
    <glyph glyph-name="igrave" unicode="&#xec;" horiz-adv-x="495" 
d="M18 0l213 1094h254l-213 -1094h-254zM299 1266l-188 315h290l86 -315h-188z" />
    <glyph glyph-name="iacute" unicode="&#xed;" horiz-adv-x="495" 
d="M272 1266l156 315h307l-262 -315h-201zM18 0l213 1094h254l-213 -1094h-254z" />
    <glyph glyph-name="icircumflex" unicode="&#xee;" horiz-adv-x="495" 
d="M49 1272l254 278h262l158 -278h-221l-78 162h-4l-127 -162h-244zM18 0l213 1094h254l-213 -1094h-254z" />
    <glyph glyph-name="idieresis" unicode="&#xef;" horiz-adv-x="495" 
d="M18 0l213 1094h254l-213 -1094h-254zM453 1272l49 252h223l-49 -252h-223zM109 1272l51 252h221l-49 -252h-223z" />
    <glyph glyph-name="eth" unicode="&#xf0;" horiz-adv-x="1224" 
d="M438 1163l-39 109l269 84q-68 73 -162 153v15h297q58 -47 100 -92l209 67l39 -106l-168 -56q201 -267 201 -610q0 -157 -42 -295t-120 -242t-197 -164.5t-264 -60.5q-226 0 -363 137t-137 367q0 179 77 326t208 230t287 83q163 0 264 -123h2q-50 145 -151 277zM569 158
q100 0 179.5 66.5t121 174t41.5 234.5q0 138 -64.5 216.5t-187.5 78.5q-99 0 -177.5 -64t-120.5 -172t-42 -239q0 -138 63.5 -216.5t186.5 -78.5z" />
    <glyph glyph-name="ntilde" unicode="&#xf1;" horiz-adv-x="1187" 
d="M14 0l213 1094h248l-33 -170h4q64 95 156.5 147.5t204.5 52.5q165 0 252.5 -118.5t50.5 -300.5l-139 -705h-254l135 690q21 104 -21 162.5t-145 58.5q-106 0 -186 -71t-103 -189l-127 -651h-256zM874 1272q-49 0 -99.5 22t-89.5 44t-62 22q-26 0 -47 -23.5t-27 -64.5
h-150q13 124 73 190t146 66q52 0 99 -21.5t84 -43t65 -21.5q33 0 50.5 20t23.5 62h154q-14 -118 -71.5 -185t-148.5 -67z" />
    <glyph glyph-name="ograve" unicode="&#xf2;" horiz-adv-x="1220" 
d="M553 -33q-228 0 -361 139.5t-133 358.5q0 134 46.5 255t127 210t196.5 141.5t247 52.5q227 0 360 -139t133 -356q0 -182 -78.5 -333.5t-220.5 -240t-317 -88.5zM563 158q104 0 185 69.5t121 176t40 227.5q0 141 -63 223t-182 82q-103 0 -184 -70t-122 -177.5t-41 -229.5
q0 -140 63 -220.5t183 -80.5zM639 1266l-188 315h290l86 -315h-188z" />
    <glyph glyph-name="oacute" unicode="&#xf3;" horiz-adv-x="1220" 
d="M610 1266l156 315h307l-262 -315h-201zM553 -33q-228 0 -361 139.5t-133 358.5q0 134 46.5 255t127 210t196.5 141.5t247 52.5q227 0 360 -139t133 -356q0 -182 -78.5 -333.5t-220.5 -240t-317 -88.5zM563 158q104 0 185 69.5t121 176t40 227.5q0 141 -63 223t-182 82
q-103 0 -184 -70t-122 -177.5t-41 -229.5q0 -140 63 -220.5t183 -80.5z" />
    <glyph glyph-name="ocircumflex" unicode="&#xf4;" horiz-adv-x="1220" 
d="M387 1272l254 278h262l158 -278h-221l-78 162h-4l-127 -162h-244zM553 -33q-228 0 -361 139.5t-133 358.5q0 134 46.5 255t127 210t196.5 141.5t247 52.5q227 0 360 -139t133 -356q0 -182 -78.5 -333.5t-220.5 -240t-317 -88.5zM563 158q104 0 185 69.5t121 176t40 227.5
q0 141 -63 223t-182 82q-103 0 -184 -70t-122 -177.5t-41 -229.5q0 -140 63 -220.5t183 -80.5z" />
    <glyph glyph-name="otilde" unicode="&#xf5;" horiz-adv-x="1220" 
d="M553 -33q-228 0 -361 139.5t-133 358.5q0 134 46.5 255t127 210t196.5 141.5t247 52.5q227 0 360 -139t133 -356q0 -182 -78.5 -333.5t-220.5 -240t-317 -88.5zM563 158q104 0 185 69.5t121 176t40 227.5q0 141 -63 223t-182 82q-103 0 -184 -70t-122 -177.5t-41 -229.5
q0 -140 63 -220.5t183 -80.5zM885 1272q-49 0 -99.5 22t-90 44t-62.5 22q-26 0 -47 -23.5t-27 -64.5h-149q13 124 73 190t146 66q52 0 99 -21.5t84 -43t65 -21.5q33 0 50 20t23 62h154q-14 -118 -71 -185t-148 -67z" />
    <glyph glyph-name="odieresis" unicode="&#xf6;" horiz-adv-x="1220" 
d="M831 1268l50 252h245l-49 -252h-246zM385 1268l49 252h246l-51 -252h-244zM553 -33q-228 0 -361 139.5t-133 358.5q0 134 46.5 255t127 210t196.5 141.5t247 52.5q227 0 360 -139t133 -356q0 -182 -78.5 -333.5t-220.5 -240t-317 -88.5zM563 158q104 0 185 69.5t121 176
t40 227.5q0 141 -63 223t-182 82q-103 0 -184 -70t-122 -177.5t-41 -229.5q0 -140 63 -220.5t183 -80.5z" />
    <glyph glyph-name="divide" unicode="&#xf7;" horiz-adv-x="1214" 
d="M555 967l49 266h281l-51 -266h-279zM137 596l39 205h969l-41 -205h-967zM397 164l52 264h280l-51 -264h-281z" />
    <glyph glyph-name="oslash" unicode="&#xf8;" horiz-adv-x="1220" 
d="M43 -90l-76 78l176 172q-88 127 -88 305q0 134 47 255t128 210t197 141.5t247 52.5q207 0 340 -120l168 161l75 -78l-172 -167q82 -124 82 -291q0 -182 -78.5 -333.5t-220.5 -240t-317 -88.5q-204 0 -334 111zM313 459q0 -69 15 -121l526 510q-66 88 -192 88
q-103 0 -184.5 -69.5t-123 -177.5t-41.5 -230zM561 158q78 0 145 40.5t111 107t69 151t25 174.5q0 57 -12 110l-520 -505q65 -78 182 -78z" />
    <glyph glyph-name="ugrave" unicode="&#xf9;" horiz-adv-x="1175" 
d="M389 -31q-176 1 -258 116t-47 304l137 707h254l-137 -699q-40 -212 154 -215q113 0 189.5 69.5t100.5 186.5l127 658h256l-215 -1096h-245l28 154h-4q-135 -185 -340 -185zM629 1266l-189 315h291l86 -315h-188z" />
    <glyph glyph-name="uacute" unicode="&#xfa;" horiz-adv-x="1175" 
d="M389 -31q-176 1 -258 116t-47 304l137 707h254l-137 -699q-40 -212 154 -215q113 0 189.5 69.5t100.5 186.5l127 658h256l-215 -1096h-245l28 154h-4q-135 -185 -340 -185zM602 1266l156 315h307l-262 -315h-201z" />
    <glyph glyph-name="ucircumflex" unicode="&#xfb;" horiz-adv-x="1175" 
d="M389 -31q-176 1 -258 116t-47 304l137 707h254l-137 -699q-40 -212 154 -215q113 0 189.5 69.5t100.5 186.5l127 658h256l-215 -1096h-245l28 154h-4q-135 -185 -340 -185zM379 1272l254 278h262l158 -278h-222l-77 162h-4l-127 -162h-244z" />
    <glyph glyph-name="udieresis" unicode="&#xfc;" horiz-adv-x="1175" 
d="M389 -31q-176 1 -258 116t-47 304l137 707h254l-137 -699q-40 -212 154 -215q113 0 189.5 69.5t100.5 186.5l127 658h256l-215 -1096h-245l28 154h-4q-135 -185 -340 -185zM821 1268l49 252h246l-49 -252h-246zM375 1268l49 252h246l-52 -252h-243z" />
    <glyph glyph-name="yacute" unicode="&#xfd;" horiz-adv-x="1089" 
d="M129 -373q-34 0 -102.5 5t-81.5 10l41 202h8q7 -3 46.5 -6.5t61.5 -3.5q125 0 179 125l7 29q7 29 10.5 48.5t7.5 55.5t-1 51l-182 951h260l80 -498q10 -63 18 -150.5t11 -143.5l2 -56h6q73 195 147 334l271 514h268l-643 -1155q-99 -179 -190.5 -245.5t-223.5 -66.5z
M563 1266l156 315h307l-262 -315h-201z" />
    <glyph glyph-name="thorn" unicode="&#xfe;" horiz-adv-x="1224" 
d="M645 -35q-132 0 -218.5 55.5t-125.5 151.5h-6q-9 -107 -35 -227l-59 -312h-254l368 1891h254l-71 -365q-2 -14 -45 -209h4q135 174 338 174q182 0 284.5 -125t102.5 -333q0 -145 -39 -273.5t-108.5 -223t-170.5 -149.5t-219 -55zM598 166q96 0 171.5 72t113 182t37.5 233
q0 124 -58 194.5t-166 70.5q-103 0 -182 -67t-117.5 -169t-38.5 -217q0 -132 62 -215.5t178 -83.5z" />
    <glyph glyph-name="ydieresis" unicode="&#xff;" horiz-adv-x="1089" 
d="M129 -373q-34 0 -102.5 5t-81.5 10l41 202h8q7 -3 46.5 -6.5t61.5 -3.5q125 0 179 125l7 29q7 29 10.5 48.5t7.5 55.5t-1 51l-182 951h260l80 -498q10 -63 18 -150.5t11 -143.5l2 -56h6q73 195 147 334l271 514h268l-643 -1155q-99 -179 -190.5 -245.5t-223.5 -66.5z
M786 1268l50 252h245l-49 -252h-246zM340 1268l49 252h246l-51 -252h-244z" />
    <glyph glyph-name="Amacron" unicode="&#x100;" horiz-adv-x="1447" 
d="M-72 0l838 1524h297l250 -1524h-291l-49 365h-565l-191 -365h-289zM705 926l-189 -357h428l-45 344q-9 64 -15.5 161.5t-9.5 163.5l-2 65h-4q-85 -227 -163 -377zM627 1622l35 186h602l-37 -186h-600z" />
    <glyph glyph-name="amacron" unicode="&#x101;" horiz-adv-x="1124" 
d="M360 -27q-157 0 -250.5 80.5t-93.5 218.5q0 75 23 131.5t62.5 94t102 64t130.5 41t160 24.5q74 8 121 15.5t89 20t64.5 30.5t35 45t11.5 65q-2 65 -50.5 104t-139.5 39q-101 0 -164 -47t-82 -135h-242q29 163 158 260.5t336 97.5q229 0 336.5 -113t68.5 -319l-86 -448
q-36 -175 13 -224v-18h-244q-27 52 -27 129h-6q-120 -156 -326 -156zM444 137q121 0 196.5 69t94.5 171l37 176q-50 -28 -107.5 -43.5t-160.5 -32.5q-118 -22 -175 -64.5t-57 -125.5q0 -75 49 -112.5t123 -37.5zM385 1305l35 186h592l-37 -186h-590z" />
    <glyph glyph-name="Abreve" unicode="&#x102;" horiz-adv-x="1447" 
d="M-72 0l838 1524h297l250 -1524h-291l-49 365h-565l-191 -365h-289zM705 926l-189 -357h428l-45 344q-9 64 -15.5 161.5t-9.5 163.5l-2 65h-4q-85 -227 -163 -377zM934 1595q-129 0 -206.5 75t-70.5 204h158q10 -111 127 -111q122 0 158 111h162q-30 -132 -114 -205.5
t-214 -73.5z" />
    <glyph glyph-name="abreve" unicode="&#x103;" horiz-adv-x="1124" 
d="M360 -27q-157 0 -250.5 80.5t-93.5 218.5q0 75 23 131.5t62.5 94t102 64t130.5 41t160 24.5q74 8 121 15.5t89 20t64.5 30.5t35 45t11.5 65q-2 65 -50.5 104t-139.5 39q-101 0 -164 -47t-82 -135h-242q29 163 158 260.5t336 97.5q229 0 336.5 -113t68.5 -319l-86 -448
q-36 -175 13 -224v-18h-244q-27 52 -27 129h-6q-120 -156 -326 -156zM444 137q121 0 196.5 69t94.5 171l37 176q-50 -28 -107.5 -43.5t-160.5 -32.5q-118 -22 -175 -64.5t-57 -125.5q0 -75 49 -112.5t123 -37.5zM676 1255q-132 0 -210 80t-65 211h156q0 -59 31.5 -92
t95.5 -33q130 0 162 125h162q-27 -134 -114 -212.5t-218 -78.5z" />
    <glyph glyph-name="Aogonek" unicode="&#x104;" horiz-adv-x="1447" 
d="M1151 -383q-107 0 -164 45.5t-57 122.5q0 133 164 215h-72l-49 365h-565l-191 -365h-289l838 1524h297l248 -1518q-71 -30 -116.5 -78t-45.5 -98q0 -59 74 -59q41 0 71 10h4l-28 -148q-43 -16 -119 -16zM705 926l-189 -357h430l-47 344q-9 64 -15.5 161.5t-9.5 163.5
l-2 65h-4q-85 -227 -163 -377z" />
    <glyph glyph-name="aogonek" unicode="&#x105;" horiz-adv-x="1124" 
d="M809 -383q-105 0 -162 45.5t-57 122.5q0 129 164 215h-35q-25 48 -25 129h-6q-120 -156 -328 -156q-157 0 -250.5 80.5t-93.5 218.5q0 75 23 131.5t62.5 94t102 64t130.5 41t160 24.5q74 8 121 15.5t89 20t64.5 30.5t35 45t11.5 65q-2 65 -50.5 104t-139.5 39
q-101 0 -164 -47t-82 -135h-242q29 163 158 260.5t336 97.5q229 0 336.5 -113t68.5 -319l-86 -448q-36 -175 13 -224v-18q-67 -29 -112.5 -76t-45.5 -94q0 -59 76 -59q39 0 69 10h6l-30 -148q-40 -16 -117 -16zM444 137q121 0 196.5 69t94.5 171l37 176
q-50 -28 -107.5 -43.5t-160.5 -32.5q-118 -22 -175 -64.5t-57 -125.5q0 -75 49 -112.5t123 -37.5z" />
    <glyph glyph-name="Cacute" unicode="&#x106;" horiz-adv-x="1515" 
d="M766 -35q-297 0 -474 181.5t-177 488.5q0 190 61 359t168 292t260 194.5t328 71.5q269 0 426 -141q157 -139 164 -377h-275q-11 130 -95 209.5t-237 79.5q-93 0 -175.5 -37t-143.5 -102t-105.5 -151t-67 -187t-22.5 -207q0 -209 95.5 -325.5t279.5 -116.5q151 0 258 96
t142 248h280q-60 -273 -246 -430q-179 -146 -444 -146zM834 1608l135 262h307l-242 -262h-200z" />
    <glyph glyph-name="cacute" unicode="&#x107;" horiz-adv-x="1146" 
d="M575 1266l156 315h307l-262 -315h-201zM539 -35q-222 0 -353 129.5t-131 345.5q0 190 75 345t215 246t319 91q207 0 321.5 -110.5t124.5 -282.5h-248q-5 92 -57.5 145.5t-153.5 53.5q-105 0 -184 -73t-117.5 -184.5t-38.5 -240.5q0 -127 59.5 -197.5t170.5 -70.5
q209 0 278 235h254q-50 -211 -190 -321.5t-344 -110.5z" />
    <glyph glyph-name="Ccircumflex" unicode="&#x108;" horiz-adv-x="1515" 
d="M766 -35q-297 0 -474 181.5t-177 488.5q0 190 61 359t168 292t260 194.5t328 71.5q269 0 426 -141q157 -139 164 -377h-275q-11 130 -95 209.5t-237 79.5q-93 0 -175.5 -37t-143.5 -102t-105.5 -151t-67 -187t-22.5 -207q0 -209 95.5 -325.5t279.5 -116.5q151 0 258 96
t142 248h280q-60 -273 -246 -430q-179 -146 -444 -146zM608 1608l258 252h260l164 -252h-225l-80 129h-4l-127 -129h-246z" />
    <glyph glyph-name="ccircumflex" unicode="&#x109;" horiz-adv-x="1146" 
d="M352 1272l254 278h262l158 -278h-221l-78 162h-4l-127 -162h-244zM539 -35q-222 0 -353 129.5t-131 345.5q0 190 75 345t215 246t319 91q207 0 321.5 -110.5t124.5 -282.5h-248q-5 92 -57.5 145.5t-153.5 53.5q-105 0 -184 -73t-117.5 -184.5t-38.5 -240.5
q0 -127 59.5 -197.5t170.5 -70.5q209 0 278 235h254q-50 -211 -190 -321.5t-344 -110.5z" />
    <glyph glyph-name="Cdotaccent" unicode="&#x10a;" horiz-adv-x="1515" 
d="M823 1608l49 250h263l-50 -250h-262zM766 -35q-297 0 -474 181.5t-177 488.5q0 190 61 359t168 292t260 194.5t328 71.5q269 0 426 -141q157 -139 164 -377h-275q-11 130 -95 209.5t-237 79.5q-93 0 -175.5 -37t-143.5 -102t-105.5 -151t-67 -187t-22.5 -207
q0 -209 95.5 -325.5t279.5 -116.5q151 0 258 96t142 248h280q-60 -273 -246 -430q-179 -146 -444 -146z" />
    <glyph glyph-name="cdotaccent" unicode="&#x10b;" horiz-adv-x="1146" 
d="M539 -35q-222 0 -353 129.5t-131 345.5q0 190 75 345t215 246t319 91q207 0 321.5 -110.5t124.5 -282.5h-248q-5 92 -57.5 145.5t-153.5 53.5q-105 0 -184 -73t-117.5 -184.5t-38.5 -240.5q0 -127 59.5 -197.5t170.5 -70.5q209 0 278 235h254q-50 -211 -190 -321.5
t-344 -110.5zM565 1272l49 252h260l-49 -252h-260z" />
    <glyph glyph-name="Ccaron" unicode="&#x10c;" horiz-adv-x="1515" 
d="M766 -35q-297 0 -474 181.5t-177 488.5q0 190 61 359t168 292t260 194.5t328 71.5q269 0 426 -141q157 -139 164 -377h-275q-11 130 -95 209.5t-237 79.5q-93 0 -175.5 -37t-143.5 -102t-105.5 -151t-67 -187t-22.5 -207q0 -209 95.5 -325.5t279.5 -116.5q151 0 258 96
t142 248h280q-60 -273 -246 -430q-179 -146 -444 -146zM1346 1860l-259 -252h-260l-163 252h225l80 -129h4l127 129h246z" />
    <glyph glyph-name="ccaron" unicode="&#x10d;" horiz-adv-x="1146" 
d="M569 1266l-157 280h221l80 -162h4l125 162h243l-256 -280h-260zM539 -35q-222 0 -353 129.5t-131 345.5q0 190 75 345t215 246t319 91q207 0 321.5 -110.5t124.5 -282.5h-248q-5 92 -57.5 145.5t-153.5 53.5q-105 0 -184 -73t-117.5 -184.5t-38.5 -240.5
q0 -127 59.5 -197.5t170.5 -70.5q209 0 278 235h254q-50 -211 -190 -321.5t-344 -110.5z" />
    <glyph glyph-name="Dcaron" unicode="&#x10e;" horiz-adv-x="1490" 
d="M1241 1860l-258 -252h-260l-164 252h225l80 -129h4l127 129h246zM41 0l297 1524h536q191 0 329 -81t205 -218t67 -314q0 -207 -55.5 -375.5t-160 -287.5t-261 -183.5t-353.5 -64.5h-604zM367 236h288q134 0 237.5 48.5t169 137.5t99 210.5t33.5 270.5q0 180 -89 284.5
t-271 104.5h-261z" />
    <glyph glyph-name="dcaron" unicode="&#x10f;" horiz-adv-x="1228" 
d="M451 -35q-182 2 -292 130.5t-106 348.5q2 200 76 356.5t197.5 239.5t273.5 82q237 0 330 -204h4q14 112 39 229l74 377h253l-296 -1524h-246l26 139h-2q-131 -174 -331 -174zM535 168q100 -1 178.5 66t118.5 169.5t42 219.5q3 133 -57 214t-180 81q-98 2 -172 -63.5
t-111 -169.5t-39 -228q-3 -133 52.5 -210.5t167.5 -78.5zM1634 1524l-32 -174q-39 -208 -279 -217l18 96q60 7 90 31.5t39 72.5h-106l37 191h233z" />
    <glyph glyph-name="Dcroat" unicode="&#x110;" horiz-adv-x="1501" 
d="M49 659l43 222h131l125 643h537q143 0 258.5 -46.5t190 -129t114 -194t39.5 -243.5q0 -277 -96 -481.5t-285 -317t-453 -112.5h-602l129 659h-131zM377 236h289q135 0 238.5 48.5t168.5 138t98 210.5t33 270q0 180 -89 284.5t-271 104.5h-260l-82 -411h385l-43 -222h-385
z" />
    <glyph glyph-name="dcroat" unicode="&#x111;" horiz-adv-x="1228" 
d="M451 -35q-182 2 -292 130.5t-106 348.5q2 200 76 357t197.5 240.5t273.5 82.5q236 0 330 -206h4q14 112 39 229l16 88h-287l27 143h289l29 146h253l-28 -146h131l-27 -143h-133l-239 -1235h-246l26 139h-2q-131 -174 -331 -174zM535 168q100 -1 178.5 66t118.5 169.5
t42 219.5q3 133 -57 214.5t-180 82.5q-98 1 -172 -65t-111 -170t-39 -228q-3 -134 52.5 -211.5t167.5 -77.5z" />
    <glyph glyph-name="Emacron" unicode="&#x112;" horiz-adv-x="1347" 
d="M41 0l297 1524h1096l-45 -234h-818l-75 -387h725l-45 -221h-723l-84 -438h833l-47 -244h-1114zM606 1622l35 186h602l-37 -186h-600z" />
    <glyph glyph-name="emacron" unicode="&#x113;" horiz-adv-x="1181" 
d="M553 -33q-236 0 -366 137t-130 351q0 137 44.5 259.5t123.5 213t193 143.5t246 53q151 0 256 -64.5t153.5 -172t48.5 -250.5q0 -75 -12 -154h-805v-30q0 -141 66.5 -217t195.5 -76q85 0 149.5 38.5t96.5 112.5h256q-63 -165 -198 -254.5t-318 -89.5zM653 938
q-121 0 -204 -82.5t-119 -212.5h540q19 134 -37.5 214.5t-179.5 80.5zM401 1305l35 186h592l-37 -186h-590z" />
    <glyph glyph-name="Ebreve" unicode="&#x114;" horiz-adv-x="1347" 
d="M41 0l297 1524h1096l-45 -234h-818l-75 -387h725l-45 -221h-723l-84 -438h833l-47 -244h-1114zM915 1595q-129 0 -206 75t-70 204h158q10 -111 127 -111q121 0 157 111h162q-30 -132 -114 -205.5t-214 -73.5z" />
    <glyph glyph-name="ebreve" unicode="&#x115;" horiz-adv-x="1181" 
d="M553 -33q-236 0 -366 137t-130 351q0 137 44.5 259.5t123.5 213t193 143.5t246 53q151 0 256 -64.5t153.5 -172t48.5 -250.5q0 -75 -12 -154h-805v-30q0 -141 66.5 -217t195.5 -76q85 0 149.5 38.5t96.5 112.5h256q-63 -165 -198 -254.5t-318 -89.5zM653 938
q-121 0 -204 -82.5t-119 -212.5h540q19 134 -37.5 214.5t-179.5 80.5zM694 1255q-131 0 -209 80t-65 211h155q0 -59 31.5 -92t95.5 -33q130 0 162 125h162q-27 -134 -114 -212.5t-218 -78.5z" />
    <glyph glyph-name="Edotaccent" unicode="&#x116;" horiz-adv-x="1347" 
d="M41 0l297 1524h1096l-45 -234h-818l-75 -387h725l-45 -221h-723l-84 -438h833l-47 -244h-1114zM772 1608l49 250h262l-49 -250h-262z" />
    <glyph glyph-name="edotaccent" unicode="&#x117;" horiz-adv-x="1181" 
d="M553 -33q-236 0 -366 137t-130 351q0 137 44.5 259.5t123.5 213t193 143.5t246 53q151 0 256 -64.5t153.5 -172t48.5 -250.5q0 -75 -12 -154h-805v-30q0 -141 66.5 -217t195.5 -76q85 0 149.5 38.5t96.5 112.5h256q-63 -165 -198 -254.5t-318 -89.5zM653 938
q-121 0 -204 -82.5t-119 -212.5h540q19 134 -37.5 214.5t-179.5 80.5zM559 1272l49 252h260l-49 -252h-260z" />
    <glyph glyph-name="Eogonek" unicode="&#x118;" horiz-adv-x="1347" 
d="M41 0l297 1524h1096l-45 -234h-818l-75 -387h725l-45 -221h-723l-84 -438h833l-47 -244h-108q-138 -90 -138 -170q0 -59 76 -59q40 0 70 10h6l-31 -148q-40 -16 -117 -16q-109 0 -166 45.5t-57 122.5q0 133 152 215h-801z" />
    <glyph glyph-name="eogonek" unicode="&#x119;" horiz-adv-x="1181" 
d="M614 -383q-105 0 -162 45.5t-57 122.5q0 108 119 184q-220 12 -338.5 146.5t-118.5 339.5q0 137 44.5 259.5t123.5 213t193 143.5t246 53q151 0 256 -64.5t153.5 -172t48.5 -250.5q0 -75 -12 -154h-805v-30q0 -141 66.5 -217t195.5 -76q85 0 149.5 38.5t96.5 112.5h256
q-67 -180 -227 -270q-9 -5 -39 -21t-41.5 -22.5t-37.5 -22.5t-37.5 -25.5t-29.5 -25.5t-26 -29t-14.5 -30t-6.5 -35q0 -59 76 -59q40 0 70 10h6l-31 -148q-40 -16 -117 -16zM653 938q-122 0 -204.5 -82t-118.5 -213h540q19 134 -37.5 214.5t-179.5 80.5z" />
    <glyph glyph-name="Ecaron" unicode="&#x11a;" horiz-adv-x="1347" 
d="M41 0l297 1524h1096l-45 -234h-818l-75 -387h725l-45 -221h-723l-84 -438h833l-47 -244h-1114zM1296 1860l-258 -252h-260l-164 252h226l80 -129h4l127 129h245z" />
    <glyph glyph-name="ecaron" unicode="&#x11b;" horiz-adv-x="1181" 
d="M553 -33q-236 0 -366 137t-130 351q0 137 44.5 259.5t123.5 213t193 143.5t246 53q151 0 256 -64.5t153.5 -172t48.5 -250.5q0 -75 -12 -154h-805v-30q0 -141 66.5 -217t195.5 -76q85 0 149.5 38.5t96.5 112.5h256q-63 -165 -198 -254.5t-318 -89.5zM653 938
q-121 0 -204 -82.5t-119 -212.5h540q19 134 -37.5 214.5t-179.5 80.5zM563 1266l-157 280h221l80 -162h4l125 162h243l-256 -280h-260z" />
    <glyph glyph-name="Gcircumflex" unicode="&#x11c;" horiz-adv-x="1574" 
d="M717 -33q-314 0 -475 213q-131 172 -131 434q0 232 90.5 433.5t251.5 328.5q207 176 503 176q261 0 413.5 -131t170.5 -352h-283q-11 116 -91.5 184t-231.5 68q-106 0 -195.5 -42t-151.5 -111t-105.5 -159.5t-64 -187.5t-20.5 -194q0 -206 97 -319t272 -113
q176 0 297.5 105t146.5 267l7 27h-369l43 217h631l-158 -811h-188l2 203h-7q-77 -113 -194.5 -174.5t-259.5 -61.5zM629 1608l258 252h260l164 -252h-226l-79 129h-5l-127 -129h-245z" />
    <glyph glyph-name="gcircumflex" unicode="&#x11d;" horiz-adv-x="1210" 
d="M467 -383q-212 0 -337 88.5t-136 237.5h246q15 -65 71 -104.5t160 -39.5q115 0 183 61.5t91 172.5l9 51q8 43 34 135h-6q-130 -160 -305 -160q-179 0 -290 123.5t-111 319.5q0 270 151.5 446t372.5 176q119 0 201 -52t121 -148h2l32 172h246l-209 -1063
q-43 -220 -176.5 -318t-349.5 -98zM555 250q63 0 117 25.5t91 67t63.5 96t38.5 113t12 116.5q0 118 -62.5 187t-181.5 69q-91 0 -161.5 -59t-107 -153t-36.5 -204q0 -120 58.5 -189t168.5 -69zM369 1272l254 278h262l157 -278h-221l-78 162h-4l-127 -162h-243z" />
    <glyph glyph-name="Gbreve" unicode="&#x11e;" horiz-adv-x="1574" 
d="M717 -33q-314 0 -475 213q-131 172 -131 434q0 232 90.5 433.5t251.5 328.5q207 176 503 176q261 0 413.5 -131t170.5 -352h-283q-11 116 -91.5 184t-231.5 68q-106 0 -195.5 -42t-151.5 -111t-105.5 -159.5t-64 -187.5t-20.5 -194q0 -206 97 -319t272 -113
q176 0 297.5 105t146.5 267l7 27h-369l43 217h631l-158 -811h-188l2 203h-7q-77 -113 -194.5 -174.5t-259.5 -61.5zM985 1595q-129 0 -206 75t-70 204h157q10 -111 127 -111q122 0 158 111h162q-30 -132 -114 -205.5t-214 -73.5z" />
    <glyph glyph-name="gbreve" unicode="&#x11f;" horiz-adv-x="1210" 
d="M467 -383q-212 0 -337 88.5t-136 237.5h246q15 -65 71 -104.5t160 -39.5q115 0 183 61.5t91 172.5l9 51q8 43 34 135h-6q-130 -160 -305 -160q-179 0 -290 123.5t-111 319.5q0 270 151.5 446t372.5 176q119 0 201 -52t121 -148h2l32 172h246l-209 -1063
q-43 -220 -176.5 -318t-349.5 -98zM555 250q63 0 117 25.5t91 67t63.5 96t38.5 113t12 116.5q0 118 -62.5 187t-181.5 69q-91 0 -161.5 -59t-107 -153t-36.5 -204q0 -120 58.5 -189t168.5 -69zM719 1255q-132 0 -210 80t-65 211h156q0 -59 31.5 -92t95.5 -33q130 0 162 125
h162q-27 -134 -114 -212.5t-218 -78.5z" />
    <glyph glyph-name="Gdotaccent" unicode="&#x120;" horiz-adv-x="1574" 
d="M717 -33q-314 0 -475 213q-131 172 -131 434q0 232 90.5 433.5t251.5 328.5q207 176 503 176q261 0 413.5 -131t170.5 -352h-283q-11 116 -91.5 184t-231.5 68q-106 0 -195.5 -42t-151.5 -111t-105.5 -159.5t-64 -187.5t-20.5 -194q0 -206 97 -319t272 -113
q176 0 297.5 105t146.5 267l7 27h-369l43 217h631l-158 -811h-188l2 203h-7q-77 -113 -194.5 -174.5t-259.5 -61.5zM844 1608l49 250h262l-49 -250h-262z" />
    <glyph glyph-name="gdotaccent" unicode="&#x121;" horiz-adv-x="1210" 
d="M467 -383q-212 0 -337 88.5t-136 237.5h246q15 -65 71 -104.5t160 -39.5q115 0 183 61.5t91 172.5l9 51q8 43 34 135h-6q-130 -160 -305 -160q-179 0 -290 123.5t-111 319.5q0 270 151.5 446t372.5 176q119 0 201 -52t121 -148h2l32 172h246l-209 -1063
q-43 -220 -176.5 -318t-349.5 -98zM555 250q63 0 117 25.5t91 67t63.5 96t38.5 113t12 116.5q0 118 -62.5 187t-181.5 69q-91 0 -161.5 -59t-107 -153t-36.5 -204q0 -120 58.5 -189t168.5 -69zM584 1272l49 252h260l-49 -252h-260z" />
    <glyph glyph-name="Gcommaaccent" unicode="&#x122;" horiz-adv-x="1574" 
d="M717 -33q-314 0 -475 213q-131 172 -131 434q0 232 90.5 433.5t251.5 328.5q207 176 503 176q261 0 413.5 -131t170.5 -352h-283q-11 116 -91.5 184t-231.5 68q-106 0 -195.5 -42t-151.5 -111t-105.5 -159.5t-64 -187.5t-20.5 -194q0 -206 97 -319t272 -113
q176 0 297.5 105t146.5 267l7 27h-369l43 217h631l-158 -811h-188l2 203h-7q-77 -113 -194.5 -174.5t-259.5 -61.5zM842 -104l-35 -181q-46 -231 -318 -237l21 100q134 15 152 113h-123l39 205h264z" />
    <glyph glyph-name="gcommaaccent" unicode="&#x123;" horiz-adv-x="1210" 
d="M467 -383q-212 0 -337 88.5t-136 237.5h246q15 -65 71 -104.5t160 -39.5q115 0 183 61.5t91 172.5l9 51q8 43 34 135h-6q-130 -160 -305 -160q-179 0 -290 123.5t-111 319.5q0 270 151.5 446t372.5 176q119 0 201 -52t121 -148h2l32 172h246l-209 -1063
q-43 -220 -176.5 -318t-349.5 -98zM555 250q63 0 117 25.5t91 67t63.5 96t38.5 113t12 116.5q0 118 -62.5 187t-181.5 69q-91 0 -161.5 -59t-107 -153t-36.5 -204q0 -120 58.5 -189t168.5 -69zM575 1272l35 180q47 230 318 236l-21 -99q-134 -18 -151 -114h123l-41 -203
h-263z" />
    <glyph glyph-name="Hcircumflex" unicode="&#x124;" horiz-adv-x="1501" 
d="M37 0l297 1524h280l-120 -615h659l121 615h278l-297 -1524h-278l131 680h-659l-132 -680h-280zM614 1608l258 252h261l163 -252h-225l-80 129h-4l-127 -129h-246z" />
    <glyph glyph-name="hcircumflex" unicode="&#x125;" horiz-adv-x="1187" 
d="M14 0l297 1524h256l-80 -412l-36 -176h4q133 188 352 188q165 0 252.5 -118.5t50.5 -300.5l-139 -705h-254l135 692q21 102 -21 160.5t-145 58.5q-106 0 -186 -70.5t-103 -187.5l-127 -653h-256zM461 1608l258 252h260l164 -252h-225l-80 129h-4l-127 -129h-246z" />
    <glyph glyph-name="Hbar" unicode="&#x126;" horiz-adv-x="1501" 
d="M117 1106l35 166h133l49 252h280l-49 -252h660l49 252h278l-49 -252h137l-34 -166h-136l-215 -1106h-278l131 680h-659l-132 -680h-280l215 1106h-135zM532 1106l-38 -197h659l39 197h-660z" />
    <glyph glyph-name="hbar" unicode="&#x127;" horiz-adv-x="1187" 
d="M125 1235l29 143h129l28 146h256l-28 -146h288l-28 -143h-289l-23 -123l-36 -176h4q133 188 352 188q165 0 252.5 -118.5t50.5 -300.5l-139 -705h-254l135 692q21 102 -21 160.5t-145 58.5q-106 0 -186 -70.5t-103 -187.5l-127 -653h-256l240 1235h-129z" />
    <glyph glyph-name="Itilde" unicode="&#x128;" horiz-adv-x="567" 
d="M41 0l297 1524h280l-296 -1524h-281zM649 1610q-49 0 -99.5 22t-90 44t-62.5 22q-26 0 -46.5 -23.5t-26.5 -64.5h-152q13 123 73.5 189.5t147.5 66.5q52 0 99 -22t84 -44t65 -22q62 0 74 84h153q-14 -118 -71 -185t-148 -67z" />
    <glyph glyph-name="itilde" unicode="&#x129;" horiz-adv-x="495" 
d="M18 0l213 1094h254l-213 -1094h-254zM547 1272q-49 0 -99.5 22t-90 44t-62.5 22q-26 0 -47 -23.5t-27 -64.5h-149q13 124 73 190t146 66q52 0 99 -21.5t84 -43t65 -21.5q33 0 50 20t23 62h154q-14 -118 -71 -185t-148 -67z" />
    <glyph glyph-name="Imacron" unicode="&#x12a;" horiz-adv-x="567" 
d="M41 0l297 1524h280l-296 -1524h-281zM227 1622l37 186h537l-37 -186h-537z" />
    <glyph glyph-name="imacron" unicode="&#x12b;" horiz-adv-x="495" 
d="M18 0l213 1094h254l-213 -1094h-254zM166 1288l35 189h463l-37 -189h-461z" />
    <glyph glyph-name="Ibreve" unicode="&#x12c;" horiz-adv-x="567" 
d="M41 0l297 1524h280l-296 -1524h-281zM506 1595q-129 0 -206.5 75t-70.5 204h158q10 -111 127 -111q122 0 158 111h162q-30 -132 -114 -205.5t-214 -73.5z" />
    <glyph glyph-name="ibreve" unicode="&#x12d;" horiz-adv-x="495" 
d="M18 0l213 1094h254l-213 -1094h-254zM397 1255q-131 0 -209 80t-65 211h156q0 -59 31.5 -92t95.5 -33q129 0 161 125h162q-27 -134 -114 -212.5t-218 -78.5z" />
    <glyph glyph-name="Iogonek" unicode="&#x12e;" horiz-adv-x="567" 
d="M41 0l297 1524h280l-296 -1522q-66 -29 -112 -76.5t-46 -95.5q0 -59 74 -59q41 0 71 10h6l-30 -148q-40 -16 -117 -16q-109 0 -166 45.5t-57 122.5q0 75 44 125.5t117 89.5h-65z" />
    <glyph glyph-name="iogonek" unicode="&#x12f;" horiz-adv-x="495" 
d="M18 0l211 1094h256l-213 -1092q-65 -29 -110 -77t-45 -95q0 -59 76 -59q38 0 71 10h4l-28 -148q-43 -16 -119 -16q-105 0 -162 45.5t-57 122.5q0 132 170 215h-54zM262 1272l49 252h262l-51 -252h-260z" />
    <glyph glyph-name="Idotaccent" unicode="&#x130;" horiz-adv-x="567" 
d="M41 0l297 1524h280l-296 -1524h-281zM365 1608l49 250h262l-49 -250h-262z" />
    <glyph glyph-name="dotlessi" unicode="&#x131;" horiz-adv-x="495" 
d="M18 0l213 1094h254l-213 -1094h-254z" />
    <glyph glyph-name="IJ" unicode="&#x132;" horiz-adv-x="1646" 
d="M41 0l297 1524h280l-296 -1524h-281zM1024 -29q-244 0 -363 128.5t-71 379.5l14 66h260l-12 -72q-28 -148 18.5 -210t153.5 -62q179 0 225 225l213 1098h281l-223 -1137q-35 -182 -146 -293q-123 -123 -350 -123z" />
    <glyph glyph-name="ij" unicode="&#x133;" horiz-adv-x="989" 
d="M416 -360q-66 0 -144 16l37 186h6q46 -4 56 -4q59 0 89 24t40 83l223 1149h256l-227 -1168q-32 -161 -115.5 -223.5t-220.5 -62.5zM18 0l211 1094h256l-213 -1094h-254zM756 1272l49 252h262l-51 -252h-260zM262 1272l49 252h262l-51 -252h-260z" />
    <glyph glyph-name="Jcircumflex" unicode="&#x134;" horiz-adv-x="1132" 
d="M510 -29q-244 0 -363 128.5t-71 379.5l14 66h260l-12 -72q-28 -148 18.5 -210t153.5 -62q179 0 225 225l213 1098h281l-223 -1137q-35 -182 -146 -293q-123 -123 -350 -123zM748 1608l258 252h260l164 -252h-226l-80 129h-4l-127 -129h-245z" />
    <glyph glyph-name="jcircumflex" unicode="&#x135;" horiz-adv-x="495" 
d="M-78 -360q-65 0 -143 16l37 186h6q46 -4 55 -4q59 0 89 24t40 83l223 1149h256l-227 -1168q-32 -161 -115.5 -223.5t-220.5 -62.5zM41 1272l254 278h262l158 -278h-221l-78 162h-4l-127 -162h-244z" />
    <glyph glyph-name="Kcommaaccent" unicode="&#x136;" horiz-adv-x="1419" 
d="M1018 0l-373 729l-221 -188l-105 -541h-280l297 1524h280l-69 -353q-37 -162 -76 -319l764 672h342l-719 -627l463 -897h-303zM776 -104l-35 -181q-46 -231 -317 -237l20 100q134 15 152 113h-123l39 205h264z" />
    <glyph glyph-name="kcommaaccent" unicode="&#x137;" horiz-adv-x="1138" 
d="M14 0l297 1524h254l-110 -563q-38 -178 -68 -293l483 426h312l-490 -418l322 -676h-279l-237 522l-156 -129l-74 -393h-254zM594 -104l-35 -181q-46 -231 -317 -237l20 100q134 15 152 113h-123l39 205h264z" />
    <glyph glyph-name="kgreenlandic" unicode="&#x138;" horiz-adv-x="1138" 
d="M14 0l213 1096h254l-26 -135q-38 -178 -68 -293l483 426h312l-490 -418l322 -676h-279l-237 522l-156 -129l-74 -393h-254z" />
    <glyph glyph-name="Lacute" unicode="&#x139;" horiz-adv-x="1210" 
d="M371 1608l135 262h307l-242 -262h-200zM39 0l297 1524h280l-249 -1280h727l-50 -244h-1005z" />
    <glyph glyph-name="lacute" unicode="&#x13a;" horiz-adv-x="503" 
d="M346 1608l135 262h307l-241 -262h-201zM20 0l297 1524h256l-297 -1524h-256z" />
    <glyph glyph-name="Lcommaaccent" unicode="&#x13b;" horiz-adv-x="1210" 
d="M666 -104l-35 -181q-46 -231 -318 -237l21 100q133 15 151 113h-123l39 205h265zM39 0l297 1524h280l-249 -1280h727l-50 -244h-1005z" />
    <glyph glyph-name="lcommaaccent" unicode="&#x13c;" horiz-adv-x="503" 
d="M268 -104l-35 -181q-46 -231 -317 -237l21 100q133 15 151 113h-123l39 205h264zM20 0l297 1524h256l-297 -1524h-256z" />
    <glyph glyph-name="Lcaron" unicode="&#x13d;" horiz-adv-x="1210" 
d="M39 0l297 1524h280l-249 -1280h727l-50 -244h-1005zM1159 1524l-39 -207q-45 -231 -309 -240l23 101q66 9 100 36.5t43 81.5h-119l45 228h256z" />
    <glyph glyph-name="lcaron" unicode="&#x13e;" horiz-adv-x="503" 
d="M901 1524l-33 -174q-39 -208 -278 -217l18 96q60 7 90 31.5t39 72.5h-106l37 191h233zM20 0l297 1524h256l-297 -1524h-256z" />
    <glyph glyph-name="Ldot" unicode="&#x13f;" horiz-adv-x="1210" 
d="M39 0l297 1524h280l-249 -1280h727l-50 -244h-1005zM791 604l53 264h258l-51 -264h-260z" />
    <glyph glyph-name="ldot" unicode="&#x140;" horiz-adv-x="765" 
d="M20 0l297 1524h256l-297 -1524h-256zM516 604l53 264h258l-51 -264h-260z" />
    <glyph glyph-name="Lslash" unicode="&#x141;" horiz-adv-x="1216" 
d="M-10 434l41 203l153 68l160 819h279l-134 -686l506 223l-41 -203l-505 -223l-76 -391h727l-47 -244h-1006l98 502z" />
    <glyph glyph-name="lslash" unicode="&#x142;" horiz-adv-x="589" 
d="M2 471l39 205l174 106l145 742h256l-110 -561l186 114l-39 -205l-186 -114l-148 -758h-256l113 578z" />
    <glyph glyph-name="Nacute" unicode="&#x143;" horiz-adv-x="1505" 
d="M848 1608l135 262h307l-241 -262h-201zM39 0l297 1524h289l333 -822q24 -63 54.5 -154.5t48.5 -151.5l18 -60h4q27 245 60 403l151 785h265l-297 -1524h-285l-336 817q-24 63 -55.5 155t-50.5 153l-19 61h-4q-24 -248 -55 -404l-152 -782h-266z" />
    <glyph glyph-name="nacute" unicode="&#x144;" horiz-adv-x="1187" 
d="M14 0l213 1094h248l-33 -170h4q64 95 156.5 147.5t204.5 52.5q165 0 252.5 -118.5t50.5 -300.5l-139 -705h-254l135 690q21 104 -21 162.5t-145 58.5q-106 0 -186 -71t-103 -189l-127 -651h-256zM600 1266l156 315h307l-262 -315h-201z" />
    <glyph glyph-name="Ncommaaccent" unicode="&#x145;" horiz-adv-x="1505" 
d="M772 -104l-35 -181q-46 -231 -317 -237l20 100q134 15 152 113h-123l39 205h264zM39 0l297 1524h289l333 -822q24 -63 54.5 -154.5t48.5 -151.5l18 -60h4q27 245 60 403l151 785h265l-297 -1524h-285l-336 817q-24 63 -55.5 155t-50.5 153l-19 61h-4q-24 -248 -55 -404
l-152 -782h-266z" />
    <glyph glyph-name="ncommaaccent" unicode="&#x146;" horiz-adv-x="1187" 
d="M14 0l213 1094h248l-33 -170h4q64 95 156.5 147.5t204.5 52.5q165 0 252.5 -118.5t50.5 -300.5l-139 -705h-254l135 690q21 104 -21 162.5t-145 58.5q-106 0 -186 -71t-103 -189l-127 -651h-256zM608 -104l-35 -181q-46 -231 -317 -237l20 100q134 15 152 113h-123
l39 205h264z" />
    <glyph glyph-name="Ncaron" unicode="&#x147;" horiz-adv-x="1505" 
d="M1360 1860l-258 -252h-260l-164 252h225l80 -129h4l127 129h246zM39 0l297 1524h289l333 -822q24 -63 54.5 -154.5t48.5 -151.5l18 -60h4q27 245 60 403l151 785h265l-297 -1524h-285l-336 817q-24 63 -55.5 155t-50.5 153l-19 61h-4q-24 -248 -55 -404l-152 -782h-266z
" />
    <glyph glyph-name="ncaron" unicode="&#x148;" horiz-adv-x="1187" 
d="M14 0l213 1094h248l-33 -170h4q64 95 156.5 147.5t204.5 52.5q165 0 252.5 -118.5t50.5 -300.5l-139 -705h-254l135 690q21 104 -21 162.5t-145 58.5q-106 0 -186 -71t-103 -189l-127 -651h-256zM594 1266l-158 280h221l80 -162h4l125 162h244l-256 -280h-260z" />
    <glyph glyph-name="napostrophe" unicode="&#x149;" horiz-adv-x="1187" 
d="M14 0l213 1094h248l-33 -170h4q64 95 156.5 147.5t204.5 52.5q165 0 252.5 -118.5t50.5 -300.5l-139 -705h-254l135 690q21 104 -21 162.5t-145 58.5q-106 0 -186 -71t-103 -189l-127 -651h-256zM350 1524l-33 -174q-39 -208 -278 -217l18 96q60 7 90 31.5t39 72.5h-106
l37 191h233z" />
    <glyph glyph-name="Eng" unicode="&#x14a;" horiz-adv-x="1505" 
d="M778 -154q85 0 134 32.5t75 96.5l-346 842q-25 63 -56.5 155t-50.5 153l-18 61h-4q-24 -248 -55 -404l-152 -782h-266l297 1524h289l333 -822q24 -63 54.5 -154.5t48.5 -151.5l18 -60h4q27 245 60 403l151 785h265l-291 -1491q-21 -108 -49.5 -171.5t-77.5 -121.5
q-107 -123 -336 -123q-91 0 -172 18l45 224h6q50 -13 94 -13z" />
    <glyph glyph-name="eng" unicode="&#x14b;" horiz-adv-x="1187" 
d="M1110 705l-154 -779q-16 -84 -47 -141t-76 -88t-95.5 -44t-116.5 -13t-144 16l37 186h6q46 -4 55 -4q60 0 91 24t41 83l145 745q21 104 -21 162.5t-145 58.5q-106 0 -186 -71t-103 -189l-127 -651h-256l213 1094h248l-33 -170h4q64 95 156.5 147.5t204.5 52.5
q165 0 252.5 -118.5t50.5 -300.5z" />
    <glyph glyph-name="Omacron" unicode="&#x14c;" horiz-adv-x="1634" 
d="M678 1622l35 186h602l-37 -186h-600zM793 -35q-311 0 -495.5 187.5t-184.5 494.5q0 182 60.5 347t167 288.5t262.5 196.5t337 73q206 0 360 -87t234 -239t80 -349q0 -186 -58.5 -352.5t-163 -290.5t-260 -196.5t-339.5 -72.5zM803 197q99 0 184 36.5t146.5 100.5
t106 149.5t66 184t21.5 204.5q0 210 -107 331.5t-296 121.5q-97 0 -181.5 -37.5t-146.5 -102.5t-106.5 -151t-66.5 -184.5t-22 -200.5q0 -206 105 -329t297 -123z" />
    <glyph glyph-name="omacron" unicode="&#x14d;" horiz-adv-x="1220" 
d="M444 1305l35 186h592l-37 -186h-590zM553 -33q-228 0 -361 139.5t-133 358.5q0 134 46.5 255t127 210t196.5 141.5t247 52.5q227 0 360 -139t133 -356q0 -182 -78.5 -333.5t-220.5 -240t-317 -88.5zM563 158q104 0 185 69.5t121 176t40 227.5q0 141 -63 223t-182 82
q-103 0 -184 -70t-122 -177.5t-41 -229.5q0 -140 63 -220.5t183 -80.5z" />
    <glyph glyph-name="Obreve" unicode="&#x14e;" horiz-adv-x="1634" 
d="M985 1595q-129 0 -206 75t-70 204h157q10 -111 127 -111q122 0 158 111h162q-30 -132 -114 -205.5t-214 -73.5zM793 -35q-311 0 -495.5 187.5t-184.5 494.5q0 182 60.5 347t167 288.5t262.5 196.5t337 73q206 0 360 -87t234 -239t80 -349q0 -186 -58.5 -352.5
t-163 -290.5t-260 -196.5t-339.5 -72.5zM803 197q99 0 184 36.5t146.5 100.5t106 149.5t66 184t21.5 204.5q0 210 -107 331.5t-296 121.5q-97 0 -181.5 -37.5t-146.5 -102.5t-106.5 -151t-66.5 -184.5t-22 -200.5q0 -206 105 -329t297 -123z" />
    <glyph glyph-name="obreve" unicode="&#x14f;" horiz-adv-x="1220" 
d="M553 -33q-228 0 -361 139.5t-133 358.5q0 134 46.5 255t127 210t196.5 141.5t247 52.5q227 0 360 -139t133 -356q0 -182 -78.5 -333.5t-220.5 -240t-317 -88.5zM563 158q104 0 185 69.5t121 176t40 227.5q0 141 -63 223t-182 82q-103 0 -184 -70t-122 -177.5t-41 -229.5
q0 -140 63 -220.5t183 -80.5zM737 1255q-131 0 -209 80t-65 211h155q0 -59 31.5 -92t95.5 -33q130 0 162 125h162q-27 -134 -114 -212.5t-218 -78.5z" />
    <glyph glyph-name="Ohungarumlaut" unicode="&#x150;" horiz-adv-x="1634" 
d="M793 -35q-311 0 -495.5 187.5t-184.5 494.5q0 182 60.5 347t167 288.5t262.5 196.5t337 73q206 0 360 -87t234 -239t80 -349q0 -186 -58.5 -352.5t-163 -290.5t-260 -196.5t-339.5 -72.5zM803 197q99 0 184 36.5t146.5 100.5t106 149.5t66 184t21.5 204.5
q0 210 -107 331.5t-296 121.5q-97 0 -181.5 -37.5t-146.5 -102.5t-106.5 -151t-66.5 -184.5t-22 -200.5q0 -206 105 -329t297 -123zM1042 1608l111 262h244l-183 -262h-172zM700 1608l111 262h246l-185 -262h-172z" />
    <glyph glyph-name="ohungarumlaut" unicode="&#x151;" horiz-adv-x="1220" 
d="M788 1266l130 315h243l-200 -315h-173zM446 1266l129 315h246l-203 -315h-172zM553 -33q-228 0 -361 139.5t-133 358.5q0 134 46.5 255t127 210t196.5 141.5t247 52.5q227 0 360 -139t133 -356q0 -182 -78.5 -333.5t-220.5 -240t-317 -88.5zM563 158q104 0 185 69.5
t121 176t40 227.5q0 141 -63 223t-182 82q-103 0 -184 -70t-122 -177.5t-41 -229.5q0 -140 63 -220.5t183 -80.5z" />
    <glyph glyph-name="OE" unicode="&#x152;" horiz-adv-x="2299" 
d="M711 -35q-138 0 -250 51t-186 141.5t-114 213t-40 266.5q0 257 104.5 466.5t288.5 329t410 119.5q282 0 405 -206l33 178h1020l-47 -236h-760l-76 -387h666l-43 -221h-666l-84 -432h785l-50 -248h-1028l25 133q-168 -168 -393 -168zM766 190q147 0 254 84t141 228
q76 390 76 452q17 172 -70.5 271.5t-246.5 99.5q-150 0 -267.5 -91.5t-180 -246.5t-62.5 -344q0 -208 88.5 -330.5t267.5 -122.5z" />
    <glyph glyph-name="oe" unicode="&#x153;" horiz-adv-x="2002" 
d="M1382 -33q-285 0 -401 213q-77 -101 -188 -157t-246 -56q-224 0 -356 139.5t-132 358.5q0 178 79 329t220 240.5t312 89.5q137 0 236 -57.5t153 -159.5q76 103 186 160t246 57q221 0 339 -136t116 -357q-3 -76 -15 -148h-792v-30q0 -141 65 -217t191 -76q83 0 145.5 38.5
t95.5 112.5h254q-61 -164 -195 -254t-313 -90zM557 158q101 0 180 69t119.5 176t40.5 228q0 142 -61.5 223.5t-178.5 81.5q-101 0 -180 -69.5t-119.5 -177.5t-40.5 -230q0 -140 61.5 -220.5t178.5 -80.5zM1481 938q-118 0 -200 -82.5t-118 -212.5h529q19 134 -36 214.5
t-175 80.5z" />
    <glyph glyph-name="Racute" unicode="&#x154;" horiz-adv-x="1415" 
d="M39 0l297 1524h610q214 0 343 -114.5t114 -305.5q-8 -149 -93.5 -250.5t-250.5 -144.5v-7q103 -33 153 -102t50 -184q0 -56 -7.5 -157t-7.5 -134q0 -93 27 -107l-2 -18h-273q-26 22 -26 98q0 38 8 139.5t8 159.5q0 109 -58.5 161t-187.5 52h-305l-119 -610h-280z
M571 1298l-92 -477h334q148 0 226.5 68.5t84.5 189.5q5 105 -50 162t-179 57h-324zM739 1608l135 262h308l-242 -262h-201z" />
    <glyph glyph-name="racute" unicode="&#x155;" horiz-adv-x="786" 
d="M14 0l213 1094h246l-39 -201h6q123 215 330 215q52 0 68 -8l-37 -234h-8q-37 11 -70 11q-132 0 -222 -81.5t-122 -240.5l-109 -555h-256zM446 1266l156 315h307l-262 -315h-201z" />
    <glyph glyph-name="Rcommaaccent" unicode="&#x156;" horiz-adv-x="1415" 
d="M39 0l297 1524h610q214 0 343 -114.5t114 -305.5q-8 -149 -93.5 -250.5t-250.5 -144.5v-7q103 -33 153 -102t50 -184q0 -56 -7.5 -157t-7.5 -134q0 -93 27 -107l-2 -18h-273q-26 22 -26 98q0 38 8 139.5t8 159.5q0 109 -58.5 161t-187.5 52h-305l-119 -610h-280z
M571 1298l-92 -477h334q148 0 226.5 68.5t84.5 189.5q5 105 -50 162t-179 57h-324zM772 -104l-35 -181q-46 -231 -317 -237l20 100q134 15 152 113h-123l39 205h264z" />
    <glyph glyph-name="rcommaaccent" unicode="&#x157;" horiz-adv-x="786" 
d="M14 0l213 1094h246l-39 -201h6q123 215 330 215q52 0 68 -8l-37 -234h-8q-37 11 -70 11q-132 0 -222 -81.5t-122 -240.5l-109 -555h-256zM258 -104l-35 -181q-46 -231 -317 -237l20 100q134 15 152 113h-123l39 205h264z" />
    <glyph glyph-name="Rcaron" unicode="&#x158;" horiz-adv-x="1415" 
d="M39 0l297 1524h610q214 0 343 -114.5t114 -305.5q-8 -149 -93.5 -250.5t-250.5 -144.5v-7q103 -33 153 -102t50 -184q0 -56 -7.5 -157t-7.5 -134q0 -93 27 -107l-2 -18h-273q-26 22 -26 98q0 38 8 139.5t8 159.5q0 109 -58.5 161t-187.5 52h-305l-119 -610h-280z
M571 1298l-92 -477h334q148 0 226.5 68.5t84.5 189.5q5 105 -50 162t-179 57h-324zM1253 1860l-258 -252h-260l-164 252h226l80 -129h4l127 129h245z" />
    <glyph glyph-name="rcaron" unicode="&#x159;" horiz-adv-x="786" 
d="M14 0l213 1094h246l-39 -201h6q123 215 330 215q52 0 68 -8l-37 -234h-8q-37 11 -70 11q-132 0 -222 -81.5t-122 -240.5l-109 -555h-256zM438 1266l-157 280h221l80 -162h4l125 162h243l-256 -280h-260z" />
    <glyph glyph-name="Sacute" unicode="&#x15a;" horiz-adv-x="1366" 
d="M690 -35q-309 0 -478 143t-175 379h282q28 -301 373 -301q136 0 217.5 62.5t81.5 169.5q1 39 -13.5 70t-38 54.5t-71 48t-93 43t-124.5 46.5q-83 29 -140 53.5t-117 62t-95.5 79t-58.5 102t-23 133.5q0 200 147 321t404 121q262 0 407.5 -123t161.5 -331h-270
q-11 110 -91 176.5t-216 66.5q-123 0 -193.5 -54t-70.5 -146q0 -81 71 -129.5t256 -114.5q87 -30 145.5 -55.5t122.5 -65t102 -84t62.5 -109t24.5 -143.5q0 -209 -161 -342t-429 -133zM702 1608l136 262h307l-242 -262h-201z" />
    <glyph glyph-name="sacute" unicode="&#x15b;" horiz-adv-x="1079" 
d="M492 1266l155 315h307l-262 -315h-200zM508 -33q-236 0 -364 98.5t-136 270.5h248q17 -191 252 -191q102 0 154.5 43.5t52.5 114.5q0 60 -58.5 95t-191.5 73q-81 24 -133 45.5t-103 57.5t-76 88t-26 122q-1 154 118.5 247t315.5 93q212 0 325.5 -85t127.5 -238h-246
q-12 149 -207 149q-90 0 -138 -36t-48 -97q0 -21 6.5 -37.5t24.5 -31t34 -24t52 -22.5t60 -20.5t75 -22.5q59 -17 103 -33.5t91 -44t77.5 -60.5t50 -82t20.5 -109q1 -168 -126 -265.5t-335 -97.5z" />
    <glyph glyph-name="Scircumflex" unicode="&#x15c;" horiz-adv-x="1366" 
d="M690 -35q-309 0 -478 143t-175 379h282q28 -301 373 -301q136 0 217.5 62.5t81.5 169.5q1 39 -13.5 70t-38 54.5t-71 48t-93 43t-124.5 46.5q-83 29 -140 53.5t-117 62t-95.5 79t-58.5 102t-23 133.5q0 200 147 321t404 121q262 0 407.5 -123t161.5 -331h-270
q-11 110 -91 176.5t-216 66.5q-123 0 -193.5 -54t-70.5 -146q0 -81 71 -129.5t256 -114.5q87 -30 145.5 -55.5t122.5 -65t102 -84t62.5 -109t24.5 -143.5q0 -209 -161 -342t-429 -133zM475 1608l258 252h260l164 -252h-225l-80 129h-4l-127 -129h-246z" />
    <glyph glyph-name="scircumflex" unicode="&#x15d;" horiz-adv-x="1079" 
d="M268 1272l254 278h262l158 -278h-221l-78 162h-4l-127 -162h-244zM508 -33q-236 0 -364 98.5t-136 270.5h248q17 -191 252 -191q102 0 154.5 43.5t52.5 114.5q0 60 -58.5 95t-191.5 73q-81 24 -133 45.5t-103 57.5t-76 88t-26 122q-1 154 118.5 247t315.5 93
q212 0 325.5 -85t127.5 -238h-246q-12 149 -207 149q-90 0 -138 -36t-48 -97q0 -21 6.5 -37.5t24.5 -31t34 -24t52 -22.5t60 -20.5t75 -22.5q59 -17 103 -33.5t91 -44t77.5 -60.5t50 -82t20.5 -109q1 -168 -126 -265.5t-335 -97.5z" />
    <glyph glyph-name="Scedilla" unicode="&#x15e;" horiz-adv-x="1366" 
d="M496 -428q-132 0 -213 63l41 66q68 -33 139 -33q60 0 94.5 21t34.5 61q0 28 -20 44t-52 16q-39 0 -86 -15l-24 53l129 127q-239 33 -368 170t-134 342h282q28 -301 373 -301q136 0 217.5 62.5t81.5 169.5q1 39 -13.5 70t-38 54.5t-71 48t-93 43t-124.5 46.5
q-83 29 -140 53.5t-117 62t-95.5 79t-58.5 102t-23 133.5q0 200 147 321t404 121q262 0 407.5 -123t161.5 -331h-270q-11 110 -91 176.5t-216 66.5q-123 0 -193.5 -54t-70.5 -146q0 -81 71 -129.5t256 -114.5q87 -30 145.5 -55.5t122.5 -65t102 -84t62.5 -109t24.5 -143.5
q0 -209 -161 -342t-429 -133h-39l-96 -78l2 -4q83 10 144 -22.5t61 -106.5q0 -90 -73 -136t-193 -46z" />
    <glyph glyph-name="scedilla" unicode="&#x15f;" horiz-adv-x="1079" 
d="M344 -428q-132 0 -213 63l41 66q68 -33 139 -33q60 0 94.5 21t34.5 61q0 28 -19.5 44t-51.5 16q-39 0 -86 -15l-25 53l129 127q-180 23 -276.5 117.5t-102.5 243.5h248q17 -191 252 -191q102 0 154.5 43.5t52.5 114.5q0 60 -58.5 95t-191.5 73q-81 24 -133 45.5
t-103 57.5t-76 88t-26 122q-1 154 118.5 247t315.5 93q212 0 325.5 -85t127.5 -238h-246q-12 149 -207 149q-90 0 -138 -36t-48 -97q0 -21 6.5 -37.5t24.5 -31t34 -24t52 -22.5t60 -20.5t75 -22.5q59 -17 103 -33.5t91 -44t77.5 -60.5t50 -82t20.5 -109q1 -168 -126 -265.5
t-335 -97.5h-6l-99 -80l3 -4q83 10 143.5 -22.5t60.5 -106.5q0 -90 -73 -136t-193 -46z" />
    <glyph glyph-name="Scaron" unicode="&#x160;" horiz-adv-x="1366" 
d="M690 -35q-309 0 -478 143t-175 379h282q28 -301 373 -301q136 0 217.5 62.5t81.5 169.5q1 39 -13.5 70t-38 54.5t-71 48t-93 43t-124.5 46.5q-83 29 -140 53.5t-117 62t-95.5 79t-58.5 102t-23 133.5q0 200 147 321t404 121q262 0 407.5 -123t161.5 -331h-270
q-11 110 -91 176.5t-216 66.5q-123 0 -193.5 -54t-70.5 -146q0 -81 71 -129.5t256 -114.5q87 -30 145.5 -55.5t122.5 -65t102 -84t62.5 -109t24.5 -143.5q0 -209 -161 -342t-429 -133zM1212 1860l-258 -252h-260l-164 252h226l80 -129h4l127 129h245z" />
    <glyph glyph-name="scaron" unicode="&#x161;" horiz-adv-x="1079" 
d="M485 1266l-157 280h221l80 -162h4l125 162h243l-256 -280h-260zM508 -33q-236 0 -364 98.5t-136 270.5h248q17 -191 252 -191q102 0 154.5 43.5t52.5 114.5q0 60 -58.5 95t-191.5 73q-81 24 -133 45.5t-103 57.5t-76 88t-26 122q-1 154 118.5 247t315.5 93
q212 0 325.5 -85t127.5 -238h-246q-12 149 -207 149q-90 0 -138 -36t-48 -97q0 -21 6.5 -37.5t24.5 -31t34 -24t52 -22.5t60 -20.5t75 -22.5q59 -17 103 -33.5t91 -44t77.5 -60.5t50 -82t20.5 -109q1 -168 -126 -265.5t-335 -97.5z" />
    <glyph glyph-name="uni0162" unicode="&#x162;" horiz-adv-x="1335" 
d="M207 1286l47 238h1214l-47 -238h-469l-250 -1286h-276l248 1286h-467zM674 -104l-35 -181q-46 -231 -317 -237l20 100q134 15 152 113h-123l39 205h264z" />
    <glyph glyph-name="uni0163" unicode="&#x163;" horiz-adv-x="755" 
d="M125 920l35 174h164l67 348h252l-68 -348h205l-35 -174h-204l-119 -613q-12 -63 13 -90t83 -27q13 0 28 1.5t31 4t21 3.5h8l-35 -193q-70 -16 -155 -16q-138 0 -208 75t-42 216l123 639h-164zM449 -104l-35 -181q-46 -231 -318 -237l21 100q133 15 151 113h-123l39 205
h265z" />
    <glyph glyph-name="Tcaron" unicode="&#x164;" horiz-adv-x="1335" 
d="M207 1286l47 238h1214l-47 -238h-469l-250 -1286h-276l248 1286h-467zM1264 1860l-258 -252h-261l-163 252h225l80 -129h4l127 129h246z" />
    <glyph glyph-name="tcaron" unicode="&#x165;" horiz-adv-x="755" 
d="M125 918l35 176h166l67 348h252l-67 -348h206l-36 -176h-205l-119 -611q-11 -60 13 -85t81 -25q22 0 82 6h10l-39 -199q-82 -14 -159 -14q-140 0 -208.5 66t-41.5 204l129 658h-166zM1004 1524l-27 -138q-22 -120 -93.5 -174t-187.5 -59l19 96q58 6 88 29.5t39 69.5h-107
l35 176h234z" />
    <glyph glyph-name="Tbar" unicode="&#x166;" horiz-adv-x="1335" 
d="M207 1286l47 238h1214l-47 -238h-469l-80 -412h320l-39 -180h-315l-136 -694h-276l133 694h-313l37 180h311l80 412h-467z" />
    <glyph glyph-name="tbar" unicode="&#x167;" horiz-adv-x="755" 
d="M125 920l35 174h164l67 348h252l-68 -348h205l-35 -174h-204l-35 -185h213l-31 -162h-215l-51 -266q-12 -63 13 -90t83 -27q13 0 28 1.5t31 4t21 3.5h8l-35 -193q-70 -16 -155 -16q-138 0 -208 75t-42 216l55 292h-162l31 162h164l35 185h-164z" />
    <glyph glyph-name="Utilde" unicode="&#x168;" horiz-adv-x="1439" 
d="M1106 1610q-49 0 -99.5 22t-90 44t-62.5 22q-26 0 -47 -23.5t-27 -64.5h-151q13 123 73.5 189.5t147.5 66.5q52 0 99 -22t84 -44t65 -22q61 0 73 84h154q-14 -118 -71 -185t-148 -67zM709 -27q-141 0 -254 37.5t-189 108.5t-105 182.5t-1 251.5l190 971h277l-193 -987
q-31 -161 40 -247.5t243 -86.5q149 0 236 75t116 230l199 1016h278l-203 -1045q-50 -260 -208 -383t-426 -123z" />
    <glyph glyph-name="utilde" unicode="&#x169;" horiz-adv-x="1175" 
d="M389 -31q-176 1 -258 116t-47 304l137 707h254l-137 -699q-40 -212 154 -215q113 0 189.5 69.5t100.5 186.5l127 658h256l-215 -1096h-245l28 154h-4q-135 -185 -340 -185zM877 1272q-49 0 -99.5 22t-90 44t-62.5 22q-26 0 -47 -23.5t-27 -64.5h-150q13 124 73.5 190
t146.5 66q52 0 98.5 -21.5t83.5 -43t65 -21.5q33 0 50.5 20t23.5 62h154q-14 -118 -71 -185t-148 -67z" />
    <glyph glyph-name="Umacron" unicode="&#x16a;" horiz-adv-x="1439" 
d="M655 1622l35 186h602l-37 -186h-600zM709 -27q-141 0 -254 37.5t-189 108.5t-105 182.5t-1 251.5l190 971h277l-193 -987q-31 -161 40 -247.5t243 -86.5q149 0 236 75t116 230l199 1016h278l-203 -1045q-50 -260 -208 -383t-426 -123z" />
    <glyph glyph-name="umacron" unicode="&#x16b;" horiz-adv-x="1175" 
d="M389 -31q-176 1 -258 116t-47 304l137 707h254l-137 -699q-40 -212 154 -215q113 0 189.5 69.5t100.5 186.5l127 658h256l-215 -1096h-245l28 154h-4q-135 -185 -340 -185zM434 1305l35 186h592l-37 -186h-590z" />
    <glyph glyph-name="Ubreve" unicode="&#x16c;" horiz-adv-x="1439" 
d="M963 1595q-129 0 -206.5 75t-70.5 204h158q10 -111 127 -111q121 0 157 111h162q-30 -132 -113.5 -205.5t-213.5 -73.5zM709 -27q-141 0 -254 37.5t-189 108.5t-105 182.5t-1 251.5l190 971h277l-193 -987q-31 -161 40 -247.5t243 -86.5q149 0 236 75t116 230l199 1016
h278l-203 -1045q-50 -260 -208 -383t-426 -123z" />
    <glyph glyph-name="ubreve" unicode="&#x16d;" horiz-adv-x="1175" 
d="M389 -31q-176 1 -258 116t-47 304l137 707h254l-137 -699q-40 -212 154 -215q113 0 189.5 69.5t100.5 186.5l127 658h256l-215 -1096h-245l28 154h-4q-135 -185 -340 -185zM725 1255q-131 0 -209 80t-65 211h155q0 -59 31.5 -92t95.5 -33q130 0 162 125h162
q-27 -134 -114 -212.5t-218 -78.5z" />
    <glyph glyph-name="Uring" unicode="&#x16e;" horiz-adv-x="1439" 
d="M709 -27q-141 0 -254 37.5t-189 108.5t-105 182.5t-1 251.5l190 971h277l-193 -987q-31 -161 40 -247.5t243 -86.5q149 0 236 75t116 230l199 1016h278l-203 -1045q-50 -260 -208 -383t-426 -123zM948 1522q-92 0 -156.5 62t-64.5 153q0 90 64.5 153.5t156.5 63.5
q91 0 155 -64t64 -153q0 -90 -64 -152.5t-155 -62.5zM948 1622q47 0 78 32.5t31 82.5t-31 83t-78 33q-49 0 -79.5 -33t-30.5 -83t30.5 -82.5t79.5 -32.5z" />
    <glyph glyph-name="uring" unicode="&#x16f;" horiz-adv-x="1175" 
d="M389 -31q-176 1 -258 116t-47 304l137 707h254l-137 -699q-40 -212 154 -215q113 0 189.5 69.5t100.5 186.5l127 658h256l-215 -1096h-245l28 154h-4q-135 -185 -340 -185zM715 1225q-92 0 -156.5 62t-64.5 153q0 89 65 153t156 64t156 -64t65 -153q0 -91 -64.5 -153
t-156.5 -62zM715 1325q49 0 79.5 32.5t30.5 82.5t-30.5 83t-79.5 33q-47 0 -78 -33t-31 -83t31 -82.5t78 -32.5z" />
    <glyph glyph-name="Uhungarumlaut" unicode="&#x170;" horiz-adv-x="1439" 
d="M709 -27q-141 0 -254 37.5t-189 108.5t-105 182.5t-1 251.5l190 971h277l-193 -987q-31 -161 40 -247.5t243 -86.5q149 0 236 75t116 230l199 1016h278l-203 -1045q-50 -260 -208 -383t-426 -123zM1030 1608l111 262h243l-182 -262h-172zM688 1608l111 262h245l-184 -262
h-172z" />
    <glyph glyph-name="uhungarumlaut" unicode="&#x171;" horiz-adv-x="1175" 
d="M389 -31q-176 1 -258 116t-47 304l137 707h254l-137 -699q-40 -212 154 -215q113 0 189.5 69.5t100.5 186.5l127 658h256l-215 -1096h-245l28 154h-4q-135 -185 -340 -185zM438 1266l129 315h246l-203 -315h-172zM780 1266l129 315h244l-201 -315h-172z" />
    <glyph glyph-name="Uogonek" unicode="&#x172;" horiz-adv-x="1439" 
d="M727 -383q-108 0 -165.5 45.5t-57.5 122.5q0 114 129 190q-125 10 -223 51.5t-164 114t-88.5 175.5t2.5 237l190 971h277l-193 -987q-31 -161 40 -247.5t243 -86.5q149 0 236 75t116 230l199 1016h278l-203 -1045q-66 -346 -339 -454q-23 -10 -63 -26.5t-60.5 -25
t-50.5 -23t-45.5 -26t-32 -27t-23 -32.5t-6.5 -37q0 -57 76 -57q38 0 71 10h4l-30 -148q-40 -16 -117 -16z" />
    <glyph glyph-name="uogonek" unicode="&#x173;" horiz-adv-x="1175" 
d="M799 -383q-105 0 -162 45.5t-57 122.5q0 132 170 215h-45l28 154h-4q-135 -185 -340 -185q-176 1 -258 116t-47 304l137 707h254l-137 -699q-40 -212 154 -215q113 0 189.5 69.5t100.5 186.5l127 658h256l-215 -1096q-65 -28 -110 -75t-45 -95q0 -59 75 -59q39 0 72 10h4
l-31 -148q-40 -16 -116 -16z" />
    <glyph glyph-name="Wcircumflex" unicode="&#x174;" horiz-adv-x="1976" 
d="M326 0l-101 1524h277l33 -717q3 -102 0 -220.5t-8 -215.5l-5 -97h4q105 339 185 521l323 729h275l34 -727q3 -82 3.5 -212.5t-0.5 -220.5v-90h4q98 349 180 535l315 715h287l-709 -1524h-272l-37 803q-2 89 -0.5 190.5t4.5 184.5l4 82h-4q-92 -293 -162 -457l-358 -803
h-272zM836 1608l258 252h260l164 -252h-226l-80 129h-4l-127 -129h-245z" />
    <glyph glyph-name="wcircumflex" unicode="&#x175;" horiz-adv-x="1617" 
d="M594 1272l254 278h262l158 -278h-221l-78 162h-4l-127 -162h-244zM252 0l-123 1094h256l37 -506q4 -58 6.5 -141.5t3.5 -138.5v-54h4q64 189 127 326l232 514h227l35 -504q4 -57 8 -141.5t6 -140.5l2 -56h4q53 191 121 328l244 514h264l-551 -1094h-248l-35 516
q-3 53 -3.5 134t0.5 136l1 54h-4q-80 -199 -133 -318l-239 -522h-242z" />
    <glyph glyph-name="Ycircumflex" unicode="&#x176;" horiz-adv-x="1394" 
d="M453 0l116 604l-342 920h293l137 -385q18 -56 40 -137.5t35 -135.5l13 -53h5q116 201 206 326l289 385h309l-702 -916l-121 -608h-278zM551 1608l258 252h260l164 -252h-225l-80 129h-4l-127 -129h-246z" />
    <glyph glyph-name="ycircumflex" unicode="&#x177;" horiz-adv-x="1089" 
d="M129 -373q-34 0 -102.5 5t-81.5 10l41 202h8q7 -3 46.5 -6.5t61.5 -3.5q125 0 179 125l7 29q7 29 10.5 48.5t7.5 55.5t-1 51l-182 951h260l80 -498q10 -63 18 -150.5t11 -143.5l2 -56h6q73 195 147 334l271 514h268l-643 -1155q-99 -179 -190.5 -245.5t-223.5 -66.5z
M342 1272l254 278h262l158 -278h-221l-78 162h-4l-127 -162h-244z" />
    <glyph glyph-name="Ydieresis" unicode="&#x178;" horiz-adv-x="1394" 
d="M453 0l116 604l-342 920h293l137 -385q18 -56 40 -137.5t35 -135.5l13 -53h5q116 201 206 326l289 385h309l-702 -916l-121 -608h-278zM547 1608l47 247h252l-49 -247h-250zM995 1608l49 247h250l-47 -247h-252z" />
    <glyph glyph-name="Zacute" unicode="&#x179;" horiz-adv-x="1363" 
d="M-25 0l48 236l788 817q44 44 109.5 104t109.5 99l43 38l2 6q-184 -10 -295 -10h-499l45 234h1116l-43 -217l-772 -803q-47 -49 -120 -115.5t-122 -108.5l-49 -42v-7q196 11 311 11h578l-49 -242h-1201zM756 1608l135 262h307l-242 -262h-200z" />
    <glyph glyph-name="zacute" unicode="&#x17a;" horiz-adv-x="1060" 
d="M545 1266l155 315h308l-263 -315h-200zM-23 0l35 190l533 541q32 31 79 72.5t78 67.5l31 26v6q-139 -10 -219 -10h-319l38 201h838l-31 -172l-530 -541q-34 -33 -85 -78t-85 -73l-35 -29l-2 -8q148 14 238 14h385l-41 -207h-908z" />
    <glyph glyph-name="Zdotaccent" unicode="&#x17b;" horiz-adv-x="1363" 
d="M745 1608l50 250h262l-49 -250h-263zM-25 0l48 236l788 817q44 44 109.5 104t109.5 99l43 38l2 6q-184 -10 -295 -10h-499l45 234h1116l-43 -217l-772 -803q-47 -49 -120 -115.5t-122 -108.5l-49 -42v-7q196 11 311 11h578l-49 -242h-1201z" />
    <glyph glyph-name="zdotaccent" unicode="&#x17c;" horiz-adv-x="1060" 
d="M-23 0l35 190l533 541q32 31 79 72.5t78 67.5l31 26v6q-139 -10 -219 -10h-319l38 201h838l-31 -172l-530 -541q-34 -33 -85 -78t-85 -73l-35 -29l-2 -8q148 14 238 14h385l-41 -207h-908zM537 1272l49 252h260l-49 -252h-260z" />
    <glyph glyph-name="Zcaron" unicode="&#x17d;" horiz-adv-x="1363" 
d="M1268 1860l-258 -252h-260l-164 252h225l80 -129h4l127 129h246zM-25 0l48 236l788 817q44 44 109.5 104t109.5 99l43 38l2 6q-184 -10 -295 -10h-499l45 234h1116l-43 -217l-772 -803q-47 -49 -120 -115.5t-122 -108.5l-49 -42v-7q196 11 311 11h578l-49 -242h-1201z
" />
    <glyph glyph-name="zcaron" unicode="&#x17e;" horiz-adv-x="1060" 
d="M539 1266l-158 280h221l80 -162h4l125 162h244l-256 -280h-260zM-23 0l35 190l533 541q32 31 79 72.5t78 67.5l31 26v6q-139 -10 -219 -10h-319l38 201h838l-31 -172l-530 -541q-34 -33 -85 -78t-85 -73l-35 -29l-2 -8q148 14 238 14h385l-41 -207h-908z" />
    <glyph glyph-name="florin" unicode="&#x192;" horiz-adv-x="866" 
d="M109 705l32 172h201l74 325q39 167 133 232q128 88 385 47l-27 -191q-118 9 -168.5 -15t-68.5 -108l-66 -290h242l-33 -172h-248l-168 -754q-39 -164 -127 -227q-107 -79 -336 -43l29 178q81 -6 121.5 17t58.5 101l162 728h-196z" />
    <glyph glyph-name="AEacute" unicode="&#x1fc;" horiz-adv-x="2072" 
d="M-70 0l834 1524h1390l-47 -238h-747l-76 -385h655l-45 -221h-653l-84 -430h772l-49 -250h-1053l72 369h-487l-197 -369h-285zM905 1286l-383 -713h416l139 713h-172zM1321 1608l135 262h307l-241 -262h-201z" />
    <glyph glyph-name="aeacute" unicode="&#x1fd;" horiz-adv-x="1857" 
d="M375 -27q-170 0 -265.5 80t-95.5 215q0 76 23 133.5t62.5 95.5t102 64.5t130.5 41t160 24.5q74 8 121 15.5t89 20t64.5 30.5t35 45t11.5 65q-2 65 -50.5 104t-139.5 39q-101 0 -165 -47t-81 -135h-242q29 163 158 260.5t336 97.5q259 0 350 -151q147 153 369 153
q218 0 335 -133.5t119 -351.5q0 -63 -14 -156h-791v-30q0 -141 64.5 -218t189.5 -77q83 0 146 39.5t96 113.5h254q-61 -165 -195.5 -254.5t-314.5 -89.5q-149 0 -256.5 57.5t-165.5 161.5q-160 -213 -440 -213zM442 137q121 0 196 68.5t95 171.5l37 176q-50 -29 -108 -44
t-162 -32q-117 -22 -173.5 -64.5t-56.5 -125.5q0 -75 49 -112.5t123 -37.5zM1337 940q-118 0 -198.5 -82.5t-116.5 -214.5h526q19 134 -36 215.5t-175 81.5zM936 1266l156 315h307l-262 -315h-201z" />
    <glyph glyph-name="Oslashacute" unicode="&#x1fe;" horiz-adv-x="1634" 
d="M90 -86l-88 94l229 223q-118 168 -118 416q0 182 60.5 347t167 288.5t262.5 196.5t337 73q294 0 475 -172l213 207l92 -92l-221 -215q115 -173 115 -403q0 -186 -58.5 -352.5t-163 -290.5t-260 -196.5t-339.5 -72.5q-291 0 -476 168zM401 649q0 -131 35 -219l791 768
q-108 127 -303 127q-97 0 -181.5 -37.5t-146.5 -102.5t-106.5 -151t-66.5 -184.5t-22 -200.5zM803 197q99 0 184 36.5t146.5 100.5t106 149.5t66 184t21.5 204.5q0 108 -33 209l-790 -766q106 -118 299 -118zM854 1608l135 262h307l-241 -262h-201z" />
    <glyph glyph-name="oslashacute" unicode="&#x1ff;" horiz-adv-x="1220" 
d="M43 -90l-76 78l176 172q-88 127 -88 305q0 134 47 255t128 210t197 141.5t247 52.5q207 0 340 -120l168 161l75 -78l-172 -167q82 -124 82 -291q0 -182 -78.5 -333.5t-220.5 -240t-317 -88.5q-204 0 -334 111zM313 459q0 -69 15 -121l526 510q-66 88 -192 88
q-103 0 -184.5 -69.5t-123 -177.5t-41.5 -230zM561 158q78 0 145 40.5t111 107t69 151t25 174.5q0 57 -12 110l-520 -505q65 -78 182 -78zM610 1266l156 315h307l-262 -315h-201z" />
    <glyph glyph-name="Scommaaccent" unicode="&#x218;" horiz-adv-x="1366" 
d="M717 -104l-35 -181q-46 -231 -317 -237l20 100q134 15 152 113h-123l39 205h264zM690 -35q-309 0 -478 143t-175 379h282q28 -301 373 -301q136 0 217.5 62.5t81.5 169.5q1 39 -13.5 70t-38 54.5t-71 48t-93 43t-124.5 46.5q-83 29 -140 53.5t-117 62t-95.5 79t-58.5 102
t-23 133.5q0 200 147 321t404 121q262 0 407.5 -123t161.5 -331h-270q-11 110 -91 176.5t-216 66.5q-123 0 -193.5 -54t-70.5 -146q0 -81 71 -129.5t256 -114.5q87 -30 145.5 -55.5t122.5 -65t102 -84t62.5 -109t24.5 -143.5q0 -209 -161 -342t-429 -133z" />
    <glyph glyph-name="scommaaccent" unicode="&#x219;" horiz-adv-x="1079" 
d="M555 -104l-35 -181q-46 -231 -317 -237l20 100q134 15 152 113h-123l39 205h264zM508 -33q-236 0 -364 98.5t-136 270.5h248q17 -191 252 -191q102 0 154.5 43.5t52.5 114.5q0 60 -58.5 95t-191.5 73q-81 24 -133 45.5t-103 57.5t-76 88t-26 122q-1 154 118.5 247
t315.5 93q212 0 325.5 -85t127.5 -238h-246q-12 149 -207 149q-90 0 -138 -36t-48 -97q0 -21 6.5 -37.5t24.5 -31t34 -24t52 -22.5t60 -20.5t75 -22.5q59 -17 103 -33.5t91 -44t77.5 -60.5t50 -82t20.5 -109q1 -168 -126 -265.5t-335 -97.5z" />
    <glyph glyph-name="uni021A" unicode="&#x21a;" horiz-adv-x="1335" 
d="M207 1286l47 238h1214l-47 -238h-469l-250 -1286h-276l248 1286h-467zM674 -104l-35 -181q-46 -231 -317 -237l20 100q134 15 152 113h-123l39 205h264z" />
    <glyph glyph-name="uni021B" unicode="&#x21b;" horiz-adv-x="755" 
d="M125 920l35 174h164l67 348h252l-68 -348h205l-35 -174h-204l-119 -613q-12 -63 13 -90t83 -27q13 0 28 1.5t31 4t21 3.5h8l-35 -193q-70 -16 -155 -16q-138 0 -208 75t-42 216l123 639h-164zM449 -104l-35 -181q-46 -231 -318 -237l21 100q133 15 151 113h-123l39 205
h265z" />
    <glyph glyph-name="uni0237" unicode="&#x237;" horiz-adv-x="495" 
d="M-78 -360q-65 0 -143 16l37 186h6q46 -4 55 -4q59 0 89 24t40 83l223 1149h256l-227 -1168q-32 -161 -115.5 -223.5t-220.5 -62.5z" />
    <glyph glyph-name="circumflex" unicode="&#x2c6;" horiz-adv-x="1085" 
d="M352 1272l254 278h262l158 -278h-221l-78 162h-4l-127 -162h-244z" />
    <glyph glyph-name="caron" unicode="&#x2c7;" horiz-adv-x="1085" 
d="M561 1266l-158 280h222l80 -162h4l125 162h243l-256 -280h-260z" />
    <glyph glyph-name="uni02C9" unicode="&#x2c9;" horiz-adv-x="1085" 
d="M406 1327l34 186h592l-37 -186h-589z" />
    <glyph glyph-name="breve" unicode="&#x2d8;" horiz-adv-x="1085" 
d="M764 1255q-132 0 -210 80t-65 211h156q0 -59 31.5 -92t95.5 -33q130 0 162 125h162q-27 -134 -114 -212.5t-218 -78.5z" />
    <glyph glyph-name="dotaccent" unicode="&#x2d9;" horiz-adv-x="1085" 
d="M557 1272l49 252h260l-49 -252h-260z" />
    <glyph glyph-name="ring" unicode="&#x2da;" horiz-adv-x="1099" 
d="M727 1225q-92 0 -156.5 62t-64.5 153q0 89 65 153t156 64t156 -64t65 -153q0 -91 -64.5 -153t-156.5 -62zM727 1325q49 0 80 32.5t31 82.5t-31 83t-80 33q-47 0 -78 -33t-31 -83t31 -82.5t78 -32.5z" />
    <glyph glyph-name="ogonek" unicode="&#x2db;" horiz-adv-x="1085" 
d="M377 -383q-109 0 -166 45.5t-57 122.5q0 132 174 215h182q-137 -89 -137 -170q0 -59 76 -59q39 0 69 10h6l-30 -148q-40 -16 -117 -16z" />
    <glyph glyph-name="tilde" unicode="&#x2dc;" horiz-adv-x="1085" 
d="M840 1272q-49 0 -99.5 22t-90 44t-62.5 22q-26 0 -47 -23.5t-27 -64.5h-149q13 124 73 190t146 66q52 0 98.5 -21.5t83.5 -43t65 -21.5q33 0 50.5 20t23.5 62h154q-14 -118 -71 -185t-148 -67z" />
    <glyph glyph-name="hungarumlaut" unicode="&#x2dd;" horiz-adv-x="1085" 
d="M745 1266l129 315h244l-200 -315h-173zM403 1266l129 315h246l-203 -315h-172z" />
    <glyph glyph-name="uni0394" unicode="&#x394;" horiz-adv-x="1443" 
d="M-43 0l39 209l762 1315h315l252 -1323l-37 -201h-1331zM707 961l-420 -740h753l-129 705q-16 86 -25.5 179t-11.5 143l-2 50h-4q-63 -165 -161 -337z" />
    <glyph glyph-name="uni03A9" unicode="&#x3a9;" horiz-adv-x="1562" 
d="M39 219h268v4q-93 63 -141.5 181.5t-48.5 263.5q0 193 61.5 358.5t167.5 280.5t252 180t311 65q297 0 470 -174.5t173 -476.5q0 -125 -29.5 -236.5t-80.5 -195t-114 -145.5t-136 -101v-4h238l-41 -219h-629l41 215q108 13 197.5 74.5t149 154t92 208t32.5 239.5
q0 203 -98.5 318.5t-272.5 115.5q-151 0 -267 -88t-177.5 -240.5t-61.5 -343.5q0 -371 252 -438l-43 -215h-606z" />
    <glyph glyph-name="uni03BC" unicode="&#x3bc;" horiz-adv-x="1179" 
d="M424 -23q-103 0 -152 52h-4q-8 -79 -28 -181l-41 -215h-254l282 1463h256l-137 -699q-21 -99 15.5 -155t130.5 -60q112 -4 192 66.5t104 189.5l127 658h256l-213 -1096h-245l28 154h-4q-56 -82 -139 -129.5t-174 -47.5z" />
    <glyph glyph-name="pi" unicode="&#x3c0;" horiz-adv-x="1359" 
d="M125 920l35 176h1237l-33 -176h-190l-119 -619q-20 -111 73 -111q28 0 72 11h6l-39 -195q-56 -16 -135 -16q-129 0 -195.5 71t-37.5 218l125 641h-381l-176 -920h-254l178 920h-166z" />
    <glyph glyph-name="Wgrave" unicode="&#x1e80;" horiz-adv-x="1976" 
d="M1100 1608l-168 262h289l67 -262h-188zM326 0l-101 1524h277l33 -717q3 -102 0 -220.5t-8 -215.5l-5 -97h4q105 339 185 521l323 729h275l34 -727q3 -82 3.5 -212.5t-0.5 -220.5v-90h4q98 349 180 535l315 715h287l-709 -1524h-272l-37 803q-2 89 -0.5 190.5t4.5 184.5
l4 82h-4q-92 -293 -162 -457l-358 -803h-272z" />
    <glyph glyph-name="wgrave" unicode="&#x1e81;" horiz-adv-x="1617" 
d="M252 0l-123 1094h256l37 -506q4 -58 6.5 -141.5t3.5 -138.5v-54h4q64 189 127 326l232 514h227l35 -504q4 -57 8 -141.5t6 -140.5l2 -56h4q53 191 121 328l244 514h264l-551 -1094h-248l-35 516q-3 53 -3.5 134t0.5 136l1 54h-4q-80 -199 -133 -318l-239 -522h-242z
M846 1266l-189 315h291l86 -315h-188z" />
    <glyph glyph-name="Wacute" unicode="&#x1e82;" horiz-adv-x="1976" 
d="M1065 1608l135 262h307l-241 -262h-201zM326 0l-101 1524h277l33 -717q3 -102 0 -220.5t-8 -215.5l-5 -97h4q105 339 185 521l323 729h275l34 -727q3 -82 3.5 -212.5t-0.5 -220.5v-90h4q98 349 180 535l315 715h287l-709 -1524h-272l-37 803q-2 89 -0.5 190.5t4.5 184.5
l4 82h-4q-92 -293 -162 -457l-358 -803h-272z" />
    <glyph glyph-name="wacute" unicode="&#x1e83;" horiz-adv-x="1617" 
d="M817 1266l156 315h307l-262 -315h-201zM252 0l-123 1094h256l37 -506q4 -58 6.5 -141.5t3.5 -138.5v-54h4q64 189 127 326l232 514h227l35 -504q4 -57 8 -141.5t6 -140.5l2 -56h4q53 191 121 328l244 514h264l-551 -1094h-248l-35 516q-3 53 -3.5 134t0.5 136l1 54h-4
q-80 -199 -133 -318l-239 -522h-242z" />
    <glyph glyph-name="Wdieresis" unicode="&#x1e84;" horiz-adv-x="1976" 
d="M1284 1608l49 247h250l-47 -247h-252zM836 1608l47 247h252l-50 -247h-249zM326 0l-101 1524h277l33 -717q3 -102 0 -220.5t-8 -215.5l-5 -97h4q105 339 185 521l323 729h275l34 -727q3 -82 3.5 -212.5t-0.5 -220.5v-90h4q98 349 180 535l315 715h287l-709 -1524h-272
l-37 803q-2 89 -0.5 190.5t4.5 184.5l4 82h-4q-92 -293 -162 -457l-358 -803h-272z" />
    <glyph glyph-name="wdieresis" unicode="&#x1e85;" horiz-adv-x="1617" 
d="M1038 1268l49 252h246l-49 -252h-246zM592 1268l49 252h246l-51 -252h-244zM252 0l-123 1094h256l37 -506q4 -58 6.5 -141.5t3.5 -138.5v-54h4q64 189 127 326l232 514h227l35 -504q4 -57 8 -141.5t6 -140.5l2 -56h4q53 191 121 328l244 514h264l-551 -1094h-248l-35 516
q-3 53 -3.5 134t0.5 136l1 54h-4q-80 -199 -133 -318l-239 -522h-242z" />
    <glyph glyph-name="Ygrave" unicode="&#x1ef2;" horiz-adv-x="1394" 
d="M453 0l116 604l-342 920h293l137 -385q18 -56 40 -137.5t35 -135.5l13 -53h5q116 201 206 326l289 385h309l-702 -916l-121 -608h-278zM807 1608l-168 262h289l67 -262h-188z" />
    <glyph glyph-name="ygrave" unicode="&#x1ef3;" horiz-adv-x="1089" 
d="M129 -373q-34 0 -102.5 5t-81.5 10l41 202h8q7 -3 46.5 -6.5t61.5 -3.5q125 0 179 125l7 29q7 29 10.5 48.5t7.5 55.5t-1 51l-182 951h260l80 -498q10 -63 18 -150.5t11 -143.5l2 -56h6q73 195 147 334l271 514h268l-643 -1155q-99 -179 -190.5 -245.5t-223.5 -66.5z
M584 1266l-189 315h291l86 -315h-188z" />
    <glyph glyph-name="uni2009" unicode="&#x2009;" horiz-adv-x="225" 
 />
    <glyph glyph-name="endash" unicode="&#x2013;" horiz-adv-x="1024" 
d="M84 432l41 219h823l-43 -219h-821z" />
    <glyph glyph-name="emdash" unicode="&#x2014;" horiz-adv-x="2048" 
d="M186 432l41 219h1643l-45 -219h-1639z" />
    <glyph glyph-name="quoteleft" unicode="&#x2018;" horiz-adv-x="436" 
d="M174 958l55 277q30 150 111.5 217.5t202.5 77.5l-21 -107q-61 -15 -99 -56.5t-56 -129.5l-2 -16h114l-51 -263h-254z" />
    <glyph glyph-name="quoteright" unicode="&#x2019;" horiz-adv-x="436" 
d="M172 952l18 107q63 15 101.5 57t54.5 129l4 17h-114l51 262h252l-56 -275q-53 -276 -311 -297z" />
    <glyph glyph-name="quotesinglbase" unicode="&#x201a;" horiz-adv-x="436" 
d="M-74 -309l21 106q61 14 99 56.5t56 130.5l2 16h-114l51 262h254l-55 -274q-29 -151 -110.5 -219t-203.5 -78z" />
    <glyph glyph-name="quotedblleft" unicode="&#x201c;" horiz-adv-x="823" 
d="M174 958l55 277q30 150 111.5 217.5t202.5 77.5l-21 -107q-61 -15 -99 -56.5t-56 -129.5l-2 -16h114l-51 -263h-254zM563 958l53 277q30 150 111.5 217.5t202.5 77.5l-21 -107q-61 -15 -99 -57t-54 -129l-4 -16h114l-51 -263h-252z" />
    <glyph glyph-name="quotedblright" unicode="&#x201d;" horiz-adv-x="823" 
d="M559 952l21 107q60 15 97.5 57t55.5 129l2 17h-112l51 262h252l-54 -275q-30 -150 -111 -218.5t-202 -78.5zM172 952l18 107q63 15 101.5 57t54.5 129l4 17h-114l51 262h252l-56 -275q-53 -276 -311 -297z" />
    <glyph glyph-name="quotedblbase" unicode="&#x201e;" horiz-adv-x="825" 
d="M313 -309l21 106q61 14 99 56.5t56 130.5l3 16h-115l53 262h252l-55 -274q-53 -276 -314 -297zM-74 -309l21 106q61 14 99 56.5t56 130.5l2 16h-114l51 262h254l-55 -274q-29 -151 -110.5 -219t-203.5 -78z" />
    <glyph glyph-name="dagger" unicode="&#x2020;" horiz-adv-x="1230" 
d="M162 895l41 217h391l80 412h270l-82 -412h391l-41 -217h-391l-225 -1159h-268l223 1159h-389z" />
    <glyph glyph-name="daggerdbl" unicode="&#x2021;" horiz-adv-x="1230" 
d="M1212 895h-391l-104 -530h393l-43 -218h-391l-80 -411h-268l80 411h-394l43 218h392l102 530h-389l41 217h391l80 412h270l-82 -412h391z" />
    <glyph glyph-name="bullet" unicode="&#x2022;" horiz-adv-x="749" 
d="M389 401q-116 0 -198 83.5t-82 201.5q0 119 82.5 204t197.5 85q117 0 200 -85t83 -204q0 -118 -83 -201.5t-200 -83.5z" />
    <glyph glyph-name="ellipsis" unicode="&#x2026;" horiz-adv-x="1554" 
d="M-4 0l55 285h283l-55 -285h-283zM532 0l58 285h280l-55 -285h-283zM1071 0l55 285h283l-55 -285h-283z" />
    <glyph glyph-name="perthousand" unicode="&#x2030;" horiz-adv-x="2652" 
d="M362 0l1014 1458h168l-1012 -1458h-170zM492 641q-150 0 -241 96.5t-91 255.5q0 213 115.5 355.5t291.5 142.5q152 0 239 -95t87 -255q0 -214 -115.5 -357t-285.5 -143zM494 795q61 0 108 54.5t70.5 138.5t23.5 179q0 83 -34 129.5t-99 46.5q-61 0 -108 -53.5t-70 -136.5
t-23 -178q0 -85 32.5 -132.5t99.5 -47.5zM1343 -35q-150 0 -240.5 95.5t-90.5 254.5q0 213 115.5 356.5t291.5 143.5q152 0 239 -96t87 -256q0 -214 -116 -356t-286 -142zM1346 117q61 0 108 55.5t70.5 140t23.5 179.5q0 83 -34 128.5t-99 45.5q-61 0 -108 -54t-70 -137
t-23 -178q0 -85 32.5 -132.5t99.5 -47.5zM2167 -35q-149 0 -239.5 96t-90.5 254q0 213 116 356.5t290 143.5q152 0 239.5 -96t87.5 -256q0 -214 -116.5 -356t-286.5 -142zM2171 117q61 0 108 55.5t70 140t23 179.5q0 83 -34.5 128.5t-99.5 45.5q-61 0 -107.5 -54t-69.5 -137
t-23 -178q0 -180 133 -180z" />
    <glyph glyph-name="uni2032" unicode="&#x2032;" horiz-adv-x="444" 
d="M158 975l178 549h225l-178 -549h-225z" />
    <glyph glyph-name="uni2033" unicode="&#x2033;" horiz-adv-x="815" 
d="M526 975l179 549h227l-178 -549h-228zM158 975l178 549h225l-178 -549h-225z" />
    <glyph glyph-name="guilsinglleft" unicode="&#x2039;" horiz-adv-x="628" 
d="M408 104l-285 336l49 254l412 314l-54 -260l-260 -193v-4l185 -205z" />
    <glyph glyph-name="guilsinglright" unicode="&#x203a;" horiz-adv-x="628" 
d="M55 104l54 263l260 192v4l-183 205l45 240l287 -334l-49 -254z" />
    <glyph glyph-name="fraction" unicode="&#x2044;" horiz-adv-x="471" 
d="M-623 -266l1438 1790h199l-1440 -1790h-197z" />
    <glyph glyph-name="zero.superior" unicode="&#x2070;" horiz-adv-x="929" 
d="M500 563q-170 0 -266.5 103.5t-96.5 277.5q0 164 61 300.5t171 217t247 80.5q169 0 262 -99t93 -284q0 -165 -55.5 -299.5t-164.5 -215.5t-251 -81zM506 729q79 0 137.5 68t85.5 166t27 206q0 209 -146 209q-77 0 -137 -68.5t-89.5 -167.5t-29.5 -204q0 -101 39 -155
t113 -54z" />
    <glyph glyph-name="four.superior" unicode="&#x2074;" horiz-adv-x="870" 
d="M494 586l41 211h-445l37 186l551 553h205l-115 -588h137l-28 -151h-138l-41 -211h-204zM268 944q87 4 150 4h147l43 215q5 32 15.5 73t18.5 66l7 25h-4q-66 -80 -125 -139l-110 -111q-27 -26 -62.5 -58.5t-57.5 -51.5l-22 -19v-4z" />
    <glyph glyph-name="five.superior" unicode="&#x2075;" horiz-adv-x="837" 
d="M465 563q-159 0 -259 80.5t-108 206.5h209q6 -54 47 -87.5t111 -33.5q78 0 128 52.5t50 138.5q0 70 -37.5 109.5t-99.5 39.5q-96 3 -158 -70h-190l174 525h563l-31 -168h-415l-70 -207h6q72 72 195 72q51 0 98.5 -18t87.5 -52.5t64 -92.5t24 -132q0 -164 -108 -263.5
t-281 -99.5z" />
    <glyph glyph-name="six.superior" unicode="&#x2076;" horiz-adv-x="860" 
d="M496 563q-141 0 -236 76q-121 100 -121 311q0 143 52.5 278.5t146.5 217.5q115 98 276 98q139 0 219.5 -69.5t88.5 -174.5h-197q-15 95 -119 95q-83 0 -145.5 -71t-95.5 -194h4q84 93 219 93q122 0 205.5 -82.5t83.5 -210.5q0 -158 -109 -262.5t-272 -104.5zM494 723
q80 0 133 57t53 144q0 68 -43.5 110.5t-108.5 42.5q-83 0 -138.5 -54.5t-55.5 -139.5q0 -71 44 -115.5t116 -44.5z" />
    <glyph glyph-name="seven.superior" unicode="&#x2077;" horiz-adv-x="782" 
d="M186 584q48 238 186 442.5t300 323.5v4q-122 -8 -228 -8h-247l32 178h676l-28 -160q-166 -136 -294.5 -341.5t-170.5 -438.5h-226z" />
    <glyph glyph-name="eight.superior" unicode="&#x2078;" horiz-adv-x="864" 
d="M487 559q-164 0 -270 78t-106 203q0 104 61.5 169t165.5 93v4q-111 57 -111 174q0 118 99 190t252 72t244 -65.5t91 -180.5q0 -78 -45.5 -136.5t-134.5 -82.5v-4q67 -27 105.5 -84t38.5 -123q0 -146 -109 -226.5t-281 -80.5zM565 1147q68 0 110 38t42 99q0 53 -38.5 85
t-103.5 32q-67 0 -109 -37.5t-42 -97.5q0 -55 38.5 -87t102.5 -32zM489 717q80 0 128.5 45t48.5 121q0 61 -45 99t-117 38q-80 0 -130 -45t-50 -119q0 -65 44.5 -102t120.5 -37z" />
    <glyph glyph-name="nine.superior" unicode="&#x2079;" horiz-adv-x="862" 
d="M434 563q-145 0 -230.5 70.5t-94.5 183.5h200q5 -44 36.5 -74t96.5 -30q79 0 140.5 67.5t91.5 194.5h-4q-86 -92 -213 -92q-128 0 -212.5 83t-84.5 210q0 159 112 263.5t283 104.5q145 0 238 -76q112 -94 112 -294q0 -157 -53.5 -301.5t-153.5 -225.5q-103 -84 -264 -84z
M512 1030q85 0 141 54.5t56 146.5q0 71 -43.5 113t-112.5 42q-85 0 -139 -56t-54 -144q0 -70 41 -113t111 -43z" />
    <glyph glyph-name="zero.inferior" unicode="&#x2080;" horiz-adv-x="929" 
d="M338 -350q-171 0 -267 103.5t-96 279.5q0 163 60.5 299t171 216.5t246.5 80.5q170 0 263 -98.5t93 -282.5q0 -165 -56 -300t-164.5 -216.5t-250.5 -81.5zM342 -184q80 0 139 68.5t86 166.5t27 205q0 102 -37 156.5t-111 54.5q-77 0 -136.5 -69t-88 -168.5t-28.5 -204.5
q0 -101 37.5 -155t111.5 -54z" />
    <glyph glyph-name="one.inferior" unicode="&#x2081;" horiz-adv-x="583" 
d="M88 -328l121 619h-215l29 141q222 6 292 189h170l-184 -949h-213z" />
    <glyph glyph-name="two.inferior" unicode="&#x2082;" horiz-adv-x="825" 
d="M-113 -328q25 172 152 283q36 31 84 62.5t79.5 49.5t89.5 49.5t75 41.5q77 43 114 85.5t37 102.5q0 54 -32 86.5t-91 32.5q-68 0 -110 -37q-51 -48 -66 -145h-205q13 87 38 142t71 101q102 105 278 105q159 0 243.5 -77t84.5 -200q0 -99 -48 -163t-144 -123
q-33 -22 -159 -91t-171 -114q-1 -1 -8 -15h426l-35 -176h-703z" />
    <glyph glyph-name="three.inferior" unicode="&#x2083;" horiz-adv-x="862" 
d="M332 -350q-193 0 -295 102q-45 45 -66 111t-16 131h199q-2 -79 40.5 -131.5t137.5 -52.5q74 0 118 41.5t44 107.5q0 62 -39.5 97.5t-108.5 35.5h-59l26 146h49q175 0 175 129q0 50 -34 81t-93 31q-76 0 -122 -44t-57 -118h-200q20 148 121.5 231t263.5 83q90 0 162.5 -26
t118.5 -83t46 -137q0 -169 -194 -221v-2q70 -20 113 -76.5t43 -126.5q0 -149 -105 -229t-268 -80z" />
    <glyph glyph-name="four.inferior" unicode="&#x2084;" horiz-adv-x="870" 
d="M332 -328l41 211h-445l37 187l549 553h207l-115 -586h137l-30 -154h-135l-41 -211h-205zM106 31q84 6 150 6h145l43 215q6 32 16.5 73t17.5 66l7 25h-4q-66 -81 -123 -140l-110 -112l-142 -127v-6z" />
    <glyph glyph-name="five.inferior" unicode="&#x2085;" horiz-adv-x="837" 
d="M301 -350q-158 0 -257 80.5t-107 206.5h206q8 -54 49.5 -87.5t110.5 -33.5q78 0 128 52.5t50 139.5q0 70 -37.5 110t-101.5 40q-101 0 -156 -72h-192l176 524h561l-29 -166h-415l-72 -208h6q77 73 197 73q51 0 98 -18t86.5 -52.5t63.5 -93t24 -133.5q0 -164 -108 -263
t-281 -99z" />
    <glyph glyph-name="six.inferior" unicode="&#x2086;" horiz-adv-x="860" 
d="M334 -350q-139 0 -236 78q-121 97 -121 311q0 142 52.5 276t146.5 217q113 99 275 99q140 0 219.5 -68t89.5 -174h-199q-15 92 -117 92q-84 0 -146 -69.5t-97 -192.5h4q89 92 221 92q122 0 205.5 -82.5t83.5 -212.5q0 -157 -109 -261.5t-272 -104.5zM330 -190
q80 0 134 56.5t54 143.5q0 70 -43 113t-110 43q-83 0 -138 -55t-55 -140q0 -72 43.5 -116.5t114.5 -44.5z" />
    <glyph glyph-name="seven.inferior" unicode="&#x2087;" horiz-adv-x="782" 
d="M25 -330q24 123 75.5 243t118.5 216.5t140 174t149 132.5v6q-119 -8 -225 -8h-248l33 176h673l-26 -159q-166 -135 -295 -340.5t-172 -440.5h-223z" />
    <glyph glyph-name="eight.inferior" unicode="&#x2088;" horiz-adv-x="864" 
d="M326 -352q-166 0 -271.5 76.5t-105.5 201.5q0 105 61.5 170.5t165.5 91.5v5q-110 58 -110 174q0 119 98 191.5t252 72.5q153 0 244.5 -66.5t91.5 -181.5q0 -78 -46 -135.5t-135 -81.5v-4q68 -29 106 -85.5t38 -123.5q0 -145 -108.5 -225t-280.5 -80zM403 236q68 0 109 37
t41 98q0 55 -37 86.5t-104 31.5t-109.5 -38.5t-42.5 -98.5q0 -54 39 -85t104 -31zM326 -197q80 0 129 45t49 121q0 61 -46 99t-118 38q-80 0 -129 -44.5t-49 -118.5q0 -64 44.5 -102t119.5 -38z" />
    <glyph glyph-name="nine.inferior" unicode="&#x2089;" horiz-adv-x="862" 
d="M272 -350q-145 0 -230.5 71t-96.5 185h202q5 -45 36.5 -75t95.5 -30q80 0 141.5 67t91.5 195h-6q-80 -92 -213 -92q-128 0 -211.5 82.5t-83.5 210.5q0 159 112 263t283 104q150 0 236 -76q114 -90 114 -293q0 -157 -53.5 -300.5t-152.5 -225.5q-104 -86 -265 -86z
M350 117q85 0 140 54.5t55 145.5q0 72 -43 114t-113 42q-83 0 -136.5 -55.5t-53.5 -143.5q0 -70 40 -113.5t111 -43.5z" />
    <glyph glyph-name="Euro" unicode="&#x20ac;" horiz-adv-x="1355" 
d="M104 803l25 125h113q77 259 251 411t402 152q115 0 205 -35t148.5 -98.5t91.5 -147.5t40 -186h-260q-14 125 -70 191.5t-167 66.5q-123 0 -218.5 -96.5t-148.5 -257.5h377l-25 -125h-385q-13 -68 -20 -160h375l-25 -123h-352q7 -171 75 -254.5t197 -83.5
q124 0 200.5 77.5t123.5 227.5h258q-52 -240 -206 -380t-386 -140q-233 0 -375.5 144.5t-154.5 408.5h-144l25 123h121q3 84 18 160h-109z" />
    <glyph glyph-name="afii61289" unicode="&#x2113;" horiz-adv-x="841" 
d="M162 569l131 672q31 155 125.5 227t228.5 72q264 0 264 -280q-1 -245 -139 -445.5t-377 -314.5l-24 -119q-18 -96 6.5 -137t105.5 -41q66 0 142 26h6l-41 -204q-78 -33 -191 -33q-170 0 -243.5 89t-34.5 269l8 53q-72 -31 -127 -43l33 164q87 27 127 45zM543 791
q76 86 127 219.5t51 246.5q0 55 -19 79t-57 24q-82 0 -106 -121l-107 -553q51 35 111 105z" />
    <glyph glyph-name="trademark" unicode="&#x2122;" horiz-adv-x="1853" 
d="M922 741l153 783h256l31 -283q4 -47 7 -122t4 -126l1 -51h4q74 189 125 295l142 287h270l-154 -783h-172l49 258l76 342h-6q-82 -188 -152 -325l-139 -275h-160l-28 275l-23 325h-6q-32 -209 -59 -342l-51 -258h-168zM254 1366l33 158h653l-31 -158h-233l-123 -625h-188
l120 625h-231z" />
    <glyph glyph-name="Omega" unicode="&#x2126;" horiz-adv-x="1562" 
d="M39 219h268v4q-93 63 -141.5 181.5t-48.5 263.5q0 193 61.5 358.5t167.5 280.5t252 180t311 65q297 0 470 -174.5t173 -476.5q0 -125 -29.5 -236.5t-80.5 -195t-114 -145.5t-136 -101v-4h238l-41 -219h-629l41 215q108 13 197.5 74.5t149 154t92 208t32.5 239.5
q0 203 -98.5 318.5t-272.5 115.5q-151 0 -267 -88t-177.5 -240.5t-61.5 -343.5q0 -371 252 -438l-43 -215h-606z" />
    <glyph glyph-name="estimated" unicode="&#x212e;" horiz-adv-x="1474" 
d="M1391 686h-977v-496q138 -112 360 -112q198 0 318 89t178 257h112q-48 -204 -204.5 -327.5t-403.5 -123.5q-161 0 -292 54t-218.5 150.5t-134.5 230.5t-47 294q0 210 87.5 375.5t243 257.5t351.5 92q248 0 405 -135q121 -100 172.5 -250t49.5 -356zM764 1331
q-212 0 -350 -117v-434h651v463q-121 88 -301 88z" />
    <glyph glyph-name="onethird" unicode="&#x2153;" horiz-adv-x="1904" 
d="M248 586l119 618h-213l26 139q111 5 183.5 49.5t111.5 139.5h168l-184 -946h-211zM33 -266l1437 1790h199l-1440 -1790h-196zM1364 -248q-192 0 -295 103q-45 45 -66 110.5t-16 130.5h199q-2 -79 40.5 -131.5t137.5 -52.5q74 0 118 41.5t44 107.5q0 62 -39.5 98
t-108.5 36h-59l27 145h49q174 0 174 129q0 50 -34 81.5t-93 31.5q-76 0 -121.5 -44t-56.5 -118h-201q20 148 121.5 230.5t263.5 82.5q139 0 233.5 -64t94.5 -182q0 -169 -195 -221v-2q70 -20 113 -76.5t43 -126.5q0 -149 -105 -229t-268 -80z" />
    <glyph glyph-name="twothirds" unicode="&#x2154;" horiz-adv-x="2072" 
d="M49 586q23 172 152 282q36 31 83.5 62.5t79 50t89.5 49.5t75 41q76 41 113 84.5t37 104.5q0 52 -32 84t-89 32q-73 0 -113 -35q-49 -47 -65 -145h-205q13 87 38 141.5t71 102.5q104 104 278 104q160 0 245 -77t85 -199q0 -69 -26.5 -124t-64.5 -89.5t-102 -75.5
q-29 -19 -157.5 -88.5t-173.5 -114.5q-7 -11 -7 -14h426l-36 -176h-701zM233 -266l1438 1790h199l-1440 -1790h-197zM1534 -248q-192 0 -295 103q-45 45 -66 110.5t-16 130.5h199q-2 -79 40.5 -131.5t137.5 -52.5q74 0 118 41.5t44 107.5q0 62 -39.5 98t-108.5 36h-59
l27 145h49q174 0 174 129q0 50 -34 81.5t-93 31.5q-76 0 -121.5 -44t-56.5 -118h-201q20 148 121.5 230.5t263.5 82.5q139 0 233.5 -64t94.5 -182q0 -169 -195 -221v-2q70 -20 113 -76.5t43 -126.5q0 -149 -105 -229t-268 -80z" />
    <glyph glyph-name="oneeighth" unicode="&#x215b;" horiz-adv-x="1888" 
d="M250 586l119 618h-213l26 139q111 5 183.5 49.5t111.5 139.5h168l-184 -946h-211zM23 -266l1437 1790h199l-1440 -1790h-196zM1309 -250q-166 0 -271.5 77t-105.5 202q0 105 61.5 170.5t165.5 91.5v4q-110 58 -110 174q0 119 98 191.5t252 72.5q153 0 244.5 -66.5
t91.5 -181.5q0 -78 -46 -135.5t-135 -81.5v-4q68 -29 106 -85.5t38 -123.5q0 -145 -108.5 -225t-280.5 -80zM1386 338q68 0 109 37t41 98q0 55 -37 87t-104 32t-109.5 -38.5t-42.5 -98.5q0 -54 39 -85.5t104 -31.5zM1309 -94q80 0 129 45t49 121q0 61 -46 99t-118 38
q-80 0 -129 -44.5t-49 -119.5q0 -64 44.5 -101.5t119.5 -37.5z" />
    <glyph glyph-name="threeeighths" unicode="&#x215c;" horiz-adv-x="2031" 
d="M492 563q-192 0 -293 101q-91 87 -84 241h198q0 -79 42.5 -130.5t136.5 -51.5q74 0 117.5 41t43.5 106q0 63 -39 99.5t-108 36.5h-57l26 145h47q174 0 174 127q0 52 -33.5 83.5t-93.5 31.5q-74 0 -119.5 -44.5t-58.5 -117.5h-198q20 147 120 230t262 83q140 0 234 -64.5
t94 -183.5q0 -170 -194 -219v-2q70 -22 112.5 -78t42.5 -127q0 -148 -104.5 -227.5t-267.5 -79.5zM182 -266l1438 1790h199l-1440 -1790h-197zM1450 -250q-166 0 -271.5 77t-105.5 202q0 105 61.5 170.5t165.5 91.5v4q-110 58 -110 174q0 119 98 191.5t252 72.5
q153 0 244.5 -66.5t91.5 -181.5q0 -78 -45.5 -135.5t-134.5 -81.5v-4q68 -29 105.5 -85.5t37.5 -123.5q0 -145 -108.5 -225t-280.5 -80zM1528 338q68 0 108.5 37t40.5 98q0 55 -37 87t-104 32t-109.5 -38.5t-42.5 -98.5q0 -54 39.5 -85.5t104.5 -31.5zM1450 -94q80 0 129 45
t49 121q0 61 -46 99t-118 38q-80 0 -129 -44.5t-49 -119.5q0 -64 44.5 -101.5t119.5 -37.5z" />
    <glyph glyph-name="fiveeighths" unicode="&#x215d;" horiz-adv-x="1998" 
d="M463 563q-159 0 -259 80.5t-108 206.5h209q6 -54 47 -87.5t111 -33.5q78 0 128 52.5t50 138.5q0 70 -37.5 109.5t-99.5 39.5q-96 3 -158 -70h-190l174 525h563l-31 -168h-416l-69 -207h6q72 72 195 72q51 0 98.5 -18t87.5 -52.5t64 -92.5t24 -132q0 -164 -108 -263.5
t-281 -99.5zM154 -266l1437 1790h199l-1440 -1790h-196zM1415 -250q-166 0 -271.5 77t-105.5 202q0 105 62 170t166 92v4q-111 59 -111 174q0 119 98 191.5t252 72.5q153 0 244.5 -66.5t91.5 -181.5q0 -78 -45.5 -135.5t-134.5 -81.5v-4q68 -29 105.5 -85.5t37.5 -123.5
q0 -145 -108.5 -225t-280.5 -80zM1493 338q68 0 108.5 37t40.5 98q0 55 -37 87t-104 32t-109 -38.5t-42 -98.5q0 -54 39 -85.5t104 -31.5zM1415 -94q80 0 129 45t49 121q0 61 -45.5 99t-117.5 38q-80 0 -129.5 -45t-49.5 -119q0 -64 44.5 -101.5t119.5 -37.5z" />
    <glyph glyph-name="seveneighths" unicode="&#x215e;" horiz-adv-x="1921" 
d="M20 -266l1438 1790h199l-1440 -1790h-197zM1339 -250q-166 0 -271 77t-105 202q0 105 61.5 170.5t165.5 91.5v4q-111 59 -111 174q0 119 98.5 191.5t252.5 72.5q153 0 244 -66.5t91 -181.5q0 -78 -45.5 -135.5t-134.5 -81.5v-4q68 -29 106 -85.5t38 -123.5
q0 -145 -109 -225t-281 -80zM1417 338q68 0 109 37t41 98q0 55 -37.5 87t-104.5 32t-109 -38.5t-42 -98.5q0 -54 39 -85.5t104 -31.5zM1339 -94q80 0 129.5 45t49.5 121q0 61 -46 99t-118 38q-80 0 -129 -44.5t-49 -119.5q0 -64 44 -101.5t119 -37.5zM186 584
q48 238 186 442.5t300 323.5v4q-122 -8 -228 -8h-247l32 178h676l-28 -160q-166 -136 -294.5 -341.5t-170.5 -438.5h-226z" />
    <glyph glyph-name="partialdiff" unicode="&#x2202;" horiz-adv-x="1241" 
d="M879 885q-36 191 -163 293t-364 139v221q416 -42 607.5 -270t191.5 -629q0 -110 -21.5 -209t-68 -184t-113.5 -147t-163 -97t-212 -35q-228 0 -361.5 131.5t-133.5 333.5q0 241 148.5 400t381.5 159q84 0 155.5 -26.5t115.5 -79.5zM578 162q93 0 163 57t103 141.5
t33 180.5q0 121 -62 190.5t-178 69.5q-134 0 -215.5 -101.5t-81.5 -265.5q0 -125 61 -198.5t177 -73.5z" />
    <glyph glyph-name="Delta" unicode="&#x2206;" horiz-adv-x="1443" 
d="M-43 0l39 209l762 1315h315l252 -1323l-37 -201h-1331zM707 961l-420 -740h753l-129 705q-16 86 -25.5 179t-11.5 143l-2 50h-4q-63 -165 -161 -337z" />
    <glyph glyph-name="product" unicode="&#x220f;" horiz-adv-x="1550" 
d="M154 1524h1243v-1737h-287v1493h-672v-1493h-284v1737z" />
    <glyph glyph-name="summation" unicode="&#x2211;" horiz-adv-x="1374" 
d="M1282 -213h-1180v250l562 635v4l-562 610v238h1160v-230h-832v-4l518 -555v-112l-532 -592v-4h866v-240z" />
    <glyph glyph-name="minus" unicode="&#x2212;" horiz-adv-x="1218" 
d="M129 598l41 201h985l-39 -201h-987z" />
    <glyph glyph-name="uni2215" unicode="&#x2215;" horiz-adv-x="471" 
d="M-623 -266l1438 1790h199l-1440 -1790h-197z" />
    <glyph glyph-name="uni2219" unicode="&#x2219;" horiz-adv-x="497" 
d="M106 528l58 287h280l-55 -287h-283z" />
    <glyph glyph-name="radical" unicode="&#x221a;" horiz-adv-x="1359" 
d="M47 459v229h348l129 -334q25 -68 51 -146.5t39 -123.5l13 -45h4q37 163 84 315l358 1170h268l-559 -1737h-293l-276 672h-166z" />
    <glyph glyph-name="infinity" unicode="&#x221e;" horiz-adv-x="1529" 
d="M397 268q-106 0 -183 53t-114 138t-37 190q0 161 89.5 270t244.5 109q120 0 208 -62t167 -175q76 113 159.5 175t198.5 62q150 0 242 -104t92 -275t-92 -276t-242 -105q-115 0 -199 63.5t-159 178.5q-51 -75 -100 -124.5t-120.5 -83.5t-154.5 -34zM414 829
q-70 0 -105 -50t-35 -130t35 -131t105 -51q64 0 117 49t102 131q-104 182 -219 182zM1114 467q71 0 107 51t36 131t-36 130t-107 50q-60 0 -109 -48t-100 -134q53 -85 101 -132.5t108 -47.5z" />
    <glyph glyph-name="integral" unicode="&#x222b;" horiz-adv-x="757" 
d="M240 -31v1252q0 327 335 327q102 0 175 -20v-203h-7q-40 12 -100 12q-74 0 -108.5 -31.5t-34.5 -103.5v-1253q0 -328 -334 -328q-90 0 -176 21v204h6q75 -12 104 -12q71 0 105.5 31.5t34.5 103.5z" />
    <glyph glyph-name="approxequal" unicode="&#x2248;" horiz-adv-x="1212" 
d="M905 731q-86 0 -253.5 39t-215.5 39q-81 0 -102 -92h-176q20 150 97.5 226.5t190.5 76.5q90 0 254 -40t207 -40q88 0 103 88h180q-19 -144 -90 -220.5t-195 -76.5zM831 317q-87 0 -254.5 39t-216.5 39q-82 0 -100 -92h-178q21 151 98.5 227t192.5 76q89 0 253 -40
t208 -40q87 0 102 88h178q-19 -144 -90 -220.5t-193 -76.5z" />
    <glyph glyph-name="notequal" unicode="&#x2260;" horiz-adv-x="1214" 
d="M172 772l41 197h547l162 233h180l-162 -233h242l-39 -197h-338l-150 -217h447l-39 -197h-545l-160 -233h-182l162 233h-244l39 197h340l152 217h-453z" />
    <glyph glyph-name="lessequal" unicode="&#x2264;" horiz-adv-x="1095" 
d="M16 0l39 201h856l-39 -201h-856zM924 274l-793 332l51 258l916 301l-45 -229l-435 -135q-51 -15 -125 -34t-123 -31l-48 -11v-4q161 -47 270 -86l375 -141z" />
    <glyph glyph-name="greaterequal" unicode="&#x2265;" horiz-adv-x="1095" 
d="M920 201l-39 -201h-856l38 201h857zM250 1167l792 -333l-51 -256l-915 -302l45 230l436 133l295 78v4q-161 45 -270 86l-375 141z" />
    <glyph glyph-name="uni24C5" unicode="&#x24c5;" horiz-adv-x="1771" 
d="M930 -37q-162 0 -306.5 60.5t-248.5 165t-164.5 252t-60.5 315.5t60.5 316t164.5 252.5t248.5 165t306.5 60.5q163 0 307.5 -60.5t249 -165t165 -252.5t60.5 -316t-60.5 -315.5t-165 -252t-249 -165t-307.5 -60.5zM930 57q189 0 342 91t240 251t87 357q0 198 -87 358
t-240 251t-342 91t-342.5 -91t-240.5 -251t-87 -358q0 -197 87 -357t240.5 -251t342.5 -91zM625 326v862h387q145 0 227 -82q78 -75 78 -199q0 -126 -77.5 -202t-211.5 -76h-209v-303h-194zM819 1030v-250h170q64 0 99.5 33t35.5 90q0 59 -35.5 93t-99.5 34h-170z" />
    <glyph glyph-name="lozenge" unicode="&#x25ca;" horiz-adv-x="1249" 
d="M766 1524l430 -764l-428 -760h-285l-430 762l428 762h285zM330 766l186 -350q34 -64 61 -122.5t37 -85.5l11 -26h4q28 91 106 234l180 338l-184 350q-34 64 -61 122.5t-37 84.5l-10 26h-5q-30 -88 -106 -233z" />
    <glyph glyph-name="f_i" unicode="&#xf001;" horiz-adv-x="1224" 
d="M162 1094h157l29 147q27 151 121 223q87 66 250 66q83 -4 149 -19l-34 -186q-126 11 -174.5 -9.5t-61.5 -94.5l-25 -127h220l-35 -176h-219l-179 -918h-254l179 918h-160zM745 0l213 1094h256l-213 -1094h-256zM1249 1272h-260l51 252h260z" />
    <glyph glyph-name="f_l" unicode="&#xf002;" horiz-adv-x="1228" 
d="M348 1241q15 85 46.5 138.5t84.5 90.5q85 60 230 60q72 0 159 -19l-34 -186q-126 11 -174.5 -9.5t-61.5 -94.5l-25 -127h220l-35 -176h-219l-179 -918h-254l179 918h-160l37 176h157zM745 0l297 1524h256l-297 -1524h-256z" />
    <glyph glyph-name="uniF8FF" unicode="&#xf8ff;" horiz-adv-x="1802" 
d="M139 0v1526h1526v-1526h-1526zM389 918v-306h359v-360h307v360h358v306h-358v348h-307v-348h-359z" />
    <glyph glyph-name="dotlessj" horiz-adv-x="495" 
d="M-78 -360q-65 0 -143 16l37 186h6q46 -4 55 -4q59 0 89 24t40 83l223 1149h256l-227 -1168q-32 -161 -115.5 -223.5t-220.5 -62.5z" />
    <glyph glyph-name="commaaccent" horiz-adv-x="1085" 
d="M502 -104l-35 -181q-46 -231 -317 -237l20 100q134 15 152 113h-123l39 205h264z" />
    <glyph glyph-name="zero.denominator" horiz-adv-x="929" 
d="M346 -248q-171 0 -266.5 103.5t-95.5 279.5q0 163 60.5 299t170.5 216.5t246 80.5q170 0 263 -98.5t93 -282.5q0 -165 -56 -300t-164.5 -216.5t-250.5 -81.5zM350 -82q80 0 139 68.5t86 166.5t27 205q0 211 -147 211q-58 0 -107.5 -40.5t-80.5 -105t-48.5 -142
t-17.5 -154.5q0 -101 37.5 -155t111.5 -54z" />
    <glyph glyph-name="one.denominator" horiz-adv-x="583" 
d="M96 -225l121 618h-215l29 142q110 3 183 47.5t110 140.5h170l-185 -948h-213z" />
    <glyph glyph-name="two.denominator" horiz-adv-x="825" 
d="M-104 -225q25 172 151 282q36 31 84 62.5t79.5 49.5t89.5 49.5t75 41.5q77 43 114 86t37 103q0 54 -32 86t-91 32q-68 0 -110 -37q-51 -48 -66 -145h-204q14 88 38 143t70 101q101 104 279 104q159 0 243 -76.5t84 -199.5q0 -99 -48 -163.5t-144 -123.5q-33 -22 -159 -91
t-171 -114q-2 -2 -8 -14h426l-35 -176h-702z" />
    <glyph glyph-name="three.denominator" horiz-adv-x="862" 
d="M340 -248q-192 0 -295 103q-45 45 -66 110.5t-16 130.5h199q-2 -79 40.5 -131.5t137.5 -52.5q74 0 118 41.5t44 107.5q0 62 -39.5 98t-108.5 36h-59l27 145h49q174 0 174 129q0 50 -34 81.5t-93 31.5q-76 0 -121.5 -44t-56.5 -118h-201q20 148 121.5 230.5t263.5 82.5
q139 0 233.5 -64t94.5 -182q0 -169 -195 -221v-2q70 -20 113 -76.5t43 -126.5q0 -149 -105 -229t-268 -80z" />
    <glyph glyph-name="four.denominator" horiz-adv-x="870" 
d="M340 -225l41 211h-444l36 186l549 553h207l-115 -586h138l-31 -153h-135l-41 -211h-205zM115 133q83 6 149 6h146l43 215q6 32 16.5 73t17.5 66l7 25h-5q-65 -80 -122 -139l-111 -113l-141 -127v-6z" />
    <glyph glyph-name="five.denominator" horiz-adv-x="837" 
d="M309 -248q-158 0 -257 80.5t-107 206.5h207q8 -54 49 -87.5t110 -33.5q78 0 128 53t50 140q0 70 -37.5 109.5t-101.5 39.5q-100 0 -155 -72h-193l176 525h561l-28 -166h-416l-72 -209h6q78 74 197 74q51 0 98 -18t86.5 -52.5t63.5 -93t24 -133.5q0 -164 -108 -263.5
t-281 -99.5z" />
    <glyph glyph-name="six.denominator" horiz-adv-x="860" 
d="M342 -248q-139 0 -236 78q-120 96 -120 311q0 143 52 277.5t146 216.5q112 98 275 98q140 0 219.5 -67.5t89.5 -173.5h-199q-15 92 -116 92q-84 0 -146.5 -69.5t-97.5 -192.5h4q89 92 221 92q122 0 205.5 -82.5t83.5 -212.5q0 -157 -109 -262t-272 -105zM338 -88
q80 0 134 57t54 144q0 70 -43 112.5t-110 42.5q-83 0 -138 -54.5t-55 -139.5q0 -72 44 -117t114 -45z" />
    <glyph glyph-name="seven.denominator" horiz-adv-x="782" 
d="M33 -227q24 123 75.5 243t118.5 216.5t140 174t149 132.5v6q-119 -8 -225 -8h-248l33 176h674l-27 -160q-167 -135 -295.5 -340t-171.5 -440h-223z" />
    <glyph glyph-name="eight.denominator" horiz-adv-x="864" 
d="M334 -250q-166 0 -271.5 77t-105.5 202q0 105 61.5 170.5t165.5 91.5v4q-110 58 -110 174q0 119 98 191.5t252 72.5q153 0 244.5 -66.5t91.5 -181.5q0 -78 -45.5 -135.5t-134.5 -81.5v-4q68 -29 105.5 -85.5t37.5 -123.5q0 -145 -108.5 -225t-280.5 -80zM412 338
q68 0 108.5 37t40.5 98q0 55 -37 87t-104 32t-109.5 -38.5t-42.5 -98.5q0 -54 39.5 -85.5t104.5 -31.5zM334 -94q80 0 129 45t49 121q0 61 -46 99t-118 38q-80 0 -129 -44.5t-49 -119.5q0 -64 44.5 -101.5t119.5 -37.5z" />
    <glyph glyph-name="nine.denominator" horiz-adv-x="862" 
d="M281 -248q-145 0 -231 71t-97 185h203q5 -45 36 -74.5t95 -29.5q80 0 141.5 67t91.5 195h-6q-80 -92 -213 -92q-128 0 -211.5 82.5t-83.5 210.5q0 158 111.5 262t283.5 104q150 0 236 -76q115 -91 115 -292q0 -157 -54 -301t-153 -226q-104 -86 -264 -86zM358 219
q85 0 140 55t55 146q0 72 -43 113.5t-113 41.5q-83 0 -136.5 -55t-53.5 -143q0 -71 40 -114.5t111 -43.5z" />
    <glyph glyph-name="zero.numerator" horiz-adv-x="929" 
d="M500 563q-170 0 -266.5 103.5t-96.5 277.5q0 164 61 300.5t171 217t247 80.5q169 0 262 -99t93 -284q0 -165 -55.5 -299.5t-164.5 -215.5t-251 -81zM506 729q79 0 137.5 68t85.5 166t27 206q0 209 -146 209q-77 0 -137 -68.5t-89.5 -167.5t-29.5 -204q0 -101 39 -155
t113 -54z" />
    <glyph glyph-name="one.numerator" horiz-adv-x="583" 
d="M246 586l119 618h-213l26 139q111 5 183.5 49.5t111.5 139.5h168l-184 -946h-211z" />
    <glyph glyph-name="two.numerator" horiz-adv-x="825" 
d="M51 586q23 172 152 282q36 31 83.5 62.5t79 50t89.5 49.5t75 41q76 41 113 84.5t37 104.5q0 52 -32 84t-89 32q-73 0 -113 -35q-49 -47 -65 -145h-205q13 87 38 141.5t71 102.5q104 104 278 104q160 0 245 -77t85 -199q0 -69 -26.5 -124t-64.5 -89.5t-102 -75.5
q-29 -19 -157.5 -88.5t-173.5 -114.5q-7 -11 -7 -14h426l-36 -176h-701z" />
    <glyph glyph-name="three.numerator" horiz-adv-x="862" 
d="M494 563q-192 0 -293 101q-91 87 -84 241h198q0 -79 42.5 -130.5t136.5 -51.5q74 0 117.5 41t43.5 106q0 63 -39 99.5t-108 36.5h-57l26 145h47q174 0 174 127q0 52 -33.5 83.5t-93.5 31.5q-74 0 -119.5 -44.5t-58.5 -117.5h-198q20 147 120.5 230t262.5 83
q140 0 233.5 -64.5t93.5 -183.5q0 -170 -194 -219v-2q70 -22 112.5 -78t42.5 -127q0 -148 -104.5 -227.5t-267.5 -79.5z" />
    <glyph glyph-name="four.numerator" horiz-adv-x="870" 
d="M494 586l41 211h-445l37 186l551 553h205l-115 -588h137l-28 -151h-138l-41 -211h-204zM268 944q87 4 150 4h147l43 215q5 32 15.5 73t18.5 66l7 25h-4q-66 -80 -125 -139l-110 -111q-27 -26 -62.5 -58.5t-57.5 -51.5l-22 -19v-4z" />
    <glyph glyph-name="five.numerator" horiz-adv-x="837" 
d="M465 563q-159 0 -259 80.5t-108 206.5h209q6 -54 47 -87.5t111 -33.5q78 0 128 52.5t50 138.5q0 70 -37.5 109.5t-99.5 39.5q-96 3 -158 -70h-190l174 525h563l-31 -168h-415l-70 -207h6q72 72 195 72q51 0 98.5 -18t87.5 -52.5t64 -92.5t24 -132q0 -164 -108 -263.5
t-281 -99.5z" />
    <glyph glyph-name="six.numerator" horiz-adv-x="860" 
d="M496 563q-141 0 -236 76q-121 100 -121 311q0 143 52.5 278.5t146.5 217.5q115 98 276 98q139 0 219.5 -69.5t88.5 -174.5h-197q-15 95 -119 95q-83 0 -145.5 -71t-95.5 -194h4q84 93 219 93q122 0 205.5 -82.5t83.5 -210.5q0 -158 -109 -262.5t-272 -104.5zM494 723
q80 0 133 57t53 144q0 68 -43.5 110.5t-108.5 42.5q-83 0 -138.5 -54.5t-55.5 -139.5q0 -71 44 -115.5t116 -44.5z" />
    <glyph glyph-name="seven.numerator" horiz-adv-x="782" 
d="M186 584q48 238 186 442.5t300 323.5v4q-122 -8 -228 -8h-247l32 178h676l-28 -160q-166 -136 -294.5 -341.5t-170.5 -438.5h-226z" />
    <glyph glyph-name="eight.numerator" horiz-adv-x="864" 
d="M487 559q-164 0 -270 78t-106 203q0 104 61.5 169t165.5 93v4q-111 57 -111 174q0 118 99 190t252 72t244 -65.5t91 -180.5q0 -78 -45.5 -136.5t-134.5 -82.5v-4q67 -27 105.5 -84t38.5 -123q0 -146 -109 -226.5t-281 -80.5zM565 1147q68 0 110 38t42 99q0 53 -38.5 85
t-103.5 32q-67 0 -109 -37.5t-42 -97.5q0 -55 38.5 -87t102.5 -32zM489 717q80 0 128.5 45t48.5 121q0 61 -45 99t-117 38q-80 0 -130 -45t-50 -119q0 -65 44.5 -102t120.5 -37z" />
    <glyph glyph-name="nine.numerator" horiz-adv-x="862" 
d="M434 563q-145 0 -230.5 70.5t-94.5 183.5h200q5 -44 36.5 -74t96.5 -30q79 0 140.5 67.5t91.5 194.5h-4q-86 -92 -213 -92q-128 0 -212.5 83t-84.5 210q0 159 112 263.5t283 104.5q145 0 238 -76q112 -94 112 -294q0 -157 -53.5 -301.5t-153.5 -225.5q-103 -84 -264 -84z
M512 1030q85 0 141 54.5t56 146.5q0 71 -43.5 113t-112.5 42q-85 0 -139 -56t-54 -144q0 -70 41 -113t111 -43z" />
    <glyph glyph-name="acute.cap" horiz-adv-x="1085" 
d="M594 1608l135 262h307l-241 -262h-201z" />
    <glyph glyph-name="breve.cap" horiz-adv-x="1085" 
d="M778 1595q-129 0 -206 75t-70 204h157q10 -111 127 -111q122 0 158 111h162q-30 -132 -114 -205.5t-214 -73.5z" />
    <glyph glyph-name="caron.alt" horiz-adv-x="1007" 
d="M807 1524l-33 -174q-39 -208 -278 -217l18 96q60 7 90 31.5t39 72.5h-106l36 191h234z" />
    <glyph glyph-name="caron.cap" horiz-adv-x="1085" 
d="M1071 1860l-258 -252h-260l-164 252h225l80 -129h4l127 129h246z" />
    <glyph glyph-name="circumflex.cap" horiz-adv-x="1085" 
d="M369 1608l258 252h260l164 -252h-226l-80 129h-4l-127 -129h-245z" />
    <glyph glyph-name="commaaccent.alt" horiz-adv-x="1085" 
d="M502 -104l-35 -181q-46 -231 -317 -237l20 100q134 15 152 113h-123l39 205h264z" />
    <glyph glyph-name="dieresis.cap" horiz-adv-x="1085" 
d="M813 1608l49 247h250l-47 -247h-252zM365 1608l47 247h252l-50 -247h-249z" />
    <glyph glyph-name="dotaccent.cap" horiz-adv-x="1085" 
d="M584 1608l49 250h262l-49 -250h-262z" />
    <glyph glyph-name="grave.cap" horiz-adv-x="1085" 
d="M653 1608l-168 262h289l68 -262h-189z" />
    <glyph glyph-name="hungarumlaut.cap" horiz-adv-x="1085" 
d="M786 1608l111 262h244l-183 -262h-172zM444 1608l111 262h246l-185 -262h-172z" />
    <glyph glyph-name="macron.cap" horiz-adv-x="1085" 
d="M420 1622l35 186h602l-37 -186h-600z" />
    <glyph glyph-name="ring.cap" horiz-adv-x="1099" 
d="M748 1571q-93 0 -157.5 62.5t-64.5 152.5q0 89 65 153t157 64q91 0 155 -64t64 -153q0 -90 -64 -152.5t-155 -62.5zM748 1671q47 0 77.5 32.5t30.5 82.5t-30.5 83.5t-77.5 33.5q-49 0 -80 -33.5t-31 -83.5t31 -82.5t80 -32.5z" />
    <glyph glyph-name="tilde.cap" horiz-adv-x="1085" 
d="M870 1610q-49 0 -99.5 22t-90 44t-62.5 22q-26 0 -46.5 -23.5t-26.5 -64.5h-152q13 123 73.5 189.5t147.5 66.5q52 0 99 -22t84 -44t65 -22q62 0 74 84h154q-14 -118 -71.5 -185t-148.5 -67z" />
    <glyph glyph-name="Tcommaaccent" horiz-adv-x="1335" 
d="M207 1286l47 238h1214l-47 -238h-469l-250 -1286h-276l248 1286h-467zM674 -104l-35 -181q-46 -231 -317 -237l20 100q134 15 152 113h-123l39 205h264z" />
    <glyph glyph-name="idotaccent" horiz-adv-x="495" 
d="M18 0l211 1094h256l-213 -1094h-254zM262 1272l49 252h262l-51 -252h-260z" />
    <glyph glyph-name="tcommaaccent" horiz-adv-x="755" 
d="M125 920l35 174h164l67 348h252l-68 -348h205l-35 -174h-204l-119 -613q-12 -63 13 -90t83 -27q13 0 28 1.5t31 4t21 3.5h8l-35 -193q-70 -16 -155 -16q-138 0 -208 75t-42 216l123 639h-164zM449 -104l-35 -181q-46 -231 -318 -237l21 100q133 15 151 113h-123l39 205
h265z" />
    <glyph glyph-name="space_uni0326" horiz-adv-x="1007" 
d="M516 -104l-35 -181q-46 -231 -317 -237l20 100q134 15 152 113h-123l39 205h264z" />
    <glyph glyph-name="space_uni0326.alt" horiz-adv-x="1015" 
d="M555 1272l35 180q47 230 317 236l-20 -99q-135 -18 -152 -114h123l-41 -203h-262z" />
    <glyph glyph-name="R.alt" horiz-adv-x="1421" 
d="M989 0l-225 592h-330l-115 -592h-280l297 1524h608q231 0 356 -125q111 -114 111 -291q0 -186 -97 -318t-278 -178l252 -612h-299zM571 1292l-94 -481h357q144 0 221.5 76.5t77.5 210.5q0 90 -58.5 142t-165.5 52h-338z" />
    <glyph glyph-name="Racute.alt" horiz-adv-x="1421" 
d="M989 0l-225 592h-330l-115 -592h-280l297 1524h608q231 0 356 -125q111 -114 111 -291q0 -186 -97 -318t-278 -178l252 -612h-299zM571 1292l-94 -481h357q144 0 221.5 76.5t77.5 210.5q0 90 -58.5 142t-165.5 52h-338zM748 1608l135 262h307l-242 -262h-200z" />
    <glyph glyph-name="Rcaron.alt" horiz-adv-x="1421" 
d="M989 0l-225 592h-330l-115 -592h-280l297 1524h608q231 0 356 -125q111 -114 111 -291q0 -186 -97 -318t-278 -178l252 -612h-299zM571 1292l-94 -481h357q144 0 221.5 76.5t77.5 210.5q0 90 -58.5 142t-165.5 52h-338zM1260 1860l-259 -252h-260l-163 252h225l80 -129h4
l127 129h246z" />
    <glyph glyph-name="Rcommaaccent.alt" horiz-adv-x="1421" 
d="M989 0l-225 592h-330l-115 -592h-280l297 1524h608q231 0 356 -125q111 -114 111 -291q0 -186 -97 -318t-278 -178l252 -612h-299zM571 1292l-94 -481h357q144 0 221.5 76.5t77.5 210.5q0 90 -58.5 142t-165.5 52h-338zM756 -104l-35 -181q-46 -231 -318 -237l21 100
q133 15 151 113h-122l39 205h264z" />
    <glyph glyph-name="Ccedilla.alt" horiz-adv-x="1515" 
d="M659 -172h-122l30 162q-212 56 -332 225.5t-120 419.5q0 190 61 359t168 292t260 194.5t328 71.5q269 0 426 -141q157 -139 164 -377h-275q-11 130 -95 209.5t-237 79.5q-93 0 -175.5 -37t-143.5 -102t-105.5 -151t-67 -187t-22.5 -207q0 -209 95.5 -325.5t279.5 -116.5
q151 0 258 96t142 248h280q-60 -273 -246 -430q-158 -129 -385 -144l-22 -121q-22 -113 -98.5 -166t-215.5 -55l21 99q69 6 104.5 30t44.5 74z" />
    <glyph glyph-name="Scedilla.alt" horiz-adv-x="1366" 
d="M1280 440q0 -197 -143 -326.5t-387 -146.5l-23 -121q-22 -113 -98 -166t-215 -55l20 99q69 6 105 30t45 74h-123l28 156q-215 42 -331 175t-121 328h282q28 -301 373 -301q136 0 217.5 62.5t81.5 169.5q1 39 -13.5 70t-38 54.5t-71 48t-93 43t-124.5 46.5
q-83 29 -140 53.5t-117 62t-95.5 79t-58.5 102t-23 133.5q0 200 147 321t404 121q262 0 407.5 -123t161.5 -331h-270q-11 110 -91 176.5t-216 66.5q-123 0 -193.5 -54t-70.5 -146q0 -81 71 -129.5t256 -114.5q87 -30 145.5 -55.5t122.5 -65t102 -84t62.5 -109t24.5 -143.5z
" />
    <glyph glyph-name="ccedilla.alt" horiz-adv-x="1146" 
d="M444 -172h-120l30 166q-142 46 -220.5 162.5t-78.5 283.5q0 190 75 345t215 246t319 91q207 0 321.5 -110.5t124.5 -282.5h-248q-5 92 -57.5 145.5t-153.5 53.5q-105 0 -184 -73t-117.5 -184.5t-38.5 -240.5q0 -127 59.5 -197.5t170.5 -70.5q209 0 278 235h254
q-45 -190 -164.5 -298.5t-294.5 -129.5l-24 -123q-23 -113 -99 -166t-215 -55l21 99q68 6 104 30t43 74z" />
    <glyph glyph-name="scedilla.alt" horiz-adv-x="1079" 
d="M428 -172h-123l31 156q-155 32 -238.5 123.5t-89.5 228.5h248q17 -191 252 -191q102 0 154.5 43.5t52.5 114.5q0 60 -58.5 95t-191.5 73q-81 24 -133 45.5t-103 57.5t-76 88t-26 122q-1 154 118.5 247t315.5 93q212 0 325.5 -85t127.5 -238h-246q-12 149 -207 149
q-90 0 -138 -36t-48 -97q0 -21 6.5 -37.5t24.5 -31t34 -24t52 -22.5t60 -20.5t75 -22.5q59 -17 103 -33.5t91 -44t77.5 -60.5t50 -82t20.5 -109q1 -149 -99.5 -242.5t-271.5 -114.5l-25 -127q-23 -114 -98.5 -166.5t-214.5 -54.5l19 99q70 6 106 30t43 74z" />
    <glyph glyph-name="hyphen.cap" horiz-adv-x="774" 
d="M86 547l49 256h613l-50 -256h-612z" />
    <glyph glyph-name="endash.cap" horiz-adv-x="1024" 
d="M109 565l45 221h821l-45 -221h-821z" />
    <glyph glyph-name="emdash.cap" horiz-adv-x="2048" 
d="M213 565l43 221h1640l-43 -221h-1640z" />
    <glyph glyph-name="questiondown.cap" horiz-adv-x="1136" 
d="M602 1239l55 285h281l-55 -285h-281zM506 -27q-213 0 -342 103t-129 276q0 70 20.5 130t59 105.5t77.5 77.5t91 64q24 15 69 42.5t61 38t41.5 28t40 30.5t27.5 29q46 51 62 137h235q-19 -108 -50.5 -176t-76 -112.5t-127.5 -98.5q-20 -13 -60.5 -36.5t-62 -37t-51.5 -38
t-45.5 -47t-27 -56t-11.5 -72.5q0 -77 56 -125.5t159 -48.5q119 0 199 74.5t100 210.5h256q-31 -235 -179 -366.5t-392 -131.5z" />
    <glyph glyph-name="exclamdown.cap" horiz-adv-x="559" 
d="M43 0l86 434l188 600h134l-56 -614l-82 -420h-270zM279 1239l55 285h280l-55 -285h-280z" />
    <glyph glyph-name="parenleft.cap" horiz-adv-x="712" 
d="M352 -203q-190 338 -190 729q0 352 143 643t383 508h221q-237 -263 -359 -554.5t-122 -649.5q0 -368 125 -676h-201z" />
    <glyph glyph-name="parenright.cap" horiz-adv-x="712" 
d="M-117 -203q237 263 359.5 554.5t122.5 649.5q0 368 -125 676h200q191 -340 191 -729q0 -352 -142.5 -643t-382.5 -508h-223z" />
    <glyph glyph-name="bracketleft.cap" horiz-adv-x="802" 
d="M16 -203l365 1880h561l-39 -200h-311l-287 -1477h311l-41 -203h-559z" />
    <glyph glyph-name="bracketright.cap" horiz-adv-x="804" 
d="M-57 -203l39 203h309l287 1477h-308l37 200h561l-366 -1880h-559z" />
    <glyph glyph-name="braceleft.cap" horiz-adv-x="808" 
d="M541 -203q-221 0 -308.5 93.5t-46.5 302.5l60 305q15 80 -18.5 120.5t-129.5 43.5l37 196q102 5 148 34.5t61 104.5l68 349q36 188 131.5 259.5t290.5 71.5h112l-39 -200h-67q-84 0 -125 -34t-60 -124l-71 -369q-18 -92 -62 -137t-129 -68v-6q73 -29 99 -82.5t6 -150.5
l-68 -344q-18 -92 14 -127t119 -35h58l-39 -203h-41z" />
    <glyph glyph-name="braceright.cap" horiz-adv-x="806" 
d="M-57 -203l39 199h69q84 0 124.5 35t57.5 125l74 379q18 92 61 136.5t128 67.5v6q-72 28 -96.5 82t-4.5 152l64 334q18 92 -14 126t-119 34h-58l41 204h39q221 0 308 -93t46 -302l-57 -295q-15 -80 18.5 -120.5t129.5 -43.5l-39 -196q-99 -3 -145.5 -33.5t-61.5 -106.5
l-68 -358q-36 -188 -132.5 -260t-291.5 -72h-112z" />
    <glyph glyph-name="guillemotleft.cap" horiz-adv-x="1036" 
d="M403 242l-258 321l50 250l378 299l-51 -264l-221 -174v-4l150 -187zM842 242l-258 321l51 250l377 299l-51 -264l-222 -174v-4l150 -187z" />
    <glyph glyph-name="guillemotright.cap" horiz-adv-x="1036" 
d="M690 1112l258 -321l-51 -248l-377 -301l51 266l222 172v4l-150 188zM250 1112l258 -321l-49 -248l-377 -301l51 266l221 172v4l-149 188z" />
    <glyph glyph-name="guilsinglleft.cap" horiz-adv-x="628" 
d="M430 225l-285 338l50 252l411 313l-55 -276l-242 -180v-4l170 -193z" />
    <glyph glyph-name="guilsinglright.cap" horiz-adv-x="628" 
d="M256 1128l285 -337l-49 -254l-412 -312l53 275l244 180v4l-170 193z" />
    <glyph glyph-name="registered.alt" horiz-adv-x="1771" 
d="M930 -37q-162 0 -306.5 60.5t-248.5 165t-164.5 252t-60.5 315.5t60.5 316t164.5 252.5t248.5 165t306.5 60.5t306.5 -60.5t249 -165t165.5 -252.5t61 -316t-61 -315.5t-165.5 -252t-249 -165t-306.5 -60.5zM930 57q189 0 342 91t240 251t87 357q0 198 -87 358t-240 251
t-342 91q-142 0 -266.5 -53.5t-213.5 -146t-140.5 -222.5t-51.5 -278q0 -197 87.5 -357t241.5 -251t343 -91zM596 334v860h412q130 0 211 -65t81 -181q0 -160 -155 -211v-4q62 -18 93 -58t40 -110q4 -30 7 -66.5t5 -59.5t5 -44.5t7.5 -33.5t12.5 -15v-12h-193
q-10 6 -14.5 31.5t-8.5 79t-9 87.5q-8 67 -42.5 98.5t-105.5 31.5h-151v-328h-195zM791 1040v-235h178q67 0 102 31.5t35 85.5q0 118 -131 118h-184z" />
    <glyph glyph-name="dollar.cap" horiz-adv-x="1333" 
d="M446 -248l48 246q-217 35 -334.5 160.5t-120.5 314.5h274q15 -218 222 -268l90 463q-97 32 -165.5 65.5t-127.5 82.5t-89 116.5t-30 154.5q0 193 146 312t399 119h33l30 155h129l-35 -170q178 -34 279.5 -140t112.5 -265h-263q-6 72 -49 123.5t-118 76.5l-82 -415h2
q80 -25 140.5 -50.5t119.5 -64t97 -84t61.5 -109t23.5 -139.5q0 -201 -157.5 -326.5t-415.5 -125.5q-34 0 -48 2l-45 -234h-127zM958 414q0 76 -49 123.5t-166 91.5l-86 -439h11q130 0 210 60.5t80 163.5zM483 1118q-1 -65 44 -109t149 -85l76 393h-9q-123 0 -190.5 -54.5
t-69.5 -144.5z" />
    <glyph glyph-name="Euro.cap" horiz-adv-x="1388" 
d="M106 823l25 125h115q77 266 256 423t413 157q117 0 209 -36t152.5 -101t94.5 -151t42 -191h-266q-14 128 -72.5 196t-173.5 68q-126 0 -222 -99t-151 -266h385l-24 -125h-393q-18 -94 -23 -166h383l-25 -125h-360q15 -348 279 -348q126 0 205 81t126 235h265
q-54 -246 -211.5 -390.5t-395.5 -144.5t-384 148t-158 419h-148l27 125h123q3 87 18 166h-111z" />
    <glyph glyph-name="sterling.cap" horiz-adv-x="1257" 
d="M111 645l32 166h125q-2 10 -10.5 46.5t-12 52.5t-9 46t-7.5 55t-2 50q0 213 143 339t388 126q247 0 384.5 -132.5t133.5 -383.5h-266q4 153 -60.5 228t-189.5 75q-120 0 -186 -73t-66 -198q0 -65 29 -231h301l-31 -166h-254v-2q0 -131 -63 -227t-205 -183l4 -6
q112 52 203 52q74 0 175.5 -37t155.5 -37q109 0 224 88l102 -197q-167 -125 -340 -125q-69 0 -133 17.5t-105 39t-97.5 39t-113.5 17.5q-42 0 -87.5 -14.5t-73.5 -30t-74 -43.5l-115 211q129 73 210 174t81 229q0 23 -2 35h-188z" />
    <glyph glyph-name="yen.cap" horiz-adv-x="1333" 
d="M170 578l25 124h327l-303 793h291l106 -309q20 -62 46 -155.5t42 -156.5l17 -63h4q138 236 238 375l223 309h301l-610 -793h331l-24 -124h-375l-31 -162h375l-25 -125h-374l-58 -291h-264l57 291h-376l26 125h375l31 162h-375z" />
    <glyph glyph-name="zero.cap" horiz-adv-x="1431" 
d="M670 -37q-134 0 -240.5 46.5t-175.5 130t-105 198t-36 252.5q0 191 53.5 366t147.5 308t233.5 212.5t300.5 79.5q258 0 403.5 -167.5t145.5 -450.5q0 -156 -31 -300.5t-93 -267t-148.5 -213.5t-203.5 -142.5t-251 -51.5zM672 186q108 0 195 67.5t140.5 178.5t82 244.5
t28.5 273.5q0 182 -70 285.5t-208 103.5q-82 0 -154.5 -45t-124.5 -121.5t-90.5 -174.5t-57 -205t-18.5 -213q0 -188 68 -291t209 -103z" />
    <glyph glyph-name="one.cap" horiz-adv-x="882" 
d="M307 0l205 1047h-350l35 184q176 6 292.5 76.5t176.5 228.5h217l-299 -1536h-277z" />
    <glyph glyph-name="two.cap" horiz-adv-x="1273" 
d="M-37 0q49 279 246 451q43 38 91 72.5t110.5 71t97 56t113.5 60.5t98 51q150 79 221.5 156.5t71.5 197.5q0 100 -58.5 160.5t-167.5 60.5q-121 0 -194 -67q-93 -78 -129 -273h-273q42 269 193 410q158 152 416 152q235 0 366 -120.5t131 -308.5q0 -79 -20.5 -146t-51 -115
t-86.5 -96.5t-104.5 -80.5t-126.5 -78q-46 -29 -183.5 -103.5t-221.5 -135.5t-135 -135v-4h741l-45 -236h-1100z" />
    <glyph glyph-name="three.cap" horiz-adv-x="1345" 
d="M666 -37q-295 0 -461 166q-72 71 -105 172.5t-28 212.5h266q-2 -71 15.5 -130t55.5 -105.5t104.5 -72.5t156.5 -26q136 0 217.5 75t81.5 204q0 111 -72 178.5t-197 67.5h-102l37 198h84q321 0 321 236q0 95 -63.5 155t-171.5 60q-134 0 -217 -82t-101 -221h-266
q31 237 188.5 372.5t407.5 135.5q140 0 252 -45.5t180 -138t68 -216.5q0 -139 -81.5 -229.5t-227.5 -130.5v-4q112 -35 178.5 -129t66.5 -211q0 -95 -29.5 -175t-83 -138t-127 -98.5t-161.5 -60.5t-186 -20z" />
    <glyph glyph-name="four.cap" horiz-adv-x="1337" 
d="M676 0l69 356h-712l47 246l909 938h256l-192 -975h231l-41 -209h-231l-70 -356h-266zM279 555q133 10 217 10h290l88 451q7 38 21.5 93t25.5 91l11 35h-4q-96 -121 -168 -195l-277 -284q-34 -35 -85 -83.5t-85 -80.5l-34 -31v-6z" />
    <glyph glyph-name="five.cap" horiz-adv-x="1300" 
d="M606 -37q-127 0 -233 36.5t-176 99.5t-110 145t-44 174h274q10 -98 84 -164t205 -66q143 0 235.5 100t92.5 263q0 120 -68 195t-186 75q-89 1 -165 -36.5t-124 -98.5h-256l281 838h872l-43 -228h-672l-129 -387h5q122 119 323 119q86 0 164.5 -30t141 -87t99.5 -147.5
t37 -202.5q0 -270 -171 -434t-437 -164z" />
    <glyph glyph-name="six.cap" horiz-adv-x="1343" 
d="M653 -37q-265 0 -415 174q-127 141 -127 426q0 245 83 476t230 360q174 160 422 160q112 0 201.5 -32.5t145.5 -88t88 -124.5t38 -147h-264q-10 82 -62.5 134.5t-156.5 52.5q-155 0 -265.5 -133t-167.5 -373h5q146 174 378 174q198 0 330.5 -133t132.5 -336
q0 -161 -76.5 -296t-214 -214.5t-305.5 -79.5zM651 174q147 0 241.5 108t94.5 263q0 122 -76.5 198t-195.5 76q-155 0 -254 -100t-99 -254q0 -131 79 -211t210 -80z" />
    <glyph glyph-name="seven.cap" horiz-adv-x="1189" 
d="M184 0q49 261 181.5 518.5t299 452t347.5 323.5v6q-154 -12 -316 -12h-489l47 236h1069l-43 -213q-133 -106 -256.5 -242t-234.5 -301.5t-193.5 -364.5t-118.5 -403h-293z" />
    <glyph glyph-name="eight.cap" horiz-adv-x="1345" 
d="M647 -37q-165 0 -299 52.5t-215.5 158t-81.5 246.5q0 171 105.5 280t275.5 148v8q-83 42 -130.5 116t-47.5 167q0 184 152.5 300.5t396.5 116.5q230 0 372 -106.5t142 -282.5q0 -134 -75.5 -228t-219.5 -130v-6q108 -44 168.5 -137.5t60.5 -210.5q0 -154 -79.5 -266.5
t-215 -169t-309.5 -56.5zM776 911q126 0 201.5 65.5t75.5 172.5q0 95 -69.5 152t-186.5 57q-126 0 -202.5 -64t-76.5 -170q0 -99 70.5 -156t187.5 -57zM645 172q156 0 243 83t87 214q0 115 -83 187.5t-226 72.5q-156 0 -245 -82.5t-89 -216.5q0 -117 84 -187.5t229 -70.5z
" />
    <glyph glyph-name="nine.cap" horiz-adv-x="1349" 
d="M582 -37q-229 0 -361 118t-145 298h264q10 -91 68.5 -150t177.5 -59q122 0 229 96q131 116 199 400h-4q-156 -166 -369 -166q-205 0 -340 137t-135 338q0 120 46 227t126.5 186t196.5 125t249 46q229 0 379 -136q158 -146 158 -424q0 -175 -40.5 -349.5t-124 -327.5
t-195.5 -238q-156 -121 -379 -121zM705 702q156 0 256 102t100 259q0 130 -79 208.5t-206 78.5q-152 0 -249 -103.5t-97 -257.5q0 -130 75 -208.5t200 -78.5z" />
    <glyph glyph-name="percent.cap" horiz-adv-x="1886" 
d="M379 0l1036 1493h172l-1036 -1493h-172zM492 657q-153 0 -245.5 98.5t-92.5 260.5q0 218 118 365t297 147q155 0 244.5 -99t89.5 -264q0 -218 -118.5 -363t-292.5 -145zM494 813q63 0 111 56t71.5 142t23.5 183q0 86 -34.5 134t-100.5 48q-92 0 -148.5 -114t-56.5 -265
q0 -87 33 -135.5t101 -48.5zM1401 -37q-153 0 -245.5 99t-92.5 262q0 218 118.5 365t297.5 147q155 0 244 -99t89 -262q0 -220 -119 -366t-292 -146zM1405 119q62 0 110 56.5t71.5 143t23.5 183.5q0 86 -34 133t-101 47q-63 0 -111 -55t-72 -140t-24 -182q0 -186 137 -186z
" />
    <glyph glyph-name="perthousand.cap" horiz-adv-x="2715" 
d="M371 0l1038 1493h170l-1034 -1493h-174zM492 657q-153 0 -245.5 98.5t-92.5 260.5q0 218 118 365t297 147q155 0 244.5 -99t89.5 -264q0 -218 -118.5 -363t-292.5 -145zM494 813q63 0 111 56t71.5 142t23.5 183q0 86 -34.5 134t-100.5 48q-92 0 -148.5 -114t-56.5 -265
q0 -87 33 -135.5t101 -48.5zM1386 -37q-153 0 -245 99t-92 262q0 218 118 365t297 147q155 0 244.5 -99t89.5 -262q0 -219 -119.5 -365.5t-292.5 -146.5zM1389 119q93 0 149.5 115.5t56.5 267.5q0 86 -35 133t-100 47q-63 0 -111 -55t-72 -140t-24 -182q0 -88 34 -137
t102 -49zM2228 -37q-153 0 -245.5 99t-92.5 262q0 218 118.5 365t297.5 147q156 0 245 -98.5t89 -262.5q0 -220 -119 -366t-293 -146zM2232 119q63 0 110.5 57t71 142.5t23.5 183.5q0 86 -34 133t-101 47q-63 0 -110.5 -55t-71 -140t-23.5 -182q0 -186 135 -186z" />
    <glyph glyph-name="dollar.tab" 
d="M438 -240l45 238q-210 35 -323 158.5t-115 308.5h268q15 -215 211 -264l88 450q-94 31 -160.5 64t-123.5 81t-86 114.5t-29 152.5q0 188 141 304t381 116q25 0 39 -2l31 155h125l-33 -168q170 -33 267 -137t108 -258h-254q-8 70 -49.5 120t-112.5 75l-78 -404h2
q78 -25 137 -50.5t116 -63t93.5 -81.5t59 -105.5t22.5 -135.5q0 -198 -152.5 -321t-404.5 -123q-31 0 -45 2l-43 -226h-125zM934 406q0 72 -47 118t-158 88l-84 -426h8q127 0 204 59t77 161zM479 1094q-1 -64 42 -108t141 -83l73 383h-6q-121 0 -184.5 -52t-65.5 -140z" />
    <glyph glyph-name="Euro.tab" 
d="M84 803l27 125h108q75 254 243 408.5t398 154.5q219 0 334 -123t129 -344h-260q-6 55 -18 97t-35.5 81t-65.5 59.5t-100 20.5q-124 0 -212.5 -97t-137.5 -257h350l-25 -125h-356q-15 -78 -21 -158h346l-24 -125h-326q10 -340 260 -340q117 1 189.5 77.5t113.5 229.5h259
q-51 -246 -201 -383t-371 -137q-232 0 -371 147.5t-149 405.5h-139l26 125h115q6 83 18 158h-104z" />
    <glyph glyph-name="sterling.tab" 
d="M154 631l32 162h121q-1 6 -7.5 32.5t-8.5 35.5t-7 32t-6.5 36.5t-4.5 33.5t-4 37.5t-1 35.5q0 207 139.5 330t376.5 123q242 0 377 -129.5t131 -374.5h-260q4 149 -58 223t-183 74q-119 0 -183.5 -70.5t-64.5 -193.5q0 -25 3 -56t6 -52.5t9.5 -60.5t9.5 -56h295l-30 -162
h-248v-2q0 -127 -61.5 -217.5t-200.5 -175.5l2 -7q64 28 105.5 39t92.5 11q73 0 172 -37t152 -37q109 0 217 88l102 -199q-164 -123 -331 -123q-68 0 -130.5 17.5t-103 38t-95.5 38t-110 17.5q-41 0 -85.5 -14.5t-72.5 -29.5t-71 -42l-115 205q126 72 204.5 171.5
t78.5 223.5q0 23 -2 35h-182z" />
    <glyph glyph-name="yen.tab" 
d="M178 563l25 123h338l-265 774h277l88 -299q18 -61 37 -146.5t29 -140.5l10 -55h4q99 186 199 336l204 305h289l-567 -774h344l-25 -123h-364l-31 -157h365l-23 -123h-364l-56 -283h-260l55 283h-364l24 123h363l31 157h-363z" />
    <glyph glyph-name="cent.tab" 
d="M467 -254l43 229q-173 31 -272 154.5t-99 310.5t74.5 340.5t210.5 245t309 96.5l35 178h123l-37 -184q164 -27 253.5 -133.5t98.5 -259.5h-248q-5 75 -40.5 127t-100.5 70l-147 -756q85 12 144.5 71.5t90.5 163.5h252q-49 -209 -186 -320t-340 -114l-41 -219h-123z
M397 430q0 -102 39 -168.5t113 -89.5l145 754q-133 -24 -215 -169t-82 -327z" />
    <glyph glyph-name="florin.tab" 
d="M309 705l33 172h227l74 325q39 166 135 232q125 88 385 47l-28 -191q-118 9 -168 -15t-70 -108l-66 -290h269l-33 -172h-274l-168 -754q-35 -160 -125 -227q-58 -42 -158 -51t-178 8l29 178q79 -6 119.5 17.5t58.5 100.5l161 728h-223z" />
    <glyph glyph-name="currency.tab" 
d="M707 465q101 0 158 73.5t57 192.5q0 120 -57 194t-158 74q-103 0 -162.5 -74.5t-59.5 -193.5t59.5 -192.5t162.5 -73.5zM338 219l-129 127l141 141q-69 107 -69 244q0 135 69 242l-141 143l129 125l139 -143q100 65 230 65t227 -65l141 143l129 -125l-143 -143
q67 -104 67 -242q0 -136 -67 -242l143 -143l-129 -127l-141 143q-94 -61 -227 -61q-134 0 -228 61z" />
    <glyph glyph-name="zero.tab" 
d="M606 -35q-121 0 -214.5 42t-152 117.5t-88.5 177t-30 224.5q0 118 23.5 245t77 256.5t129.5 232t192 167t254 64.5q229 0 355 -150.5t126 -412.5q0 -85 -12 -175.5t-38 -185.5t-63.5 -181.5t-93 -163.5t-122.5 -134t-155 -90t-188 -33zM389 506q0 -52 5.5 -96.5t21 -88.5
t40 -75t65 -50.5t93.5 -19.5q81 0 150 55t113 140t75 191t44.5 204.5t13.5 183.5q0 330 -222 330q-82 0 -151 -55t-113.5 -140.5t-75.5 -191.5t-44.5 -204t-14.5 -183z" />
    <glyph glyph-name="one.tab" 
d="M539 0l188 983h-379l37 176q198 5 319 78.5t177 232.5h206l-284 -1470h-264z" />
    <glyph glyph-name="two.tab" 
d="M14 0q48 266 234 430q31 27 63.5 52t71.5 50.5t67 43t75.5 43.5t68.5 37.5t75 39.5t68 35q71 38 117 68.5t86 71t59 89t19 109.5q0 93 -56.5 152t-156.5 59q-114 0 -189 -66q-87 -75 -122 -258h-261q43 259 185 392q153 143 399 143q223 0 348 -115t125 -293
q0 -55 -10.5 -103.5t-26.5 -86t-45.5 -75t-56 -64t-70 -58t-76.5 -52.5t-85 -52q-47 -30 -134 -77.5t-145.5 -81t-126 -87.5t-108.5 -113v-4h704l-43 -229h-1053z" />
    <glyph glyph-name="three.tab" 
d="M649 -35q-269 0 -428 156q-70 68 -101.5 167t-23.5 204h254q-5 -142 69 -230t234 -88q130 0 206.5 71.5t76.5 196.5q0 101 -67 167.5t-183 66.5h-96l35 188h80q301 0 301 226q0 92 -55 148t-158 56q-128 0 -208 -77.5t-98 -210.5h-258q31 226 184 355.5t392 129.5
q203 0 334 -101.5t131 -279.5q0 -130 -78.5 -219t-214.5 -127v-4q105 -34 168 -123.5t63 -202.5q0 -112 -43.5 -202t-120 -148t-177.5 -88.5t-218 -30.5z" />
    <glyph glyph-name="four.tab" 
d="M672 0l65 342h-669l47 236l858 897h244l-185 -934h201l-37 -199h-203l-65 -342h-256zM303 532q127 9 207 9h264l84 432q9 39 21.5 89.5t23 85t12.5 34.5h-4q-85 -117 -153 -187l-262 -272q-31 -33 -79.5 -79.5t-80.5 -76.5l-33 -30v-5z" />
    <glyph glyph-name="five.tab" 
d="M625 -35q-122 0 -223.5 35.5t-168.5 95.5t-105 138.5t-40 166.5h264q10 -95 79 -157t192 -62q135 0 221 94t86 250q0 115 -63 186.5t-173 71.5q-85 1 -155.5 -34t-116.5 -93h-246l266 801h828l-41 -217h-633l-123 -369h4q120 113 305 113q81 0 155.5 -29t133.5 -83
t94 -141t35 -195q0 -170 -74.5 -301t-205 -201t-295.5 -70z" />
    <glyph glyph-name="six.tab" 
d="M645 168q138 0 224.5 102t86.5 252q0 118 -68 190t-181 72q-145 0 -235.5 -95t-90.5 -243q0 -127 71 -202.5t193 -75.5zM647 -35q-242 0 -381 158q-129 144 -129 416q0 233 80 454.5t221 345.5q169 152 393 152q106 0 191 -30.5t138.5 -83t84 -118.5t35.5 -141h-252
q-8 76 -58.5 127t-148.5 51q-144 0 -244.5 -126t-156.5 -357h4q141 164 352 164q187 0 309.5 -126.5t122.5 -320.5q0 -154 -71.5 -283.5t-201 -205.5t-288.5 -76z" />
    <glyph glyph-name="seven.tab" 
d="M549 0h-289q75 373 298 710t493 529v4q-141 -10 -297 -10h-463l45 225h1016l-41 -205q-127 -101 -244.5 -231.5t-223 -288.5t-183.5 -348t-111 -385z" />
    <glyph glyph-name="eight.tab" 
d="M641 166q146 0 226.5 79.5t80.5 205.5q0 109 -78 178t-213 69q-146 0 -228.5 -78.5t-82.5 -207.5q0 -111 79 -178.5t216 -67.5zM766 872q117 0 186.5 62.5t69.5 165.5q0 91 -64 145.5t-174 54.5q-118 0 -190 -62t-72 -163q0 -94 67 -148.5t177 -54.5zM643 -35
q-154 0 -281.5 50.5t-205.5 151t-78 234.5q0 164 100 268t262 142v6q-79 42 -124.5 114t-45.5 161q0 174 145.5 286.5t372.5 112.5q217 0 351.5 -103t134.5 -272q0 -128 -72 -218t-209 -126v-6q103 -41 162 -131t59 -201q0 -147 -76 -254.5t-204 -161t-291 -53.5z" />
    <glyph glyph-name="nine.tab" 
d="M686 674q146 0 239 96.5t93 247.5q0 124 -73 198t-191 74q-140 0 -230 -98t-90 -246q0 -124 67.5 -198t184.5 -74zM569 -35q-111 0 -200.5 31.5t-148.5 86t-93 126t-39 153.5h254q10 -86 64 -142t165 -56q113 0 205 80q128 110 195 391l-4 2q-142 -158 -342 -158
q-192 0 -317.5 130.5t-125.5 322.5q0 115 42.5 217.5t118 178t184.5 119.5t235 44q215 0 354 -129q75 -71 112.5 -172t37.5 -248q0 -162 -37 -325t-114.5 -308.5t-182.5 -226.5q-156 -117 -363 -117z" />
    <glyph glyph-name="percent.tab" horiz-adv-x="1828" 
d="M352 0l1032 1458h170l-1032 -1458h-170zM461 651q-147 0 -236.5 95t-89.5 251q0 211 115 352.5t289 141.5q149 0 235 -94.5t86 -251.5q0 -213 -114.5 -353.5t-284.5 -140.5zM465 801q89 0 144 111.5t55 258.5q0 81 -33 128t-96 47q-61 0 -108 -53.5t-70 -135.5t-23 -176
q0 -83 32.5 -131.5t98.5 -48.5zM1370 -35q-148 0 -237 94.5t-89 251.5q0 211 115 352.5t289 141.5q149 0 235 -94.5t86 -251.5q0 -212 -115 -353t-284 -141zM1374 115q89 0 144 111.5t55 256.5q0 83 -33.5 129.5t-95.5 46.5q-61 0 -108 -53.5t-70 -135.5t-23 -175
q0 -180 131 -180z" />
    <glyph glyph-name="perthousand.tab" horiz-adv-x="2437" 
d="M430 664q-143 0 -226 91.5t-83 243.5q0 214 113.5 353t277.5 139q144 0 224.5 -90t80.5 -248q0 -213 -112 -351t-275 -138zM436 813q84 0 136.5 108.5t52.5 256.5q0 80 -29.5 125t-87.5 45q-57 0 -102.5 -53.5t-69 -136.5t-23.5 -175q0 -170 123 -170zM266 0l1032 1458
h168l-1030 -1458h-170zM1221 -35q-142 0 -226 92t-84 244q0 213 114 352.5t278 139.5q144 0 225.5 -90.5t81.5 -247.5q0 -214 -112.5 -352t-276.5 -138zM1227 113q84 0 137 109t53 257q0 80 -30 125t-89 45q-56 0 -101 -54t-68 -136.5t-23 -173.5q0 -79 29.5 -125.5
t91.5 -46.5zM1991 -35q-143 0 -226.5 92t-83.5 244q0 213 114 352.5t278 139.5q144 0 224.5 -90t80.5 -248q0 -213 -112.5 -351.5t-274.5 -138.5zM1997 113q84 0 136 109t52 257q0 80 -29.5 125t-87.5 45q-85 0 -139.5 -110.5t-54.5 -253.5q0 -79 30 -125.5t93 -46.5z" />
    <glyph glyph-name="minus.tab" 
d="M180 598l41 201h985l-39 -201h-987z" />
    <glyph glyph-name="multiply.tab" 
d="M291 215l-123 141l387 342l-281 338l156 135l281 -337l383 337l125 -141l-388 -340l281 -338l-156 -135l-280 336z" />
    <glyph glyph-name="divide.tab" 
d="M606 967l51 266h281l-51 -266h-281zM190 596l39 205h969l-41 -205h-967zM451 164l51 264h280l-53 -264h-278z" />
    <glyph glyph-name="plusminus.tab" 
d="M203 702l39 203h387l67 348h215l-69 -348h385l-41 -203h-383l-70 -352h-213l68 352h-385zM68 0l38 199h984l-39 -199h-983z" />
    <glyph glyph-name="notequal.tab" 
d="M225 772l41 197h547l162 233h180l-162 -233h242l-41 -197h-336l-151 -217h448l-39 -197h-545l-161 -233h-181l162 233h-244l39 197h340l152 217h-453z" />
    <glyph glyph-name="approxequal.tab" 
d="M961 731q-87 0 -255 39t-217 39q-79 0 -100 -92h-178q21 150 98.5 226.5t192.5 76.5q90 0 254 -40t207 -40q87 0 102 88h180q-19 -144 -89.5 -220.5t-194.5 -76.5zM887 317q-87 0 -254.5 39t-216.5 39q-83 0 -101 -92h-178q21 151 98 227t191 76q90 0 255 -40t208 -40
q46 0 69 22t31 66h180q-19 -144 -89.5 -220.5t-192.5 -76.5z" />
    <glyph glyph-name="lessequal.tab" 
d="M109 0l36 201h897l-38 -201h-895zM1057 274l-834 332l51 258l957 301l-45 -229l-471 -137l-295 -74v-4q162 -45 268 -82l412 -145z" />
    <glyph glyph-name="greaterequal.tab" 
d="M1053 201l-39 -201h-897l39 201h897zM342 1165l834 -331l-52 -259l-956 -301l45 230l471 137l295 74v4q-162 45 -268 82l-412 145z" />
    <glyph glyph-name="less.tab" 
d="M1235 1151l-45 -240l-488 -159l-301 -93v-4q154 -51 265 -94l424 -162l-46 -229l-847 371l47 245z" />
    <glyph glyph-name="equal.tab" 
d="M225 770l39 199h969l-39 -199h-969zM147 358l37 199h971l-41 -199h-967z" />
    <glyph glyph-name="greater.tab" 
d="M137 168l43 240l488 159l303 92v5q-153 53 -264 94l-426 164l47 229l846 -373l-48 -246z" />
    <glyph glyph-name="space.tab" horiz-adv-x="659" 
 />
    <glyph glyph-name="comma.tab" horiz-adv-x="659" 
d="M23 -346l22 121q66 10 108 55t60 143l4 27h-129l55 285h283l-64 -318q-31 -161 -113.5 -232.5t-225.5 -80.5z" />
    <glyph glyph-name="period.tab" horiz-adv-x="659" 
d="M88 0l55 285h283l-57 -285h-281z" />
    <glyph glyph-name="colon.tab" horiz-adv-x="659" 
d="M215 653l55 283h281l-55 -283h-281zM88 0l55 285h283l-57 -285h-281z" />
    <glyph glyph-name="semicolon.tab" horiz-adv-x="659" 
d="M215 653l55 283h281l-55 -283h-281zM23 -346l22 121q66 10 108 55t60 143l4 27h-129l55 285h283l-64 -318q-31 -161 -113.5 -232.5t-225.5 -80.5z" />
    </font>
</defs>
</svg>
